%FSLAX44Y44*%
%MOMM*%
G71*
G01*
G75*
G04 Layer_Physical_Order=2*
G04 Layer_Color=16711680*
%ADD10C,1.5000*%
%ADD11C,0.6000*%
G04:AMPARAMS|DCode=12|XSize=0.8mm|YSize=4mm|CornerRadius=0mm|HoleSize=0mm|Usage=FLASHONLY|Rotation=45.000|XOffset=0mm|YOffset=0mm|HoleType=Round|Shape=Rectangle|*
%AMROTATEDRECTD12*
4,1,4,1.1314,-1.6971,-1.6971,1.1314,-1.1314,1.6971,1.6971,-1.1314,1.1314,-1.6971,0.0*
%
%ADD12ROTATEDRECTD12*%

G04:AMPARAMS|DCode=13|XSize=0.8mm|YSize=4mm|CornerRadius=0mm|HoleSize=0mm|Usage=FLASHONLY|Rotation=45.000|XOffset=0mm|YOffset=0mm|HoleType=Round|Shape=Round|*
%AMOVALD13*
21,1,3.2000,0.8000,0.0000,0.0000,135.0*
1,1,0.8000,1.1314,-1.1314*
1,1,0.8000,-1.1314,1.1314*
%
%ADD13OVALD13*%

G04:AMPARAMS|DCode=14|XSize=0.8mm|YSize=3mm|CornerRadius=0mm|HoleSize=0mm|Usage=FLASHONLY|Rotation=45.000|XOffset=0mm|YOffset=0mm|HoleType=Round|Shape=Round|*
%AMOVALD14*
21,1,2.2000,0.8000,0.0000,0.0000,135.0*
1,1,0.8000,0.7778,-0.7778*
1,1,0.8000,-0.7778,0.7778*
%
%ADD14OVALD14*%

%ADD15C,0.1500*%
%ADD16C,0.2000*%
D10*
X935653Y1064347D02*
D03*
X1064347D02*
D03*
X935653Y935653D02*
D03*
X1064350Y935650D02*
D03*
D11*
X1162500Y945000D02*
D03*
X1055000Y835000D02*
D03*
X872500Y957500D02*
D03*
X1045000Y967500D02*
D03*
X1037500Y1127500D02*
D03*
D12*
X1116290Y845040D02*
D03*
D13*
X1125270Y854020D02*
D03*
X1143230Y871980D02*
D03*
X1152210Y880960D02*
D03*
X1161191Y889941D02*
D03*
D14*
X1134250Y863000D02*
D03*
D15*
X1161191Y889941D02*
Y943691D01*
X1162500Y945000D01*
X1065040Y845040D02*
X1116290D01*
X1055000Y835000D02*
X1065040Y845040D01*
X1037500Y1057500D02*
Y1127500D01*
Y1057500D02*
X1065000Y1030000D01*
X1095000Y920211D02*
X1143230Y871980D01*
X1152210Y880960D02*
Y882790D01*
X1065000Y970000D02*
Y1030000D01*
Y970000D02*
X1152210Y882790D01*
X1045000Y967500D02*
X1050000D01*
X1095000Y920211D02*
Y922500D01*
X1050000Y967500D02*
X1095000Y922500D01*
X972500Y940000D02*
X975000Y937500D01*
X1041789D01*
X1125270Y854020D01*
X872500Y957500D02*
X950000D01*
X967500Y940000D02*
X972500D01*
X950000Y957500D02*
X967500Y940000D01*
D16*
X1064350Y935650D02*
X1134250Y865750D01*
Y863000D02*
Y865750D01*
M02*
