%FSLAX44Y44*%
%MOMM*%
G71*
G01*
G75*
G04 Layer_Color=16711935*
%ADD10C,0.5000*%
%ADD11C,1.4000*%
%ADD12C,1.0000*%
%ADD13R,1.0000X1.0000*%
%ADD14C,0.6000*%
%ADD15C,0.1500*%
%ADD16C,1.6032*%
%ADD17C,1.2032*%
%ADD18R,1.2032X1.2032*%
D15*
X1015100Y917500D02*
X1016747Y917315D01*
X1018311Y916767D01*
X1019714Y915886D01*
X1020886Y914714D01*
X1021767Y913311D01*
X1022315Y911747D01*
X1022500Y910100D01*
Y909900D02*
Y910100D01*
X1022315Y908253D02*
X1022500Y909900D01*
X1022315Y908253D02*
X1022315Y908253D01*
X1022315Y908253D02*
Y908253D01*
X1022158Y907807D02*
X1022315Y908253D01*
X1021767Y906689D02*
X1022158Y907807D01*
X1020886Y905286D02*
X1021767Y906689D01*
X1020593Y904993D02*
X1020886Y905286D01*
X1019714Y904114D02*
X1020593Y904993D01*
X1018531Y903371D02*
X1019714Y904114D01*
X1018311Y903233D02*
X1018531Y903371D01*
X1018174Y903185D02*
X1018311Y903233D01*
X1016747Y902685D02*
X1018174Y903185D01*
X1015146Y902505D02*
X1016747Y902685D01*
X1015100Y902500D02*
X1015146Y902505D01*
X1015100Y902500D02*
X1015100D01*
X1015024D02*
X1015100D01*
X1015024Y902500D02*
X1015024Y902500D01*
X984824Y902500D02*
X1015024D01*
X983178Y902686D02*
X984824Y902500D01*
X981614Y903233D02*
X983178Y902686D01*
X980210Y904115D02*
X981614Y903233D01*
X979039Y905286D02*
X980210Y904115D01*
X978157Y906689D02*
X979039Y905286D01*
X977610Y908253D02*
X978157Y906689D01*
X977424Y909900D02*
X977610Y908253D01*
X977424Y909900D02*
Y910100D01*
X977610Y911747D01*
X978157Y913311D01*
X979039Y914714D01*
X980210Y915886D01*
X981614Y916767D01*
X983178Y917315D01*
X984824Y917500D01*
X984900D01*
X984900Y917500D01*
X984900D01*
X1015100D01*
X1089926Y1022500D02*
X1091572Y1022315D01*
X1093136Y1021767D01*
X1094539Y1020886D01*
X1095711Y1019714D01*
X1096593Y1018311D01*
X1097140Y1016747D01*
X1097326Y1015100D01*
Y984900D02*
Y1015100D01*
X1097140Y983253D02*
X1097326Y984900D01*
X1096593Y981689D02*
X1097140Y983253D01*
X1095711Y980286D02*
X1096593Y981689D01*
X1094539Y979115D02*
X1095711Y980286D01*
X1093136Y978233D02*
X1094539Y979115D01*
X1091572Y977686D02*
X1093136Y978233D01*
X1089926Y977500D02*
X1091572Y977686D01*
X1089850Y977500D02*
X1089926D01*
X1089850Y977500D02*
X1089850Y977500D01*
X1089650Y977500D02*
X1089850D01*
X1088003Y977685D02*
X1089650Y977500D01*
X1086439Y978233D02*
X1088003Y977685D01*
X1085036Y979114D02*
X1086439Y978233D01*
X1083864Y980286D02*
X1085036Y979114D01*
X1082983Y981689D02*
X1083864Y980286D01*
X1082436Y983253D02*
X1082983Y981689D01*
X1082250Y984900D02*
X1082436Y983253D01*
X1082250Y984900D02*
Y1015100D01*
X1082436Y1016747D01*
X1082983Y1018311D01*
X1083864Y1019714D01*
X1085036Y1020886D01*
X1086439Y1021767D01*
X1088003Y1022315D01*
X1089650Y1022500D01*
X1089725D01*
X1089726Y1022500D01*
X1089926D01*
X910274D02*
X911921Y1022314D01*
X913485Y1021767D01*
X914888Y1020885D01*
X916060Y1019714D01*
X916942Y1018311D01*
X917489Y1016747D01*
X917674Y1015100D01*
Y984900D02*
Y1015100D01*
X917489Y983253D02*
X917674Y984900D01*
X916942Y981689D02*
X917489Y983253D01*
X916060Y980286D02*
X916942Y981689D01*
X914888Y979114D02*
X916060Y980286D01*
X913485Y978233D02*
X914888Y979114D01*
X911921Y977685D02*
X913485Y978233D01*
X910274Y977500D02*
X911921Y977685D01*
X910199Y977500D02*
X910274D01*
X910199Y977500D02*
X910199Y977500D01*
X909999Y977500D02*
X910199D01*
X909924Y977508D02*
X909999Y977500D01*
X909850D02*
X909924Y977508D01*
X909650Y977500D02*
X909850D01*
X908003Y977685D02*
X909650Y977500D01*
X906439Y978233D02*
X908003Y977685D01*
X905036Y979114D02*
X906439Y978233D01*
X903864Y980286D02*
X905036Y979114D01*
X902983Y981689D02*
X903864Y980286D01*
X902436Y983253D02*
X902983Y981689D01*
X902250Y984900D02*
X902436Y983253D01*
X902250Y984900D02*
Y1015100D01*
X902436Y1016747D01*
X902983Y1018311D01*
X903864Y1019714D01*
X905036Y1020886D01*
X906439Y1021767D01*
X908003Y1022315D01*
X909650Y1022500D01*
X909850D01*
X909924Y1022492D01*
X909999Y1022500D01*
X910074D01*
X910074Y1022500D01*
X910274D01*
X1015100Y1097500D02*
X1016747Y1097315D01*
X1018311Y1096767D01*
X1019714Y1095886D01*
X1020739Y1094860D01*
X1020886Y1094714D01*
X1021270Y1094102D01*
X1021767Y1093311D01*
X1021939Y1092818D01*
X1022315Y1091747D01*
X1022449Y1090553D01*
X1022500Y1090100D01*
Y1089900D02*
Y1090100D01*
X1022464Y1089581D02*
X1022500Y1089900D01*
X1022315Y1088253D02*
X1022464Y1089581D01*
X1021808Y1086807D02*
X1022315Y1088253D01*
X1021767Y1086689D02*
X1021808Y1086807D01*
X1021767Y1086689D02*
X1021767Y1086689D01*
X1021767Y1086689D02*
Y1086689D01*
X1020886Y1085286D02*
X1021767Y1086689D01*
X1019714Y1084114D02*
X1020886Y1085286D01*
X1018311Y1083233D02*
X1019714Y1084114D01*
X1016747Y1082685D02*
X1018311Y1083233D01*
X1015100Y1082500D02*
X1016747Y1082685D01*
X984900Y1082500D02*
X1015100D01*
X984900Y1082500D02*
X984900Y1082500D01*
X984824Y1082500D02*
X984900D01*
X983178Y1082685D02*
X984824Y1082500D01*
X981614Y1083233D02*
X983178Y1082685D01*
X980210Y1084114D02*
X981614Y1083233D01*
X979039Y1085286D02*
X980210Y1084114D01*
X978157Y1086689D02*
X979039Y1085286D01*
X977610Y1088253D02*
X978157Y1086689D01*
X977424Y1089900D02*
X977610Y1088253D01*
X977424Y1089900D02*
Y1090100D01*
X977610Y1091747D01*
X978157Y1093311D01*
X979039Y1094714D01*
X980210Y1095885D01*
X981614Y1096767D01*
X983178Y1097314D01*
X984824Y1097500D01*
X984900D01*
X984900Y1097500D01*
X1015100D01*
X1040000Y1220000D02*
X1045853Y1219424D01*
X960000Y1220000D02*
X1040000D01*
X954147Y1219424D02*
X960000Y1220000D01*
X948520Y1217716D02*
X954147Y1219424D01*
X943333Y1214944D02*
X948520Y1217716D01*
X938787Y1211213D02*
X943333Y1214944D01*
X935056Y1206667D02*
X938787Y1211213D01*
X932284Y1201481D02*
X935056Y1206667D01*
X930576Y1195853D02*
X932284Y1201481D01*
X930000Y1190000D02*
X930576Y1195853D01*
X930000Y1090000D02*
Y1190000D01*
X929499Y1085550D02*
X930000Y1090000D01*
X928019Y1081322D02*
X929499Y1085550D01*
X925637Y1077530D02*
X928019Y1081322D01*
X922470Y1074363D02*
X925637Y1077530D01*
X918678Y1071981D02*
X922470Y1074363D01*
X914450Y1070501D02*
X918678Y1071981D01*
X910000Y1070000D02*
X914450Y1070501D01*
X810000Y1070000D02*
X910000D01*
X804147Y1069424D02*
X810000Y1070000D01*
X798520Y1067716D02*
X804147Y1069424D01*
X793333Y1064944D02*
X798520Y1067716D01*
X788787Y1061213D02*
X793333Y1064944D01*
X785056Y1056667D02*
X788787Y1061213D01*
X782284Y1051480D02*
X785056Y1056667D01*
X780576Y1045853D02*
X782284Y1051480D01*
X780000Y1040000D02*
X780576Y1045853D01*
X780000Y1040000D02*
X780000Y960000D01*
X780576Y954147D01*
X782284Y948520D01*
X785056Y943333D01*
X788787Y938787D01*
X793333Y935056D01*
X798520Y932284D01*
X804147Y930576D01*
X810000Y930000D01*
X910000D01*
X914451Y929499D01*
X918678Y928019D01*
X922470Y925637D01*
X925637Y922470D01*
X928019Y918678D01*
X929499Y914450D01*
X930000Y910000D01*
Y810000D02*
Y910000D01*
Y810000D02*
X930576Y804147D01*
X932284Y798520D01*
X935056Y793333D01*
X938787Y788787D01*
X943333Y785056D01*
X948520Y782284D01*
X954147Y780576D01*
X960000Y780000D01*
X1040000Y780000D01*
X1045853Y780576D01*
X1051480Y782284D01*
X1056667Y785056D01*
X1061213Y788787D01*
X1064944Y793333D01*
X1067716Y798520D01*
X1069424Y804147D01*
X1070000Y810000D01*
Y910000D01*
X1070501Y914451D01*
X1071981Y918678D01*
X1074363Y922470D01*
X1077530Y925637D01*
X1081322Y928019D01*
X1085550Y929499D01*
X1090000Y930000D01*
X1190000D01*
X1195853Y930576D01*
X1201481Y932284D01*
X1206667Y935056D01*
X1211213Y938787D01*
X1214944Y943333D01*
X1217716Y948520D01*
X1219424Y954147D01*
X1220000Y960000D01*
Y1040000D01*
X1219424Y1045853D02*
X1220000Y1040000D01*
X1217716Y1051480D02*
X1219424Y1045853D01*
X1214944Y1056667D02*
X1217716Y1051480D01*
X1211213Y1061213D02*
X1214944Y1056667D01*
X1206667Y1064944D02*
X1211213Y1061213D01*
X1201481Y1067716D02*
X1206667Y1064944D01*
X1195853Y1069424D02*
X1201481Y1067716D01*
X1190000Y1070000D02*
X1195853Y1069424D01*
X1090000Y1070000D02*
X1190000D01*
X1085550Y1070501D02*
X1090000Y1070000D01*
X1081322Y1071981D02*
X1085550Y1070501D01*
X1077530Y1074363D02*
X1081322Y1071981D01*
X1074363Y1077530D02*
X1077530Y1074363D01*
X1071981Y1081322D02*
X1074363Y1077530D01*
X1070501Y1085550D02*
X1071981Y1081322D01*
X1070000Y1090000D02*
X1070501Y1085550D01*
X1070000Y1090000D02*
Y1190000D01*
X1069424Y1195853D02*
X1070000Y1190000D01*
X1067716Y1201481D02*
X1069424Y1195853D01*
X1064944Y1206667D02*
X1067716Y1201481D01*
X1061213Y1211213D02*
X1064944Y1206667D01*
X1056667Y1214944D02*
X1061213Y1211213D01*
X1051480Y1217716D02*
X1056667Y1214944D01*
X1045853Y1219424D02*
X1051480Y1217716D01*
M02*
