%FSLAX44Y44*%
%MOMM*%
G71*
G01*
G75*
G04 Layer_Color=16711935*
%ADD10R,0.9000X0.7000*%
%ADD11R,0.6000X1.3000*%
%ADD12R,0.7000X0.9000*%
%ADD13R,1.3000X1.4000*%
%ADD14R,1.4000X1.9000*%
%ADD15R,0.8000X1.5000*%
%ADD16R,2.8000X2.8000*%
%ADD17O,0.2500X0.8000*%
%ADD18O,0.8000X0.2500*%
%ADD19R,0.3000X0.5200*%
%ADD20R,0.4000X1.3500*%
%ADD21R,1.5000X2.0000*%
%ADD22R,1.0000X1.0000*%
%ADD23O,2.2000X0.6000*%
%ADD24R,1.3000X0.6000*%
%ADD25R,1.0000X1.0000*%
%ADD26R,1.8500X1.0000*%
%ADD27R,1.8000X1.0000*%
%ADD28R,1.0500X0.6000*%
%ADD29R,0.5000X0.5000*%
%ADD30O,1.7000X0.3500*%
%ADD31P,1.4142X4X270.0*%
%ADD32O,1.5000X4.0000*%
%ADD33P,1.4142X4X360.0*%
%ADD34O,0.5000X0.2800*%
%ADD35O,0.2800X0.8500*%
%ADD36R,0.6000X0.6000*%
G04:AMPARAMS|DCode=37|XSize=1.5mm|YSize=4mm|CornerRadius=0mm|HoleSize=0mm|Usage=FLASHONLY|Rotation=220.000|XOffset=0mm|YOffset=0mm|HoleType=Round|Shape=Round|*
%AMOVALD37*
21,1,2.5000,1.5000,0.0000,0.0000,310.0*
1,1,1.5000,-0.8035,0.9576*
1,1,1.5000,0.8035,-0.9576*
%
%ADD37OVALD37*%

G04:AMPARAMS|DCode=38|XSize=1.5mm|YSize=4mm|CornerRadius=0mm|HoleSize=0mm|Usage=FLASHONLY|Rotation=200.000|XOffset=0mm|YOffset=0mm|HoleType=Round|Shape=Round|*
%AMOVALD38*
21,1,2.5000,1.5000,0.0000,0.0000,290.0*
1,1,1.5000,-0.4275,1.1746*
1,1,1.5000,0.4275,-1.1746*
%
%ADD38OVALD38*%

G04:AMPARAMS|DCode=39|XSize=1.5mm|YSize=4mm|CornerRadius=0mm|HoleSize=0mm|Usage=FLASHONLY|Rotation=160.000|XOffset=0mm|YOffset=0mm|HoleType=Round|Shape=Round|*
%AMOVALD39*
21,1,2.5000,1.5000,0.0000,0.0000,250.0*
1,1,1.5000,0.4275,1.1746*
1,1,1.5000,-0.4275,-1.1746*
%
%ADD39OVALD39*%

G04:AMPARAMS|DCode=40|XSize=1.5mm|YSize=4mm|CornerRadius=0mm|HoleSize=0mm|Usage=FLASHONLY|Rotation=140.000|XOffset=0mm|YOffset=0mm|HoleType=Round|Shape=Round|*
%AMOVALD40*
21,1,2.5000,1.5000,0.0000,0.0000,230.0*
1,1,1.5000,0.8035,0.9576*
1,1,1.5000,-0.8035,-0.9576*
%
%ADD40OVALD40*%

%ADD41O,0.3000X1.8000*%
%ADD42O,1.8000X0.3000*%
%ADD43C,0.3000*%
%ADD44C,0.5000*%
%ADD45C,0.8000*%
%ADD46C,0.2000*%
%ADD47C,1.0000*%
%ADD48C,0.4000*%
%ADD49R,0.5000X0.2500*%
%ADD50C,2.0000*%
%ADD51C,2.2000*%
%ADD52R,1.5000X1.5000*%
%ADD53C,1.5000*%
%ADD54C,1.7000*%
%ADD55C,1.0000*%
%ADD56C,1.2000*%
%ADD57C,2.4000*%
%ADD58C,8.0000*%
%ADD59C,1.2700*%
%ADD60R,1.2700X1.2700*%
%ADD61C,1.1000*%
%ADD62C,1.6000*%
%ADD63C,0.7000*%
%ADD64C,0.6000*%
%ADD65C,0.6600*%
%ADD66P,1.4142X4X250.0*%
%ADD67R,0.4000X0.5100*%
%ADD68O,0.3500X1.7000*%
%ADD69P,1.4142X4X200.0*%
%ADD70R,1.0000X0.9000*%
%ADD71R,2.0000X5.5000*%
%ADD72O,1.2700X2.2098*%
%ADD73R,1.2700X2.2098*%
%ADD74R,1.1032X0.9032*%
%ADD75R,0.8032X1.5032*%
%ADD76R,0.9032X1.1032*%
%ADD77R,1.5032X1.6032*%
%ADD78R,1.6032X2.1032*%
%ADD79R,1.0032X1.7032*%
%ADD80R,3.0032X3.0032*%
%ADD81O,0.4532X1.0032*%
%ADD82O,1.0032X0.4532*%
%ADD83R,0.5032X0.7232*%
%ADD84R,0.6032X1.5532*%
%ADD85R,1.7032X2.2032*%
%ADD86R,1.2032X1.2032*%
%ADD87O,2.4032X0.8032*%
%ADD88R,1.5032X0.8032*%
%ADD89R,1.2032X1.2032*%
%ADD90R,2.0532X1.2032*%
%ADD91R,2.0032X1.2032*%
%ADD92R,1.2532X0.8032*%
%ADD93O,1.9032X0.5532*%
%ADD94P,1.7016X4X270.0*%
%ADD95O,1.7032X4.2032*%
%ADD96P,1.7016X4X360.0*%
%ADD97O,0.7032X0.4832*%
%ADD98O,0.4832X1.0532*%
%ADD99R,0.8032X0.8032*%
G04:AMPARAMS|DCode=100|XSize=1.7032mm|YSize=4.2032mm|CornerRadius=0mm|HoleSize=0mm|Usage=FLASHONLY|Rotation=220.000|XOffset=0mm|YOffset=0mm|HoleType=Round|Shape=Round|*
%AMOVALD100*
21,1,2.5000,1.7032,0.0000,0.0000,310.0*
1,1,1.7032,-0.8035,0.9576*
1,1,1.7032,0.8035,-0.9576*
%
%ADD100OVALD100*%

G04:AMPARAMS|DCode=101|XSize=1.7032mm|YSize=4.2032mm|CornerRadius=0mm|HoleSize=0mm|Usage=FLASHONLY|Rotation=200.000|XOffset=0mm|YOffset=0mm|HoleType=Round|Shape=Round|*
%AMOVALD101*
21,1,2.5000,1.7032,0.0000,0.0000,290.0*
1,1,1.7032,-0.4275,1.1746*
1,1,1.7032,0.4275,-1.1746*
%
%ADD101OVALD101*%

G04:AMPARAMS|DCode=102|XSize=1.7032mm|YSize=4.2032mm|CornerRadius=0mm|HoleSize=0mm|Usage=FLASHONLY|Rotation=160.000|XOffset=0mm|YOffset=0mm|HoleType=Round|Shape=Round|*
%AMOVALD102*
21,1,2.5000,1.7032,0.0000,0.0000,250.0*
1,1,1.7032,0.4275,1.1746*
1,1,1.7032,-0.4275,-1.1746*
%
%ADD102OVALD102*%

G04:AMPARAMS|DCode=103|XSize=1.7032mm|YSize=4.2032mm|CornerRadius=0mm|HoleSize=0mm|Usage=FLASHONLY|Rotation=140.000|XOffset=0mm|YOffset=0mm|HoleType=Round|Shape=Round|*
%AMOVALD103*
21,1,2.5000,1.7032,0.0000,0.0000,230.0*
1,1,1.7032,0.8035,0.9576*
1,1,1.7032,-0.8035,-0.9576*
%
%ADD103OVALD103*%

%ADD104O,0.5032X2.0032*%
%ADD105O,2.0032X0.5032*%
%ADD106C,2.2032*%
%ADD107C,2.4032*%
%ADD108R,1.7032X1.7032*%
%ADD109C,1.7032*%
%ADD110C,1.9032*%
%ADD111C,1.2032*%
%ADD112C,1.4032*%
%ADD113C,2.6032*%
%ADD114C,8.2032*%
%ADD115C,1.6000*%
%ADD116C,1.4732*%
%ADD117R,1.4732X1.4732*%
%ADD118C,1.3032*%
%ADD119C,1.8032*%
%ADD120P,1.7016X4X250.0*%
%ADD121R,0.6032X0.7132*%
%ADD122O,0.5532X1.9032*%
%ADD123P,1.7016X4X200.0*%
%ADD124R,1.2032X1.1032*%
%ADD125R,2.2032X5.7032*%
%ADD126O,1.4732X2.4130*%
%ADD127R,1.4732X2.4130*%
%ADD128C,0.1000*%
D128*
X1075000Y450000D02*
G03*
X1075000Y450000I-75000J0D01*
G01*
X1217500Y170000D02*
X1263000Y170003D01*
X737000D02*
X782500Y170000D01*
X1202500Y192500D02*
X1217500D01*
X1202500Y170000D02*
Y192500D01*
X1217500Y170000D02*
Y192500D01*
X782500D02*
X797500D01*
X782500Y170000D02*
Y192500D01*
X1043500Y1191003D02*
Y1227475D01*
X956500Y1191003D02*
X1043500D01*
X956500D02*
Y1227475D01*
X928046Y1225248D02*
X956500Y1227475D01*
X899698Y1221925D02*
X928046Y1225248D01*
X871500Y1217512D02*
X899698Y1221925D01*
X843493Y1212015D02*
X871500Y1217512D01*
X815719Y1205442D02*
X843493Y1212015D01*
X788219Y1197802D02*
X815719Y1205442D01*
X788219Y1197802D02*
X800694Y1163530D01*
X718940Y1133774D02*
X800694Y1163530D01*
X706466Y1168047D02*
X718940Y1133774D01*
X680490Y1156222D02*
X706466Y1168047D01*
X654988Y1143405D02*
X680490Y1156222D01*
X630000Y1129613D02*
X654988Y1143405D01*
X605562Y1114869D02*
X630000Y1129613D01*
X581711Y1099193D02*
X605562Y1114869D01*
X558483Y1082608D02*
X581711Y1099193D01*
X558483Y1082608D02*
X581926Y1054669D01*
X515280Y998747D02*
X581926Y1054669D01*
X491837Y1026686D02*
X515280Y998747D01*
X465000Y1000003D02*
X491837Y1026686D01*
X650000Y669320D02*
X650000Y214003D01*
X737000Y214003D01*
Y170003D02*
Y214003D01*
X1263000Y170003D02*
Y214003D01*
X1350000Y214003D01*
Y669320D01*
X1535000D01*
Y1000003D01*
X1508163Y1026686D02*
X1535000Y1000003D01*
X1484720Y998747D02*
X1508163Y1026686D01*
X1418074Y1054669D02*
X1484720Y998747D01*
X1418074Y1054669D02*
X1441517Y1082608D01*
X1418289Y1099193D02*
X1441517Y1082608D01*
X1394438Y1114869D02*
X1418289Y1099193D01*
X1370000Y1129613D02*
X1394438Y1114869D01*
X1345012Y1143405D02*
X1370000Y1129613D01*
X1319511Y1156222D02*
X1345012Y1143405D01*
X1293534Y1168047D02*
X1319511Y1156222D01*
X1281060Y1133774D02*
X1293534Y1168047D01*
X1199306Y1163530D02*
X1281060Y1133774D01*
X1199306Y1163530D02*
X1211781Y1197802D01*
X1184281Y1205442D02*
X1211781Y1197802D01*
X1156507Y1212015D02*
X1184281Y1205442D01*
X1128500Y1217512D02*
X1156507Y1212015D01*
X1100302Y1221925D02*
X1128500Y1217512D01*
X1071954Y1225248D02*
X1100302Y1221925D01*
X1043500Y1227475D02*
X1071954Y1225248D01*
X465000Y700000D02*
X485000Y700000D01*
Y710000D01*
X465000D02*
X485000D01*
X465000D02*
X465000Y1000003D01*
X500000Y669320D02*
Y690000D01*
X490000Y669320D02*
Y690000D01*
X500000D01*
X465000Y669320D02*
Y700000D01*
Y669320D02*
X490000D01*
X500000D02*
X650000D01*
X940000Y170000D02*
X950000Y160000D01*
X985000D01*
X995000Y170000D01*
X797500D02*
Y192500D01*
Y170000D02*
X940000D01*
X995000D02*
X1202500D01*
M02*
