G04 Layer_Color=16711935*
%FSLAX44Y44*%
%MOMM*%
G71*
G01*
G75*
%ADD21C,0.1000*%
D21*
X1222514Y1000000D02*
G03*
X1222514Y1000000I-222514J0D01*
G01*
X983000Y1099010D02*
X1017000D01*
X981128Y1098813D02*
X983000Y1099010D01*
X979337Y1098231D02*
X981128Y1098813D01*
X977707Y1097290D02*
X979337Y1098231D01*
X976308Y1096030D02*
X977707Y1097290D01*
X975201Y1094507D02*
X976308Y1096030D01*
X974436Y1092788D02*
X975201Y1094507D01*
X974044Y1090946D02*
X974436Y1092788D01*
X974044Y1089064D02*
Y1090946D01*
Y1089064D02*
X974436Y1087222D01*
X975201Y1085502D01*
X976308Y1083979D01*
X977707Y1082720D01*
X979337Y1081778D01*
X981128Y1081197D01*
X983000Y1081000D01*
X1017000D01*
X1018872Y1081197D01*
X1020663Y1081778D01*
X1022293Y1082720D01*
X1023692Y1083979D01*
X1024799Y1085502D01*
X1025564Y1087222D01*
X1025956Y1089064D01*
Y1090946D01*
X1025564Y1092788D02*
X1025956Y1090946D01*
X1024799Y1094507D02*
X1025564Y1092788D01*
X1023692Y1096030D02*
X1024799Y1094507D01*
X1022293Y1097290D02*
X1023692Y1096030D01*
X1020663Y1098231D02*
X1022293Y1097290D01*
X1018872Y1098813D02*
X1020663Y1098231D01*
X1017000Y1099010D02*
X1018872Y1098813D01*
X1089059Y1025951D02*
X1090941D01*
X1087219Y1025559D02*
X1089059Y1025951D01*
X1085500Y1024794D02*
X1087219Y1025559D01*
X1083978Y1023688D02*
X1085500Y1024794D01*
X1082719Y1022290D02*
X1083978Y1023688D01*
X1081778Y1020661D02*
X1082719Y1022290D01*
X1081197Y1018871D02*
X1081778Y1020661D01*
X1081000Y1017000D02*
X1081197Y1018871D01*
X1081000Y983000D02*
Y1017000D01*
Y983000D02*
X1081197Y981129D01*
X1081778Y979339D01*
X1082719Y977710D01*
X1083978Y976312D01*
X1085500Y975206D01*
X1087219Y974440D01*
X1089059Y974049D01*
X1090941D01*
X1092781Y974440D01*
X1094500Y975206D01*
X1096022Y976312D01*
X1097281Y977710D01*
X1098222Y979339D01*
X1098803Y981129D01*
X1099000Y983000D01*
X1099000Y1017000D02*
X1099000Y983000D01*
X1098803Y1018871D02*
X1099000Y1017000D01*
X1098222Y1020661D02*
X1098803Y1018871D01*
X1097281Y1022290D02*
X1098222Y1020661D01*
X1096022Y1023688D02*
X1097281Y1022290D01*
X1094500Y1024794D02*
X1096022Y1023688D01*
X1092781Y1025559D02*
X1094500Y1024794D01*
X1090941Y1025951D02*
X1092781Y1025559D01*
X909059Y1025951D02*
X910941D01*
X907219Y1025559D02*
X909059Y1025951D01*
X905500Y1024794D02*
X907219Y1025559D01*
X903978Y1023688D02*
X905500Y1024794D01*
X902719Y1022290D02*
X903978Y1023688D01*
X901778Y1020661D02*
X902719Y1022290D01*
X901197Y1018871D02*
X901778Y1020661D01*
X901000Y1017000D02*
X901197Y1018871D01*
X901000Y1017000D02*
X901000Y983000D01*
X901197Y981129D01*
X901778Y979339D01*
X902719Y977710D01*
X903978Y976312D01*
X905500Y975206D01*
X907219Y974440D01*
X909059Y974049D01*
X910941D01*
X912781Y974440D01*
X914500Y975206D01*
X916022Y976312D01*
X917281Y977710D01*
X918222Y979339D01*
X918803Y981129D01*
X919000Y983000D01*
Y1017000D01*
X918803Y1018871D02*
X919000Y1017000D01*
X918222Y1020661D02*
X918803Y1018871D01*
X917281Y1022290D02*
X918222Y1020661D01*
X916022Y1023688D02*
X917281Y1022290D01*
X914500Y1024794D02*
X916022Y1023688D01*
X912781Y1025559D02*
X914500Y1024794D01*
X910941Y1025951D02*
X912781Y1025559D01*
X983000Y919000D02*
X1017000D01*
X981128Y918803D02*
X983000Y919000D01*
X979337Y918221D02*
X981128Y918803D01*
X977707Y917280D02*
X979337Y918221D01*
X976308Y916020D02*
X977707Y917280D01*
X975201Y914497D02*
X976308Y916020D01*
X974436Y912778D02*
X975201Y914497D01*
X974044Y910936D02*
X974436Y912778D01*
X974044Y909054D02*
Y910936D01*
Y909054D02*
X974436Y907212D01*
X975201Y905492D01*
X976308Y903969D01*
X977707Y902710D01*
X979337Y901768D01*
X981128Y901187D01*
X983000Y900990D01*
X1017000D01*
X1018872Y901187D01*
X1020663Y901768D01*
X1022293Y902710D01*
X1023692Y903969D01*
X1024799Y905492D01*
X1025564Y907212D01*
X1025956Y909054D01*
Y910936D01*
X1025564Y912778D02*
X1025956Y910936D01*
X1024799Y914497D02*
X1025564Y912778D01*
X1023692Y916020D02*
X1024799Y914497D01*
X1022293Y917280D02*
X1023692Y916020D01*
X1020663Y918221D02*
X1022293Y917280D01*
X1018872Y918803D02*
X1020663Y918221D01*
X1017000Y919000D02*
X1018872Y918803D01*
M02*
