%FSLAX44Y44*%
%MOMM*%
G71*
G01*
G75*
G04 Layer_Color=16711935*
%ADD10R,0.5000X0.5000*%
%ADD11R,0.6000X1.3000*%
%ADD12R,0.7000X0.9000*%
%ADD13R,0.9000X0.7000*%
%ADD14R,1.3000X0.6000*%
%ADD15R,0.3000X0.5200*%
%ADD16R,1.0000X1.0000*%
%ADD17R,1.4000X1.9000*%
%ADD18R,0.8000X1.5000*%
%ADD19R,1.3000X1.4000*%
%ADD20O,1.8000X0.3000*%
%ADD21O,0.3000X1.8000*%
%ADD22O,1.5000X4.0000*%
G04:AMPARAMS|DCode=23|XSize=1.5mm|YSize=4mm|CornerRadius=0mm|HoleSize=0mm|Usage=FLASHONLY|Rotation=140.000|XOffset=0mm|YOffset=0mm|HoleType=Round|Shape=Round|*
%AMOVALD23*
21,1,2.5000,1.5000,0.0000,0.0000,230.0*
1,1,1.5000,0.8035,0.9576*
1,1,1.5000,-0.8035,-0.9576*
%
%ADD23OVALD23*%

G04:AMPARAMS|DCode=24|XSize=1.5mm|YSize=4mm|CornerRadius=0mm|HoleSize=0mm|Usage=FLASHONLY|Rotation=160.000|XOffset=0mm|YOffset=0mm|HoleType=Round|Shape=Round|*
%AMOVALD24*
21,1,2.5000,1.5000,0.0000,0.0000,250.0*
1,1,1.5000,0.4275,1.1746*
1,1,1.5000,-0.4275,-1.1746*
%
%ADD24OVALD24*%

G04:AMPARAMS|DCode=25|XSize=1.5mm|YSize=4mm|CornerRadius=0mm|HoleSize=0mm|Usage=FLASHONLY|Rotation=200.000|XOffset=0mm|YOffset=0mm|HoleType=Round|Shape=Round|*
%AMOVALD25*
21,1,2.5000,1.5000,0.0000,0.0000,290.0*
1,1,1.5000,-0.4275,1.1746*
1,1,1.5000,0.4275,-1.1746*
%
%ADD25OVALD25*%

G04:AMPARAMS|DCode=26|XSize=1.5mm|YSize=4mm|CornerRadius=0mm|HoleSize=0mm|Usage=FLASHONLY|Rotation=220.000|XOffset=0mm|YOffset=0mm|HoleType=Round|Shape=Round|*
%AMOVALD26*
21,1,2.5000,1.5000,0.0000,0.0000,310.0*
1,1,1.5000,-0.8035,0.9576*
1,1,1.5000,0.8035,-0.9576*
%
%ADD26OVALD26*%

%ADD27R,1.0000X1.0000*%
%ADD28R,1.8000X1.0000*%
%ADD29R,1.8500X1.0000*%
%ADD30P,1.4142X4X360.0*%
%ADD31P,1.4142X4X270.0*%
%ADD32R,1.5000X2.0000*%
%ADD33R,0.4000X1.3500*%
%ADD34O,0.2800X0.8500*%
%ADD35O,0.5000X0.2800*%
%ADD36O,1.7000X0.3500*%
%ADD37R,1.0500X0.6000*%
%ADD38O,0.8000X0.2500*%
%ADD39O,0.2500X0.8000*%
%ADD40R,2.8000X2.8000*%
%ADD41R,0.6000X0.6000*%
%ADD42O,2.2000X0.6000*%
%ADD43R,0.6000X0.6000*%
%ADD44C,0.5000*%
%ADD45C,0.3000*%
%ADD46C,0.8000*%
%ADD47C,0.2000*%
%ADD48C,1.0000*%
%ADD49C,0.4000*%
%ADD50R,0.5000X0.2500*%
%ADD51C,2.4000*%
%ADD52C,1.5000*%
%ADD53C,1.6000*%
%ADD54C,1.2000*%
%ADD55C,1.1000*%
%ADD56C,1.0000*%
%ADD57C,1.7000*%
%ADD58R,1.5000X1.5000*%
%ADD59R,1.2700X1.2700*%
%ADD60C,1.2700*%
%ADD61C,8.0000*%
%ADD62C,0.7000*%
%ADD63C,0.6000*%
%ADD64C,0.6600*%
%ADD65O,0.3500X1.7000*%
%ADD66R,0.4000X0.5100*%
%ADD67P,1.4142X4X250.0*%
%ADD68P,1.4142X4X200.0*%
%ADD69R,1.0000X0.9000*%
%ADD70R,2.0000X5.5000*%
%ADD71R,1.2700X2.2098*%
%ADD72O,1.2700X2.2098*%
%ADD73R,0.8032X1.5032*%
%ADD74R,0.9032X1.1032*%
%ADD75R,1.1032X0.9032*%
%ADD76R,1.5032X0.8032*%
%ADD77R,0.5032X0.7232*%
%ADD78R,1.2032X1.2032*%
%ADD79R,1.6032X2.1032*%
%ADD80R,1.0032X1.7032*%
%ADD81R,1.5032X1.6032*%
%ADD82O,2.0032X0.5032*%
%ADD83O,0.5032X2.0032*%
%ADD84O,1.7032X4.2032*%
G04:AMPARAMS|DCode=85|XSize=1.7032mm|YSize=4.2032mm|CornerRadius=0mm|HoleSize=0mm|Usage=FLASHONLY|Rotation=140.000|XOffset=0mm|YOffset=0mm|HoleType=Round|Shape=Round|*
%AMOVALD85*
21,1,2.5000,1.7032,0.0000,0.0000,230.0*
1,1,1.7032,0.8035,0.9576*
1,1,1.7032,-0.8035,-0.9576*
%
%ADD85OVALD85*%

G04:AMPARAMS|DCode=86|XSize=1.7032mm|YSize=4.2032mm|CornerRadius=0mm|HoleSize=0mm|Usage=FLASHONLY|Rotation=160.000|XOffset=0mm|YOffset=0mm|HoleType=Round|Shape=Round|*
%AMOVALD86*
21,1,2.5000,1.7032,0.0000,0.0000,250.0*
1,1,1.7032,0.4275,1.1746*
1,1,1.7032,-0.4275,-1.1746*
%
%ADD86OVALD86*%

G04:AMPARAMS|DCode=87|XSize=1.7032mm|YSize=4.2032mm|CornerRadius=0mm|HoleSize=0mm|Usage=FLASHONLY|Rotation=200.000|XOffset=0mm|YOffset=0mm|HoleType=Round|Shape=Round|*
%AMOVALD87*
21,1,2.5000,1.7032,0.0000,0.0000,290.0*
1,1,1.7032,-0.4275,1.1746*
1,1,1.7032,0.4275,-1.1746*
%
%ADD87OVALD87*%

G04:AMPARAMS|DCode=88|XSize=1.7032mm|YSize=4.2032mm|CornerRadius=0mm|HoleSize=0mm|Usage=FLASHONLY|Rotation=220.000|XOffset=0mm|YOffset=0mm|HoleType=Round|Shape=Round|*
%AMOVALD88*
21,1,2.5000,1.7032,0.0000,0.0000,310.0*
1,1,1.7032,-0.8035,0.9576*
1,1,1.7032,0.8035,-0.9576*
%
%ADD88OVALD88*%

%ADD89R,1.2032X1.2032*%
%ADD90R,2.0032X1.2032*%
%ADD91R,2.0532X1.2032*%
%ADD92P,1.7016X4X360.0*%
%ADD93P,1.7016X4X270.0*%
%ADD94R,1.7032X2.2032*%
%ADD95R,0.6032X1.5532*%
%ADD96O,0.4832X1.0532*%
%ADD97O,0.7032X0.4832*%
%ADD98O,1.9032X0.5532*%
%ADD99R,1.2532X0.8032*%
%ADD100O,1.0032X0.4532*%
%ADD101O,0.4532X1.0032*%
%ADD102R,3.0032X3.0032*%
%ADD103R,0.7000X0.7000*%
%ADD104O,2.4032X0.8032*%
%ADD105R,0.8032X0.8032*%
%ADD106C,2.6032*%
%ADD107C,1.7032*%
%ADD108C,1.8032*%
%ADD109C,1.4032*%
%ADD110C,1.3032*%
%ADD111C,1.2032*%
%ADD112C,1.9032*%
%ADD113R,1.7032X1.7032*%
%ADD114R,1.4732X1.4732*%
%ADD115C,1.4732*%
%ADD116C,1.6000*%
%ADD117C,8.2032*%
%ADD118O,0.5532X1.9032*%
%ADD119R,0.6032X0.7132*%
%ADD120P,1.7016X4X250.0*%
%ADD121P,1.7016X4X200.0*%
%ADD122R,1.2032X1.1032*%
%ADD123R,2.2032X5.7032*%
%ADD124R,1.4732X2.4130*%
%ADD125O,1.4732X2.4130*%
%ADD126C,0.1000*%
D126*
X1075000Y450000D02*
G03*
X1075000Y450000I-75000J0D01*
G01*
X500000Y669320D02*
X650000D01*
X465000D02*
X490000D01*
X465000D02*
Y700000D01*
X490000Y690000D02*
X500000D01*
X490000Y669320D02*
Y690000D01*
X500000Y669320D02*
Y690000D01*
X465000Y710000D02*
X465000Y1000003D01*
X465000Y710000D02*
X485000D01*
Y700000D02*
Y710000D01*
X465000Y700000D02*
X485000Y700000D01*
X1043500Y1227475D02*
X1071954Y1225248D01*
X1100302Y1221925D01*
X1128500Y1217512D01*
X1156507Y1212015D01*
X1184281Y1205442D01*
X1211781Y1197802D01*
X1199306Y1163530D02*
X1211781Y1197802D01*
X1199306Y1163530D02*
X1281060Y1133774D01*
X1293534Y1168047D01*
X1319511Y1156222D01*
X1345012Y1143405D01*
X1370000Y1129613D01*
X1394438Y1114869D01*
X1418289Y1099193D01*
X1441517Y1082608D01*
X1418074Y1054669D02*
X1441517Y1082608D01*
X1418074Y1054669D02*
X1484720Y998747D01*
X1508163Y1026686D01*
X1535000Y1000003D01*
Y669320D02*
Y1000003D01*
X1350000Y669320D02*
X1535000D01*
X1350000Y214003D02*
Y669320D01*
X1263000Y214003D02*
X1350000Y214003D01*
X1263000Y170003D02*
Y214003D01*
X737000Y170003D02*
X1263000D01*
X737000D02*
Y214003D01*
X650000Y214003D02*
X737000Y214003D01*
X650000Y669320D02*
X650000Y214003D01*
X465000Y1000003D02*
X491837Y1026686D01*
X515280Y998747D01*
X581926Y1054669D01*
X558483Y1082608D02*
X581926Y1054669D01*
X558483Y1082608D02*
X581711Y1099193D01*
X605562Y1114869D01*
X630000Y1129613D01*
X654988Y1143405D01*
X680490Y1156222D01*
X706466Y1168047D01*
X718940Y1133774D01*
X800694Y1163530D01*
X788219Y1197802D02*
X800694Y1163530D01*
X788219Y1197802D02*
X815719Y1205442D01*
X843493Y1212015D01*
X871500Y1217512D01*
X899698Y1221925D01*
X928046Y1225248D01*
X956500Y1227475D01*
Y1191003D02*
Y1227475D01*
Y1191003D02*
X1043500D01*
Y1227475D01*
M02*
