%FSLAX44Y44*%
%MOMM*%
G71*
G01*
G75*
G04 Layer_Color=16711935*
%ADD10C,1.5000*%
%ADD11C,0.6000*%
%ADD12O,0.8000X5.0800*%
%ADD13R,0.8000X5.0800*%
%ADD14C,0.2000*%
%ADD15C,0.1500*%
%ADD16C,1.7032*%
%ADD17O,1.0032X5.2832*%
%ADD18R,1.0032X5.2832*%
%ADD19C,0.1000*%
D19*
X1040000Y1220000D02*
X1045853Y1219424D01*
X960000Y1220000D02*
X1040000D01*
X954147Y1219424D02*
X960000Y1220000D01*
X948520Y1217716D02*
X954147Y1219424D01*
X943333Y1214944D02*
X948520Y1217716D01*
X938787Y1211213D02*
X943333Y1214944D01*
X935056Y1206667D02*
X938787Y1211213D01*
X932284Y1201480D02*
X935056Y1206667D01*
X930576Y1195853D02*
X932284Y1201480D01*
X930000Y1190000D02*
X930576Y1195853D01*
X1069424D02*
X1070000Y1190000D01*
X1067716Y1201480D02*
X1069424Y1195853D01*
X1064944Y1206667D02*
X1067716Y1201480D01*
X1061213Y1211213D02*
X1064944Y1206667D01*
X1056667Y1214944D02*
X1061213Y1211213D01*
X1051480Y1217716D02*
X1056667Y1214944D01*
X1045853Y1219424D02*
X1051480Y1217716D01*
X1190000Y930000D02*
X1195853Y930576D01*
X1201481Y932283D01*
X1206667Y935056D01*
X1211213Y938787D01*
X1214944Y943333D01*
X1217716Y948519D01*
X1219424Y954147D01*
X1220000Y960000D01*
Y1040000D01*
X1219424Y1045853D02*
X1220000Y1040000D01*
X1217716Y1051480D02*
X1219424Y1045853D01*
X1214944Y1056667D02*
X1217716Y1051480D01*
X1211213Y1061213D02*
X1214944Y1056667D01*
X1206667Y1064944D02*
X1211213Y1061213D01*
X1201481Y1067716D02*
X1206667Y1064944D01*
X1195853Y1069424D02*
X1201481Y1067716D01*
X1190000Y1070000D02*
X1195853Y1069424D01*
X930000Y810000D02*
X930576Y804147D01*
X932284Y798519D01*
X935056Y793333D01*
X938787Y788787D01*
X943333Y785056D01*
X948520Y782283D01*
X954147Y780576D01*
X960000Y780000D01*
X1040000Y780000D01*
X1045853Y780576D01*
X1051480Y782284D01*
X1056667Y785056D01*
X1061213Y788787D01*
X1064944Y793333D01*
X1067716Y798520D01*
X1069424Y804147D01*
X1070000Y810000D01*
X804147Y1069424D02*
X810000Y1070000D01*
X798520Y1067716D02*
X804147Y1069424D01*
X793333Y1064944D02*
X798520Y1067716D01*
X788787Y1061213D02*
X793333Y1064944D01*
X785056Y1056667D02*
X788787Y1061213D01*
X782284Y1051480D02*
X785056Y1056667D01*
X780576Y1045853D02*
X782284Y1051480D01*
X780000Y1040000D02*
X780576Y1045853D01*
X780000Y1040000D02*
X780000Y960000D01*
X780576Y954147D01*
X782284Y948519D01*
X785056Y943333D01*
X788787Y938787D01*
X793333Y935056D01*
X798520Y932283D01*
X804147Y930576D01*
X810000Y930000D01*
X930000Y1090000D02*
Y1190000D01*
X929499Y1085549D02*
X930000Y1090000D01*
X928019Y1081322D02*
X929499Y1085549D01*
X925637Y1077530D02*
X928019Y1081322D01*
X922470Y1074363D02*
X925637Y1077530D01*
X918678Y1071981D02*
X922470Y1074363D01*
X914450Y1070501D02*
X918678Y1071981D01*
X910000Y1070000D02*
X914450Y1070501D01*
X810000Y1070000D02*
X910000D01*
X1090000Y1070000D02*
X1190000D01*
X1085550Y1070501D02*
X1090000Y1070000D01*
X1081322Y1071981D02*
X1085550Y1070501D01*
X1077530Y1074363D02*
X1081322Y1071981D01*
X1074363Y1077530D02*
X1077530Y1074363D01*
X1071981Y1081322D02*
X1074363Y1077530D01*
X1070501Y1085550D02*
X1071981Y1081322D01*
X1070000Y1090000D02*
X1070501Y1085550D01*
X1070000Y1090000D02*
Y1190000D01*
X1070000Y810000D02*
Y910000D01*
X1070501Y914450D01*
X1071981Y918678D01*
X1074363Y922470D01*
X1077530Y925637D01*
X1081322Y928019D01*
X1085550Y929499D01*
X1090000Y930000D01*
X1190000D01*
X810000Y930000D02*
X910000D01*
X914451Y929499D01*
X918678Y928019D01*
X922470Y925637D01*
X925637Y922470D01*
X928019Y918678D01*
X929499Y914450D01*
X930000Y910000D01*
Y810000D02*
Y910000D01*
X1017000Y919000D02*
X1018872Y918803D01*
X1020663Y918221D01*
X1022293Y917280D01*
X1023692Y916020D01*
X1024799Y914497D01*
X1025564Y912778D01*
X1025956Y910936D01*
Y909054D02*
Y910936D01*
X1025564Y907212D02*
X1025956Y909054D01*
X1024799Y905492D02*
X1025564Y907212D01*
X1023692Y903969D02*
X1024799Y905492D01*
X1022293Y902710D02*
X1023692Y903969D01*
X1020663Y901768D02*
X1022293Y902710D01*
X1018872Y901187D02*
X1020663Y901768D01*
X1017000Y900990D02*
X1018872Y901187D01*
X983000Y900990D02*
X1017000D01*
X981128Y901187D02*
X983000Y900990D01*
X979337Y901768D02*
X981128Y901187D01*
X977707Y902710D02*
X979337Y901768D01*
X976308Y903969D02*
X977707Y902710D01*
X975201Y905492D02*
X976308Y903969D01*
X974436Y907212D02*
X975201Y905492D01*
X974044Y909054D02*
X974436Y907212D01*
X974044Y909054D02*
Y910936D01*
X974436Y912778D01*
X975201Y914497D01*
X976308Y916020D01*
X977707Y917280D01*
X979337Y918221D01*
X981128Y918803D01*
X983000Y919000D01*
X1017000D01*
X910941Y1025951D02*
X912781Y1025559D01*
X914500Y1024794D01*
X916022Y1023688D01*
X917281Y1022290D01*
X918222Y1020661D01*
X918803Y1018871D01*
X919000Y1017000D01*
Y983000D02*
Y1017000D01*
X918803Y981129D02*
X919000Y983000D01*
X918222Y979339D02*
X918803Y981129D01*
X917281Y977710D02*
X918222Y979339D01*
X916022Y976312D02*
X917281Y977710D01*
X914500Y975206D02*
X916022Y976312D01*
X912781Y974440D02*
X914500Y975206D01*
X910941Y974049D02*
X912781Y974440D01*
X909059Y974049D02*
X910941D01*
X907219Y974440D02*
X909059Y974049D01*
X905500Y975206D02*
X907219Y974440D01*
X903978Y976312D02*
X905500Y975206D01*
X902719Y977710D02*
X903978Y976312D01*
X901778Y979339D02*
X902719Y977710D01*
X901197Y981129D02*
X901778Y979339D01*
X901000Y983000D02*
X901197Y981129D01*
X901000Y1017000D02*
X901000Y983000D01*
X901000Y1017000D02*
X901197Y1018871D01*
X901778Y1020661D01*
X902719Y1022290D01*
X903978Y1023688D01*
X905500Y1024794D01*
X907219Y1025559D01*
X909059Y1025951D01*
X910941D01*
X1090941D02*
X1092781Y1025559D01*
X1094500Y1024794D01*
X1096022Y1023688D01*
X1097281Y1022290D01*
X1098222Y1020661D01*
X1098803Y1018871D01*
X1099000Y1017000D01*
X1099000Y983000D01*
X1098803Y981129D02*
X1099000Y983000D01*
X1098222Y979339D02*
X1098803Y981129D01*
X1097281Y977710D02*
X1098222Y979339D01*
X1096022Y976312D02*
X1097281Y977710D01*
X1094500Y975206D02*
X1096022Y976312D01*
X1092781Y974440D02*
X1094500Y975206D01*
X1090941Y974049D02*
X1092781Y974440D01*
X1089059Y974049D02*
X1090941D01*
X1087219Y974440D02*
X1089059Y974049D01*
X1085500Y975206D02*
X1087219Y974440D01*
X1083978Y976312D02*
X1085500Y975206D01*
X1082719Y977710D02*
X1083978Y976312D01*
X1081778Y979339D02*
X1082719Y977710D01*
X1081197Y981129D02*
X1081778Y979339D01*
X1081000Y983000D02*
X1081197Y981129D01*
X1081000Y983000D02*
Y1017000D01*
X1081197Y1018871D01*
X1081778Y1020661D01*
X1082719Y1022290D01*
X1083978Y1023688D01*
X1085500Y1024794D01*
X1087219Y1025559D01*
X1089059Y1025951D01*
X1090941D01*
X1017000Y1099010D02*
X1018872Y1098813D01*
X1020663Y1098231D01*
X1022293Y1097290D01*
X1023692Y1096030D01*
X1024799Y1094507D01*
X1025564Y1092788D01*
X1025956Y1090946D01*
Y1089064D02*
Y1090946D01*
X1025564Y1087222D02*
X1025956Y1089064D01*
X1024799Y1085502D02*
X1025564Y1087222D01*
X1023692Y1083979D02*
X1024799Y1085502D01*
X1022293Y1082720D02*
X1023692Y1083979D01*
X1020663Y1081778D02*
X1022293Y1082720D01*
X1018872Y1081197D02*
X1020663Y1081778D01*
X1017000Y1081000D02*
X1018872Y1081197D01*
X983000Y1081000D02*
X1017000D01*
X981128Y1081197D02*
X983000Y1081000D01*
X979337Y1081778D02*
X981128Y1081197D01*
X977707Y1082720D02*
X979337Y1081778D01*
X976308Y1083979D02*
X977707Y1082720D01*
X975201Y1085502D02*
X976308Y1083979D01*
X974436Y1087222D02*
X975201Y1085502D01*
X974044Y1089064D02*
X974436Y1087222D01*
X974044Y1089064D02*
Y1090946D01*
X974436Y1092788D01*
X975201Y1094507D01*
X976308Y1096030D01*
X977707Y1097290D01*
X979337Y1098231D01*
X981128Y1098813D01*
X983000Y1099010D01*
X1017000D01*
M02*
