G04*
G04 #@! TF.GenerationSoftware,Altium Limited,Altium Designer,18.1.9 (240)*
G04*
G04 Layer_Color=128*
%FSLAX44Y44*%
%MOMM*%
G71*
G01*
G75*
%ADD22R,0.8000X0.7000*%
%ADD23R,0.7000X0.8000*%
%ADD25R,1.3700X0.9300*%
%ADD26R,1.3000X0.6000*%
%ADD27R,1.0500X0.6000*%
%ADD28O,0.9000X2.3000*%
G04:AMPARAMS|DCode=29|XSize=0.9mm|YSize=2.3mm|CornerRadius=0mm|HoleSize=0mm|Usage=FLASHONLY|Rotation=220.000|XOffset=0mm|YOffset=0mm|HoleType=Round|Shape=Round|*
%AMOVALD29*
21,1,1.4000,0.9000,0.0000,0.0000,310.0*
1,1,0.9000,-0.4500,0.5362*
1,1,0.9000,0.4500,-0.5362*
%
%ADD29OVALD29*%

G04:AMPARAMS|DCode=30|XSize=0.9mm|YSize=2.3mm|CornerRadius=0mm|HoleSize=0mm|Usage=FLASHONLY|Rotation=200.000|XOffset=0mm|YOffset=0mm|HoleType=Round|Shape=Round|*
%AMOVALD30*
21,1,1.4000,0.9000,0.0000,0.0000,290.0*
1,1,0.9000,-0.2394,0.6578*
1,1,0.9000,0.2394,-0.6578*
%
%ADD30OVALD30*%

G04:AMPARAMS|DCode=31|XSize=0.9mm|YSize=2.3mm|CornerRadius=0mm|HoleSize=0mm|Usage=FLASHONLY|Rotation=160.000|XOffset=0mm|YOffset=0mm|HoleType=Round|Shape=Round|*
%AMOVALD31*
21,1,1.4000,0.9000,0.0000,0.0000,250.0*
1,1,0.9000,0.2394,0.6578*
1,1,0.9000,-0.2394,-0.6578*
%
%ADD31OVALD31*%

G04:AMPARAMS|DCode=32|XSize=0.9mm|YSize=2.3mm|CornerRadius=0mm|HoleSize=0mm|Usage=FLASHONLY|Rotation=140.000|XOffset=0mm|YOffset=0mm|HoleType=Round|Shape=Round|*
%AMOVALD32*
21,1,1.4000,0.9000,0.0000,0.0000,230.0*
1,1,0.9000,0.4500,0.5362*
1,1,0.9000,-0.4500,-0.5362*
%
%ADD32OVALD32*%

%ADD33R,1.0000X1.0000*%
%ADD34R,0.6000X1.3000*%
%ADD36P,1.4142X4X270.0*%
%ADD37P,1.4142X4X360.0*%
%ADD38O,1.7000X0.3500*%
%ADD146R,2.0000X1.4000*%
%ADD147R,2.0000X1.0000*%
%ADD148R,0.8000X0.5000*%
%ADD149R,0.5000X0.8000*%
%ADD150R,0.9300X1.3700*%
%ADD151P,1.4142X4X250.0*%
%ADD152O,0.3500X1.7000*%
%ADD153P,1.4142X4X200.0*%
%ADD154R,2.0000X5.5000*%
D22*
X675750Y815250D02*
D03*
X687750D02*
D03*
X1311000Y377250D02*
D03*
X1323000D02*
D03*
X716000Y375250D02*
D03*
X728000D02*
D03*
X1026750Y1119750D02*
D03*
X1014750D02*
D03*
X1411000Y1031500D02*
D03*
X1399000D02*
D03*
X1204250Y1138750D02*
D03*
X1192250D02*
D03*
X977000Y1173000D02*
D03*
X965000D02*
D03*
X563500Y1035000D02*
D03*
X551500D02*
D03*
X920000Y1032250D02*
D03*
X932000D02*
D03*
X920250Y1047250D02*
D03*
X932250D02*
D03*
X812250Y1049250D02*
D03*
X800250D02*
D03*
X813000Y1033000D02*
D03*
X801000D02*
D03*
X754000Y1123000D02*
D03*
X742000D02*
D03*
X1097500Y1124250D02*
D03*
X1085500D02*
D03*
X1142000Y540000D02*
D03*
X1130000D02*
D03*
X1143000Y712000D02*
D03*
X1131000D02*
D03*
X733500Y1042500D02*
D03*
X745500D02*
D03*
X769250Y1017000D02*
D03*
X757250D02*
D03*
X1099625Y876750D02*
D03*
X1111625D02*
D03*
X1202500Y931250D02*
D03*
X1214500D02*
D03*
X889500Y344000D02*
D03*
X877500D02*
D03*
X896500Y299000D02*
D03*
X884500D02*
D03*
X1075500Y858000D02*
D03*
X1087500D02*
D03*
X1376500Y278750D02*
D03*
X1364500D02*
D03*
X617250Y274750D02*
D03*
X629250D02*
D03*
X676500Y913750D02*
D03*
X688500D02*
D03*
X676250Y829750D02*
D03*
X688250D02*
D03*
X894750Y1122750D02*
D03*
X882750D02*
D03*
X493250Y1027000D02*
D03*
X481250D02*
D03*
X884000Y329000D02*
D03*
X896000D02*
D03*
X884000Y314000D02*
D03*
X896000D02*
D03*
X840000Y933750D02*
D03*
X828000D02*
D03*
X871750Y1079250D02*
D03*
X859750D02*
D03*
X627750Y1100000D02*
D03*
X615750D02*
D03*
X1060000Y1229000D02*
D03*
X1048000D02*
D03*
D23*
X1473000Y991750D02*
D03*
Y1003750D02*
D03*
X1318750Y831250D02*
D03*
Y819250D02*
D03*
X1318250Y902000D02*
D03*
Y890000D02*
D03*
X1318250Y855750D02*
D03*
Y867750D02*
D03*
X677000Y897500D02*
D03*
Y885500D02*
D03*
X678500Y864750D02*
D03*
Y852750D02*
D03*
X1309250Y358444D02*
D03*
Y346444D02*
D03*
X714000Y356000D02*
D03*
Y344000D02*
D03*
X756000Y1142500D02*
D03*
Y1154500D02*
D03*
X933000Y1014750D02*
D03*
Y1002750D02*
D03*
X934250Y1065250D02*
D03*
Y1077250D02*
D03*
X805000Y1065000D02*
D03*
Y1077000D02*
D03*
X797750Y1014000D02*
D03*
Y1002000D02*
D03*
X1413250Y1047750D02*
D03*
Y1059750D02*
D03*
X1206500Y1157750D02*
D03*
Y1169750D02*
D03*
X979000Y1192250D02*
D03*
Y1204250D02*
D03*
X532000Y1042000D02*
D03*
Y1054000D02*
D03*
X916500Y1013000D02*
D03*
Y1001000D02*
D03*
X918250Y1065250D02*
D03*
Y1077250D02*
D03*
X820000Y1069000D02*
D03*
Y1081000D02*
D03*
X815250Y1013750D02*
D03*
Y1001750D02*
D03*
X761750Y1044000D02*
D03*
Y1056000D02*
D03*
X686750Y1012000D02*
D03*
Y1024000D02*
D03*
X830250Y854000D02*
D03*
Y842000D02*
D03*
X960750Y843000D02*
D03*
Y855000D02*
D03*
X870000Y253000D02*
D03*
Y265000D02*
D03*
X911750Y327000D02*
D03*
Y315000D02*
D03*
X1215000Y906250D02*
D03*
Y918250D02*
D03*
X813250Y856250D02*
D03*
Y844250D02*
D03*
X945250Y855000D02*
D03*
Y843000D02*
D03*
X1066852Y953437D02*
D03*
Y941437D02*
D03*
X919250Y946000D02*
D03*
Y934000D02*
D03*
X1157500Y956250D02*
D03*
Y944250D02*
D03*
X804750Y902750D02*
D03*
Y890750D02*
D03*
X977750Y669750D02*
D03*
Y657750D02*
D03*
X997750Y669750D02*
D03*
Y657750D02*
D03*
X1017750Y669750D02*
D03*
Y657750D02*
D03*
X1161500Y1229750D02*
D03*
Y1217750D02*
D03*
X835750Y1230750D02*
D03*
Y1218750D02*
D03*
X1070500Y1263250D02*
D03*
Y1251250D02*
D03*
X945500Y1262750D02*
D03*
Y1250750D02*
D03*
X1521750Y1045750D02*
D03*
Y1033750D02*
D03*
X1312000Y1196250D02*
D03*
Y1184250D02*
D03*
X703750Y1201500D02*
D03*
Y1189500D02*
D03*
X496000Y1064000D02*
D03*
Y1052000D02*
D03*
X1299000Y834000D02*
D03*
Y822000D02*
D03*
X1301500Y894750D02*
D03*
Y882750D02*
D03*
X1301750Y850250D02*
D03*
Y862250D02*
D03*
X696500Y873500D02*
D03*
Y861500D02*
D03*
X1051000Y1160500D02*
D03*
Y1172500D02*
D03*
X860250Y1200250D02*
D03*
Y1188250D02*
D03*
X1142250Y1200750D02*
D03*
Y1188750D02*
D03*
X859500Y1161500D02*
D03*
Y1149500D02*
D03*
X1116500Y1160750D02*
D03*
Y1148750D02*
D03*
X1087725Y931250D02*
D03*
Y943250D02*
D03*
X709000Y1070750D02*
D03*
Y1058750D02*
D03*
X703000Y1023000D02*
D03*
Y1011000D02*
D03*
X976000Y888000D02*
D03*
Y900000D02*
D03*
X847500Y364000D02*
D03*
Y376000D02*
D03*
X1503000Y1048750D02*
D03*
Y1060750D02*
D03*
X667500Y392750D02*
D03*
Y380750D02*
D03*
X1314250Y408000D02*
D03*
Y396000D02*
D03*
X1182500Y971311D02*
D03*
Y959311D02*
D03*
X1489000Y991000D02*
D03*
Y1003000D02*
D03*
X907500Y369000D02*
D03*
Y381000D02*
D03*
X907000Y494000D02*
D03*
Y506000D02*
D03*
X1092250Y1039250D02*
D03*
Y1027250D02*
D03*
X964250Y769500D02*
D03*
Y757500D02*
D03*
X673250Y356000D02*
D03*
Y344000D02*
D03*
X1271750Y346000D02*
D03*
Y334000D02*
D03*
X1327250Y357250D02*
D03*
Y345250D02*
D03*
X731750Y356250D02*
D03*
Y344250D02*
D03*
X1395250Y1047750D02*
D03*
Y1059750D02*
D03*
X1189500Y1157500D02*
D03*
Y1169500D02*
D03*
X962000Y1192000D02*
D03*
Y1204000D02*
D03*
X740000Y1152500D02*
D03*
Y1140500D02*
D03*
X516000Y1054000D02*
D03*
Y1042000D02*
D03*
X1447250Y1021250D02*
D03*
Y1033250D02*
D03*
X921000Y1193750D02*
D03*
Y1205750D02*
D03*
D25*
X1081225Y916350D02*
D03*
Y900650D02*
D03*
X929000Y878900D02*
D03*
Y894600D02*
D03*
X846500Y885900D02*
D03*
Y901600D02*
D03*
D26*
X745250Y1067750D02*
D03*
X724250Y1077250D02*
D03*
Y1058250D02*
D03*
X1363500Y896000D02*
D03*
X1342500Y905500D02*
D03*
Y886500D02*
D03*
X1361500Y825000D02*
D03*
X1340500Y834500D02*
D03*
Y815500D02*
D03*
X1363250Y860750D02*
D03*
X1342250Y870250D02*
D03*
Y851250D02*
D03*
X638500Y821750D02*
D03*
X659500Y812250D02*
D03*
Y831250D02*
D03*
X638250Y859750D02*
D03*
X659250Y850250D02*
D03*
Y869250D02*
D03*
X638000Y898750D02*
D03*
X659000Y889250D02*
D03*
Y908250D02*
D03*
X740000Y1017250D02*
D03*
X719000Y1026750D02*
D03*
Y1007750D02*
D03*
D27*
X890250Y379250D02*
D03*
Y369750D02*
D03*
Y360250D02*
D03*
X863250D02*
D03*
Y379250D02*
D03*
D28*
X714287Y314003D02*
D03*
X673287D02*
D03*
X1020500Y1228500D02*
D03*
X979500D02*
D03*
X1327518Y314003D02*
D03*
X1286517D02*
D03*
D29*
X585858Y1085536D02*
D03*
X554450Y1059182D02*
D03*
D30*
X752997Y1181298D02*
D03*
X791524Y1195321D02*
D03*
D31*
X1208475Y1195321D02*
D03*
X1247003Y1181298D02*
D03*
D32*
X1445550Y1059182D02*
D03*
X1414142Y1085536D02*
D03*
D33*
X1071000Y1285500D02*
D03*
X1052000D02*
D03*
X928000Y1284750D02*
D03*
X947000D02*
D03*
X634500Y252000D02*
D03*
X615500D02*
D03*
X887500D02*
D03*
X906500D02*
D03*
X1366000Y250750D02*
D03*
X1385000D02*
D03*
D34*
X1092000Y1203000D02*
D03*
X1082500Y1182000D02*
D03*
X1101500D02*
D03*
X1091500Y1162250D02*
D03*
X1082000Y1141250D02*
D03*
X1101000D02*
D03*
X1021500Y1157000D02*
D03*
X1012000Y1136000D02*
D03*
X1031000D02*
D03*
X1028965Y1199750D02*
D03*
X1019465Y1178750D02*
D03*
X1038465D02*
D03*
X888000Y1203000D02*
D03*
X878500Y1182000D02*
D03*
X897500D02*
D03*
X888500Y1162250D02*
D03*
X879000Y1141250D02*
D03*
X898000D02*
D03*
D36*
X491718Y1081718D02*
D03*
X478283Y1068283D02*
D03*
D37*
X1521718Y1069283D02*
D03*
X1508282Y1082718D02*
D03*
D38*
X838489Y1021251D02*
D03*
Y1027751D02*
D03*
Y1034251D02*
D03*
Y1040751D02*
D03*
Y1047251D02*
D03*
Y1053751D02*
D03*
Y1060251D02*
D03*
X895489Y1021251D02*
D03*
Y1027751D02*
D03*
Y1034251D02*
D03*
Y1040751D02*
D03*
Y1047251D02*
D03*
Y1053751D02*
D03*
Y1060251D02*
D03*
X841500Y514750D02*
D03*
Y521250D02*
D03*
Y527750D02*
D03*
Y534250D02*
D03*
Y540750D02*
D03*
Y547250D02*
D03*
Y553750D02*
D03*
Y560250D02*
D03*
X898500Y514750D02*
D03*
Y521250D02*
D03*
Y527750D02*
D03*
Y534250D02*
D03*
Y540750D02*
D03*
Y547250D02*
D03*
Y553750D02*
D03*
Y560250D02*
D03*
D146*
X1386000Y842000D02*
D03*
Y878000D02*
D03*
X1434000D02*
D03*
Y842000D02*
D03*
X566000Y878000D02*
D03*
Y842000D02*
D03*
X614000D02*
D03*
Y878000D02*
D03*
D147*
X1386000Y860000D02*
D03*
X1434000D02*
D03*
X566000Y860000D02*
D03*
X614000D02*
D03*
D148*
X1204750Y917500D02*
D03*
Y904500D02*
D03*
X1183250Y911000D02*
D03*
D149*
X1081225Y891195D02*
D03*
X1074725Y869695D02*
D03*
X1087725D02*
D03*
X828250Y869000D02*
D03*
X815250D02*
D03*
X821750Y890500D02*
D03*
X954750Y885250D02*
D03*
X948250Y863750D02*
D03*
X961250D02*
D03*
X1168415Y943500D02*
D03*
X1181415D02*
D03*
X1174915Y922000D02*
D03*
X822250Y901000D02*
D03*
X828750Y922500D02*
D03*
X815750D02*
D03*
X926750Y926750D02*
D03*
X939750D02*
D03*
X933250Y905250D02*
D03*
X1058000Y898500D02*
D03*
X1064500Y920000D02*
D03*
X1051500D02*
D03*
D150*
X1172600Y908750D02*
D03*
X1156900D02*
D03*
D151*
X682390Y1214985D02*
D03*
X699610Y1223015D02*
D03*
D152*
X1109000Y1060750D02*
D03*
X1115500D02*
D03*
X1122000D02*
D03*
X1128500D02*
D03*
X1135000D02*
D03*
X1141500D02*
D03*
X1148000D02*
D03*
X1154500D02*
D03*
X1109000Y1003750D02*
D03*
X1115500Y1003750D02*
D03*
X1122000Y1003750D02*
D03*
X1128500D02*
D03*
X1135000D02*
D03*
X1141500D02*
D03*
X1148000D02*
D03*
X1154500D02*
D03*
X978500Y811250D02*
D03*
X985000D02*
D03*
X991500D02*
D03*
X998000D02*
D03*
X1004500D02*
D03*
X1011000D02*
D03*
X1017500D02*
D03*
X1024000D02*
D03*
X978500Y754250D02*
D03*
X985000D02*
D03*
X991500D02*
D03*
X998000D02*
D03*
X1004500D02*
D03*
X1011000D02*
D03*
X1017500D02*
D03*
X1024000D02*
D03*
D153*
X1298640Y1224765D02*
D03*
X1315860Y1216735D02*
D03*
D154*
X1131500Y673500D02*
D03*
Y578500D02*
D03*
M02*
