%FSLAX44Y44*%
%MOMM*%
G71*
G01*
G75*
G04 Layer_Color=16711935*
%ADD10R,0.3000X0.5200*%
%ADD11R,0.3000X0.4900*%
%ADD12R,1.0000X0.9000*%
%ADD13R,1.0000X1.0000*%
%ADD14R,1.0000X1.8500*%
%ADD15R,1.0000X1.8000*%
%ADD16R,1.3000X0.6000*%
%ADD17R,0.9000X0.7000*%
%ADD18R,0.7000X0.9000*%
%ADD19R,0.6000X1.3000*%
%ADD20R,0.3000X0.8250*%
%ADD21R,1.3000X1.4000*%
%ADD22R,1.4000X1.9000*%
%ADD23R,0.8000X1.5000*%
%ADD24R,2.8000X2.8000*%
%ADD25O,0.2500X0.8000*%
%ADD26O,0.8000X0.2500*%
%ADD27R,0.4000X1.3500*%
%ADD28R,1.5000X2.0000*%
%ADD29O,2.2000X0.6000*%
%ADD30R,1.0000X1.0000*%
%ADD31R,1.0500X0.6000*%
%ADD32R,0.5000X0.5000*%
%ADD33O,1.7000X0.3500*%
%ADD34P,1.4142X4X270.0*%
%ADD35O,1.5000X4.0000*%
%ADD36P,1.4142X4X360.0*%
G04:AMPARAMS|DCode=37|XSize=0.9mm|YSize=0.7mm|CornerRadius=0mm|HoleSize=0mm|Usage=FLASHONLY|Rotation=135.000|XOffset=0mm|YOffset=0mm|HoleType=Round|Shape=Rectangle|*
%AMROTATEDRECTD37*
4,1,4,0.5657,-0.0707,0.0707,-0.5657,-0.5657,0.0707,-0.0707,0.5657,0.5657,-0.0707,0.0*
%
%ADD37ROTATEDRECTD37*%

%ADD38R,0.6000X0.6000*%
G04:AMPARAMS|DCode=39|XSize=1.5mm|YSize=4mm|CornerRadius=0mm|HoleSize=0mm|Usage=FLASHONLY|Rotation=220.000|XOffset=0mm|YOffset=0mm|HoleType=Round|Shape=Round|*
%AMOVALD39*
21,1,2.5000,1.5000,0.0000,0.0000,310.0*
1,1,1.5000,-0.8035,0.9576*
1,1,1.5000,0.8035,-0.9576*
%
%ADD39OVALD39*%

G04:AMPARAMS|DCode=40|XSize=1.5mm|YSize=4mm|CornerRadius=0mm|HoleSize=0mm|Usage=FLASHONLY|Rotation=200.000|XOffset=0mm|YOffset=0mm|HoleType=Round|Shape=Round|*
%AMOVALD40*
21,1,2.5000,1.5000,0.0000,0.0000,290.0*
1,1,1.5000,-0.4275,1.1746*
1,1,1.5000,0.4275,-1.1746*
%
%ADD40OVALD40*%

G04:AMPARAMS|DCode=41|XSize=1.5mm|YSize=4mm|CornerRadius=0mm|HoleSize=0mm|Usage=FLASHONLY|Rotation=160.000|XOffset=0mm|YOffset=0mm|HoleType=Round|Shape=Round|*
%AMOVALD41*
21,1,2.5000,1.5000,0.0000,0.0000,250.0*
1,1,1.5000,0.4275,1.1746*
1,1,1.5000,-0.4275,-1.1746*
%
%ADD41OVALD41*%

G04:AMPARAMS|DCode=42|XSize=1.5mm|YSize=4mm|CornerRadius=0mm|HoleSize=0mm|Usage=FLASHONLY|Rotation=140.000|XOffset=0mm|YOffset=0mm|HoleType=Round|Shape=Round|*
%AMOVALD42*
21,1,2.5000,1.5000,0.0000,0.0000,230.0*
1,1,1.5000,0.8035,0.9576*
1,1,1.5000,-0.8035,-0.9576*
%
%ADD42OVALD42*%

%ADD43O,0.3000X1.8000*%
%ADD44O,1.8000X0.3000*%
%ADD45C,0.8000*%
%ADD46C,0.5000*%
%ADD47C,0.3000*%
%ADD48C,0.2000*%
%ADD49C,1.0000*%
%ADD50C,0.4000*%
%ADD51C,0.1500*%
%ADD52C,0.9000*%
%ADD53C,0.7500*%
%ADD54C,0.2500*%
%ADD55C,0.8500*%
%ADD56C,0.6000*%
%ADD57C,0.2900*%
%ADD58R,0.5000X0.2500*%
%ADD59C,1.5000*%
%ADD60P,1.4849X4X90.0*%
%ADD61C,1.0500*%
%ADD62C,2.0000*%
%ADD63C,2.2000*%
%ADD64R,1.5000X1.5000*%
%ADD65C,1.7000*%
%ADD66C,1.0000*%
%ADD67C,1.2000*%
%ADD68C,2.4000*%
%ADD69C,8.0000*%
%ADD70C,1.2700*%
%ADD71R,1.2700X1.2700*%
%ADD72C,1.1000*%
%ADD73C,1.6000*%
%ADD74C,0.7000*%
%ADD75C,0.6600*%
%ADD76P,1.4142X4X250.0*%
%ADD77R,1.8500X1.0000*%
%ADD78R,1.8000X1.0000*%
%ADD79R,0.4000X0.5100*%
%ADD80O,0.3500X1.7000*%
%ADD81P,1.4142X4X200.0*%
%ADD82R,2.0000X5.5000*%
G04:AMPARAMS|DCode=83|XSize=0.9mm|YSize=0.7mm|CornerRadius=0mm|HoleSize=0mm|Usage=FLASHONLY|Rotation=45.000|XOffset=0mm|YOffset=0mm|HoleType=Round|Shape=Rectangle|*
%AMROTATEDRECTD83*
4,1,4,-0.0707,-0.5657,-0.5657,-0.0707,0.0707,0.5657,0.5657,0.0707,-0.0707,-0.5657,0.0*
%
%ADD83ROTATEDRECTD83*%

G04:AMPARAMS|DCode=84|XSize=0.4mm|YSize=0.51mm|CornerRadius=0mm|HoleSize=0mm|Usage=FLASHONLY|Rotation=315.000|XOffset=0mm|YOffset=0mm|HoleType=Round|Shape=Rectangle|*
%AMROTATEDRECTD84*
4,1,4,-0.3217,-0.0389,0.0389,0.3217,0.3217,0.0389,-0.0389,-0.3217,-0.3217,-0.0389,0.0*
%
%ADD84ROTATEDRECTD84*%

%ADD85R,0.5100X0.4000*%
%ADD86C,0.2800*%
%ADD87O,1.2700X2.2098*%
%ADD88C,0.2540*%
%ADD89C,0.1000*%
%ADD90R,0.2600X0.4800*%
%ADD91R,0.2600X0.4500*%
%ADD92R,0.2700X0.7950*%
%ADD93R,1.8000X1.8000*%
%ADD94O,0.2300X0.7800*%
%ADD95O,0.7800X0.2300*%
%ADD96O,0.2000X1.7000*%
%ADD97O,1.7000X0.2000*%
%ADD98R,0.4000X0.6200*%
%ADD99R,0.4000X0.5900*%
%ADD100R,1.1000X1.0000*%
%ADD101R,1.1000X1.1000*%
%ADD102R,1.1000X1.9500*%
%ADD103R,1.1000X1.9000*%
%ADD104R,1.4000X0.7000*%
%ADD105R,1.0000X0.8000*%
%ADD106R,0.8000X1.0000*%
%ADD107R,0.7000X1.4000*%
%ADD108R,0.6000X1.1250*%
%ADD109R,1.4000X1.5000*%
%ADD110R,1.5000X2.0000*%
%ADD111R,0.9000X1.6000*%
%ADD112R,2.9000X2.9000*%
%ADD113O,0.3500X0.9000*%
%ADD114O,0.9000X0.3500*%
%ADD115R,0.5000X1.4500*%
%ADD116R,1.6000X2.1000*%
%ADD117O,2.3000X0.7000*%
%ADD118R,1.1000X1.1000*%
%ADD119R,1.1500X0.7000*%
%ADD120O,1.8000X0.4500*%
%ADD121P,1.5556X4X270.0*%
%ADD122O,1.6000X4.1000*%
%ADD123P,1.5556X4X360.0*%
G04:AMPARAMS|DCode=124|XSize=1mm|YSize=0.8mm|CornerRadius=0mm|HoleSize=0mm|Usage=FLASHONLY|Rotation=135.000|XOffset=0mm|YOffset=0mm|HoleType=Round|Shape=Rectangle|*
%AMROTATEDRECTD124*
4,1,4,0.6364,-0.0707,0.0707,-0.6364,-0.6364,0.0707,-0.0707,0.6364,0.6364,-0.0707,0.0*
%
%ADD124ROTATEDRECTD124*%

%ADD125R,0.7000X0.7000*%
G04:AMPARAMS|DCode=126|XSize=1.6mm|YSize=4.1mm|CornerRadius=0mm|HoleSize=0mm|Usage=FLASHONLY|Rotation=220.000|XOffset=0mm|YOffset=0mm|HoleType=Round|Shape=Round|*
%AMOVALD126*
21,1,2.5000,1.6000,0.0000,0.0000,310.0*
1,1,1.6000,-0.8035,0.9576*
1,1,1.6000,0.8035,-0.9576*
%
%ADD126OVALD126*%

G04:AMPARAMS|DCode=127|XSize=1.6mm|YSize=4.1mm|CornerRadius=0mm|HoleSize=0mm|Usage=FLASHONLY|Rotation=200.000|XOffset=0mm|YOffset=0mm|HoleType=Round|Shape=Round|*
%AMOVALD127*
21,1,2.5000,1.6000,0.0000,0.0000,290.0*
1,1,1.6000,-0.4275,1.1746*
1,1,1.6000,0.4275,-1.1746*
%
%ADD127OVALD127*%

G04:AMPARAMS|DCode=128|XSize=1.6mm|YSize=4.1mm|CornerRadius=0mm|HoleSize=0mm|Usage=FLASHONLY|Rotation=160.000|XOffset=0mm|YOffset=0mm|HoleType=Round|Shape=Round|*
%AMOVALD128*
21,1,2.5000,1.6000,0.0000,0.0000,250.0*
1,1,1.6000,0.4275,1.1746*
1,1,1.6000,-0.4275,-1.1746*
%
%ADD128OVALD128*%

G04:AMPARAMS|DCode=129|XSize=1.6mm|YSize=4.1mm|CornerRadius=0mm|HoleSize=0mm|Usage=FLASHONLY|Rotation=140.000|XOffset=0mm|YOffset=0mm|HoleType=Round|Shape=Round|*
%AMOVALD129*
21,1,2.5000,1.6000,0.0000,0.0000,230.0*
1,1,1.6000,0.8035,0.9576*
1,1,1.6000,-0.8035,-0.9576*
%
%ADD129OVALD129*%

%ADD130O,0.4000X1.9000*%
%ADD131O,1.9000X0.4000*%
%ADD132P,1.6263X4X90.0*%
%ADD133C,1.1500*%
%ADD134C,2.1000*%
%ADD135C,2.3000*%
%ADD136R,1.6000X1.6000*%
%ADD137C,1.8000*%
%ADD138C,1.3000*%
%ADD139C,2.5000*%
%ADD140C,8.1000*%
%ADD141C,1.6000*%
%ADD142C,1.3700*%
%ADD143R,1.3700X1.3700*%
%ADD144P,1.5556X4X250.0*%
%ADD145R,1.9500X1.1000*%
%ADD146R,1.9000X1.1000*%
%ADD147R,0.5000X0.6100*%
%ADD148O,0.4500X1.8000*%
%ADD149P,1.5556X4X200.0*%
%ADD150R,2.1000X5.6000*%
G04:AMPARAMS|DCode=151|XSize=1mm|YSize=0.8mm|CornerRadius=0mm|HoleSize=0mm|Usage=FLASHONLY|Rotation=45.000|XOffset=0mm|YOffset=0mm|HoleType=Round|Shape=Rectangle|*
%AMROTATEDRECTD151*
4,1,4,-0.0707,-0.6364,-0.6364,-0.0707,0.0707,0.6364,0.6364,0.0707,-0.0707,-0.6364,0.0*
%
%ADD151ROTATEDRECTD151*%

G04:AMPARAMS|DCode=152|XSize=0.5mm|YSize=0.61mm|CornerRadius=0mm|HoleSize=0mm|Usage=FLASHONLY|Rotation=315.000|XOffset=0mm|YOffset=0mm|HoleType=Round|Shape=Rectangle|*
%AMROTATEDRECTD152*
4,1,4,-0.3925,-0.0389,0.0389,0.3925,0.3925,0.0389,-0.0389,-0.3925,-0.3925,-0.0389,0.0*
%
%ADD152ROTATEDRECTD152*%

%ADD153R,0.6100X0.5000*%
%ADD154O,1.3700X2.3098*%
D89*
X1471576Y1076493D02*
G03*
X1483067Y1066851I5745J-4821D01*
G01*
X1416458Y1122744D02*
G03*
X1427948Y1113102I5745J-4821D01*
G01*
X1266081Y1206178D02*
G03*
X1280176Y1201048I7048J-2565D01*
G01*
X1198349Y1230831D02*
G03*
X1212444Y1225701I7048J-2565D01*
G01*
X720062Y1200693D02*
G03*
X734157Y1205824I7048J2565D01*
G01*
X787688Y1225307D02*
G03*
X801784Y1230438I7048J2565D01*
G01*
X516812Y1066923D02*
G03*
X528302Y1076564I5745J4821D01*
G01*
X571966Y1113203D02*
G03*
X583457Y1122845I5745J4821D01*
G01*
X1028500Y1259183D02*
G03*
X1043500Y1259183I7500J0D01*
G01*
X956500D02*
G03*
X971500Y1259183I7500J0D01*
G01*
X1075000Y520000D02*
G03*
X1075000Y520000I-75000J0D01*
G01*
X1427948Y1113102D02*
X1471576Y1076493D01*
X1212444Y1225701D02*
X1266081Y1206178D01*
X734157Y1205824D02*
X787688Y1225307D01*
X528302Y1076564D02*
X571966Y1113203D01*
X1198327Y1230839D02*
X1211781Y1267803D01*
X971500Y1259183D02*
X1028500D01*
X956500D02*
Y1297475D01*
X491837Y1096686D02*
X516812Y1066923D01*
X600000Y240000D02*
Y300000D01*
X650000Y240000D02*
Y284003D01*
X600000Y240000D02*
X650000D01*
X1350000D02*
X1400000D01*
X1350000D02*
Y284003D01*
X1400000Y240000D02*
Y300000D01*
X1263000Y284003D02*
X1350000D01*
X1217500Y240000D02*
X1263000Y240003D01*
X737000D02*
X782500Y240000D01*
X1202500Y262500D02*
X1217500D01*
X1202500Y240000D02*
Y262500D01*
X1217500Y240000D02*
Y262500D01*
X782500D02*
X797500D01*
X782500Y240000D02*
Y262500D01*
X1043500Y1259183D02*
Y1297475D01*
X928046Y1295248D02*
X956500Y1297475D01*
X899698Y1291926D02*
X928046Y1295248D01*
X815720Y1275442D02*
X843493Y1282015D01*
X788219Y1267803D02*
X815720Y1275442D01*
X788219Y1267803D02*
X801815Y1230449D01*
X706466Y1238047D02*
X720062Y1200693D01*
X680489Y1226222D02*
X706466Y1238047D01*
X654988Y1213405D02*
X680489Y1226222D01*
X581711Y1169193D02*
X605562Y1184869D01*
X558483Y1152609D02*
X581711Y1169193D01*
X558483Y1152609D02*
X583457Y1122845D01*
X465000Y1070003D02*
X491837Y1096686D01*
X650000Y284003D02*
X737000D01*
Y240003D02*
Y284003D01*
X1263000Y240003D02*
Y284003D01*
X1350000Y739320D02*
X1535000D01*
Y1070003D01*
X1508163Y1096686D02*
X1535000Y1070003D01*
X1483103Y1066821D02*
X1508163Y1096686D01*
X1416458Y1122744D02*
X1441518Y1152609D01*
X1418289Y1169193D02*
X1441518Y1152609D01*
X1394438Y1184869D02*
X1418289Y1169193D01*
X1319511Y1226222D02*
X1345012Y1213405D01*
X1293534Y1238047D02*
X1319511Y1226222D01*
X1280080Y1201083D02*
X1293534Y1238047D01*
X1184281Y1275442D02*
X1211781Y1267803D01*
X1156507Y1282015D02*
X1184281Y1275442D01*
X1071954Y1295248D02*
X1100302Y1291926D01*
X1043500Y1297475D02*
X1071954Y1295248D01*
X465000Y770000D02*
X495000Y769999D01*
Y780000D01*
X465000D02*
X495000D01*
X465000D02*
Y1070003D01*
X500000Y739320D02*
Y760000D01*
X490000Y739320D02*
Y760000D01*
X500000D01*
X465000Y739320D02*
Y770000D01*
Y739320D02*
X490000D01*
X500000D02*
X650000D01*
X940000Y240000D02*
X950000Y230000D01*
X985000D01*
X995000Y240000D01*
X797500D02*
Y262500D01*
Y240000D02*
X940000D01*
X995000D02*
X1202500D01*
X623094Y1195627D02*
X634344Y1176141D01*
X636084Y1203126D02*
X647334Y1183641D01*
X634344Y1176141D02*
X647334Y1183641D01*
X636084Y1203126D02*
X654988Y1213405D01*
X605562Y1184869D02*
X623094Y1195627D01*
X867990Y1264046D02*
X882762Y1266651D01*
X878855Y1288809D02*
X882762Y1266651D01*
X864083Y1286205D02*
X867990Y1264046D01*
X1117174Y1266662D02*
X1131946Y1264058D01*
X1135853Y1286216D01*
X1117174Y1266662D02*
X1121081Y1288821D01*
X1352262Y1183874D02*
X1365252Y1176374D01*
X1376502Y1195859D01*
X1352262Y1183874D02*
X1363512Y1203360D01*
X1345012Y1213405D02*
X1363512Y1203360D01*
X1376502Y1195859D02*
X1394438Y1184869D01*
X1100302Y1291926D02*
X1121081Y1288821D01*
X1135853Y1286216D02*
X1156507Y1282015D01*
X843493D02*
X864083Y1286205D01*
X878855Y1288809D02*
X899698Y1291926D01*
X1350000Y310000D02*
Y739320D01*
Y310000D02*
X1360000Y300000D01*
X1400000D01*
X650000Y310000D02*
Y739320D01*
X640000Y300000D02*
X650000Y310000D01*
X600000Y300000D02*
X640000D01*
M02*
