%FSLAX44Y44*%
%MOMM*%
G71*
G01*
G75*
G04 Layer_Color=16711935*
%ADD10R,0.3000X0.5200*%
%ADD11R,0.3000X0.4900*%
%ADD12R,1.0000X0.9000*%
%ADD13R,1.0000X1.0000*%
%ADD14R,1.0000X1.8500*%
%ADD15R,1.0000X1.8000*%
%ADD16R,1.3000X0.6000*%
%ADD17R,0.9000X0.7000*%
%ADD18R,0.7000X0.9000*%
%ADD19R,0.6000X1.3000*%
%ADD20R,0.3000X0.8250*%
%ADD21R,1.3000X1.4000*%
%ADD22R,1.4000X1.9000*%
%ADD23R,0.8000X1.5000*%
%ADD24R,2.8000X2.8000*%
%ADD25O,0.2500X0.8000*%
%ADD26O,0.8000X0.2500*%
%ADD27R,0.4000X1.3500*%
%ADD28R,1.5000X2.0000*%
%ADD29O,2.2000X0.6000*%
%ADD30R,1.0000X1.0000*%
%ADD31R,1.0500X0.6000*%
%ADD32R,0.5000X0.5000*%
%ADD33O,1.7000X0.3500*%
%ADD34P,1.4142X4X270.0*%
%ADD35O,1.5000X4.0000*%
%ADD36P,1.4142X4X360.0*%
G04:AMPARAMS|DCode=37|XSize=0.9mm|YSize=0.7mm|CornerRadius=0mm|HoleSize=0mm|Usage=FLASHONLY|Rotation=135.000|XOffset=0mm|YOffset=0mm|HoleType=Round|Shape=Rectangle|*
%AMROTATEDRECTD37*
4,1,4,0.5657,-0.0707,0.0707,-0.5657,-0.5657,0.0707,-0.0707,0.5657,0.5657,-0.0707,0.0*
%
%ADD37ROTATEDRECTD37*%

G04:AMPARAMS|DCode=38|XSize=0.6mm|YSize=1.3mm|CornerRadius=0mm|HoleSize=0mm|Usage=FLASHONLY|Rotation=315.000|XOffset=0mm|YOffset=0mm|HoleType=Round|Shape=Rectangle|*
%AMROTATEDRECTD38*
4,1,4,-0.6717,-0.2475,0.2475,0.6717,0.6717,0.2475,-0.2475,-0.6717,-0.6717,-0.2475,0.0*
%
%ADD38ROTATEDRECTD38*%

%ADD39R,0.6000X0.6000*%
G04:AMPARAMS|DCode=40|XSize=1.5mm|YSize=4mm|CornerRadius=0mm|HoleSize=0mm|Usage=FLASHONLY|Rotation=220.000|XOffset=0mm|YOffset=0mm|HoleType=Round|Shape=Round|*
%AMOVALD40*
21,1,2.5000,1.5000,0.0000,0.0000,310.0*
1,1,1.5000,-0.8035,0.9576*
1,1,1.5000,0.8035,-0.9576*
%
%ADD40OVALD40*%

G04:AMPARAMS|DCode=41|XSize=1.5mm|YSize=4mm|CornerRadius=0mm|HoleSize=0mm|Usage=FLASHONLY|Rotation=200.000|XOffset=0mm|YOffset=0mm|HoleType=Round|Shape=Round|*
%AMOVALD41*
21,1,2.5000,1.5000,0.0000,0.0000,290.0*
1,1,1.5000,-0.4275,1.1746*
1,1,1.5000,0.4275,-1.1746*
%
%ADD41OVALD41*%

G04:AMPARAMS|DCode=42|XSize=1.5mm|YSize=4mm|CornerRadius=0mm|HoleSize=0mm|Usage=FLASHONLY|Rotation=160.000|XOffset=0mm|YOffset=0mm|HoleType=Round|Shape=Round|*
%AMOVALD42*
21,1,2.5000,1.5000,0.0000,0.0000,250.0*
1,1,1.5000,0.4275,1.1746*
1,1,1.5000,-0.4275,-1.1746*
%
%ADD42OVALD42*%

G04:AMPARAMS|DCode=43|XSize=1.5mm|YSize=4mm|CornerRadius=0mm|HoleSize=0mm|Usage=FLASHONLY|Rotation=140.000|XOffset=0mm|YOffset=0mm|HoleType=Round|Shape=Round|*
%AMOVALD43*
21,1,2.5000,1.5000,0.0000,0.0000,230.0*
1,1,1.5000,0.8035,0.9576*
1,1,1.5000,-0.8035,-0.9576*
%
%ADD43OVALD43*%

%ADD44O,0.3000X1.8000*%
%ADD45O,1.8000X0.3000*%
%ADD46C,0.5000*%
%ADD47C,0.3000*%
%ADD48C,0.2000*%
%ADD49C,0.8000*%
%ADD50C,0.6000*%
%ADD51C,0.1500*%
%ADD52C,0.2500*%
%ADD53C,1.0000*%
%ADD54C,0.9000*%
%ADD55C,0.4000*%
%ADD56C,0.2900*%
%ADD57R,0.5000X0.2500*%
%ADD58P,1.4849X4X90.0*%
%ADD59C,1.0500*%
%ADD60C,2.0000*%
%ADD61C,2.2000*%
%ADD62R,1.5000X1.5000*%
%ADD63C,1.5000*%
%ADD64C,1.7000*%
%ADD65C,1.0000*%
%ADD66C,1.2000*%
%ADD67C,2.4000*%
%ADD68C,8.0000*%
%ADD69C,1.2700*%
%ADD70R,1.2700X1.2700*%
%ADD71C,1.1000*%
%ADD72C,1.6000*%
%ADD73C,0.7000*%
%ADD74C,0.6600*%
%ADD75P,1.4142X4X250.0*%
%ADD76R,1.8500X1.0000*%
%ADD77R,1.8000X1.0000*%
%ADD78R,0.4000X0.5100*%
%ADD79O,0.3500X1.7000*%
%ADD80P,1.4142X4X200.0*%
%ADD81R,2.0000X5.5000*%
G04:AMPARAMS|DCode=82|XSize=0.9mm|YSize=0.7mm|CornerRadius=0mm|HoleSize=0mm|Usage=FLASHONLY|Rotation=45.000|XOffset=0mm|YOffset=0mm|HoleType=Round|Shape=Rectangle|*
%AMROTATEDRECTD82*
4,1,4,-0.0707,-0.5657,-0.5657,-0.0707,0.0707,0.5657,0.5657,0.0707,-0.0707,-0.5657,0.0*
%
%ADD82ROTATEDRECTD82*%

G04:AMPARAMS|DCode=83|XSize=0.4mm|YSize=0.51mm|CornerRadius=0mm|HoleSize=0mm|Usage=FLASHONLY|Rotation=315.000|XOffset=0mm|YOffset=0mm|HoleType=Round|Shape=Rectangle|*
%AMROTATEDRECTD83*
4,1,4,-0.3217,-0.0389,0.0389,0.3217,0.3217,0.0389,-0.0389,-0.3217,-0.3217,-0.0389,0.0*
%
%ADD83ROTATEDRECTD83*%

%ADD84R,0.5100X0.4000*%
%ADD85O,1.2700X2.2098*%
%ADD86R,1.2700X2.2098*%
%ADD87R,0.2600X0.4800*%
%ADD88R,0.2600X0.4500*%
%ADD89R,0.2700X0.7950*%
%ADD90R,2.7800X2.7800*%
%ADD91O,0.2300X0.7800*%
%ADD92O,0.7800X0.2300*%
%ADD93O,0.2000X1.7000*%
%ADD94O,1.7000X0.2000*%
%ADD95R,0.5032X0.7232*%
%ADD96R,0.5032X0.6932*%
%ADD97R,1.2032X1.1032*%
%ADD98R,1.2032X1.2032*%
%ADD99R,1.2032X2.0532*%
%ADD100R,1.2032X2.0032*%
%ADD101R,1.5032X0.8032*%
%ADD102R,1.1032X0.9032*%
%ADD103R,0.9032X1.1032*%
%ADD104R,0.8032X1.5032*%
%ADD105R,0.6000X1.1250*%
%ADD106R,1.5032X1.6032*%
%ADD107R,1.6032X2.1032*%
%ADD108R,1.0032X1.7032*%
%ADD109R,3.0032X3.0032*%
%ADD110O,0.4532X1.0032*%
%ADD111O,1.0032X0.4532*%
%ADD112R,0.6032X1.5532*%
%ADD113R,1.7032X2.2032*%
%ADD114O,2.4032X0.8032*%
%ADD115R,1.2032X1.2032*%
%ADD116R,1.2532X0.8032*%
%ADD117O,1.9032X0.5532*%
%ADD118P,1.7016X4X270.0*%
%ADD119O,1.7032X4.2032*%
%ADD120P,1.7016X4X360.0*%
G04:AMPARAMS|DCode=121|XSize=1.1032mm|YSize=0.9032mm|CornerRadius=0mm|HoleSize=0mm|Usage=FLASHONLY|Rotation=135.000|XOffset=0mm|YOffset=0mm|HoleType=Round|Shape=Rectangle|*
%AMROTATEDRECTD121*
4,1,4,0.7094,-0.0707,0.0707,-0.7094,-0.7094,0.0707,-0.0707,0.7094,0.7094,-0.0707,0.0*
%
%ADD121ROTATEDRECTD121*%

G04:AMPARAMS|DCode=122|XSize=0.8032mm|YSize=1.5032mm|CornerRadius=0mm|HoleSize=0mm|Usage=FLASHONLY|Rotation=315.000|XOffset=0mm|YOffset=0mm|HoleType=Round|Shape=Rectangle|*
%AMROTATEDRECTD122*
4,1,4,-0.8154,-0.2475,0.2475,0.8154,0.8154,0.2475,-0.2475,-0.8154,-0.8154,-0.2475,0.0*
%
%ADD122ROTATEDRECTD122*%

%ADD123R,0.8032X0.8032*%
G04:AMPARAMS|DCode=124|XSize=1.7032mm|YSize=4.2032mm|CornerRadius=0mm|HoleSize=0mm|Usage=FLASHONLY|Rotation=220.000|XOffset=0mm|YOffset=0mm|HoleType=Round|Shape=Round|*
%AMOVALD124*
21,1,2.5000,1.7032,0.0000,0.0000,310.0*
1,1,1.7032,-0.8035,0.9576*
1,1,1.7032,0.8035,-0.9576*
%
%ADD124OVALD124*%

G04:AMPARAMS|DCode=125|XSize=1.7032mm|YSize=4.2032mm|CornerRadius=0mm|HoleSize=0mm|Usage=FLASHONLY|Rotation=200.000|XOffset=0mm|YOffset=0mm|HoleType=Round|Shape=Round|*
%AMOVALD125*
21,1,2.5000,1.7032,0.0000,0.0000,290.0*
1,1,1.7032,-0.4275,1.1746*
1,1,1.7032,0.4275,-1.1746*
%
%ADD125OVALD125*%

G04:AMPARAMS|DCode=126|XSize=1.7032mm|YSize=4.2032mm|CornerRadius=0mm|HoleSize=0mm|Usage=FLASHONLY|Rotation=160.000|XOffset=0mm|YOffset=0mm|HoleType=Round|Shape=Round|*
%AMOVALD126*
21,1,2.5000,1.7032,0.0000,0.0000,250.0*
1,1,1.7032,0.4275,1.1746*
1,1,1.7032,-0.4275,-1.1746*
%
%ADD126OVALD126*%

G04:AMPARAMS|DCode=127|XSize=1.7032mm|YSize=4.2032mm|CornerRadius=0mm|HoleSize=0mm|Usage=FLASHONLY|Rotation=140.000|XOffset=0mm|YOffset=0mm|HoleType=Round|Shape=Round|*
%AMOVALD127*
21,1,2.5000,1.7032,0.0000,0.0000,230.0*
1,1,1.7032,0.8035,0.9576*
1,1,1.7032,-0.8035,-0.9576*
%
%ADD127OVALD127*%

%ADD128O,0.5032X2.0032*%
%ADD129O,2.0032X0.5032*%
%ADD130P,1.7723X4X90.0*%
%ADD131C,1.2532*%
%ADD132C,2.2032*%
%ADD133C,2.4032*%
%ADD134R,1.7032X1.7032*%
%ADD135C,1.7032*%
%ADD136C,1.9032*%
%ADD137C,1.2032*%
%ADD138C,1.4032*%
%ADD139C,2.6032*%
%ADD140C,8.2032*%
%ADD141C,1.6000*%
%ADD142C,1.4732*%
%ADD143R,1.4732X1.4732*%
%ADD144C,1.3032*%
%ADD145C,1.8032*%
%ADD146P,1.7016X4X250.0*%
%ADD147R,2.0532X1.2032*%
%ADD148R,2.0032X1.2032*%
%ADD149R,0.6032X0.7132*%
%ADD150O,0.5532X1.9032*%
%ADD151P,1.7016X4X200.0*%
%ADD152R,2.2032X5.7032*%
G04:AMPARAMS|DCode=153|XSize=1.1032mm|YSize=0.9032mm|CornerRadius=0mm|HoleSize=0mm|Usage=FLASHONLY|Rotation=45.000|XOffset=0mm|YOffset=0mm|HoleType=Round|Shape=Rectangle|*
%AMROTATEDRECTD153*
4,1,4,-0.0707,-0.7094,-0.7094,-0.0707,0.0707,0.7094,0.7094,0.0707,-0.0707,-0.7094,0.0*
%
%ADD153ROTATEDRECTD153*%

G04:AMPARAMS|DCode=154|XSize=0.6032mm|YSize=0.7132mm|CornerRadius=0mm|HoleSize=0mm|Usage=FLASHONLY|Rotation=315.000|XOffset=0mm|YOffset=0mm|HoleType=Round|Shape=Rectangle|*
%AMROTATEDRECTD154*
4,1,4,-0.4654,-0.0389,0.0389,0.4654,0.4654,0.0389,-0.0389,-0.4654,-0.4654,-0.0389,0.0*
%
%ADD154ROTATEDRECTD154*%

%ADD155R,0.7132X0.6032*%
%ADD156O,1.4732X2.4130*%
%ADD157R,1.4732X2.4130*%
%ADD158C,0.1000*%
D158*
X1075000Y450000D02*
G03*
X1075000Y450000I-75000J0D01*
G01*
X600000Y170000D02*
Y230000D01*
X650000Y170000D02*
Y214003D01*
X600000Y170000D02*
X650000D01*
X1350000D02*
X1400000D01*
X1350000D02*
Y214003D01*
X1400000Y170000D02*
Y230000D01*
X1263000Y214003D02*
X1350000D01*
X1217500Y170000D02*
X1263000Y170003D01*
X737000D02*
X782500Y170000D01*
X1202500Y192500D02*
X1217500D01*
X1202500Y170000D02*
Y192500D01*
X1217500Y170000D02*
Y192500D01*
X782500D02*
X797500D01*
X782500Y170000D02*
Y192500D01*
X1043500Y1191003D02*
Y1227475D01*
X956500Y1191003D02*
X1043500D01*
X956500D02*
Y1227475D01*
X928046Y1225248D02*
X956500Y1227475D01*
X899698Y1221925D02*
X928046Y1225248D01*
X815720Y1205442D02*
X843493Y1212015D01*
X788219Y1197803D02*
X815720Y1205442D01*
X788219Y1197803D02*
X800693Y1163530D01*
X718940Y1133774D02*
X800693Y1163530D01*
X706466Y1168046D02*
X718940Y1133774D01*
X680489Y1156222D02*
X706466Y1168046D01*
X654988Y1143405D02*
X680489Y1156222D01*
X581711Y1099193D02*
X605562Y1114868D01*
X558483Y1082608D02*
X581711Y1099193D01*
X558483Y1082608D02*
X581926Y1054669D01*
X515281Y998747D02*
X581926Y1054669D01*
X491837Y1026686D02*
X515281Y998747D01*
X465000Y1000003D02*
X491837Y1026686D01*
X650000Y214003D02*
X737000D01*
Y170003D02*
Y214003D01*
X1263000Y170003D02*
Y214003D01*
X1350000Y669320D02*
X1535000D01*
Y1000003D01*
X1508163Y1026686D02*
X1535000Y1000003D01*
X1484719Y998747D02*
X1508163Y1026686D01*
X1418074Y1054669D02*
X1484719Y998747D01*
X1418074Y1054669D02*
X1441518Y1082608D01*
X1418289Y1099193D02*
X1441518Y1082608D01*
X1394438Y1114868D02*
X1418289Y1099193D01*
X1319511Y1156222D02*
X1345012Y1143405D01*
X1293534Y1168047D02*
X1319511Y1156222D01*
X1281060Y1133774D02*
X1293534Y1168047D01*
X1199307Y1163530D02*
X1281060Y1133774D01*
X1199307Y1163530D02*
X1211781Y1197803D01*
X1184281Y1205442D02*
X1211781Y1197803D01*
X1156507Y1212015D02*
X1184281Y1205442D01*
X1071954Y1225248D02*
X1100302Y1221925D01*
X1043500Y1227475D02*
X1071954Y1225248D01*
X465000Y700000D02*
X495000Y699999D01*
Y710000D01*
X465000D02*
X495000D01*
X465000D02*
Y1000003D01*
X500000Y669320D02*
Y690000D01*
X490000Y669320D02*
Y690000D01*
X500000D01*
X465000Y669320D02*
Y700000D01*
Y669320D02*
X490000D01*
X500000D02*
X650000D01*
X940000Y170000D02*
X950000Y160000D01*
X985000D01*
X995000Y170000D01*
X797500D02*
Y192500D01*
Y170000D02*
X940000D01*
X995000D02*
X1202500D01*
X623094Y1125626D02*
X634344Y1106141D01*
X636084Y1133126D02*
X647334Y1113641D01*
X634344Y1106141D02*
X647334Y1113641D01*
X636084Y1133126D02*
X654988Y1143405D01*
X605562Y1114868D02*
X623094Y1125626D01*
X867990Y1194046D02*
X882762Y1196651D01*
X878855Y1218809D02*
X882762Y1196651D01*
X864083Y1216204D02*
X867990Y1194046D01*
X1117174Y1196662D02*
X1131946Y1194058D01*
X1135853Y1216216D01*
X1117174Y1196662D02*
X1121081Y1218820D01*
X1352262Y1113874D02*
X1365252Y1106374D01*
X1376502Y1125859D01*
X1352262Y1113874D02*
X1363512Y1133360D01*
X1345012Y1143405D02*
X1363512Y1133360D01*
X1376502Y1125859D02*
X1394438Y1114868D01*
X1100302Y1221925D02*
X1121081Y1218820D01*
X1135853Y1216216D02*
X1156507Y1212015D01*
X843493D02*
X864083Y1216204D01*
X878855Y1218809D02*
X899698Y1221925D01*
X1350000Y240000D02*
Y669320D01*
Y240000D02*
X1360000Y230000D01*
X1400000D01*
X650000Y240000D02*
Y669320D01*
X640000Y230000D02*
X650000Y240000D01*
X600000Y230000D02*
X640000D01*
M02*
