%FSLAX44Y44*%
%MOMM*%
G71*
G01*
G75*
G04 Layer_Color=16711935*
%ADD10R,0.7000X0.9000*%
%ADD11R,0.9000X0.7000*%
G04:AMPARAMS|DCode=12|XSize=0.9mm|YSize=0.7mm|CornerRadius=0mm|HoleSize=0mm|Usage=FLASHONLY|Rotation=315.000|XOffset=0mm|YOffset=0mm|HoleType=Round|Shape=Rectangle|*
%AMROTATEDRECTD12*
4,1,4,-0.5657,0.0707,-0.0707,0.5657,0.5657,-0.0707,0.0707,-0.5657,-0.5657,0.0707,0.0*
%
%ADD12ROTATEDRECTD12*%

%ADD13O,1.1000X2.5000*%
G04:AMPARAMS|DCode=14|XSize=1.1mm|YSize=2.5mm|CornerRadius=0mm|HoleSize=0mm|Usage=FLASHONLY|Rotation=140.000|XOffset=0mm|YOffset=0mm|HoleType=Round|Shape=Round|*
%AMOVALD14*
21,1,1.4000,1.1000,0.0000,0.0000,230.0*
1,1,1.1000,0.4500,0.5362*
1,1,1.1000,-0.4500,-0.5362*
%
%ADD14OVALD14*%

G04:AMPARAMS|DCode=15|XSize=1.1mm|YSize=2.5mm|CornerRadius=0mm|HoleSize=0mm|Usage=FLASHONLY|Rotation=160.000|XOffset=0mm|YOffset=0mm|HoleType=Round|Shape=Round|*
%AMOVALD15*
21,1,1.4000,1.1000,0.0000,0.0000,250.0*
1,1,1.1000,0.2394,0.6578*
1,1,1.1000,-0.2394,-0.6578*
%
%ADD15OVALD15*%

G04:AMPARAMS|DCode=16|XSize=1.1mm|YSize=2.5mm|CornerRadius=0mm|HoleSize=0mm|Usage=FLASHONLY|Rotation=200.000|XOffset=0mm|YOffset=0mm|HoleType=Round|Shape=Round|*
%AMOVALD16*
21,1,1.4000,1.1000,0.0000,0.0000,290.0*
1,1,1.1000,-0.2394,0.6578*
1,1,1.1000,0.2394,-0.6578*
%
%ADD16OVALD16*%

G04:AMPARAMS|DCode=17|XSize=1.1mm|YSize=2.5mm|CornerRadius=0mm|HoleSize=0mm|Usage=FLASHONLY|Rotation=220.000|XOffset=0mm|YOffset=0mm|HoleType=Round|Shape=Round|*
%AMOVALD17*
21,1,1.4000,1.1000,0.0000,0.0000,310.0*
1,1,1.1000,-0.4500,0.5362*
1,1,1.1000,0.4500,-0.5362*
%
%ADD17OVALD17*%

%ADD18R,1.0000X1.0000*%
%ADD19R,1.4000X1.9000*%
%ADD20R,0.8000X1.5000*%
%ADD21R,1.3000X1.4000*%
%ADD22O,1.8000X0.3000*%
%ADD23O,0.3000X1.8000*%
%ADD24R,1.0000X1.8000*%
%ADD25R,1.0000X1.8500*%
%ADD26R,1.5000X2.0000*%
%ADD27R,0.4000X1.3500*%
%ADD28R,1.0000X0.9000*%
%ADD29R,0.6000X0.6000*%
%ADD30O,0.2600X0.9000*%
%ADD31O,1.7000X0.3500*%
%ADD32O,0.8000X0.2500*%
%ADD33O,0.2500X0.8000*%
%ADD34R,2.8000X2.8000*%
%ADD35R,0.3000X0.4900*%
%ADD36R,0.3000X0.5200*%
%ADD37R,1.0500X0.6000*%
%ADD38O,2.2000X0.6000*%
%ADD39R,0.5000X0.5000*%
%ADD40R,1.3000X0.6000*%
%ADD41P,1.4142X4X270.0*%
%ADD42R,0.6000X1.3000*%
%ADD43P,1.4142X4X360.0*%
%ADD44R,1.0000X1.0000*%
%ADD45C,1.0000*%
%ADD46C,0.5000*%
%ADD47C,0.4000*%
%ADD48C,0.3000*%
%ADD49C,0.1500*%
%ADD50C,0.2000*%
%ADD51C,0.6000*%
%ADD52C,0.8000*%
%ADD53C,0.9000*%
%ADD54C,0.2500*%
%ADD55C,0.7500*%
%ADD56C,0.2900*%
%ADD57C,0.8500*%
%ADD58R,0.5000X0.2500*%
%ADD59C,1.4000*%
G04:AMPARAMS|DCode=60|XSize=1.4mm|YSize=1.4mm|CornerRadius=0.35mm|HoleSize=0mm|Usage=FLASHONLY|Rotation=90.000|XOffset=0mm|YOffset=0mm|HoleType=Round|Shape=RoundedRectangle|*
%AMROUNDEDRECTD60*
21,1,1.4000,0.7000,0,0,90.0*
21,1,0.7000,1.4000,0,0,90.0*
1,1,0.7000,0.3500,0.3500*
1,1,0.7000,0.3500,-0.3500*
1,1,0.7000,-0.3500,-0.3500*
1,1,0.7000,-0.3500,0.3500*
%
%ADD60ROUNDEDRECTD60*%
%ADD61C,1.5000*%
%ADD62R,1.5000X1.5000*%
%ADD63R,0.9000X0.9000*%
%ADD64C,0.9000*%
%ADD65C,1.6000*%
%ADD66C,1.2000*%
%ADD67R,1.2700X1.2700*%
%ADD68C,1.2700*%
%ADD69C,2.2000*%
%ADD70C,1.1000*%
G04:AMPARAMS|DCode=71|XSize=1mm|YSize=1.4mm|CornerRadius=0.5mm|HoleSize=0mm|Usage=FLASHONLY|Rotation=45.000|XOffset=0mm|YOffset=0mm|HoleType=Round|Shape=RoundedRectangle|*
%AMROUNDEDRECTD71*
21,1,1.0000,0.4000,0,0,45.0*
21,1,0.0000,1.4000,0,0,45.0*
1,1,1.0000,0.1414,-0.1414*
1,1,1.0000,0.1414,-0.1414*
1,1,1.0000,-0.1414,0.1414*
1,1,1.0000,-0.1414,0.1414*
%
%ADD71ROUNDEDRECTD71*%
G04:AMPARAMS|DCode=72|XSize=1mm|YSize=1.4mm|CornerRadius=0mm|HoleSize=0mm|Usage=FLASHONLY|Rotation=45.000|XOffset=0mm|YOffset=0mm|HoleType=Round|Shape=Rectangle|*
%AMROTATEDRECTD72*
4,1,4,0.1414,-0.8485,-0.8485,0.1414,-0.1414,0.8485,0.8485,-0.1414,0.1414,-0.8485,0.0*
%
%ADD72ROTATEDRECTD72*%

%ADD73C,1.7000*%
%ADD74C,2.4000*%
%ADD75C,8.0000*%
%ADD76C,0.7000*%
%ADD77C,0.6000*%
%ADD78C,0.6600*%
%ADD79R,2.0000X0.7000*%
%ADD80R,0.7000X2.0000*%
%ADD81R,2.0000X5.5000*%
%ADD82R,0.5100X0.4000*%
%ADD83R,1.8000X1.0000*%
%ADD84R,1.8500X1.0000*%
%ADD85R,0.4000X0.5100*%
%ADD86O,0.3500X1.7000*%
%ADD87P,1.4142X4X200.0*%
%ADD88P,1.4142X4X250.0*%
%ADD89C,0.7000*%
%ADD90C,0.2800*%
%ADD91O,1.2700X1.2710*%
%ADD92O,1.2700X2.2098*%
%ADD93C,0.1000*%
%ADD94C,0.2540*%
%ADD95O,1.7000X0.2000*%
%ADD96O,0.2000X1.7000*%
%ADD97O,0.2100X0.8500*%
%ADD98O,0.7800X0.2300*%
%ADD99O,0.2300X0.7800*%
%ADD100R,1.8000X1.8000*%
%ADD101R,0.2600X0.4500*%
%ADD102R,0.2600X0.4800*%
%ADD103R,0.8000X1.0000*%
%ADD104R,1.0000X0.8000*%
G04:AMPARAMS|DCode=105|XSize=1mm|YSize=0.8mm|CornerRadius=0mm|HoleSize=0mm|Usage=FLASHONLY|Rotation=315.000|XOffset=0mm|YOffset=0mm|HoleType=Round|Shape=Rectangle|*
%AMROTATEDRECTD105*
4,1,4,-0.6364,0.0707,-0.0707,0.6364,0.6364,-0.0707,0.0707,-0.6364,-0.6364,0.0707,0.0*
%
%ADD105ROTATEDRECTD105*%

%ADD106O,1.2000X2.6000*%
G04:AMPARAMS|DCode=107|XSize=1.2mm|YSize=2.6mm|CornerRadius=0mm|HoleSize=0mm|Usage=FLASHONLY|Rotation=140.000|XOffset=0mm|YOffset=0mm|HoleType=Round|Shape=Round|*
%AMOVALD107*
21,1,1.4000,1.2000,0.0000,0.0000,230.0*
1,1,1.2000,0.4500,0.5362*
1,1,1.2000,-0.4500,-0.5362*
%
%ADD107OVALD107*%

G04:AMPARAMS|DCode=108|XSize=1.2mm|YSize=2.6mm|CornerRadius=0mm|HoleSize=0mm|Usage=FLASHONLY|Rotation=160.000|XOffset=0mm|YOffset=0mm|HoleType=Round|Shape=Round|*
%AMOVALD108*
21,1,1.4000,1.2000,0.0000,0.0000,250.0*
1,1,1.2000,0.2394,0.6578*
1,1,1.2000,-0.2394,-0.6578*
%
%ADD108OVALD108*%

G04:AMPARAMS|DCode=109|XSize=1.2mm|YSize=2.6mm|CornerRadius=0mm|HoleSize=0mm|Usage=FLASHONLY|Rotation=200.000|XOffset=0mm|YOffset=0mm|HoleType=Round|Shape=Round|*
%AMOVALD109*
21,1,1.4000,1.2000,0.0000,0.0000,290.0*
1,1,1.2000,-0.2394,0.6578*
1,1,1.2000,0.2394,-0.6578*
%
%ADD109OVALD109*%

G04:AMPARAMS|DCode=110|XSize=1.2mm|YSize=2.6mm|CornerRadius=0mm|HoleSize=0mm|Usage=FLASHONLY|Rotation=220.000|XOffset=0mm|YOffset=0mm|HoleType=Round|Shape=Round|*
%AMOVALD110*
21,1,1.4000,1.2000,0.0000,0.0000,310.0*
1,1,1.2000,-0.4500,0.5362*
1,1,1.2000,0.4500,-0.5362*
%
%ADD110OVALD110*%

%ADD111R,1.1000X1.1000*%
%ADD112R,1.5000X2.0000*%
%ADD113R,0.9000X1.6000*%
%ADD114R,1.4000X1.5000*%
%ADD115O,1.9000X0.4000*%
%ADD116O,0.4000X1.9000*%
%ADD117R,1.1000X1.9000*%
%ADD118R,1.1000X1.9500*%
%ADD119R,1.6000X2.1000*%
%ADD120R,0.5000X1.4500*%
%ADD121R,1.1000X1.0000*%
%ADD122R,0.7000X0.7000*%
%ADD123O,0.3100X0.9500*%
%ADD124O,1.8000X0.4500*%
%ADD125O,0.9000X0.3500*%
%ADD126O,0.3500X0.9000*%
%ADD127R,2.9000X2.9000*%
%ADD128R,0.4000X0.5900*%
%ADD129R,0.4000X0.6200*%
%ADD130R,1.1500X0.7000*%
%ADD131O,2.3000X0.7000*%
%ADD132R,1.4000X0.7000*%
%ADD133P,1.5556X4X270.0*%
%ADD134R,0.7000X1.4000*%
%ADD135P,1.5556X4X360.0*%
%ADD136R,1.1000X1.1000*%
%ADD137C,1.6032*%
G04:AMPARAMS|DCode=138|XSize=1.6032mm|YSize=1.6032mm|CornerRadius=0.4516mm|HoleSize=0mm|Usage=FLASHONLY|Rotation=90.000|XOffset=0mm|YOffset=0mm|HoleType=Round|Shape=RoundedRectangle|*
%AMROUNDEDRECTD138*
21,1,1.6032,0.7000,0,0,90.0*
21,1,0.7000,1.6032,0,0,90.0*
1,1,0.9032,0.3500,0.3500*
1,1,0.9032,0.3500,-0.3500*
1,1,0.9032,-0.3500,-0.3500*
1,1,0.9032,-0.3500,0.3500*
%
%ADD138ROUNDEDRECTD138*%
%ADD139R,1.6000X1.6000*%
%ADD140C,1.0000*%
%ADD141C,1.3000*%
%ADD142R,1.3700X1.3700*%
%ADD143C,1.3700*%
%ADD144C,1.6000*%
%ADD145C,2.3000*%
G04:AMPARAMS|DCode=146|XSize=1.1mm|YSize=1.5mm|CornerRadius=0.55mm|HoleSize=0mm|Usage=FLASHONLY|Rotation=45.000|XOffset=0mm|YOffset=0mm|HoleType=Round|Shape=RoundedRectangle|*
%AMROUNDEDRECTD146*
21,1,1.1000,0.4000,0,0,45.0*
21,1,0.0000,1.5000,0,0,45.0*
1,1,1.1000,0.1414,-0.1414*
1,1,1.1000,0.1414,-0.1414*
1,1,1.1000,-0.1414,0.1414*
1,1,1.1000,-0.1414,0.1414*
%
%ADD146ROUNDEDRECTD146*%
G04:AMPARAMS|DCode=147|XSize=1.1mm|YSize=1.5mm|CornerRadius=0mm|HoleSize=0mm|Usage=FLASHONLY|Rotation=45.000|XOffset=0mm|YOffset=0mm|HoleType=Round|Shape=Rectangle|*
%AMROTATEDRECTD147*
4,1,4,0.1414,-0.9192,-0.9192,0.1414,-0.1414,0.9192,0.9192,-0.1414,0.1414,-0.9192,0.0*
%
%ADD147ROTATEDRECTD147*%

%ADD148C,1.8000*%
%ADD149C,2.5000*%
%ADD150C,8.1000*%
%ADD151R,2.1000X0.8000*%
%ADD152R,0.8000X2.1000*%
%ADD153R,2.1000X5.6000*%
%ADD154R,0.6100X0.5000*%
%ADD155R,1.9000X1.1000*%
%ADD156R,1.9500X1.1000*%
%ADD157R,0.5000X0.6100*%
%ADD158O,0.4500X1.8000*%
%ADD159P,1.5556X4X200.0*%
%ADD160P,1.5556X4X250.0*%
%ADD161O,1.3700X1.3710*%
%ADD162O,1.3700X2.3098*%
D93*
X1075000Y520000D02*
G03*
X1075000Y520000I-75000J0D01*
G01*
X955500Y1259183D02*
G03*
X970500Y1259183I7500J0D01*
G01*
X1029500D02*
G03*
X1044500Y1259183I7500J0D01*
G01*
X788644Y1225655D02*
G03*
X802739Y1230786I7048J2565D01*
G01*
X719107Y1200346D02*
G03*
X733202Y1205476I7048J2565D01*
G01*
X572733Y1113846D02*
G03*
X584223Y1123488I5745J4821D01*
G01*
X516045Y1066280D02*
G03*
X527536Y1075922I5745J4821D01*
G01*
X1266983Y1205850D02*
G03*
X1281079Y1200720I7048J-2565D01*
G01*
X1197446Y1231159D02*
G03*
X1211542Y1226029I7048J-2565D01*
G01*
X1472598Y1076038D02*
G03*
X1484089Y1066396I5745J-4821D01*
G01*
X1415911Y1123604D02*
G03*
X1427402Y1113962I5745J-4821D01*
G01*
X600000Y300000D02*
X640000D01*
X650000Y310000D01*
Y739320D01*
X1360000Y300000D02*
X1400000D01*
X1350000Y310000D02*
X1360000Y300000D01*
X1350000Y310000D02*
Y739320D01*
X878855Y1288809D02*
X899698Y1291926D01*
X843493Y1282015D02*
X864083Y1286205D01*
X1135853Y1286216D02*
X1156507Y1282015D01*
X1100302Y1291926D02*
X1121081Y1288821D01*
X1376502Y1195859D02*
X1394438Y1184869D01*
X1345012Y1213405D02*
X1363512Y1203360D01*
X1352262Y1183874D02*
X1363512Y1203360D01*
X1365252Y1176374D02*
X1376502Y1195859D01*
X1352262Y1183874D02*
X1365252Y1176374D01*
X1117174Y1266662D02*
X1121081Y1288821D01*
X1131946Y1264058D02*
X1135853Y1286216D01*
X1117174Y1266662D02*
X1131946Y1264058D01*
X864083Y1286205D02*
X867990Y1264046D01*
X878855Y1288809D02*
X882762Y1266651D01*
X867990Y1264046D02*
X882762Y1266651D01*
X605562Y1184869D02*
X623094Y1195627D01*
X636084Y1203126D02*
X654988Y1213405D01*
X634344Y1176141D02*
X647334Y1183641D01*
X636084Y1203126D02*
X647334Y1183641D01*
X623094Y1195627D02*
X634344Y1176141D01*
X995000Y240000D02*
X1202500D01*
X797500D02*
X940000D01*
X797500D02*
Y262500D01*
X985000Y230000D02*
X995000Y240000D01*
X950000Y230000D02*
X985000D01*
X940000Y240000D02*
X950000Y230000D01*
X500000Y739320D02*
X650000D01*
X465000D02*
X490000D01*
X465000D02*
Y770000D01*
X490000Y760000D02*
X500000D01*
X490000Y739320D02*
Y760000D01*
X500000Y739320D02*
Y760000D01*
X465000Y780000D02*
Y1070003D01*
Y780000D02*
X495000D01*
Y769999D02*
Y780000D01*
X465000Y770000D02*
X495000Y769999D01*
X1044494Y1297397D02*
X1071954Y1295248D01*
X1100302Y1291926D01*
X1156507Y1282015D02*
X1184281Y1275442D01*
X1210880Y1268053D01*
X1294498Y1237608D02*
X1319511Y1226222D01*
X1345012Y1213405D01*
X1394438Y1184869D02*
X1418289Y1169193D01*
X1535000Y739320D02*
Y1070003D01*
X1350000Y739320D02*
X1535000D01*
X1262000Y240003D02*
Y284003D01*
X738000Y240003D02*
Y284003D01*
X649000D02*
X738000D01*
X581711Y1169193D02*
X605562Y1184869D01*
X654988Y1213405D02*
X680489Y1226222D01*
X705544Y1237627D01*
X789168Y1268066D02*
X815720Y1275442D01*
X843493Y1282015D01*
X899698Y1291926D02*
X928046Y1295248D01*
X1044494Y1297397D02*
X1044500Y1259183D01*
X782500Y240000D02*
Y262500D01*
X797500D01*
X1217500Y240000D02*
Y262500D01*
X1202500Y240000D02*
Y262500D01*
X1217500D01*
X738000Y240003D02*
X782500Y240000D01*
X1217500D02*
X1262000Y240003D01*
Y284003D02*
X1351000D01*
X1400000Y240000D02*
Y300000D01*
X1351000Y240000D02*
Y284003D01*
Y240000D02*
X1400000D01*
X600000D02*
X649000D01*
Y284003D01*
X600000Y240000D02*
Y300000D01*
X970500Y1259183D02*
X1029500D01*
X733202Y1205476D02*
X788644Y1225655D01*
X705511Y1237699D02*
X719107Y1200346D01*
X789163Y1268085D02*
X802739Y1230786D01*
X527536Y1075922D02*
X572733Y1113846D01*
X1211542Y1226029D02*
X1266983Y1205850D01*
X1197446Y1231159D02*
X1210900Y1268123D01*
X1281079Y1200720D02*
X1294533Y1237684D01*
X1427402Y1113962D02*
X1472598Y1076038D01*
X1508913Y1095941D02*
X1535000Y1070003D01*
X1484089Y1066396D02*
X1508703Y1095729D01*
X1418289Y1169193D02*
X1440704Y1153189D01*
X1415911Y1123604D02*
X1440525Y1152937D01*
X559330Y1153214D02*
X581711Y1169193D01*
X559330Y1153214D02*
X584223Y1123488D01*
X465000Y1070003D02*
X491097Y1095950D01*
X516045Y1066280D01*
X928046Y1295248D02*
X955506Y1297397D01*
X955500Y1259183D02*
X955506Y1297397D01*
M02*
