G04 Layer_Color=8421504*
%FSLAX44Y44*%
%MOMM*%
G71*
G01*
G75*
%ADD10R,0.9000X0.7000*%
%ADD11R,1.4000X2.0000*%
%ADD12R,1.0000X2.0000*%
%ADD13R,0.7000X0.9000*%
%ADD14R,0.4500X1.3000*%
G04:AMPARAMS|DCode=15|XSize=0.9mm|YSize=0.7mm|CornerRadius=0mm|HoleSize=0mm|Usage=FLASHONLY|Rotation=315.000|XOffset=0mm|YOffset=0mm|HoleType=Round|Shape=Rectangle|*
%AMROTATEDRECTD15*
4,1,4,-0.5657,0.0707,-0.0707,0.5657,0.5657,-0.0707,0.0707,-0.5657,-0.5657,0.0707,0.0*
%
%ADD15ROTATEDRECTD15*%

%ADD16R,1.0000X1.0000*%
%ADD17R,1.4000X1.9000*%
%ADD18R,0.8000X1.5000*%
%ADD19R,1.3000X1.4000*%
%ADD22R,1.0000X0.9000*%
%ADD23R,0.6000X0.6000*%
%ADD25O,1.7000X0.3500*%
%ADD31R,1.0500X0.6000*%
%ADD32O,2.2000X0.6000*%
%ADD34R,1.3000X0.6000*%
%ADD35P,1.4142X4X270.0*%
%ADD36R,0.6000X1.3000*%
%ADD37P,1.4142X4X360.0*%
%ADD38R,1.0000X1.0000*%
%ADD96O,1.7000X0.2000*%
%ADD97O,0.2000X1.7000*%
%ADD98O,0.2100X0.8500*%
%ADD99O,0.7800X0.2300*%
%ADD100O,0.2300X0.7800*%
%ADD101R,1.8000X1.8000*%
%ADD102R,0.2600X0.4500*%
%ADD103R,0.2600X0.4800*%
%ADD104O,0.9000X2.3000*%
G04:AMPARAMS|DCode=105|XSize=0.9mm|YSize=2.3mm|CornerRadius=0mm|HoleSize=0mm|Usage=FLASHONLY|Rotation=140.000|XOffset=0mm|YOffset=0mm|HoleType=Round|Shape=Round|*
%AMOVALD105*
21,1,1.4000,0.9000,0.0000,0.0000,230.0*
1,1,0.9000,0.4500,0.5362*
1,1,0.9000,-0.4500,-0.5362*
%
%ADD105OVALD105*%

G04:AMPARAMS|DCode=106|XSize=0.9mm|YSize=2.3mm|CornerRadius=0mm|HoleSize=0mm|Usage=FLASHONLY|Rotation=160.000|XOffset=0mm|YOffset=0mm|HoleType=Round|Shape=Round|*
%AMOVALD106*
21,1,1.4000,0.9000,0.0000,0.0000,250.0*
1,1,0.9000,0.2394,0.6578*
1,1,0.9000,-0.2394,-0.6578*
%
%ADD106OVALD106*%

G04:AMPARAMS|DCode=107|XSize=0.9mm|YSize=2.3mm|CornerRadius=0mm|HoleSize=0mm|Usage=FLASHONLY|Rotation=200.000|XOffset=0mm|YOffset=0mm|HoleType=Round|Shape=Round|*
%AMOVALD107*
21,1,1.4000,0.9000,0.0000,0.0000,290.0*
1,1,0.9000,-0.2394,0.6578*
1,1,0.9000,0.2394,-0.6578*
%
%ADD107OVALD107*%

G04:AMPARAMS|DCode=108|XSize=0.9mm|YSize=2.3mm|CornerRadius=0mm|HoleSize=0mm|Usage=FLASHONLY|Rotation=220.000|XOffset=0mm|YOffset=0mm|HoleType=Round|Shape=Round|*
%AMOVALD108*
21,1,1.4000,0.9000,0.0000,0.0000,310.0*
1,1,0.9000,-0.4500,0.5362*
1,1,0.9000,0.4500,-0.5362*
%
%ADD108OVALD108*%

D10*
X710250Y680500D02*
D03*
Y695500D02*
D03*
X1017500Y829750D02*
D03*
Y814750D02*
D03*
X1372000Y799500D02*
D03*
Y784500D02*
D03*
X1372000Y812500D02*
D03*
Y827500D02*
D03*
X510750Y773750D02*
D03*
Y788750D02*
D03*
X917000Y457250D02*
D03*
Y472250D02*
D03*
X820000Y460000D02*
D03*
Y475000D02*
D03*
X803000Y475500D02*
D03*
Y460500D02*
D03*
X788000Y459500D02*
D03*
Y444500D02*
D03*
X865000Y868250D02*
D03*
Y853250D02*
D03*
X1309750Y474250D02*
D03*
Y459250D02*
D03*
X1249000Y474500D02*
D03*
Y459500D02*
D03*
X1173000Y513500D02*
D03*
Y498500D02*
D03*
X1111750Y517750D02*
D03*
Y502750D02*
D03*
X1015750Y352500D02*
D03*
Y367500D02*
D03*
X1073000Y668000D02*
D03*
Y683000D02*
D03*
X1071000Y715750D02*
D03*
Y700750D02*
D03*
X830000Y766750D02*
D03*
Y751750D02*
D03*
X767250Y763750D02*
D03*
Y748750D02*
D03*
X715500Y342250D02*
D03*
Y357250D02*
D03*
X1326500Y344250D02*
D03*
Y359250D02*
D03*
X715500Y1171000D02*
D03*
Y1156000D02*
D03*
X1221750Y1171500D02*
D03*
Y1156500D02*
D03*
X559000Y1037500D02*
D03*
Y1022500D02*
D03*
X979000Y1192000D02*
D03*
Y1177000D02*
D03*
X1297500Y560750D02*
D03*
Y545750D02*
D03*
X1200465Y576500D02*
D03*
Y591500D02*
D03*
X1184500Y576364D02*
D03*
Y591364D02*
D03*
X1252000Y840250D02*
D03*
Y825250D02*
D03*
X1236250Y840500D02*
D03*
Y825500D02*
D03*
X682500Y1050750D02*
D03*
Y1065750D02*
D03*
X677750Y1117000D02*
D03*
Y1132000D02*
D03*
X1342750Y1133500D02*
D03*
Y1118500D02*
D03*
X1328000Y1054500D02*
D03*
Y1039500D02*
D03*
X1251000Y780500D02*
D03*
Y765500D02*
D03*
X1312000Y750500D02*
D03*
Y765500D02*
D03*
X1236000Y780500D02*
D03*
Y765500D02*
D03*
X703750Y372250D02*
D03*
Y387250D02*
D03*
X1263500Y407000D02*
D03*
Y392000D02*
D03*
X1500000Y927500D02*
D03*
Y912500D02*
D03*
X1008500Y778250D02*
D03*
Y793250D02*
D03*
X724750Y992000D02*
D03*
Y1007000D02*
D03*
X845250Y1138500D02*
D03*
Y1153500D02*
D03*
X731000Y559500D02*
D03*
Y574500D02*
D03*
X834750Y621750D02*
D03*
Y636750D02*
D03*
X525000Y746000D02*
D03*
Y761000D02*
D03*
X1199000Y775750D02*
D03*
Y790750D02*
D03*
X1184000D02*
D03*
Y775750D02*
D03*
X1165000Y265500D02*
D03*
Y280500D02*
D03*
X1073000Y373250D02*
D03*
Y388250D02*
D03*
X1058000Y393500D02*
D03*
Y378500D02*
D03*
X1132000Y401500D02*
D03*
Y416500D02*
D03*
X879750Y853000D02*
D03*
Y868000D02*
D03*
X1357000Y812500D02*
D03*
Y827500D02*
D03*
X1357000Y784250D02*
D03*
Y799250D02*
D03*
X1387000Y783500D02*
D03*
Y798500D02*
D03*
X772000Y445500D02*
D03*
Y460500D02*
D03*
X630750Y832500D02*
D03*
Y817500D02*
D03*
X526000Y774000D02*
D03*
Y789000D02*
D03*
X588000Y847750D02*
D03*
Y862750D02*
D03*
X1147000Y398750D02*
D03*
Y413750D02*
D03*
X1370000Y861500D02*
D03*
Y846500D02*
D03*
X1313250Y545517D02*
D03*
Y560517D02*
D03*
X776250Y656250D02*
D03*
Y671250D02*
D03*
X711750Y660750D02*
D03*
Y645750D02*
D03*
D11*
X1236465Y506000D02*
D03*
X1200465D02*
D03*
Y554000D02*
D03*
X1236465D02*
D03*
X798000Y506000D02*
D03*
X762000D02*
D03*
Y554000D02*
D03*
X798000D02*
D03*
D12*
X1218465Y506000D02*
D03*
Y554000D02*
D03*
X780000Y506000D02*
D03*
Y554000D02*
D03*
D13*
X1408000Y828000D02*
D03*
X1393000D02*
D03*
X631502Y848003D02*
D03*
X646503D02*
D03*
X1297500Y758000D02*
D03*
X1282500D02*
D03*
X1478500Y833500D02*
D03*
X1493500D02*
D03*
X860500Y415000D02*
D03*
X875500D02*
D03*
X1443500Y785000D02*
D03*
X1428500D02*
D03*
X1077351Y314000D02*
D03*
X1062351D02*
D03*
X1139000Y759000D02*
D03*
X1154000D02*
D03*
X1227464Y692000D02*
D03*
X1242464D02*
D03*
X1140000Y605000D02*
D03*
X1155000D02*
D03*
X1227464Y677000D02*
D03*
X1242464D02*
D03*
X1170000Y789000D02*
D03*
X1155000D02*
D03*
X1368750Y1005500D02*
D03*
X1353750D02*
D03*
X650500Y933000D02*
D03*
X635500D02*
D03*
X1393000Y1085500D02*
D03*
X1378000D02*
D03*
X1291500Y720000D02*
D03*
X1276500D02*
D03*
X1291750Y704750D02*
D03*
X1276750D02*
D03*
X1296500Y623000D02*
D03*
X1281500D02*
D03*
X1296750Y637750D02*
D03*
X1281750D02*
D03*
X1151500Y355000D02*
D03*
X1136500D02*
D03*
X1278250Y558750D02*
D03*
X1263250D02*
D03*
X1269536Y575250D02*
D03*
X1284536D02*
D03*
X1251000Y810250D02*
D03*
X1236000D02*
D03*
X751000Y1150500D02*
D03*
X736000D02*
D03*
X1298500Y1101250D02*
D03*
X1283500D02*
D03*
X1341500Y1073000D02*
D03*
X1356500D02*
D03*
X622750Y1033500D02*
D03*
X637750D02*
D03*
X1327500Y765500D02*
D03*
X1342500D02*
D03*
X1249500Y795000D02*
D03*
X1234500D02*
D03*
X1373750Y765500D02*
D03*
X1358750D02*
D03*
X684000Y430250D02*
D03*
X669000D02*
D03*
X1280250Y432750D02*
D03*
X1295250D02*
D03*
X720000Y925000D02*
D03*
X705000D02*
D03*
X730500Y940000D02*
D03*
X715500D02*
D03*
X730500Y955000D02*
D03*
X715500D02*
D03*
X730500Y971000D02*
D03*
X715500D02*
D03*
X1417500Y880000D02*
D03*
X1432500D02*
D03*
X1273750Y1002250D02*
D03*
X1288750D02*
D03*
X1288500Y987000D02*
D03*
X1273500D02*
D03*
Y972000D02*
D03*
X1288500D02*
D03*
X1284500Y957000D02*
D03*
X1269500D02*
D03*
X767250Y815500D02*
D03*
X782250D02*
D03*
X788750Y639000D02*
D03*
X773750D02*
D03*
X782500Y620500D02*
D03*
X767500D02*
D03*
X751500Y620500D02*
D03*
X736500D02*
D03*
X818750Y621500D02*
D03*
X803750D02*
D03*
X1154500Y774000D02*
D03*
X1139500D02*
D03*
X863250Y887250D02*
D03*
X848250D02*
D03*
X1147750Y883750D02*
D03*
X1132750D02*
D03*
X1426000Y769500D02*
D03*
X1441000D02*
D03*
X1401500Y785000D02*
D03*
X1416500D02*
D03*
X875500Y430000D02*
D03*
X860500D02*
D03*
X820000Y445750D02*
D03*
X805000D02*
D03*
X504750Y849500D02*
D03*
X519750D02*
D03*
X1133500Y326250D02*
D03*
X1118500D02*
D03*
X1145000Y326000D02*
D03*
X1160000D02*
D03*
X1077500Y338000D02*
D03*
X1092500D02*
D03*
X1516500Y944000D02*
D03*
X1501500D02*
D03*
X727750Y697750D02*
D03*
X742750D02*
D03*
D14*
X1113000Y296500D02*
D03*
X1106500D02*
D03*
X1100000D02*
D03*
X1093500D02*
D03*
X1087000D02*
D03*
D15*
X1106803Y898053D02*
D03*
X1096197Y887447D02*
D03*
X1116553Y886553D02*
D03*
X1105947Y875947D02*
D03*
D16*
X493000Y868500D02*
D03*
Y849500D02*
D03*
X1525000Y791500D02*
D03*
Y772500D02*
D03*
X1520000Y908500D02*
D03*
Y927500D02*
D03*
X992000Y1090000D02*
D03*
X1008000D02*
D03*
X476500Y844750D02*
D03*
Y825750D02*
D03*
X992000Y910000D02*
D03*
X1008000D02*
D03*
X992000Y758000D02*
D03*
X1008000D02*
D03*
D17*
X976150Y242500D02*
D03*
X844850Y252500D02*
D03*
D18*
X855750Y281000D02*
D03*
X866750D02*
D03*
X877750Y279000D02*
D03*
X888750Y281000D02*
D03*
X899750Y279000D02*
D03*
X910750Y281000D02*
D03*
X921750Y285000D02*
D03*
X932750Y281000D02*
D03*
D19*
X860650Y384000D02*
D03*
X917650Y384500D02*
D03*
D22*
X1028750Y262000D02*
D03*
Y279000D02*
D03*
D23*
X471500Y746500D02*
D03*
Y756500D02*
D03*
D25*
X1330750Y781500D02*
D03*
Y788000D02*
D03*
Y794500D02*
D03*
Y801000D02*
D03*
Y807500D02*
D03*
Y814000D02*
D03*
Y820500D02*
D03*
X1273750Y781500D02*
D03*
Y788000D02*
D03*
Y794500D02*
D03*
Y801000D02*
D03*
Y807500D02*
D03*
Y814000D02*
D03*
Y820500D02*
D03*
X1365250Y941566D02*
D03*
Y948065D02*
D03*
Y954565D02*
D03*
Y961065D02*
D03*
Y967566D02*
D03*
Y974065D02*
D03*
Y980565D02*
D03*
Y987066D02*
D03*
X1308250Y941566D02*
D03*
Y948065D02*
D03*
Y954565D02*
D03*
Y961065D02*
D03*
Y967566D02*
D03*
Y974065D02*
D03*
Y980565D02*
D03*
Y987066D02*
D03*
X634500Y993836D02*
D03*
Y987336D02*
D03*
Y980836D02*
D03*
Y974336D02*
D03*
Y967836D02*
D03*
Y961336D02*
D03*
Y954836D02*
D03*
Y948336D02*
D03*
X691500Y993836D02*
D03*
Y987336D02*
D03*
Y980836D02*
D03*
Y974336D02*
D03*
Y967836D02*
D03*
Y961336D02*
D03*
Y954836D02*
D03*
Y948336D02*
D03*
D31*
X1266246Y472499D02*
D03*
Y462999D02*
D03*
Y453499D02*
D03*
X1293247D02*
D03*
Y472499D02*
D03*
X786250Y761500D02*
D03*
Y752000D02*
D03*
Y742500D02*
D03*
X813250D02*
D03*
Y761500D02*
D03*
X1129000Y513500D02*
D03*
Y504000D02*
D03*
Y494500D02*
D03*
X1156000D02*
D03*
Y513500D02*
D03*
X755965Y660983D02*
D03*
Y670483D02*
D03*
Y679983D02*
D03*
X728964D02*
D03*
Y660983D02*
D03*
D32*
X892000Y446200D02*
D03*
Y458900D02*
D03*
Y471600D02*
D03*
Y484300D02*
D03*
X844000Y446200D02*
D03*
Y458900D02*
D03*
Y471600D02*
D03*
Y484300D02*
D03*
D34*
X1388500Y862500D02*
D03*
Y843500D02*
D03*
X1409500Y853000D02*
D03*
X570000Y816250D02*
D03*
Y835250D02*
D03*
X549000Y825750D02*
D03*
X612250Y815750D02*
D03*
Y834750D02*
D03*
X591250Y825250D02*
D03*
X623250Y1049250D02*
D03*
Y1068250D02*
D03*
X602250Y1058750D02*
D03*
X664000Y1049500D02*
D03*
Y1068500D02*
D03*
X643000Y1059000D02*
D03*
X737750Y1133000D02*
D03*
Y1114000D02*
D03*
X758750Y1123500D02*
D03*
X696750Y1133000D02*
D03*
Y1114000D02*
D03*
X717750Y1123500D02*
D03*
X1281000Y1119250D02*
D03*
Y1138250D02*
D03*
X1260000Y1128750D02*
D03*
X1323500Y1118750D02*
D03*
Y1137750D02*
D03*
X1302500Y1128250D02*
D03*
X1346500Y1057500D02*
D03*
Y1038500D02*
D03*
X1367500Y1048000D02*
D03*
X1385000Y1056500D02*
D03*
Y1037500D02*
D03*
X1406000Y1047000D02*
D03*
X1239000Y585000D02*
D03*
X1218000Y575500D02*
D03*
Y594500D02*
D03*
X1428750Y862750D02*
D03*
Y843750D02*
D03*
X1449750Y853250D02*
D03*
D35*
X823343Y834407D02*
D03*
X834657Y823093D02*
D03*
X1165463Y1176777D02*
D03*
X1176777Y1165463D02*
D03*
D36*
X890500Y829000D02*
D03*
X909500D02*
D03*
X900000Y850000D02*
D03*
X1100500Y927500D02*
D03*
X1081500D02*
D03*
X1091000Y906500D02*
D03*
X754000Y599750D02*
D03*
X735000D02*
D03*
X744500Y578750D02*
D03*
X791500Y601000D02*
D03*
X772500D02*
D03*
X782000Y580000D02*
D03*
X828500Y600250D02*
D03*
X809500D02*
D03*
X819000Y579250D02*
D03*
X686000Y409250D02*
D03*
X667000D02*
D03*
X676500Y388250D02*
D03*
X686000Y367250D02*
D03*
X667000D02*
D03*
X676500Y346250D02*
D03*
X1298000Y412500D02*
D03*
X1279000D02*
D03*
X1288500Y391500D02*
D03*
X1298000Y369500D02*
D03*
X1279000D02*
D03*
X1288500Y348500D02*
D03*
X1270750Y520750D02*
D03*
X1261250Y541750D02*
D03*
X1280250D02*
D03*
X1305964Y510500D02*
D03*
X1296464Y531500D02*
D03*
X1315465D02*
D03*
D37*
X1165343Y823093D02*
D03*
X1176657Y834407D02*
D03*
X823223Y1165463D02*
D03*
X834537Y1176777D02*
D03*
D38*
X758000Y1008000D02*
D03*
Y992000D02*
D03*
X910000Y1008000D02*
D03*
Y992000D02*
D03*
X1090000Y1008000D02*
D03*
Y992000D02*
D03*
X1000000Y1234000D02*
D03*
Y1250000D02*
D03*
X1242000Y1008000D02*
D03*
Y992000D02*
D03*
X1180500Y251000D02*
D03*
X1161500D02*
D03*
X1028000Y662000D02*
D03*
Y678000D02*
D03*
X1000000Y662000D02*
D03*
Y678000D02*
D03*
X972000Y662000D02*
D03*
Y678000D02*
D03*
X1012500Y250000D02*
D03*
X1031500D02*
D03*
D96*
X1206500Y717750D02*
D03*
Y712750D02*
D03*
Y707750D02*
D03*
Y702750D02*
D03*
Y697750D02*
D03*
Y692750D02*
D03*
Y687750D02*
D03*
Y682750D02*
D03*
Y677750D02*
D03*
Y672750D02*
D03*
Y667750D02*
D03*
Y662750D02*
D03*
Y657750D02*
D03*
Y652750D02*
D03*
Y647750D02*
D03*
Y642750D02*
D03*
X1095500D02*
D03*
Y647750D02*
D03*
Y652750D02*
D03*
Y657750D02*
D03*
Y662750D02*
D03*
Y667750D02*
D03*
Y672750D02*
D03*
Y677750D02*
D03*
Y682750D02*
D03*
Y687750D02*
D03*
Y692750D02*
D03*
Y697750D02*
D03*
Y702750D02*
D03*
Y707750D02*
D03*
Y712750D02*
D03*
Y717750D02*
D03*
D97*
X1188500Y624750D02*
D03*
X1183500D02*
D03*
X1178500D02*
D03*
X1173500D02*
D03*
X1168500D02*
D03*
X1163500D02*
D03*
X1158500D02*
D03*
X1153500D02*
D03*
X1148500D02*
D03*
X1143500D02*
D03*
X1138500D02*
D03*
X1133500D02*
D03*
X1128500D02*
D03*
X1123500D02*
D03*
X1118500D02*
D03*
X1113500D02*
D03*
Y735750D02*
D03*
X1118500D02*
D03*
X1123500D02*
D03*
X1128500Y735750D02*
D03*
X1133500D02*
D03*
X1138500Y735750D02*
D03*
X1143500D02*
D03*
X1148500D02*
D03*
X1153500D02*
D03*
X1158500D02*
D03*
X1163500D02*
D03*
X1168500D02*
D03*
X1173500D02*
D03*
X1178500D02*
D03*
X1183500D02*
D03*
X1188500Y735750D02*
D03*
D98*
X1286500Y658750D02*
D03*
X1291500D02*
D03*
X1296500D02*
D03*
X1301500D02*
D03*
X1306500D02*
D03*
Y684750D02*
D03*
X1301500D02*
D03*
X1296500D02*
D03*
X1291500D02*
D03*
X1286500D02*
D03*
D99*
X1128250Y363250D02*
D03*
Y368250D02*
D03*
Y373250D02*
D03*
Y378250D02*
D03*
Y383250D02*
D03*
X1088250D02*
D03*
Y378250D02*
D03*
Y373250D02*
D03*
Y368250D02*
D03*
Y363250D02*
D03*
D100*
X1118250Y393250D02*
D03*
X1113250D02*
D03*
X1108250D02*
D03*
X1103250D02*
D03*
X1098250D02*
D03*
Y353250D02*
D03*
X1103250D02*
D03*
X1108250D02*
D03*
X1113250D02*
D03*
X1118250D02*
D03*
D101*
X1108250Y373250D02*
D03*
D102*
X1088383Y319213D02*
D03*
X1093383D02*
D03*
X1098383D02*
D03*
Y311713D02*
D03*
X1093383D02*
D03*
D103*
X1088383D02*
D03*
D104*
X1286517Y306003D02*
D03*
X1327518D02*
D03*
X979500Y1236500D02*
D03*
X1020500D02*
D03*
X673287Y306003D02*
D03*
X714287D02*
D03*
D105*
X1419285Y1091665D02*
D03*
X1450692Y1065310D02*
D03*
D106*
X1249739Y1188816D02*
D03*
X1211212Y1202838D02*
D03*
D107*
X788788Y1202838D02*
D03*
X750260Y1188815D02*
D03*
D108*
X549307Y1065310D02*
D03*
X580715Y1091664D02*
D03*
M02*
