M48
;Layer_Color=9474304
;FILE_FORMAT=4:4
METRIC,TZ
;TYPE=PLATED
T1F00S00C0.3000
T2F00S00C0.3300
T3F00S00C0.6000
T4F00S00C0.7000
T5F00S00C0.8000
T7F00S00C0.8001
T8F00S00C0.9000
T9F00S00C1.0000
T10F00S00C1.4000
T11F00S00C2.0000
T12F00S00C6.0000
;TYPE=NON_PLATED
T13F00S00C1.5000
%
T01
X673286Y296003
Y324003
X714036
X732501Y332501
X745000Y344750
X749750Y367000
X763500Y376750
X777000Y377500
X714001Y367001
X697500Y350000
X705250Y342250
X714286Y296003
X657483Y374716
X795000Y374250
X819991Y377216
X847500Y348750
X862037Y322713
X873744Y315713
X867000Y304000
X892245Y306213
X911000Y305000
X925000Y297500
X925750Y314750
X943000Y320000
X950250Y335000
X931000Y348000
X914650Y358871
X907245Y353215
X920996Y371716
X950000Y372000
X984000Y379001
X993500Y351715
X1001000Y347001
X1010385Y335500
X1004750Y328714
X1030250Y319750
X1040000Y319750
X1064000Y326000
X1094255Y299966
X1104250Y300302
X1122750Y296250
X1127700Y301300
X1126256Y310463
X1136750Y307250
X1148257Y315463
X1132000Y335001
X1139000Y368000
X1146000Y374000
X1157008Y375966
X1164346Y381596
X1179000Y354000
X1148507Y246213
X1100000Y255000
X1100005Y262005
X1039752Y262711
X1049500Y249500
X1015251Y258711
X999000Y275750
X990750Y294000
X956000Y266000
X911484Y265000
X890000Y268500
X858000Y262750
X830000Y259000
X924500Y250500
X874000Y380002
X860650Y396850
X1081000Y394500
X1217000Y391000
X1221904Y381596
X1243617Y354435
X1262250Y317750
X1260750Y302750
X1286517Y296003
Y324003
X1298000Y331250
X1300015Y351465
X1318097Y367875
X1330999Y390002
X1336517Y351215
X1336016Y342715
X1327267Y324003
X1314515Y315713
X1327517Y296003
X1377000Y264000
X1296514Y399468
X1309750Y424000
X1310000Y447000
X1268500Y446000
X1250001Y442749
X1251512Y452470
X1250001Y424002
X1270513Y421469
X1277013Y470971
X1277499Y490001
X1254250Y489500
X1212000Y484250
X1209000Y469000
X1221000Y460177
Y451250
Y440000
X1202260Y435469
X1195010Y423969
X1196000Y413250
X1221000Y405000
X1205760Y521723
X1192509Y540724
X1262013Y575737
Y581976
X1297500Y575000
X1303765Y623728
X1320000Y623500
X1309999Y642501
X1267206Y635501
X1272499Y619500
X1243262Y622482
X1230261Y632482
X1231761Y654233
X1223761Y663234
X1247500Y662501
X1249512Y682481
X1252000Y692001
X1259763Y700735
X1260013Y713736
X1260263Y729984
X1245512Y715986
X1239512Y709486
X1224011Y705982
X1234511Y741987
X1213010Y742234
X1216531Y750980
X1219511Y759485
X1198510Y764239
X1208510Y775739
X1209260Y790740
X1193509Y745234
X1191759Y687481
X1276750Y694250
X1302765Y716236
X1290087Y743087
X1281514Y741987
X1270263Y754485
X1266499Y769249
X1251512Y755988
X1300999Y773658
X1327499Y775001
X1351000Y776000
X1378750Y750500
X1389500
X1412999Y775001
X1448999
X1453000Y789000
X1493500Y753250
X1506000
X1324000Y737500
X1221514Y617764
X1296264Y479221
X1189259Y487972
X1166758Y490722
X1148000Y483000
X1141507Y473721
X1159000Y459000
X1166008Y449220
X1178607Y434000
X1182000Y413000
X1188500
X1156750Y401751
X1116750Y404250
X1114000Y439001
X1125500Y435000
X1135000Y436750
X1091000Y430001
X1058000Y415001
X1047753Y404218
X1032250Y400250
X1037752Y428469
X947497Y417218
X954248Y396967
X963250Y398250
X920772Y397000
X922996Y406218
X897000Y435000
X875750Y454000
X875350Y471600
X866750Y495500
X891995Y492972
X878244Y529474
X876250Y549500
X884994Y562725
X886994Y574726
X903245Y570726
X921246Y610728
X941997Y621728
X934250Y654750
X907000Y656750
X920000Y682750
X926246Y676731
X951250Y682317
X941247Y692732
X931000Y709836
X963282Y705782
X968500Y697750
X981250Y678500
X990000Y678000
X986250Y722000
X999000Y727487
X1003000Y735737
X1011251Y717486
X1035250Y718750
X1029750Y710250
X1057190Y681640
X1047752Y671481
X1058753Y654230
X1061003Y642229
X1055003Y625982
X1043250Y623000
X1036002Y643233
X1027751Y651980
X1013754Y648496
X966498Y653480
X961248Y645729
X974999Y632729
X889250Y625000
X868000Y636750
X871227Y606977
X852000Y582000
X841500Y566750
X831000Y568250
X819250Y549235
X820491Y537224
X828000Y525250
X810750Y516000
X813491Y481721
X825992Y485222
X856250Y518750
X857993Y541474
X800500Y580500
X802990Y652730
X816250Y675250
X814000Y704000
X818521Y711500
X823542Y718500
X825741Y742234
X852000Y729500
X899000Y742250
X912750
X940997Y743734
X949250Y738750
X949998Y758738
X937997Y761488
X941247Y776489
X944715Y791750
X956750Y790000
X976500Y771250
X994500Y768750
X999000Y784736
X1035252Y778236
X1047250Y773000
X1038502Y793487
X1080750Y771050
X1092254Y781989
X1108505Y769236
X1129714Y761609
X1170750Y757429
X1176750Y765000
X1185250Y766750
X1166503Y774003
X1156500Y721000
X1154007Y711507
X1170000Y712501
X1188999Y715001
X1190000Y705001
X1183500Y683479
X1175496Y687496
X1161496Y686496
X1160000Y695001
X1163500Y667250
X1177259Y665984
X1183509Y658983
X1179009Y651233
X1156000Y641001
X1145250Y667000
X1111250Y677750
X1116000Y697207
X1103950Y724250
X1103255Y742487
X1091255Y746488
X1094005Y734487
X1080004Y736237
X1058753Y737737
X970250Y736000
X862750Y779500
X858250Y786500
X852743Y792240
X802764Y777750
X809087Y771427
X843105Y667685
X844000Y431000
X805000Y417000
X931000Y462001
X1106813Y470815
X1120000Y504000
X1086000Y512000
X1083504Y520473
X1102255Y545225
X1101255Y561975
X1102505Y584226
X1097508Y591250
X1112005Y591230
X1097005Y606731
X1091255Y629229
X1083088Y632813
X1083750Y623750
X1110000Y642500
X1162500Y610001
X1178500Y611500
X1189750Y610250
X1158499Y595000
X1145757Y590230
X1167508Y569758
X1185009Y563475
X1182009Y533974
X1165508Y536727
X1155008Y554978
X1147472Y521000
X1064480Y592500
X1058503Y598477
X763250Y578500
X765000Y536000
X706250Y530250
X663000Y491000
X669500Y449500
X666734Y440470
X669000Y421000
X703001Y447001
X736500Y461250
X746750Y472250
X748000Y442750
X764000Y445000
X784750Y478750
X790000Y410515
X744000Y408000
X727000Y649500
X730250Y690500
X736000Y735000
X728000Y770000
X715750Y770750
X698000Y788000
X753738Y788240
X762500Y780000
X775250Y779000
X776001Y752001
X767000Y658000
X699000Y625000
X667000Y630000
X694000Y730000
X662000Y754000
X556000Y761000
X547000Y788000
X510750Y808250
X520000Y834000
X539000Y851000
X476000Y855000
X492000Y892000
X480000Y947500
X487500Y1010000
X506000Y1042250
X545000Y1044750
X561069Y1051682
X580251Y1044000
X587500Y1052500
X592285Y1077876
X572001Y1080000
X574287Y1099325
X542880Y1072971
X623000Y1089000
X645000Y1099000
X650000Y1130000
X662500Y1127500
X695000Y1125000
X683657Y1098000
X664000Y1078000
X694001Y1054000
X714000Y1036500
X747250Y1030250
X778250Y1019750
X789750Y992722
X780239Y943244
X774972Y936029
X773489Y913996
X762250Y908000
X757738Y917996
X742001Y911000
X732000Y911000
X731000Y882000
Y851000
X711736Y838239
X712000Y800000
X641500Y832500
X612001Y828001
X602750Y895500
X592000Y886000
X638000Y879500
X641233Y907746
X633846Y912404
X624000Y925000
X649483Y944497
X665000Y937750
X665984Y955248
X666484Y973749
X672253Y980000
X664234Y991766
X652039Y982836
X646645Y967836
X650483Y1011001
X612001Y1007000
X605000Y1025000
X562500Y925000
X560500Y914000
X557000Y904000
X679750Y890750
X685250Y940494
X767000Y895000
X773259Y888742
X779989Y862743
X790990Y1065503
X765989Y1075754
X735250Y1077750
X722000Y1111000
X764000Y1135001
X780001Y1130000
X772000Y1155000
X775000Y1172500
X766489Y1181009
X756652Y1171987
X730001Y1172500
X705000Y1171000
X804250Y1172500
X794945Y1185924
X797000Y1152000
X809250Y1133500
X825000Y1131000
X838250Y1129250
X864000Y1134000
X872500Y1122500
X888500Y1106250
X909996Y1109505
X907500Y1132500
X913000Y1146000
X912000Y1160000
X937000
X936000Y1170000
X951000Y1174000
X950000Y1160000
X958500Y1152500
X976257Y1152507
X972000Y1144000
X996000Y1152257
X1002000Y1128000
X994750Y1118250
X982000Y1115000
X977000Y1090000
X983999Y1080004
X954750Y1084500
X949000Y1093000
X947000Y1118000
X936000Y1129000
X940000Y1143000
X925550Y1087500
X864500Y1090207
X845000Y1080000
X847621Y1066000
X880000Y1060000
X876000Y1017000
X890565Y1012815
X867243Y1001750
X859000Y966000
X865632Y934682
X840992Y941997
X847743Y920250
X849250Y873750
X851000Y865000
X846742Y840992
X853743Y821241
X862250Y809500
X847250Y797750
X885000Y803000
X882000Y837000
X889250Y846000
X897500Y865000
X913246Y851243
X920746Y838492
X931250Y835500
X935750Y827000
X936000Y811000
X937500Y802500
X972999Y810491
X954498Y828992
X987000Y843000
X979999Y859493
X1000740Y857490
X1002479Y875500
X988750
X1017251Y876744
X1023251Y882994
X1019738Y892012
X1011738Y884012
X1051752Y865743
X1044002Y851243
X1038252Y843992
X1050253Y841742
X1048000Y818000
X1041000Y811000
X1024703Y796635
X998500Y796490
X1009250Y826992
X1073254Y827992
X1080004Y833992
X1101250Y823250
X1109505Y811491
X1088504Y799240
X1073004Y802240
X1071504Y882744
X1064753Y889495
X1090660Y882839
X1105255Y866743
X1117006Y860743
X1122506Y877744
X1137250Y893750
X1113084Y904500
X1109750Y922500
X1111104Y964050
X1113500Y974750
X1114006Y983749
X1098755Y983499
X1101005Y1008997
X1108000Y1026000
X1081254Y1025501
X1078356Y1034250
X1079000Y1059000
X1080250Y1082000
X1065000Y1085500
X1049000Y1081000
X1050000Y1106000
X1020250Y1111250
X1012607Y1100000
X1011001Y1067250
X1025000Y1070000
X1025501Y1051999
X1013001Y1051249
X1002000Y1052503
X1005250Y1011751
X1029000Y1014250
X1061000Y1006000
X1070253Y1001500
X1066503Y1017501
X1056576Y1056030
X1121000Y1047000
X1131460Y1047414
X1135257Y1016001
X1126756Y1015751
X1122756Y991746
X1135507Y989999
X1155108Y987553
X1161758Y1001000
X1160250Y1028000
X1155758Y1078754
X1147007Y1082754
X1137000Y1081000
X1116000Y1089500
X1103500Y1101936
X1108000Y1127000
X1075750Y1131750
X1147500Y1135000
X1141285Y1149000
X1151101Y1165899
X1164000Y1164000
X1166000Y1095000
X1175250Y985000
X1171008Y975999
X1190509Y970995
X1188259Y930247
X1166008Y928247
X1151507Y925309
X1145757Y943997
X1147507Y967498
X1132000Y962250
X1072754Y945997
X977249Y916496
X949250Y890500
X908500Y889250
X900250Y911750
X916750Y914250
X915567Y959285
X912223Y967785
X900000Y969000
X890000Y947500
X926000Y993000
X942985Y1007043
X909996Y1029572
X817000Y973000
X807241Y981996
X796000Y930000
X816241Y892745
X831242Y886495
X809256Y874706
X803740Y867494
X810241Y822491
X794240Y794237
X931250Y866250
X1189750Y844500
X1188000Y835000
X1166758Y797240
X1049348Y1186348
X992250Y1190250
X847493Y1182506
X872500Y1154750
X805000Y1093293
X1190759Y1067753
X1196513Y1062000
X1210760Y1044749
X1216999Y1038000
X1218011Y1028498
X1217500Y1013000
X1233261Y1007000
X1224261Y997750
X1214999Y989000
X1217511Y971499
X1226511Y979749
X1231261Y961745
X1245262Y950748
X1254262Y941997
X1267013Y936997
X1289000Y937000
X1277013Y948994
X1257513Y970499
X1257750Y1001750
X1260000Y1031000
X1281514Y1018501
X1292000Y1054000
X1307999Y995000
X1326000Y995250
X1330250Y986750
X1329766Y970499
X1351750Y967500
X1351267Y957748
X1351517Y945747
X1358522Y931793
X1333000Y933000
X1328000Y946000
X1316250Y906000
X1287000Y903500
X1259500
X1244000Y930000
X1222261Y913746
X1204760Y900495
X1203010Y877244
X1215510Y876744
X1207750Y868000
X1219261Y836742
X1220011Y821491
X1208260Y810991
X1229261Y846492
X1260999Y841000
X1319750Y835750
X1321000Y871000
X1409000Y869000
X1408270Y881991
X1385750Y901750
X1441000Y906000
X1447772Y898245
X1456750Y890000
X1452022Y881744
X1459000Y870000
X1462750Y853250
X1469000Y805000
X1461000Y797000
X1422000Y817000
X1401750Y817000
X1382500Y825000
X1290750Y796250
X1505500Y839500
X1503250Y869000
X1506025Y878241
X1509500Y906000
X1511275Y936247
X1489250Y926250
X1478500Y979500
X1483000Y1031001
X1463999Y1031000
X1460000Y1020000
X1430500Y1015500
X1424999Y1040000
X1422498Y1052498
X1422499Y1067500
X1407906Y1077715
X1397499Y1097500
X1378268Y1093501
X1348000Y1096000
X1341250Y1027750
X1344267Y1006500
X1359816Y992500
X1376999Y1026000
X1439122Y1051521
X1440999Y1076000
X1457121Y1072971
X1508282Y1071000
X1513109Y1033111
X1425713Y1099325
X1331750Y1185250
X1278000Y1183000
X1263999Y1183000
X1243583Y1171901
X1241262Y1142004
X1259999Y1137000
X1216011Y1149004
X1213646Y1164175
X1205291Y1185838
X1228000Y1108000
X1233500Y1074500
X1230511Y1024501
X1197510Y992996
X1193750Y959750
X1194999Y1197500
X1214632Y1212235
X1253159Y1198213
X1154999Y1200000
X1130000Y1199000
X1108500Y1192500
X1054503Y1238508
X1053000Y1256000
X1020500Y1246500
Y1218500
X1037500Y1222000
X1003750Y1223008
X993448Y1223481
X979750Y1218500
X967778Y1216293
X959000Y1226000
X929000Y1221000
X940000Y1202500
X904000Y1199000
X850493Y1200507
X810000Y1192500
X826000Y1227000
X979500Y1246500
X985499Y1199257
X1166000Y1260000
X785368Y1212235
X773489Y1198006
X746738Y1198510
T02
X1102250Y367250
Y379250
X1114250
Y367250
T03
X1007000Y413900
Y426400
T04
X1124539Y827040
X1133520Y836020
X1142500Y845000
X1151480Y853980
X1160461Y862961
X1169441Y871941
X1505000Y958600
Y984000
Y1009400
X1184750Y1212300
X1185000Y1237700
X815000
X814750Y1212300
T05
X867478Y1225249
X863504Y1250336
X904000Y1256750
X907973Y1231663
X1092016Y1231414
X1095989Y1256501
X1136484Y1250087
X1132511Y1225000
T07
X981950Y945300
X1007350
X1032750
X1020050Y970700
X994650
X969250
T08
X1037750Y347000
Y367000
X1491000Y776000
Y793000
X875500Y727550
X875500Y702150
X875500Y676750
X875500Y651350
X881250Y888250
Y908250
X1127250
Y928250
T09
X505700Y961500
Y1006500
T10
X530600Y948950
Y1019050
T11
X910100Y782888
X782888Y1089900
X1217090Y1089952
T12
X790000Y310000
X1210000
X580000Y970000
X1420000
T13
X954260Y952670
M30
