M48
;Layer_Color=9474304
;FILE_FORMAT=4:4
METRIC,TZ
;TYPE=PLATED
T1F00S00C0.3000
T2F00S00C0.3300
T3F00S00C0.6000
T4F00S00C0.7000
T5F00S00C0.7500
T6F00S00C0.8000
T7F00S00C0.8001
T8F00S00C0.9000
T9F00S00C1.0000
T10F00S00C1.3000
T11F00S00C1.4000
T12F00S00C2.0000
T13F00S00C6.0000
;TYPE=NON_PLATED
T14F00S00C1.5000
%
T01
X657483Y304716
X669000Y351000
X666734Y370469
X669500Y379500
X703001Y377001
X736500Y391250
X748000Y372750
X764000Y375000
X744000Y338000
X749750Y297000
X763500Y306750
X777000Y307500
X790000Y340515
X745000Y274750
X732500Y262501
X705250Y272250
X697500Y280000
X714001Y297001
X795000Y304250
X819991Y307216
X805000Y347000
X844000Y361000
X860650Y326850
X874000Y310001
X920996Y301716
X914650Y288871
X907245Y283215
X931000Y278000
X925750Y244750
X925000Y227500
X911000Y235000
X892000Y236750
X875994Y242713
X867000Y234000
X858000Y192750
X830000Y189000
X890000Y198500
X911484Y195000
X924500Y180500
X956000Y196000
X999000Y205750
X1015251Y188710
X1039752Y192711
X1049500Y179500
X1040000Y249750
X1004750Y258714
X1010385Y265500
X1001000Y277001
X993500Y281715
X984000Y309001
X963250Y328250
X954248Y326967
X947497Y347218
X922996Y336218
X920772Y327000
X897000Y365000
X875750Y384000
X931000Y392001
X1037752Y358469
X1058000Y345001
X1047753Y334218
X1032250Y330250
X1097250Y334250
X1116750
X1114000Y369001
X1125500Y365000
X1135000Y366750
X1166008Y379220
X1159000Y389000
X1178607Y364000
X1182000Y343000
X1188500
X1152999Y330001
X1157008Y305966
X1164346Y311596
X1146000Y304000
X1139000Y298000
X1132000Y265001
X1126256Y240463
X1127700Y231300
X1122750Y226250
X1106500Y228794
X1098000Y229001
X1089422Y258800
X1082000Y269000
X1148257Y245463
X1179000Y284000
X1091000Y360001
X943000Y250000
X847500Y278750
X1244000Y281000
X1262250Y247750
X1260750Y232750
X1296250Y262750
X1310494Y262500
X1314515Y245713
X1336016Y272715
X1336516Y281215
X1318097Y297875
X1300015Y281465
X1296514Y329467
X1309750Y354000
X1310000Y377000
X1268500Y376000
X1250001Y372749
Y354001
X1270513Y351468
X1221000Y335000
X1217000Y321000
X1221904Y311596
X1194000Y341000
X1195000Y351000
X1202607Y365393
X1221000Y370000
Y381250
Y390177
X1242262Y391970
X1330999Y320001
X1377000Y194000
X1296264Y409221
X1277013Y400971
Y424472
X1254250Y419500
X1212000Y414250
X1209000Y399000
X1205760Y451723
X1192509Y470724
X1262013Y505737
Y511976
X1297014Y501976
X1303765Y553728
X1320000Y553500
X1309999Y572501
X1267206Y565501
X1272499Y549500
X1241916Y554416
X1221513Y547763
X1234500Y581500
X1227500Y594500
X1247500Y592501
X1249292Y612501
X1252000Y622001
X1258263Y629232
X1256250Y642965
X1247262Y642483
X1224999Y635000
X1236924Y669026
X1213010Y672234
X1216531Y680980
X1218511Y696485
X1199510Y696260
X1201760Y707986
X1208999Y722001
X1208250Y738250
X1219750Y751136
X1216000Y770001
X1228261Y775489
X1260999Y771000
X1319750Y765750
X1296000Y731000
X1300999Y703658
X1320250Y694001
X1324000Y667500
X1290087Y673087
X1282001Y666001
X1260263Y659983
X1254999Y687501
X1270263Y684485
X1266499Y699249
X1276750Y624250
X1303015Y645983
X1351000Y706000
X1378750Y680500
X1389500
X1412999Y705000
X1448999
X1453000Y719000
X1461000Y727000
X1469000Y735000
X1462750Y783250
X1505500Y769500
X1506000Y683250
X1493500
X1422000Y747000
X1401750Y747000
X1379999Y756001
X1193509Y675234
X1191759Y617481
X1183500Y613479
X1175496Y617496
X1161496Y616496
X1160000Y625000
X1154007Y641507
X1156500Y651000
X1170000Y642501
X1188999Y645001
X1190000Y635000
X1178000Y592001
X1182521Y583500
X1181000Y575000
X1165000Y577500
X1156000Y571001
X1145250Y597000
X1111250Y607750
X1116000Y627207
X1103005Y654983
X1101755Y672484
X1090750Y666250
X1075750
X1073250Y680500
X1089500
X1093755Y713486
X1095005Y728987
X1082500Y727750
X1081754Y756988
X1078500Y772000
X1051253Y771739
X1039252Y773989
X1046502Y783739
X1023751Y793490
X1000740Y787490
X987000Y773000
X975000Y755000
X973000Y742001
X936000Y741000
X935750Y757000
X936500Y766000
X908250Y772250
X914000Y780500
X889250Y776000
X882000Y767000
X885000Y733000
X862250Y739500
X855000Y752500
X855868Y719132
X863000Y712000
X862500Y703250
X809087Y701427
X802764Y707750
X794240Y724237
X818491Y781739
X842000Y786000
X825741Y672234
X823542Y648500
X818521Y641500
X814000Y634000
X802990Y582730
X860500Y618000
X898466Y616966
X913746Y619254
X920000Y612750
X926246Y606731
X934250Y584750
X907000Y586750
X889250Y555000
X871227Y536977
X852000Y512000
X841500Y496750
X831000Y498250
X819250Y479235
X820491Y467224
X828000Y455250
X825992Y415221
X813491Y411721
X866750Y425500
X891995Y422972
X875350Y401600
X878244Y459474
X874000Y479000
X857993Y471474
X884994Y492725
X886994Y504726
X894495Y514226
X903245Y500726
X913996Y523477
X921246Y540728
X941997Y551728
X961248Y575729
X966498Y583480
X974999Y562729
X981250Y608500
X990000Y608000
X991500Y637232
X999500Y643982
X998515Y655985
X992000Y667484
X1014251Y662984
X1035250Y648750
X1029750Y640250
X1052753Y658483
X1056000Y670848
X1035252Y708236
X1038502Y723486
X1024703Y726635
X1041000Y741000
X1048000Y748000
X1101460Y754211
X1107755Y748238
X1108505Y699235
X1129714Y691609
X1161250Y700001
X1169943Y702264
X1170750Y687429
X1188000Y765000
X1190500Y537000
X1180250Y538250
X1163250Y538000
X1151507Y527727
X1146000Y520001
X1154484Y488015
X1167508Y499758
X1185009Y493475
X1182009Y463974
X1163000Y469250
X1147757Y451723
X1148000Y413000
X1141000Y403001
X1106813Y400815
X1120000Y434000
X1086000Y442000
X1083504Y450473
X1102255Y475224
X1101255Y491975
X1102505Y514226
X1099505Y534227
X1091255Y559229
X1083088Y562813
X1083750Y553750
X1061003Y572229
X1058753Y584230
X1040000Y577250
X1027751Y581980
X1013754Y578496
X1047752Y601481
X1057190Y611640
X1058503Y528477
X1064480Y522500
X1110000Y572500
X968500Y627750
X963282Y635782
X954942Y639558
X931000Y639836
X922246Y641482
X941247Y622732
X951250Y612250
X945497Y656983
X940997Y673734
X941505Y693484
X997500Y704736
X999000Y714736
X1166758Y420722
X1189259Y417972
X784750Y408750
X746750Y402250
X765000Y466000
X706250Y460250
X663000Y421000
X667000Y560000
X699000Y555000
X727000Y579500
X730250Y620500
X736000Y665000
X728000Y700000
X717914
X712000Y730000
X698000Y718000
X754000
X762500Y710000
X776001Y682001
X767250Y761500
X758000Y764000
X731000Y781000
X711736Y768239
X641500Y762500
X612001Y758000
X539000Y780000
X520000Y764000
X510750Y738250
X547000Y718000
X556000Y691000
X662000Y684000
X694000Y660000
X767000Y588000
X476000Y785000
X492000Y822000
X480000Y877500
X487500Y940000
X545000Y974750
X580251Y974000
X588000Y992001
X572001Y1010000
X527001Y997000
X623000Y1019000
X645000Y1029000
X650000Y1060000
X662500Y1057500
X695000Y1055000
X683657Y1028000
X664000Y1008000
X694001Y984000
X702500Y960000
X703000Y947000
X668250Y930000
X653000Y924000
X649483Y911746
X665501Y908000
X672000Y900000
X661234Y888495
X649000Y878000
X675984Y870494
X688985Y845993
X742001Y841000
X762250Y838000
X767000Y825000
X777239Y830742
X780489Y816241
X782607Y795393
X752000Y817000
X731000Y812000
X774972Y866028
X780239Y873244
X772388Y1003612
X743000Y995000
X722000Y1041000
X764000Y1065001
X780001Y1060000
X772000Y1085000
X772079Y1114880
X774000Y1128000
X763738Y1122006
X730001Y1102500
X705000Y1101000
X648500Y938000
X612001Y937000
X605000Y955000
X624000Y855000
X622982Y842492
X620736Y832986
X602750Y825500
X592000Y816000
X557000Y834000
X560500Y844000
X562500Y855000
X796000Y860000
X841000Y868000
X847243Y849743
X865632Y864682
X886000Y872000
X900000Y899000
X912223Y897785
X915567Y889285
X926000Y923000
X942985Y937043
X890000Y944000
X876000Y947000
X868000Y931000
X859000Y896000
X817000Y903000
X807241Y911996
X818000Y821000
X855814Y793936
X897500Y795000
X906995Y813241
X914246Y812741
X941250Y805500
X955750
X988750
X1002479
X1014449Y817470
X1028000Y819000
X1051503Y802490
X1074004Y818741
X1071003Y827992
X1086504Y820741
X1097000Y851565
X1141257Y854243
X1145007Y873744
X1145000Y894993
X1129000Y890968
X1120756Y894745
X1109250Y889250
X1101000Y908000
X1101005Y938997
X1108000Y956000
X1125756Y946997
X1135000Y947000
X1134757Y917654
X1122756Y921746
X1155108Y917553
X1175250Y915000
X1171008Y905245
X1190509Y900995
X1185759Y857743
X1159758Y830992
X1137500Y834250
X1113485Y796500
X1104500Y796000
X1074000Y933000
X1061000Y936000
X1067000Y948000
X1078356Y964250
X1079000Y989000
X1080250Y1012000
X1049000Y1011000
X1050000Y1036000
X1012607Y1030000
X1011001Y997250
X1025000Y1000000
X1025501Y981999
X1013001Y981249
X1012000Y972000
X1007750Y944250
X1029000
X1056576Y986030
X1121000Y977000
X1131460Y977414
X1137000Y1011000
X1147000Y1013000
X1166000Y1025000
X1147500Y1065000
X1141285Y1079000
X1151101Y1095899
X1164000Y1094000
X1154999Y1130000
X1130000Y1129000
X1108500Y1122500
X1049348Y1116348
X1037500Y1152000
X1054000Y1168000
X1053000Y1186000
X1003750Y1153008
X993448Y1153481
X978999Y1142757
X968985Y1147500
X959000Y1156000
X929000Y1151000
X940000Y1132500
X936000Y1100000
X937000Y1090000
X950000
X940000Y1073000
X936000Y1059000
X947000Y1048000
X949000Y1023000
X927000Y1021000
X910000Y1037000
X888500Y1036250
X872500Y1052500
X864000Y1064000
X872500Y1084750
X912000Y1090000
X913000Y1076000
X907500Y1062500
X904000Y1129000
X850493Y1130506
X847493Y1112505
X806741Y1118506
X801810Y1110708
X797000Y1082000
X809250Y1063500
X825000Y1061000
X838250Y1059250
X845000Y1010000
X847621Y996000
X880000Y990000
X864500Y1020207
X805000Y1023293
X826000Y1157000
X992250Y1120250
X996000Y1083000
X1002000Y1058000
X982000Y1045000
X977000Y1020000
X972000Y1074000
X1075750Y1061750
X1108000Y1057000
X1103500Y1031936
X1161750Y934750
X1166000Y1190000
X980399Y843250
X1217011Y848993
X1219500Y878000
X1233000Y872000
X1247500Y878500
X1244000Y860000
X1259500Y833500
X1287000
X1314750
X1321000Y801000
X1333000Y863000
X1328000Y876000
X1354000Y881132
X1349999Y899000
X1336000Y905130
X1337000Y921000
X1326000Y925250
X1307999Y925000
X1280999Y948000
X1260000Y961000
X1234000Y946000
X1223011Y938247
X1212250Y935750
X1221000Y926000
X1214999Y919000
X1219000Y903000
X1231261Y891745
X1260000Y903000
X1273750Y879250
X1289000Y867000
X1354999Y916000
X1376999Y956000
X1424999Y970000
X1422999Y979000
X1422499Y997500
X1440999Y1006000
X1397499Y1027500
X1378268Y1023501
X1348000Y1026000
X1292000Y984000
X1233500Y1004500
X1228000Y1038000
X1239000Y1072000
X1259999Y1067000
X1263999Y1113000
X1278000Y1113000
X1206500Y1108437
X1194999Y1127500
X1216999Y1078000
X1210760Y974749
X1216999Y968000
X1218011Y958498
X1197510Y922996
X1213750Y806750
X1207750Y798000
X1409000Y799000
X1408270Y811991
X1385750Y831750
X1441000Y836000
X1456750Y820000
X1459000Y800000
X1503250Y799000
X1506025Y808241
X1509500Y836000
X1489250Y856250
X1523999Y879000
X1478500Y909500
X1483000Y961001
X1463999Y961000
X1460000Y950000
X1430500Y945500
X1513109Y963111
X1508282Y1001000
T02
X1102250Y297250
Y309250
X1114250
Y297250
T03
X1495000Y705000
Y724000
T04
X814750Y1142300
X815000Y1167700
X1185000
X1184750Y1142300
X1505000Y939400
Y914000
Y888600
T05
X1124539Y757039
X1133520Y766020
X1142500Y775000
X1151480Y783980
X1160461Y792961
X1169441Y801941
T06
X867478Y1155249
X863504Y1180336
X904000Y1186750
X907973Y1161663
X1092016Y1161413
X1095989Y1186500
X1136484Y1180087
X1132511Y1154999
T07
X981950Y875300
X1007350
X1032750
X1020050Y900700
X994650
X969250
T08
X1039750Y274800
Y300200
X1007000Y331000
Y356400
X899250Y827000
X849250
X1122500Y837500
X1172500
T09
X505700Y891500
Y936500
T10
X1071750Y192000
X1128250
T11
X530600Y878950
Y949050
T12
X910100Y712888
X782888Y1019900
X1217090Y1019952
T13
X790000Y240000
X1210000
X580000Y900000
X1420000
T14
X954260Y882670
M30
