%FSLAX44Y44*%
%MOMM*%
G71*
G01*
G75*
G04 Layer_Physical_Order=1*
G04 Layer_Color=255*
%ADD10C,0.5000*%
%ADD11C,1.4000*%
%ADD12C,1.0000*%
%ADD13R,1.0000X1.0000*%
%ADD14C,0.6000*%
G36*
X1161729Y1059717D02*
X1168372Y1058588D01*
X1174848Y1056722D01*
X1181074Y1054143D01*
X1186972Y1050883D01*
X1192468Y1046984D01*
X1197493Y1042493D01*
X1201984Y1037468D01*
X1205883Y1031972D01*
X1209143Y1026074D01*
X1211722Y1019848D01*
X1213588Y1013372D01*
X1214717Y1006729D01*
X1215095Y1000000D01*
X1214717Y993271D01*
X1213588Y986628D01*
X1211722Y980152D01*
X1209143Y973926D01*
X1205883Y968028D01*
X1201984Y962532D01*
X1197493Y957507D01*
X1192468Y953016D01*
X1186972Y949117D01*
X1181074Y945857D01*
X1174848Y943278D01*
X1168372Y941412D01*
X1161729Y940283D01*
X1155000Y939905D01*
X1148271Y940283D01*
X1141628Y941412D01*
X1135152Y943278D01*
X1128926Y945857D01*
X1123028Y949117D01*
X1117532Y953016D01*
X1112507Y957507D01*
X1108016Y962532D01*
X1104117Y968028D01*
X1100857Y973926D01*
X1098660Y979230D01*
X1099183Y980062D01*
X1099305Y980383D01*
X1099480Y980679D01*
X1100027Y982243D01*
X1100075Y982583D01*
X1100180Y982911D01*
X1100365Y984558D01*
X1100351Y984730D01*
X1100385Y984900D01*
Y1015100D01*
X1100351Y1015270D01*
X1100365Y1015443D01*
X1100180Y1017089D01*
X1100075Y1017417D01*
X1100027Y1017757D01*
X1099480Y1019321D01*
X1099305Y1019617D01*
X1099183Y1019938D01*
X1098660Y1020770D01*
X1100857Y1026074D01*
X1104117Y1031972D01*
X1108016Y1037468D01*
X1112507Y1042493D01*
X1117532Y1046984D01*
X1123028Y1050883D01*
X1128926Y1054143D01*
X1135152Y1056722D01*
X1141628Y1058588D01*
X1148271Y1059717D01*
X1155000Y1060095D01*
X1161729Y1059717D01*
D02*
G37*
G36*
X851729D02*
X858372Y1058588D01*
X864848Y1056722D01*
X871074Y1054143D01*
X876972Y1050883D01*
X882468Y1046984D01*
X887493Y1042493D01*
X891984Y1037468D01*
X895883Y1031972D01*
X899143Y1026074D01*
X901172Y1021177D01*
X900393Y1019938D01*
X900270Y1019617D01*
X900096Y1019321D01*
X899548Y1017757D01*
X899500Y1017417D01*
X899396Y1017089D01*
X899210Y1015443D01*
X899225Y1015270D01*
X899191Y1015100D01*
Y984900D01*
X899225Y984730D01*
X899210Y984557D01*
X899396Y982911D01*
X899500Y982583D01*
X899548Y982243D01*
X900096Y980679D01*
X900270Y980383D01*
X900393Y980062D01*
X901172Y978823D01*
X899143Y973926D01*
X895883Y968028D01*
X891984Y962532D01*
X887493Y957507D01*
X882468Y953016D01*
X876972Y949117D01*
X871074Y945857D01*
X864848Y943278D01*
X858372Y941412D01*
X851729Y940283D01*
X845000Y939905D01*
X838272Y940283D01*
X831628Y941412D01*
X825152Y943278D01*
X818926Y945857D01*
X813028Y949117D01*
X807532Y953016D01*
X802507Y957507D01*
X798016Y962532D01*
X794117Y968028D01*
X790857Y973926D01*
X788278Y980152D01*
X786412Y986628D01*
X785283Y993271D01*
X784905Y1000000D01*
X785283Y1006729D01*
X786412Y1013372D01*
X788278Y1019848D01*
X790857Y1026074D01*
X794117Y1031972D01*
X798016Y1037468D01*
X802507Y1042493D01*
X807532Y1046984D01*
X813028Y1050883D01*
X818926Y1054143D01*
X825152Y1056722D01*
X831628Y1058588D01*
X838272Y1059717D01*
X845000Y1060095D01*
X851729Y1059717D01*
D02*
G37*
G36*
X1026074Y899143D02*
X1031972Y895883D01*
X1037468Y891984D01*
X1042493Y887493D01*
X1046984Y882468D01*
X1050883Y876972D01*
X1054143Y871074D01*
X1056722Y864848D01*
X1058588Y858372D01*
X1059717Y851729D01*
X1060095Y845000D01*
X1059717Y838272D01*
X1058588Y831628D01*
X1056722Y825152D01*
X1054143Y818926D01*
X1050883Y813028D01*
X1046984Y807532D01*
X1042493Y802507D01*
X1037468Y798016D01*
X1031972Y794117D01*
X1026074Y790857D01*
X1019848Y788278D01*
X1013372Y786412D01*
X1006729Y785283D01*
X1000000Y784905D01*
X993271Y785283D01*
X986628Y786412D01*
X980152Y788278D01*
X973926Y790857D01*
X968028Y794117D01*
X962532Y798016D01*
X957507Y802507D01*
X953016Y807532D01*
X949117Y813028D01*
X945857Y818926D01*
X943278Y825152D01*
X941412Y831628D01*
X940283Y838272D01*
X939905Y845000D01*
X940283Y851729D01*
X941412Y858372D01*
X943278Y864848D01*
X945857Y871074D01*
X949117Y876972D01*
X953016Y882468D01*
X957507Y887493D01*
X962532Y891984D01*
X968028Y895883D01*
X973926Y899143D01*
X979017Y901252D01*
X979986Y900643D01*
X980307Y900520D01*
X980603Y900346D01*
X982168Y899798D01*
X982508Y899750D01*
X982835Y899646D01*
X984482Y899461D01*
X984654Y899475D01*
X984824Y899441D01*
X1015024D01*
X1015024Y899441D01*
X1015024D01*
X1015100D01*
X1015245Y899470D01*
X1015362Y899460D01*
X1015362Y899460D01*
X1015381Y899466D01*
X1015443Y899461D01*
X1015489Y899466D01*
D01*
X1017089Y899646D01*
X1017417Y899750D01*
X1017757Y899798D01*
X1019184Y900298D01*
X1019184D01*
X1019321Y900346D01*
X1019617Y900520D01*
X1019938Y900643D01*
X1020158Y900781D01*
X1020158Y900781D01*
X1020938Y901271D01*
X1026074Y899143D01*
D02*
G37*
G36*
X936538Y1125066D02*
X936822Y1124575D01*
X937029Y1124047D01*
X940289Y1118149D01*
X940626Y1117693D01*
X940891Y1117191D01*
X944790Y1111695D01*
X945176Y1111279D01*
X945495Y1110811D01*
X949986Y1105786D01*
X950416Y1105416D01*
X950786Y1104986D01*
X955811Y1100495D01*
X956279Y1100176D01*
X956695Y1099790D01*
X962191Y1095891D01*
X962692Y1095626D01*
X963149Y1095289D01*
X969047Y1092029D01*
X969575Y1091822D01*
X970066Y1091538D01*
X973815Y1089985D01*
Y1089900D01*
X973855Y1089700D01*
X973838Y1089496D01*
X974023Y1087849D01*
X974146Y1087463D01*
X974203Y1087061D01*
X974750Y1085497D01*
X974956Y1085148D01*
X975101Y1084769D01*
X975983Y1083366D01*
X976261Y1083071D01*
X976487Y1082734D01*
X977658Y1081562D01*
X977996Y1081337D01*
X978290Y1081058D01*
X979693Y1080177D01*
X980072Y1080032D01*
X980422Y1079826D01*
X981986Y1079279D01*
X982387Y1079222D01*
X982774Y1079099D01*
X984420Y1078913D01*
X984483Y1078919D01*
X984501Y1078913D01*
X984501Y1078913D01*
X984650Y1078925D01*
X984824Y1078891D01*
X984900D01*
X984900D01*
X984900Y1078891D01*
X1015100D01*
X1015300Y1078931D01*
X1015504Y1078913D01*
X1017151Y1079099D01*
X1017537Y1079222D01*
X1017939Y1079279D01*
X1019503Y1079826D01*
X1019852Y1080032D01*
X1020231Y1080177D01*
X1021634Y1081058D01*
X1021929Y1081337D01*
X1022266Y1081562D01*
X1023438Y1082734D01*
X1023663Y1083071D01*
X1023942Y1083366D01*
X1024823Y1084769D01*
X1024932Y1085054D01*
X1025102Y1085308D01*
X1025122Y1085409D01*
X1025174Y1085498D01*
X1025215Y1085615D01*
D01*
X1025721Y1087061D01*
X1025778Y1087463D01*
X1025901Y1087849D01*
X1026051Y1089177D01*
Y1089177D01*
X1026087Y1089496D01*
X1026069Y1089700D01*
X1026109Y1089900D01*
Y1089954D01*
X1029934Y1091538D01*
X1030425Y1091822D01*
X1030953Y1092029D01*
X1036851Y1095289D01*
X1037308Y1095626D01*
X1037809Y1095891D01*
X1043305Y1099790D01*
X1043721Y1100176D01*
X1044189Y1100495D01*
X1049214Y1104986D01*
X1049584Y1105416D01*
X1050014Y1105786D01*
X1054505Y1110811D01*
X1054824Y1111279D01*
X1055210Y1111695D01*
X1059109Y1117191D01*
X1059374Y1117692D01*
X1059711Y1118149D01*
X1062971Y1124047D01*
X1063178Y1124575D01*
X1063462Y1125066D01*
X1065145Y1129130D01*
X1066391Y1128882D01*
Y1090000D01*
X1066431Y1089799D01*
X1066413Y1089596D01*
X1066915Y1085145D01*
X1067038Y1084759D01*
X1067095Y1084358D01*
X1068574Y1080130D01*
X1068780Y1079781D01*
X1068925Y1079402D01*
X1071307Y1075610D01*
X1071586Y1075315D01*
X1071811Y1074978D01*
X1074978Y1071811D01*
X1075315Y1071586D01*
X1075610Y1071307D01*
X1079402Y1068925D01*
X1079781Y1068780D01*
X1080130Y1068574D01*
X1084358Y1067095D01*
X1084759Y1067038D01*
X1085145Y1066915D01*
X1089596Y1066413D01*
X1089800Y1066431D01*
X1090000Y1066391D01*
X1128882D01*
X1129130Y1065145D01*
X1125066Y1063462D01*
X1124575Y1063178D01*
X1124047Y1062971D01*
X1118149Y1059711D01*
X1117693Y1059374D01*
X1117191Y1059109D01*
X1111695Y1055210D01*
X1111279Y1054824D01*
X1110811Y1054505D01*
X1105786Y1050014D01*
X1105416Y1049584D01*
X1104986Y1049214D01*
X1100495Y1044189D01*
X1100176Y1043721D01*
X1099790Y1043305D01*
X1095891Y1037809D01*
X1095626Y1037308D01*
X1095289Y1036851D01*
X1092029Y1030953D01*
X1091822Y1030425D01*
X1091538Y1029934D01*
X1089952Y1026104D01*
X1089926Y1026109D01*
X1089726D01*
X1089726Y1026109D01*
X1089725D01*
X1089650D01*
X1089475Y1026075D01*
X1089327Y1026087D01*
X1089327Y1026087D01*
X1089308Y1026081D01*
X1089246Y1026087D01*
X1087599Y1025901D01*
X1087213Y1025778D01*
X1086811Y1025721D01*
X1085247Y1025174D01*
X1084898Y1024968D01*
X1084519Y1024823D01*
X1083116Y1023942D01*
X1082821Y1023663D01*
X1082484Y1023438D01*
X1081312Y1022266D01*
X1081087Y1021929D01*
X1080808Y1021634D01*
X1079927Y1020231D01*
X1079782Y1019852D01*
X1079576Y1019503D01*
X1079029Y1017939D01*
X1078972Y1017537D01*
X1078849Y1017151D01*
X1078663Y1015504D01*
X1078680Y1015300D01*
X1078641Y1015100D01*
Y984900D01*
X1078680Y984700D01*
X1078663Y984496D01*
X1078849Y982849D01*
X1078972Y982463D01*
X1079029Y982061D01*
X1079576Y980497D01*
X1079782Y980148D01*
X1079927Y979769D01*
X1080808Y978366D01*
X1081087Y978071D01*
X1081312Y977734D01*
X1082484Y976562D01*
X1082821Y976337D01*
X1083116Y976058D01*
X1084519Y975177D01*
X1084898Y975032D01*
X1085247Y974826D01*
X1086811Y974279D01*
X1087213Y974222D01*
X1087599Y974099D01*
X1089246Y973913D01*
X1089450Y973931D01*
X1089650Y973891D01*
X1089850D01*
X1089850Y973891D01*
X1089850D01*
X1089926D01*
X1089952Y973896D01*
X1091538Y970066D01*
X1091822Y969575D01*
X1092029Y969047D01*
X1095289Y963149D01*
X1095626Y962693D01*
X1095891Y962191D01*
X1099790Y956695D01*
X1100176Y956279D01*
X1100495Y955811D01*
X1104986Y950786D01*
X1105416Y950416D01*
X1105786Y949986D01*
X1110811Y945495D01*
X1111279Y945176D01*
X1111695Y944790D01*
X1117191Y940891D01*
X1117692Y940626D01*
X1118149Y940289D01*
X1124047Y937029D01*
X1124575Y936822D01*
X1125066Y936538D01*
X1129130Y934855D01*
X1128882Y933609D01*
X1090000D01*
X1089799Y933569D01*
X1089596Y933587D01*
X1085145Y933085D01*
X1084759Y932962D01*
X1084358Y932905D01*
X1080130Y931426D01*
X1079781Y931220D01*
X1079402Y931076D01*
X1075610Y928693D01*
X1075315Y928414D01*
X1074978Y928189D01*
X1071811Y925022D01*
X1071586Y924685D01*
X1071307Y924390D01*
X1068925Y920598D01*
X1068780Y920219D01*
X1068574Y919870D01*
X1067095Y915643D01*
X1067038Y915241D01*
X1066915Y914855D01*
X1066413Y910404D01*
X1066431Y910200D01*
X1066391Y910000D01*
Y871118D01*
X1065145Y870870D01*
X1063462Y874934D01*
X1063178Y875425D01*
X1062971Y875953D01*
X1059711Y881851D01*
X1059374Y882308D01*
X1059109Y882809D01*
X1055210Y888305D01*
X1054824Y888721D01*
X1054505Y889189D01*
X1050014Y894214D01*
X1049584Y894584D01*
X1049214Y895014D01*
X1044189Y899505D01*
X1043721Y899824D01*
X1043305Y900210D01*
X1037809Y904109D01*
X1037308Y904374D01*
X1036851Y904711D01*
X1030953Y907971D01*
X1030425Y908178D01*
X1029934Y908462D01*
X1026109Y910046D01*
Y910100D01*
X1026069Y910301D01*
X1026087Y910504D01*
X1025901Y912151D01*
X1025778Y912537D01*
X1025721Y912939D01*
X1025174Y914503D01*
X1024968Y914852D01*
X1024823Y915231D01*
X1023942Y916634D01*
X1023663Y916929D01*
X1023438Y917266D01*
X1022266Y918438D01*
X1021929Y918663D01*
X1021634Y918942D01*
X1020231Y919823D01*
X1019852Y919968D01*
X1019503Y920174D01*
X1017939Y920721D01*
X1017537Y920778D01*
X1017151Y920901D01*
X1015504Y921087D01*
X1015300Y921069D01*
X1015100Y921109D01*
X984900D01*
X984900Y921109D01*
X984900D01*
X984824D01*
X984650Y921075D01*
X984501Y921087D01*
X984501Y921087D01*
X984483Y921081D01*
X984420Y921087D01*
X982774Y920901D01*
X982387Y920778D01*
X981986Y920721D01*
X980422Y920174D01*
X980072Y919968D01*
X979693Y919823D01*
X978290Y918942D01*
X977996Y918663D01*
X977658Y918438D01*
X976487Y917266D01*
X976261Y916929D01*
X975983Y916634D01*
X975101Y915231D01*
X974956Y914852D01*
X974750Y914503D01*
X974203Y912939D01*
X974146Y912537D01*
X974023Y912151D01*
X973838Y910504D01*
X973855Y910300D01*
X973815Y910100D01*
Y910015D01*
X970066Y908462D01*
X969575Y908178D01*
X969047Y907971D01*
X963149Y904711D01*
X962693Y904374D01*
X962191Y904109D01*
X956695Y900210D01*
X956279Y899824D01*
X955811Y899505D01*
X950786Y895014D01*
X950416Y894584D01*
X949986Y894214D01*
X945495Y889189D01*
X945176Y888721D01*
X944790Y888305D01*
X940891Y882809D01*
X940626Y882308D01*
X940289Y881851D01*
X937029Y875953D01*
X936822Y875425D01*
X936538Y874934D01*
X934855Y870870D01*
X933609Y871118D01*
Y910000D01*
X933569Y910201D01*
X933587Y910404D01*
X933085Y914855D01*
X932962Y915241D01*
X932905Y915642D01*
X931426Y919870D01*
X931220Y920219D01*
X931076Y920598D01*
X928693Y924390D01*
X928414Y924685D01*
X928189Y925022D01*
X925022Y928189D01*
X924685Y928414D01*
X924390Y928693D01*
X920598Y931076D01*
X920219Y931220D01*
X919870Y931426D01*
X915643Y932905D01*
X915241Y932962D01*
X914855Y933085D01*
X910404Y933587D01*
X910200Y933569D01*
X910000Y933609D01*
X871118D01*
X870870Y934855D01*
X874934Y936538D01*
X875425Y936822D01*
X875953Y937029D01*
X881851Y940289D01*
X882308Y940626D01*
X882809Y940891D01*
X888305Y944790D01*
X888721Y945176D01*
X889189Y945495D01*
X894214Y949986D01*
X894584Y950416D01*
X895014Y950786D01*
X899505Y955811D01*
X899824Y956279D01*
X900210Y956695D01*
X904109Y962191D01*
X904374Y962692D01*
X904711Y963149D01*
X907971Y969047D01*
X908178Y969575D01*
X908462Y970066D01*
X910046Y973891D01*
X910199D01*
X910199Y973891D01*
X910199D01*
X910274D01*
X910449Y973925D01*
X910597Y973913D01*
X910597Y973913D01*
X910616Y973919D01*
X910678Y973913D01*
X912325Y974099D01*
X912712Y974222D01*
X913113Y974279D01*
X914677Y974826D01*
X915026Y975032D01*
X915405Y975177D01*
X916808Y976058D01*
X917103Y976337D01*
X917440Y976562D01*
X918612Y977734D01*
X918838Y978071D01*
X919116Y978366D01*
X919998Y979769D01*
X920142Y980148D01*
X920348Y980497D01*
X920896Y982061D01*
X920952Y982463D01*
X921076Y982849D01*
X921261Y984496D01*
X921244Y984700D01*
X921284Y984900D01*
Y1015100D01*
X921244Y1015300D01*
X921261Y1015504D01*
X921076Y1017151D01*
X920952Y1017537D01*
X920896Y1017939D01*
X920348Y1019503D01*
X920142Y1019852D01*
X919998Y1020231D01*
X919116Y1021634D01*
X918838Y1021929D01*
X918612Y1022266D01*
X917440Y1023438D01*
X917103Y1023663D01*
X916809Y1023942D01*
X915406Y1024823D01*
X915026Y1024968D01*
X914677Y1025174D01*
X913113Y1025721D01*
X912711Y1025778D01*
X912325Y1025901D01*
X910679Y1026087D01*
X910475Y1026069D01*
X910274Y1026109D01*
X910074D01*
X910074Y1026109D01*
X910074D01*
X910046D01*
X908462Y1029934D01*
X908178Y1030425D01*
X907971Y1030953D01*
X904711Y1036851D01*
X904374Y1037308D01*
X904109Y1037809D01*
X900210Y1043305D01*
X899824Y1043721D01*
X899505Y1044189D01*
X895014Y1049214D01*
X894584Y1049584D01*
X894214Y1050014D01*
X889189Y1054505D01*
X888721Y1054824D01*
X888305Y1055210D01*
X882809Y1059109D01*
X882308Y1059374D01*
X881851Y1059711D01*
X875953Y1062971D01*
X875425Y1063178D01*
X874934Y1063462D01*
X868708Y1066041D01*
X868160Y1066188D01*
X868203Y1066391D01*
X910000D01*
X910201Y1066431D01*
X910404Y1066413D01*
X914855Y1066915D01*
X915241Y1067038D01*
X915642Y1067095D01*
X919870Y1068574D01*
X920219Y1068780D01*
X920598Y1068925D01*
X924390Y1071307D01*
X924685Y1071586D01*
X925022Y1071811D01*
X928189Y1074978D01*
X928414Y1075315D01*
X928693Y1075610D01*
X931076Y1079402D01*
X931220Y1079781D01*
X931426Y1080130D01*
X932905Y1084358D01*
X932962Y1084759D01*
X933085Y1085145D01*
X933587Y1089596D01*
X933569Y1089800D01*
X933609Y1090000D01*
Y1128882D01*
X934855Y1129130D01*
X936538Y1125066D01*
D02*
G37*
G36*
X1006729Y1214717D02*
X1013372Y1213588D01*
X1019848Y1211722D01*
X1026074Y1209143D01*
X1031972Y1205883D01*
X1037468Y1201984D01*
X1042493Y1197493D01*
X1046984Y1192468D01*
X1050883Y1186972D01*
X1054143Y1181074D01*
X1056722Y1174848D01*
X1058588Y1168372D01*
X1059717Y1161729D01*
X1060095Y1155000D01*
X1059717Y1148271D01*
X1058588Y1141628D01*
X1056722Y1135152D01*
X1054143Y1128926D01*
X1050883Y1123028D01*
X1046984Y1117532D01*
X1042493Y1112507D01*
X1037468Y1108016D01*
X1031972Y1104117D01*
X1026074Y1100857D01*
X1020938Y1098729D01*
X1019938Y1099357D01*
X1019617Y1099480D01*
X1019321Y1099654D01*
X1017757Y1100202D01*
X1017417Y1100250D01*
X1017089Y1100354D01*
X1015443Y1100540D01*
X1015270Y1100525D01*
X1015100Y1100559D01*
X984900D01*
X984900Y1100559D01*
X984900D01*
X984824D01*
X984680Y1100530D01*
X984562Y1100540D01*
X984562Y1100540D01*
X984544Y1100534D01*
X984482Y1100540D01*
X982835Y1100354D01*
X982508Y1100250D01*
X982168Y1100202D01*
X980603Y1099654D01*
X980307Y1099480D01*
X979986Y1099357D01*
X979017Y1098748D01*
X973926Y1100857D01*
X968028Y1104117D01*
X962532Y1108016D01*
X957507Y1112507D01*
X953016Y1117532D01*
X949117Y1123028D01*
X945857Y1128926D01*
X943278Y1135152D01*
X941412Y1141628D01*
X940283Y1148271D01*
X939905Y1155000D01*
X940283Y1161729D01*
X941412Y1168372D01*
X943278Y1174848D01*
X945857Y1181074D01*
X949117Y1186972D01*
X953016Y1192468D01*
X957507Y1197493D01*
X962532Y1201984D01*
X968028Y1205883D01*
X973926Y1209143D01*
X980152Y1211722D01*
X986628Y1213588D01*
X993271Y1214717D01*
X1000000Y1215095D01*
X1006729Y1214717D01*
D02*
G37*
%LPC*%
G36*
X936653Y945144D02*
Y936653D01*
X945144D01*
X944948Y938144D01*
X943986Y940464D01*
X942457Y942457D01*
X940464Y943986D01*
X938144Y944948D01*
X936653Y945144D01*
D02*
G37*
G36*
X934653D02*
X933163Y944948D01*
X930842Y943986D01*
X928849Y942457D01*
X927320Y940464D01*
X926359Y938144D01*
X926162Y936653D01*
X934653D01*
Y945144D01*
D02*
G37*
G36*
X1065347D02*
Y936653D01*
X1073837D01*
X1073641Y938144D01*
X1072680Y940464D01*
X1071151Y942457D01*
X1069158Y943986D01*
X1066837Y944948D01*
X1065347Y945144D01*
D02*
G37*
G36*
X1063347D02*
X1061856Y944948D01*
X1059536Y943986D01*
X1057543Y942457D01*
X1056013Y940464D01*
X1055052Y938144D01*
X1054856Y936653D01*
X1063347D01*
Y945144D01*
D02*
G37*
G36*
X945144Y934653D02*
X936653D01*
Y926162D01*
X938144Y926359D01*
X940464Y927320D01*
X942457Y928849D01*
X943986Y930842D01*
X944948Y933163D01*
X945144Y934653D01*
D02*
G37*
G36*
X934653D02*
X926162D01*
X926359Y933163D01*
X927320Y930842D01*
X928849Y928849D01*
X930842Y927320D01*
X933163Y926359D01*
X934653Y926162D01*
Y934653D01*
D02*
G37*
G36*
X1073837D02*
X1065347D01*
Y926162D01*
X1066837Y926359D01*
X1069158Y927320D01*
X1071151Y928849D01*
X1072680Y930842D01*
X1073641Y933163D01*
X1073837Y934653D01*
D02*
G37*
G36*
X1063347D02*
X1054856D01*
X1055052Y933163D01*
X1056013Y930842D01*
X1057543Y928849D01*
X1059536Y927320D01*
X1061856Y926359D01*
X1063347Y926162D01*
Y934653D01*
D02*
G37*
G36*
X1031750Y1077605D02*
X1029782Y1077346D01*
X1027947Y1076586D01*
X1026372Y1075378D01*
X1026035Y1074938D01*
X1024765D01*
X1024428Y1075378D01*
X1022852Y1076586D01*
X1021018Y1077346D01*
X1019050Y1077605D01*
X1017082Y1077346D01*
X1015247Y1076586D01*
X1013672Y1075378D01*
X1013335Y1074938D01*
X1012065D01*
X1011728Y1075378D01*
X1010153Y1076586D01*
X1008318Y1077346D01*
X1006350Y1077605D01*
X1004382Y1077346D01*
X1002547Y1076586D01*
X1000972Y1075378D01*
X1000635Y1074938D01*
X999365D01*
X999028Y1075378D01*
X997452Y1076586D01*
X995618Y1077346D01*
X993650Y1077605D01*
X991682Y1077346D01*
X989847Y1076586D01*
X988272Y1075378D01*
X987935Y1074938D01*
X986665D01*
X986328Y1075378D01*
X984753Y1076586D01*
X982918Y1077346D01*
X980950Y1077605D01*
X978982Y1077346D01*
X977148Y1076586D01*
X976929Y1076419D01*
X975790Y1076980D01*
Y1077540D01*
X960710D01*
Y1062460D01*
X965580D01*
X965897Y1061230D01*
X963149Y1059711D01*
X962693Y1059374D01*
X962191Y1059109D01*
X956695Y1055210D01*
X956279Y1054824D01*
X955811Y1054505D01*
X950786Y1050014D01*
X950416Y1049584D01*
X949986Y1049214D01*
X945495Y1044189D01*
X945176Y1043721D01*
X944790Y1043305D01*
X940891Y1037809D01*
X940626Y1037308D01*
X940289Y1036851D01*
X937029Y1030953D01*
X936822Y1030425D01*
X936538Y1029934D01*
X933959Y1023708D01*
X933812Y1023160D01*
X933586Y1022640D01*
X931720Y1016164D01*
X931636Y1015604D01*
X931468Y1015062D01*
X930340Y1008418D01*
X930318Y1007851D01*
X930213Y1007294D01*
X929835Y1000565D01*
X929877Y1000000D01*
X929835Y999435D01*
X930213Y992706D01*
X930318Y992149D01*
X930340Y991582D01*
X931468Y984938D01*
X931636Y984396D01*
X931720Y983836D01*
X933586Y977360D01*
X933812Y976840D01*
X933959Y976292D01*
X936538Y970066D01*
X936822Y969575D01*
X937029Y969047D01*
X940289Y963149D01*
X940626Y962693D01*
X940891Y962191D01*
X944790Y956695D01*
X945176Y956279D01*
X945495Y955811D01*
X949986Y950786D01*
X950416Y950416D01*
X950786Y949986D01*
X955811Y945495D01*
X956279Y945176D01*
X956695Y944790D01*
X962191Y940891D01*
X962692Y940626D01*
X963149Y940289D01*
X969047Y937029D01*
X969575Y936822D01*
X970066Y936538D01*
X976292Y933959D01*
X976840Y933812D01*
X977360Y933586D01*
X983836Y931720D01*
X984396Y931636D01*
X984938Y931468D01*
X991582Y930340D01*
X992149Y930318D01*
X992706Y930213D01*
X999435Y929835D01*
X1000000Y929877D01*
X1000565Y929835D01*
X1007294Y930213D01*
X1007851Y930318D01*
X1008418Y930340D01*
X1015062Y931468D01*
X1015604Y931636D01*
X1016164Y931720D01*
X1022640Y933586D01*
X1023160Y933812D01*
X1023708Y933959D01*
X1029934Y936538D01*
X1030425Y936822D01*
X1030953Y937029D01*
X1036851Y940289D01*
X1037308Y940626D01*
X1037809Y940891D01*
X1043305Y944790D01*
X1043721Y945176D01*
X1044189Y945495D01*
X1049214Y949986D01*
X1049584Y950416D01*
X1050014Y950786D01*
X1054505Y955811D01*
X1054824Y956279D01*
X1055210Y956695D01*
X1059109Y962191D01*
X1059374Y962692D01*
X1059711Y963149D01*
X1062971Y969047D01*
X1063178Y969575D01*
X1063462Y970066D01*
X1066041Y976292D01*
X1066188Y976840D01*
X1066414Y977360D01*
X1068280Y983836D01*
X1068364Y984396D01*
X1068532Y984938D01*
X1069660Y991582D01*
X1069682Y992149D01*
X1069787Y992706D01*
X1070165Y999435D01*
X1070123Y1000000D01*
X1070165Y1000565D01*
X1069787Y1007294D01*
X1069682Y1007851D01*
X1069660Y1008418D01*
X1068532Y1015062D01*
X1068364Y1015604D01*
X1068280Y1016164D01*
X1066414Y1022640D01*
X1066188Y1023160D01*
X1066041Y1023708D01*
X1063462Y1029934D01*
X1063178Y1030425D01*
X1062971Y1030953D01*
X1059711Y1036851D01*
X1059374Y1037308D01*
X1059109Y1037809D01*
X1055210Y1043305D01*
X1054824Y1043721D01*
X1054505Y1044189D01*
X1050014Y1049214D01*
X1049584Y1049584D01*
X1049214Y1050014D01*
X1044189Y1054505D01*
X1043721Y1054824D01*
X1043305Y1055210D01*
X1037809Y1059109D01*
X1037308Y1059374D01*
X1036851Y1059711D01*
X1033511Y1061557D01*
X1033718Y1062654D01*
X1035553Y1063414D01*
X1037128Y1064622D01*
X1038336Y1066198D01*
X1039096Y1068032D01*
X1039355Y1070000D01*
X1039096Y1071968D01*
X1038336Y1073803D01*
X1037128Y1075378D01*
X1035553Y1076586D01*
X1033718Y1077346D01*
X1031750Y1077605D01*
D02*
G37*
G36*
X1073837Y1063347D02*
X1065347D01*
Y1054856D01*
X1066837Y1055052D01*
X1069158Y1056013D01*
X1071151Y1057543D01*
X1072680Y1059536D01*
X1073641Y1061856D01*
X1073837Y1063347D01*
D02*
G37*
G36*
X1063347D02*
X1054856D01*
X1055052Y1061856D01*
X1056013Y1059536D01*
X1057543Y1057543D01*
X1059536Y1056013D01*
X1061856Y1055052D01*
X1063347Y1054856D01*
Y1063347D01*
D02*
G37*
G36*
X936653Y1073837D02*
Y1065347D01*
X945144D01*
X944948Y1066837D01*
X943986Y1069158D01*
X942457Y1071151D01*
X940464Y1072680D01*
X938144Y1073641D01*
X936653Y1073837D01*
D02*
G37*
G36*
X934653D02*
X933163Y1073641D01*
X930842Y1072680D01*
X928849Y1071151D01*
X927320Y1069158D01*
X926359Y1066837D01*
X926162Y1065347D01*
X934653D01*
Y1073837D01*
D02*
G37*
G36*
X1063347D02*
X1061856Y1073641D01*
X1059536Y1072680D01*
X1057543Y1071151D01*
X1056013Y1069158D01*
X1055052Y1066837D01*
X1054856Y1065347D01*
X1063347D01*
Y1073837D01*
D02*
G37*
G36*
X1065347D02*
Y1065347D01*
X1073837D01*
X1073641Y1066837D01*
X1072680Y1069158D01*
X1071151Y1071151D01*
X1069158Y1072680D01*
X1066837Y1073641D01*
X1065347Y1073837D01*
D02*
G37*
G36*
X945144Y1063347D02*
X936653D01*
Y1054856D01*
X938144Y1055052D01*
X940464Y1056013D01*
X942457Y1057543D01*
X943986Y1059536D01*
X944948Y1061856D01*
X945144Y1063347D01*
D02*
G37*
G36*
X934653D02*
X926162D01*
X926359Y1061856D01*
X927320Y1059536D01*
X928849Y1057543D01*
X930842Y1056013D01*
X933163Y1055052D01*
X934653Y1054856D01*
Y1063347D01*
D02*
G37*
%LPD*%
G36*
X1006729Y1059717D02*
X1013372Y1058588D01*
X1019848Y1056722D01*
X1026074Y1054143D01*
X1031972Y1050883D01*
X1037468Y1046984D01*
X1042493Y1042493D01*
X1046984Y1037468D01*
X1050883Y1031972D01*
X1054143Y1026074D01*
X1056722Y1019848D01*
X1058588Y1013372D01*
X1059717Y1006729D01*
X1060095Y1000000D01*
X1059717Y993271D01*
X1058588Y986628D01*
X1056722Y980152D01*
X1054143Y973926D01*
X1050883Y968028D01*
X1046984Y962532D01*
X1042493Y957507D01*
X1037468Y953016D01*
X1031972Y949117D01*
X1026074Y945857D01*
X1019848Y943278D01*
X1013372Y941412D01*
X1006729Y940283D01*
X1000000Y939905D01*
X993271Y940283D01*
X986628Y941412D01*
X980152Y943278D01*
X973926Y945857D01*
X968028Y949117D01*
X962532Y953016D01*
X957507Y957507D01*
X953016Y962532D01*
X949117Y968028D01*
X945857Y973926D01*
X943278Y980152D01*
X941412Y986628D01*
X940283Y993271D01*
X939905Y1000000D01*
X940283Y1006729D01*
X941412Y1013372D01*
X943278Y1019848D01*
X945857Y1026074D01*
X949117Y1031972D01*
X953016Y1037468D01*
X957507Y1042493D01*
X962532Y1046984D01*
X968028Y1050883D01*
X973926Y1054143D01*
X980152Y1056722D01*
X986628Y1058588D01*
X993271Y1059717D01*
X1000000Y1060095D01*
X1006729Y1059717D01*
D02*
G37*
D10*
X993650Y1070000D02*
Y1076556D01*
Y1069972D02*
Y1070000D01*
D11*
X935653Y1064347D02*
D03*
X1064347D02*
D03*
Y935653D02*
D03*
X935653D02*
D03*
D12*
X1031750Y1070000D02*
D03*
X1019050D02*
D03*
X1006350D02*
D03*
X993650D02*
D03*
X980950D02*
D03*
D13*
X968250D02*
D03*
D14*
X965000Y1110000D02*
D03*
X1006350Y1056350D02*
D03*
X1035000Y890000D02*
D03*
X1115000Y1040000D02*
D03*
X890000Y1030000D02*
D03*
M02*
