%FSLAX44Y44*%
%MOMM*%
G71*
G01*
G75*
G04 Layer_Color=32896*
%ADD10R,0.9000X0.7000*%
%ADD11R,1.0000X1.0000*%
%ADD12O,1.8000X0.3000*%
%ADD13O,0.3000X1.8000*%
%ADD14O,1.5000X4.0000*%
G04:AMPARAMS|DCode=15|XSize=1.5mm|YSize=4mm|CornerRadius=0mm|HoleSize=0mm|Usage=FLASHONLY|Rotation=140.000|XOffset=0mm|YOffset=0mm|HoleType=Round|Shape=Round|*
%AMOVALD15*
21,1,2.5000,1.5000,0.0000,0.0000,230.0*
1,1,1.5000,0.8035,0.9576*
1,1,1.5000,-0.8035,-0.9576*
%
%ADD15OVALD15*%

G04:AMPARAMS|DCode=16|XSize=1.5mm|YSize=4mm|CornerRadius=0mm|HoleSize=0mm|Usage=FLASHONLY|Rotation=160.000|XOffset=0mm|YOffset=0mm|HoleType=Round|Shape=Round|*
%AMOVALD16*
21,1,2.5000,1.5000,0.0000,0.0000,250.0*
1,1,1.5000,0.4275,1.1746*
1,1,1.5000,-0.4275,-1.1746*
%
%ADD16OVALD16*%

G04:AMPARAMS|DCode=17|XSize=1.5mm|YSize=4mm|CornerRadius=0mm|HoleSize=0mm|Usage=FLASHONLY|Rotation=200.000|XOffset=0mm|YOffset=0mm|HoleType=Round|Shape=Round|*
%AMOVALD17*
21,1,2.5000,1.5000,0.0000,0.0000,290.0*
1,1,1.5000,-0.4275,1.1746*
1,1,1.5000,0.4275,-1.1746*
%
%ADD17OVALD17*%

G04:AMPARAMS|DCode=18|XSize=1.5mm|YSize=4mm|CornerRadius=0mm|HoleSize=0mm|Usage=FLASHONLY|Rotation=220.000|XOffset=0mm|YOffset=0mm|HoleType=Round|Shape=Round|*
%AMOVALD18*
21,1,2.5000,1.5000,0.0000,0.0000,310.0*
1,1,1.5000,-0.8035,0.9576*
1,1,1.5000,0.8035,-0.9576*
%
%ADD18OVALD18*%

%ADD19R,0.6000X0.6000*%
%ADD20R,1.3000X0.6000*%
%ADD21R,0.7000X0.9000*%
%ADD22R,1.0500X0.6000*%
%ADD23P,1.4142X4X270.0*%
%ADD24R,0.6000X1.3000*%
%ADD25P,1.4142X4X360.0*%
G04:AMPARAMS|DCode=26|XSize=0.9mm|YSize=0.7mm|CornerRadius=0mm|HoleSize=0mm|Usage=FLASHONLY|Rotation=315.000|XOffset=0mm|YOffset=0mm|HoleType=Round|Shape=Rectangle|*
%AMROTATEDRECTD26*
4,1,4,-0.5657,0.0707,-0.0707,0.5657,0.5657,-0.0707,0.0707,-0.5657,-0.5657,0.0707,0.0*
%
%ADD26ROTATEDRECTD26*%

%ADD27O,1.7000X0.3500*%
%ADD28R,1.0000X1.0000*%
%ADD29R,0.5000X0.5000*%
%ADD30R,1.0000X1.8000*%
%ADD31R,1.0000X1.8500*%
%ADD32O,2.2000X0.6000*%
%ADD33R,1.5000X2.0000*%
%ADD34R,0.4000X1.3500*%
%ADD35O,0.8000X0.2500*%
%ADD36O,0.2500X0.8000*%
%ADD37R,2.8000X2.8000*%
%ADD38R,1.4000X1.9000*%
%ADD39R,0.8000X1.5000*%
%ADD40R,1.3000X1.4000*%
%ADD41R,0.3000X0.8250*%
%ADD42R,1.0000X0.9000*%
%ADD43R,0.3000X0.4900*%
%ADD44R,0.3000X0.5200*%
%ADD45C,0.2000*%
%ADD46C,0.5000*%
%ADD47C,0.1500*%
%ADD48C,0.3000*%
%ADD49C,0.4000*%
%ADD50C,0.2500*%
%ADD51C,1.0000*%
%ADD52C,0.7500*%
%ADD53C,0.8000*%
%ADD54C,0.6000*%
%ADD55C,0.9000*%
%ADD56C,0.2900*%
%ADD57C,0.8500*%
%ADD58R,0.5000X0.2500*%
%ADD59C,2.4000*%
%ADD60C,1.6000*%
%ADD61C,1.1000*%
%ADD62R,1.2700X1.2700*%
%ADD63C,1.2700*%
%ADD64C,8.0000*%
%ADD65C,1.2000*%
%ADD66C,1.0000*%
%ADD67R,1.5000X1.5000*%
%ADD68C,1.5000*%
%ADD69C,1.7000*%
%ADD70C,2.2000*%
%ADD71C,2.0000*%
%ADD72C,1.0500*%
%ADD73P,1.4849X4X90.0*%
%ADD74C,0.7000*%
%ADD75C,0.6600*%
%ADD76R,1.8000X1.0000*%
%ADD77R,1.8500X1.0000*%
%ADD78R,0.5100X0.4000*%
G04:AMPARAMS|DCode=79|XSize=0.4mm|YSize=0.51mm|CornerRadius=0mm|HoleSize=0mm|Usage=FLASHONLY|Rotation=315.000|XOffset=0mm|YOffset=0mm|HoleType=Round|Shape=Rectangle|*
%AMROTATEDRECTD79*
4,1,4,-0.3217,-0.0389,0.0389,0.3217,0.3217,0.0389,-0.0389,-0.3217,-0.3217,-0.0389,0.0*
%
%ADD79ROTATEDRECTD79*%

%ADD80R,0.4000X0.5100*%
G04:AMPARAMS|DCode=81|XSize=0.9mm|YSize=0.7mm|CornerRadius=0mm|HoleSize=0mm|Usage=FLASHONLY|Rotation=45.000|XOffset=0mm|YOffset=0mm|HoleType=Round|Shape=Rectangle|*
%AMROTATEDRECTD81*
4,1,4,-0.0707,-0.5657,-0.5657,-0.0707,0.0707,0.5657,0.5657,0.0707,-0.0707,-0.5657,0.0*
%
%ADD81ROTATEDRECTD81*%

%ADD82R,2.0000X5.5000*%
%ADD83O,0.3500X1.7000*%
%ADD84P,1.4142X4X200.0*%
%ADD85P,1.4142X4X250.0*%
%ADD86C,0.2800*%
%ADD87O,1.2700X1.2710*%
%ADD88O,1.2700X2.2098*%
%ADD89C,0.2540*%
%ADD90C,0.1000*%
%ADD91O,1.7000X0.2000*%
%ADD92O,0.2000X1.7000*%
%ADD93O,0.7800X0.2300*%
%ADD94O,0.2300X0.7800*%
%ADD95R,1.8000X1.8000*%
%ADD96R,0.2700X0.7950*%
%ADD97R,0.2600X0.4500*%
%ADD98R,0.2600X0.4800*%
%ADD99R,1.0000X0.8000*%
%ADD100R,1.1000X1.1000*%
%ADD101O,1.9000X0.4000*%
%ADD102O,0.4000X1.9000*%
%ADD103O,1.6000X4.1000*%
G04:AMPARAMS|DCode=104|XSize=1.6mm|YSize=4.1mm|CornerRadius=0mm|HoleSize=0mm|Usage=FLASHONLY|Rotation=140.000|XOffset=0mm|YOffset=0mm|HoleType=Round|Shape=Round|*
%AMOVALD104*
21,1,2.5000,1.6000,0.0000,0.0000,230.0*
1,1,1.6000,0.8035,0.9576*
1,1,1.6000,-0.8035,-0.9576*
%
%ADD104OVALD104*%

G04:AMPARAMS|DCode=105|XSize=1.6mm|YSize=4.1mm|CornerRadius=0mm|HoleSize=0mm|Usage=FLASHONLY|Rotation=160.000|XOffset=0mm|YOffset=0mm|HoleType=Round|Shape=Round|*
%AMOVALD105*
21,1,2.5000,1.6000,0.0000,0.0000,250.0*
1,1,1.6000,0.4275,1.1746*
1,1,1.6000,-0.4275,-1.1746*
%
%ADD105OVALD105*%

G04:AMPARAMS|DCode=106|XSize=1.6mm|YSize=4.1mm|CornerRadius=0mm|HoleSize=0mm|Usage=FLASHONLY|Rotation=200.000|XOffset=0mm|YOffset=0mm|HoleType=Round|Shape=Round|*
%AMOVALD106*
21,1,2.5000,1.6000,0.0000,0.0000,290.0*
1,1,1.6000,-0.4275,1.1746*
1,1,1.6000,0.4275,-1.1746*
%
%ADD106OVALD106*%

G04:AMPARAMS|DCode=107|XSize=1.6mm|YSize=4.1mm|CornerRadius=0mm|HoleSize=0mm|Usage=FLASHONLY|Rotation=220.000|XOffset=0mm|YOffset=0mm|HoleType=Round|Shape=Round|*
%AMOVALD107*
21,1,2.5000,1.6000,0.0000,0.0000,310.0*
1,1,1.6000,-0.8035,0.9576*
1,1,1.6000,0.8035,-0.9576*
%
%ADD107OVALD107*%

%ADD108R,0.7000X0.7000*%
%ADD109R,1.4000X0.7000*%
%ADD110R,0.8000X1.0000*%
%ADD111R,1.1500X0.7000*%
%ADD112P,1.5556X4X270.0*%
%ADD113R,0.7000X1.4000*%
%ADD114P,1.5556X4X360.0*%
G04:AMPARAMS|DCode=115|XSize=1mm|YSize=0.8mm|CornerRadius=0mm|HoleSize=0mm|Usage=FLASHONLY|Rotation=315.000|XOffset=0mm|YOffset=0mm|HoleType=Round|Shape=Rectangle|*
%AMROTATEDRECTD115*
4,1,4,-0.6364,0.0707,-0.0707,0.6364,0.6364,-0.0707,0.0707,-0.6364,-0.6364,0.0707,0.0*
%
%ADD115ROTATEDRECTD115*%

%ADD116O,1.8000X0.4500*%
%ADD117R,1.1000X1.1000*%
%ADD118R,1.1000X1.9000*%
%ADD119R,1.1000X1.9500*%
%ADD120O,2.3000X0.7000*%
%ADD121R,1.6000X2.1000*%
%ADD122R,0.5000X1.4500*%
%ADD123O,0.9000X0.3500*%
%ADD124O,0.3500X0.9000*%
%ADD125R,2.9000X2.9000*%
%ADD126R,1.5000X2.0000*%
%ADD127R,0.9000X1.6000*%
%ADD128R,1.4000X1.5000*%
%ADD129R,0.6000X1.1250*%
%ADD130R,1.1000X1.0000*%
%ADD131R,0.4000X0.5900*%
%ADD132R,0.4000X0.6200*%
%ADD133C,2.5000*%
%ADD134R,1.3700X1.3700*%
%ADD135C,1.3700*%
%ADD136C,1.6000*%
%ADD137C,8.1000*%
%ADD138C,1.3000*%
%ADD139R,1.6000X1.6000*%
%ADD140C,1.8000*%
%ADD141C,2.3000*%
%ADD142C,2.1000*%
%ADD143C,1.1500*%
%ADD144P,1.6263X4X90.0*%
%ADD145R,1.9000X1.1000*%
%ADD146R,1.9500X1.1000*%
%ADD147R,0.6100X0.5000*%
G04:AMPARAMS|DCode=148|XSize=0.5mm|YSize=0.61mm|CornerRadius=0mm|HoleSize=0mm|Usage=FLASHONLY|Rotation=315.000|XOffset=0mm|YOffset=0mm|HoleType=Round|Shape=Rectangle|*
%AMROTATEDRECTD148*
4,1,4,-0.3925,-0.0389,0.0389,0.3925,0.3925,0.0389,-0.0389,-0.3925,-0.3925,-0.0389,0.0*
%
%ADD148ROTATEDRECTD148*%

%ADD149R,0.5000X0.6100*%
G04:AMPARAMS|DCode=150|XSize=1mm|YSize=0.8mm|CornerRadius=0mm|HoleSize=0mm|Usage=FLASHONLY|Rotation=45.000|XOffset=0mm|YOffset=0mm|HoleType=Round|Shape=Rectangle|*
%AMROTATEDRECTD150*
4,1,4,-0.0707,-0.6364,-0.6364,-0.0707,0.0707,0.6364,0.6364,0.0707,-0.0707,-0.6364,0.0*
%
%ADD150ROTATEDRECTD150*%

%ADD151R,2.1000X5.6000*%
%ADD152O,0.4500X1.8000*%
%ADD153P,1.5556X4X200.0*%
%ADD154P,1.5556X4X250.0*%
%ADD155O,1.3700X1.3710*%
%ADD156O,1.3700X2.3098*%
D45*
X851000Y369900D02*
Y370100D01*
X844000Y369900D02*
Y370100D01*
X886000Y386250D02*
X894500D01*
X872750Y354250D02*
Y385250D01*
X880750Y354250D02*
Y385250D01*
X872750Y354250D02*
X880750D01*
X872750Y385250D02*
X880750D01*
X911000Y374900D02*
Y375100D01*
X904000Y374900D02*
Y375100D01*
X1256650Y857250D02*
X1256850D01*
X1256650Y864250D02*
X1256850D01*
X1257900Y821500D02*
X1258100D01*
X1257900Y828500D02*
X1258100D01*
X1255650Y888750D02*
X1255850D01*
X1255650Y895750D02*
X1255850D01*
X1385000Y835000D02*
Y885000D01*
X1435000Y835000D02*
Y885000D01*
X1385000Y835000D02*
X1435000D01*
X1385000Y885000D02*
X1435000D01*
X952650Y988250D02*
X957500Y983400D01*
X952639D02*
X955499D01*
X952650Y983439D02*
Y988250D01*
X952611Y983400D02*
X952650Y983439D01*
Y985969D02*
X955218Y983400D01*
X952650Y985969D02*
Y986250D01*
X946250Y932600D02*
Y983400D01*
X1055750Y932600D02*
Y983400D01*
X946250D02*
X957500D01*
X946250Y932600D02*
X970200D01*
X1031800Y983400D02*
X1055750Y983400D01*
X1044500Y932600D02*
X1055750Y932600D01*
X1275500Y860650D02*
Y860850D01*
X1282500Y860650D02*
Y860850D01*
X1274500Y891900D02*
Y892100D01*
X1281500Y891900D02*
Y892100D01*
X1276500Y824650D02*
Y824850D01*
X1283500Y824650D02*
Y824850D01*
X1352750Y845750D02*
X1359750D01*
Y853750D01*
X1352750Y875750D02*
X1359750D01*
Y867750D02*
Y875750D01*
X1353000Y881000D02*
X1360000D01*
Y889000D01*
X1353000Y911000D02*
X1360000D01*
Y903000D02*
Y911000D01*
X1309250Y846250D02*
X1316250D01*
Y854250D01*
X1309250Y876250D02*
X1316250D01*
Y868250D02*
Y876250D01*
X1351000Y810000D02*
X1358000D01*
Y818000D01*
X1351000Y840000D02*
X1358000D01*
Y832000D02*
Y840000D01*
X1309750Y881500D02*
X1316750D01*
Y889500D01*
X1309750Y911500D02*
X1316750D01*
Y903500D02*
Y911500D01*
X1309500Y811250D02*
X1316500D01*
Y819250D01*
X1309500Y841250D02*
X1316500D01*
Y833250D02*
Y841250D01*
X1190750Y919500D02*
X1194750D01*
X1190750Y917000D02*
X1190750Y919500D01*
X1190750Y902500D02*
X1194750Y902500D01*
X1190750Y902500D02*
X1190750Y905000D01*
X1111268Y882369D02*
X1114097Y885198D01*
X1112328Y886966D02*
X1114097Y885198D01*
X1099247Y894390D02*
X1102076Y897219D01*
X1103843Y895451D01*
X1114000Y925250D02*
Y929250D01*
Y925250D02*
X1116500D01*
X1131000D02*
Y929250D01*
X1128500Y925250D02*
X1131000D01*
X1162060Y925250D02*
Y929250D01*
Y925250D02*
X1164560D01*
X1179060D02*
Y929250D01*
X1176560Y925250D02*
X1179060D01*
X1208500Y911900D02*
Y912100D01*
X1215500Y911900D02*
Y912100D01*
X1094404Y877546D02*
X1094546Y877404D01*
X1089454Y872596D02*
X1089596Y872454D01*
X1106500Y932900D02*
Y933100D01*
X1099500Y932900D02*
Y933100D01*
X1170710Y942055D02*
X1170910D01*
X1170710Y949054D02*
X1170910D01*
X1186000Y967400D02*
Y967600D01*
X1179000Y967400D02*
Y967600D01*
X967750Y763400D02*
Y763600D01*
X960750Y763400D02*
Y763600D01*
X1136900Y708500D02*
X1137100D01*
X1136900Y715500D02*
X1137100D01*
X1156000Y569000D02*
Y683000D01*
X1148500D02*
X1156000D01*
X1107000Y569000D02*
X1114500D01*
X1107000D02*
Y683000D01*
X1114500D01*
X1148500Y569000D02*
X1156000D01*
X1135900Y536500D02*
X1136100D01*
X1135900Y543500D02*
X1136100D01*
X1316900Y380750D02*
X1317100D01*
X1316900Y373750D02*
X1317100D01*
X1323250Y335250D02*
X1331250D01*
X1311250Y351400D02*
Y351600D01*
X1304250Y351400D02*
Y351600D01*
X1275250Y339900D02*
Y340100D01*
X1268250Y339900D02*
Y340100D01*
X1317750Y401900D02*
Y402100D01*
X1310750Y401900D02*
Y402100D01*
X1370400Y275250D02*
X1370600D01*
X1370400Y282250D02*
X1370600D01*
X866500Y258900D02*
Y259100D01*
X873500Y258900D02*
Y259100D01*
X671000Y386650D02*
Y386850D01*
X664000Y386650D02*
Y386850D01*
X623150Y278250D02*
X623350D01*
X623150Y271250D02*
X623350D01*
X889900Y317500D02*
X890100D01*
X889900Y310500D02*
X890100D01*
X889900Y332500D02*
X890100D01*
X889900Y325500D02*
X890100D01*
X890400Y295500D02*
X890600D01*
X890400Y302500D02*
X890600D01*
X915250Y320900D02*
Y321100D01*
X908250Y320900D02*
Y321100D01*
X903500Y499900D02*
Y500100D01*
X910500Y499900D02*
Y500100D01*
X854000Y563000D02*
X886000D01*
X854000Y512000D02*
X886000D01*
Y563000D01*
X854000Y512000D02*
Y563000D01*
X721900Y378750D02*
X722100D01*
X721900Y371750D02*
X722100D01*
X727750Y334250D02*
X735750D01*
X717500Y349900D02*
Y350100D01*
X710500Y349900D02*
Y350100D01*
X676750Y349900D02*
Y350100D01*
X669750Y349900D02*
Y350100D01*
X1026750Y766750D02*
Y798750D01*
X975750Y766750D02*
Y798750D01*
Y766750D02*
X1026750D01*
X975750Y798750D02*
X1026750D01*
X1391250Y1069750D02*
X1399250D01*
X1404900Y1028000D02*
X1405100D01*
X1404900Y1035000D02*
X1405100D01*
X1409750Y1053650D02*
Y1053850D01*
X1416750Y1053650D02*
Y1053850D01*
X1485500Y996900D02*
Y997100D01*
X1492500Y996900D02*
Y997100D01*
X1469000Y995750D02*
Y999750D01*
X1477000Y995750D02*
Y999750D01*
X1443750Y1027150D02*
Y1027350D01*
X1450750Y1027150D02*
Y1027350D01*
X1525250Y1039650D02*
Y1039850D01*
X1518250Y1039650D02*
Y1039850D01*
X1499500Y1054650D02*
Y1054850D01*
X1506500Y1054650D02*
Y1054850D01*
X1315500Y1190150D02*
Y1190350D01*
X1308500Y1190150D02*
Y1190350D01*
X1198150Y1135250D02*
X1198350D01*
X1198150Y1142250D02*
X1198350D01*
X1203000Y1163650D02*
Y1163850D01*
X1210000Y1163650D02*
Y1163850D01*
X1185500Y1179500D02*
X1193500D01*
X1157250Y1016250D02*
Y1048250D01*
X1106250Y1016250D02*
Y1048250D01*
Y1016250D02*
X1157250D01*
X1106250Y1048250D02*
X1157250D01*
X1095750Y1033150D02*
Y1033350D01*
X1088750Y1033150D02*
Y1033350D01*
X929000Y882750D02*
Y886750D01*
X926500D02*
X929000D01*
X912000Y882750D02*
Y886750D01*
X914500D01*
X835250Y880000D02*
Y884000D01*
X832750D02*
X835250D01*
X818250Y880000D02*
Y884000D01*
X820750D01*
X911750Y903000D02*
Y907000D01*
Y903000D02*
X914250D01*
X928750D02*
Y907000D01*
X926250Y903000D02*
X928750D01*
X818500Y902000D02*
Y906000D01*
Y902000D02*
X821000D01*
X835500D02*
Y906000D01*
X833000Y902000D02*
X835500D01*
X919400Y921000D02*
X919600D01*
X919400Y928000D02*
X919600D01*
X833900Y926500D02*
X834100D01*
X833900Y933500D02*
X834100D01*
X811500Y898400D02*
Y898600D01*
X804500Y898400D02*
Y898600D01*
X825900Y863250D02*
X826100D01*
X825900Y856250D02*
X826100D01*
X921400Y865750D02*
X921600D01*
X921400Y858750D02*
X921600D01*
X615000Y835000D02*
Y885000D01*
X565000Y835000D02*
Y885000D01*
X615000D01*
X565000Y835000D02*
X615000D01*
X682500Y915250D02*
X689500D01*
X682500Y907250D02*
Y915250D01*
Y885250D02*
X689500D01*
X682500D02*
Y893250D01*
X682750Y875000D02*
X689750D01*
X682750Y867000D02*
Y875000D01*
Y845000D02*
X689750D01*
X682750D02*
Y853000D01*
X681500Y837750D02*
X688500D01*
X681500Y829750D02*
Y837750D01*
Y807750D02*
X688500D01*
X681500D02*
Y815750D01*
X641500Y913750D02*
X648500D01*
X641500Y905750D02*
Y913750D01*
Y883750D02*
X648500D01*
X641500D02*
Y891750D01*
X641750Y874750D02*
X648750D01*
X641750Y866750D02*
Y874750D01*
Y844750D02*
X648750D01*
X641750D02*
Y852750D01*
X642000Y836750D02*
X649000D01*
X642000Y828750D02*
Y836750D01*
Y806750D02*
X649000D01*
X642000D02*
Y814750D01*
X743650Y864750D02*
X743850D01*
X743650Y857750D02*
X743850D01*
X743650Y828000D02*
X743850D01*
X743650Y821000D02*
X743850D01*
X742900Y904500D02*
X743100D01*
X742900Y897500D02*
X743100D01*
X725000Y824400D02*
Y824600D01*
X718000Y824400D02*
Y824600D01*
X724500Y901650D02*
Y901850D01*
X717500Y901650D02*
Y901850D01*
X724000Y861150D02*
Y861350D01*
X717000Y861150D02*
Y861350D01*
X850989Y1066251D02*
X882989D01*
X850989Y1015251D02*
X882989D01*
Y1066251D01*
X850989Y1015251D02*
Y1066251D01*
X865650Y1075750D02*
X865850D01*
X865650Y1082750D02*
X865850D01*
X919750Y1008400D02*
Y1008600D01*
X912750Y1008400D02*
Y1008600D01*
X914750Y1071150D02*
Y1071350D01*
X921750Y1071150D02*
Y1071350D01*
X930750Y1071150D02*
Y1071350D01*
X937750Y1071150D02*
Y1071350D01*
X936500Y1008650D02*
Y1008850D01*
X929500Y1008650D02*
Y1008850D01*
X925900Y1035000D02*
X926100D01*
X925900Y1028000D02*
X926100D01*
X926150Y1050750D02*
X926350D01*
X926150Y1043750D02*
X926350D01*
X800500Y1070900D02*
Y1071100D01*
X807500Y1070900D02*
Y1071100D01*
X801250Y1007900D02*
Y1008100D01*
X794250Y1007900D02*
Y1008100D01*
X806900Y1029500D02*
X807100D01*
X806900Y1036500D02*
X807100D01*
X806150Y1045750D02*
X806350D01*
X806150Y1052750D02*
X806350D01*
X816500Y1074900D02*
Y1075100D01*
X823500Y1074900D02*
Y1075100D01*
X818750Y1007650D02*
Y1007850D01*
X811750Y1007650D02*
Y1007850D01*
X621650Y1096500D02*
X621850D01*
X621650Y1103500D02*
X621850D01*
X499500Y1057900D02*
Y1058100D01*
X492500Y1057900D02*
Y1058100D01*
X487150Y1023500D02*
X487350D01*
X487150Y1030500D02*
X487350D01*
X528500Y1047900D02*
Y1048100D01*
X535500Y1047900D02*
Y1048100D01*
X557400Y1031500D02*
X557600D01*
X557400Y1038500D02*
X557600D01*
X512000Y1032000D02*
X520000D01*
X752500Y1148400D02*
Y1148600D01*
X759500Y1148400D02*
Y1148600D01*
X747900Y1119500D02*
X748100D01*
X747900Y1126500D02*
X748100D01*
X736000Y1130500D02*
X744000D01*
X707250Y1195400D02*
Y1195600D01*
X700250Y1195400D02*
Y1195600D01*
X888650Y1119250D02*
X888850D01*
X888650Y1126250D02*
X888850D01*
X863000Y1155400D02*
Y1155600D01*
X856000Y1155400D02*
Y1155600D01*
X903500Y1151750D02*
Y1158750D01*
X895500D02*
X903500D01*
X873500Y1151750D02*
Y1158750D01*
X881500D01*
X903000Y1192500D02*
Y1199500D01*
X895000D02*
X903000D01*
X873000Y1192500D02*
Y1199500D01*
X881000D01*
X863750Y1194150D02*
Y1194350D01*
X856750Y1194150D02*
Y1194350D01*
X917500Y1199650D02*
Y1199850D01*
X924500Y1199650D02*
Y1199850D01*
X970900Y1169500D02*
X971100D01*
X970900Y1176500D02*
X971100D01*
X975500Y1198150D02*
Y1198350D01*
X982500Y1198150D02*
Y1198350D01*
X1037250Y1186000D02*
Y1193000D01*
X1029250D02*
X1037250D01*
X1007250Y1186000D02*
Y1193000D01*
X1015250D01*
X1036500Y1146500D02*
Y1153500D01*
X1028500D02*
X1036500D01*
X1006500Y1146500D02*
Y1153500D01*
X1014500D01*
X958000Y1214000D02*
X966000D01*
X1044250Y1166650D02*
Y1166850D01*
X1051250Y1166650D02*
Y1166850D01*
X1106500Y1151750D02*
Y1158750D01*
X1098500D02*
X1106500D01*
X1076500Y1151750D02*
X1076500Y1158750D01*
X1084500D01*
X1107000Y1192500D02*
Y1199500D01*
X1099000D02*
X1107000D01*
X1077000Y1192500D02*
Y1199500D01*
X1085000D01*
X1120000Y1154650D02*
Y1154850D01*
X1113000Y1154650D02*
Y1154850D01*
X1091400Y1120750D02*
X1091600D01*
X1091400Y1127750D02*
X1091600D01*
X1020650Y1116250D02*
X1020850D01*
X1020650Y1123250D02*
X1020850D01*
X1145750Y1194650D02*
Y1194850D01*
X1138750Y1194650D02*
Y1194850D01*
X1053900Y1225500D02*
X1054100D01*
X1053900Y1232500D02*
X1054100D01*
X949000Y1256650D02*
Y1256850D01*
X942000Y1256650D02*
Y1256850D01*
X1074000Y1257150D02*
Y1257350D01*
X1067000Y1257150D02*
Y1257350D01*
X1165000Y1223650D02*
Y1223850D01*
X1158000Y1223650D02*
Y1223850D01*
X839250Y1224650D02*
Y1224850D01*
X832250Y1224650D02*
Y1224850D01*
X981250Y663650D02*
Y663850D01*
X974250Y663650D02*
Y663850D01*
X1001250Y663650D02*
Y663850D01*
X994250Y663650D02*
Y663850D01*
X1021250Y663650D02*
Y663850D01*
X1014250Y663650D02*
Y663850D01*
X883400Y347500D02*
X883600D01*
X883400Y340500D02*
X883600D01*
D47*
X1495000Y1022500D02*
X1492334D01*
X1493667D01*
Y1030498D01*
X1495000Y1029165D01*
X1488336D02*
X1487003Y1030498D01*
X1484337D01*
X1483004Y1029165D01*
Y1023833D01*
X1484337Y1022500D01*
X1487003D01*
X1488336Y1023833D01*
Y1029165D01*
X1480338D02*
X1479005Y1030498D01*
X1476339D01*
X1475007Y1029165D01*
Y1023833D01*
X1476339Y1022500D01*
X1479005D01*
X1480338Y1023833D01*
Y1029165D01*
X1472341Y1022500D02*
Y1027832D01*
X1468342D01*
X1467009Y1026499D01*
Y1022500D01*
X1459012Y1030498D02*
X1464343D01*
Y1026499D01*
X1461677D01*
X1464343D01*
Y1022500D01*
X1487168Y1056665D02*
X1488501Y1057998D01*
X1491167D01*
X1492500Y1056665D01*
Y1051333D01*
X1491167Y1050000D01*
X1488501D01*
X1487168Y1051333D01*
X1484503Y1057998D02*
X1479171D01*
Y1056665D01*
X1484503Y1051333D01*
Y1050000D01*
X1476505D02*
X1473839D01*
X1475172D01*
Y1057998D01*
X1476505Y1056665D01*
X475000Y1017500D02*
X472334D01*
X473667D01*
Y1025498D01*
X475000Y1024165D01*
X468335D02*
X467003Y1025498D01*
X464337D01*
X463004Y1024165D01*
Y1018833D01*
X464337Y1017500D01*
X467003D01*
X468335Y1018833D01*
Y1024165D01*
X460338D02*
X459005Y1025498D01*
X456339D01*
X455006Y1024165D01*
Y1018833D01*
X456339Y1017500D01*
X459005D01*
X460338Y1018833D01*
Y1024165D01*
X452341Y1017500D02*
Y1022832D01*
X448342D01*
X447009Y1021499D01*
Y1017500D01*
X439012Y1025498D02*
X444343D01*
Y1021499D01*
X441678D01*
X444343D01*
Y1017500D01*
X469668Y1036665D02*
X471001Y1037998D01*
X473667D01*
X475000Y1036665D01*
Y1031333D01*
X473667Y1030000D01*
X471001D01*
X469668Y1031333D01*
X467003Y1037998D02*
X461671D01*
Y1036665D01*
X467003Y1031333D01*
Y1030000D01*
X459005Y1036665D02*
X457672Y1037998D01*
X455006D01*
X453674Y1036665D01*
Y1031333D01*
X455006Y1030000D01*
X457672D01*
X459005Y1031333D01*
Y1036665D01*
X700500Y401250D02*
X697834D01*
X699167D01*
Y409248D01*
X700500Y407915D01*
X693836D02*
X692503Y409248D01*
X689837D01*
X688504Y407915D01*
Y402583D01*
X689837Y401250D01*
X692503D01*
X693836Y402583D01*
Y407915D01*
X685838D02*
X684505Y409248D01*
X681839D01*
X680507Y407915D01*
Y402583D01*
X681839Y401250D01*
X684505D01*
X685838Y402583D01*
Y407915D01*
X677841Y401250D02*
Y406582D01*
X673842D01*
X672509Y405249D01*
Y401250D01*
X664512Y409248D02*
X669843D01*
Y405249D01*
X667177D01*
X669843D01*
Y401250D01*
X693418Y419915D02*
X694751Y421248D01*
X697417D01*
X698750Y419915D01*
Y414583D01*
X697417Y413250D01*
X694751D01*
X693418Y414583D01*
X685421Y421248D02*
X688087Y419915D01*
X690753Y417249D01*
Y414583D01*
X689420Y413250D01*
X686754D01*
X685421Y414583D01*
Y415916D01*
X686754Y417249D01*
X690753D01*
X682755Y414583D02*
X681422Y413250D01*
X678756D01*
X677424Y414583D01*
Y419915D01*
X678756Y421248D01*
X681422D01*
X682755Y419915D01*
Y418582D01*
X681422Y417249D01*
X677424D01*
X1332250Y434250D02*
Y431584D01*
Y432917D01*
X1324253D01*
X1325585Y434250D01*
Y427586D02*
X1324253Y426253D01*
Y423587D01*
X1325585Y422254D01*
X1330917D01*
X1332250Y423587D01*
Y426253D01*
X1330917Y427586D01*
X1325585D01*
Y419588D02*
X1324253Y418255D01*
Y415589D01*
X1325585Y414257D01*
X1330917D01*
X1332250Y415589D01*
Y418255D01*
X1330917Y419588D01*
X1325585D01*
X1332250Y411591D02*
X1326918D01*
Y407592D01*
X1328251Y406259D01*
X1332250D01*
X1324253Y398262D02*
Y403593D01*
X1328251D01*
Y400928D01*
Y403593D01*
X1332250D01*
X1300585Y420169D02*
X1299253Y421502D01*
Y424167D01*
X1300585Y425500D01*
X1305917D01*
X1307250Y424167D01*
Y421502D01*
X1305917Y420169D01*
X1299253Y412171D02*
X1300585Y414837D01*
X1303251Y417503D01*
X1305917D01*
X1307250Y416170D01*
Y413504D01*
X1305917Y412171D01*
X1304584D01*
X1303251Y413504D01*
Y417503D01*
X1300585Y409505D02*
X1299253Y408172D01*
Y405507D01*
X1300585Y404174D01*
X1301918D01*
X1303251Y405507D01*
X1304584Y404174D01*
X1305917D01*
X1307250Y405507D01*
Y408172D01*
X1305917Y409505D01*
X1304584D01*
X1303251Y408172D01*
X1301918Y409505D01*
X1300585D01*
X1303251Y408172D02*
Y405507D01*
X1017780Y952457D02*
X1019113Y953790D01*
X1021779D01*
X1023112Y952457D01*
Y947125D01*
X1021779Y945792D01*
X1019113D01*
X1017780Y947125D01*
X1013782Y945792D02*
X1011116D01*
X1009783Y947125D01*
Y949791D01*
X1011116Y951124D01*
X1013782D01*
X1015115Y949791D01*
Y947125D01*
X1013782Y945792D01*
X1007117D02*
Y951124D01*
X1003119D01*
X1001786Y949791D01*
Y945792D01*
X999120D02*
X996454D01*
X997787D01*
Y953790D01*
X999120Y952457D01*
X992455Y951124D02*
X987124Y945792D01*
X989789Y948458D01*
X987124Y951124D01*
X992455Y945792D01*
X979126Y953790D02*
X981792Y952457D01*
X984458Y949791D01*
Y947125D01*
X983125Y945792D01*
X980459D01*
X979126Y947125D01*
Y948458D01*
X980459Y949791D01*
X984458D01*
X1006348Y970046D02*
X1001016Y962048D01*
Y970046D02*
X1006348Y962048D01*
X998351D02*
X995685D01*
X997018D01*
Y970046D01*
X998351Y968713D01*
X926500Y566500D02*
Y574498D01*
X923834Y571832D01*
X921168Y574498D01*
Y566500D01*
X913171Y573165D02*
X914504Y574498D01*
X917170D01*
X918503Y573165D01*
Y567833D01*
X917170Y566500D01*
X914504D01*
X913171Y567833D01*
X910505Y574498D02*
X905174D01*
Y573165D01*
X910505Y567833D01*
Y566500D01*
X898509D02*
Y574498D01*
X902508Y570499D01*
X897176D01*
X894510Y574498D02*
Y566500D01*
Y570499D01*
X889179D01*
Y574498D01*
Y566500D01*
X881181Y573165D02*
X882514Y574498D01*
X885180D01*
X886513Y573165D01*
Y567833D01*
X885180Y566500D01*
X882514D01*
X881181Y567833D01*
X873184Y574498D02*
X878515D01*
Y570499D01*
X875850Y571832D01*
X874517D01*
X873184Y570499D01*
Y567833D01*
X874517Y566500D01*
X877183D01*
X878515Y567833D01*
X870518D02*
X869185Y566500D01*
X866519D01*
X865186Y567833D01*
Y573165D01*
X866519Y574498D01*
X869185D01*
X870518Y573165D01*
Y571832D01*
X869185Y570499D01*
X865186D01*
X857189Y574498D02*
X862521D01*
Y570499D01*
X859855Y571832D01*
X858522D01*
X857189Y570499D01*
Y567833D01*
X858522Y566500D01*
X861188D01*
X862521Y567833D01*
X854523Y566500D02*
Y571832D01*
X851858Y574498D01*
X849192Y571832D01*
Y566500D01*
Y570499D01*
X854523D01*
X846526Y574498D02*
Y566500D01*
X842527D01*
X841194Y567833D01*
Y573165D01*
X842527Y574498D01*
X846526D01*
X838528D02*
X833197D01*
X835863D01*
Y566500D01*
X830531D02*
Y574498D01*
X826532D01*
X825199Y573165D01*
Y570499D01*
X826532Y569166D01*
X830531D01*
X827865D02*
X825199Y566500D01*
X817202D02*
X822534D01*
X817202Y571832D01*
Y573165D01*
X818535Y574498D01*
X821201D01*
X822534Y573165D01*
X880110Y539516D02*
Y532851D01*
X878777Y531518D01*
X876111D01*
X874778Y532851D01*
Y539516D01*
X872113Y531518D02*
X869447D01*
X870780D01*
Y539516D01*
X872113Y538183D01*
X865448Y539516D02*
X860117D01*
Y538183D01*
X865448Y532851D01*
Y531518D01*
X1185000Y997500D02*
Y1005498D01*
X1182334Y1002832D01*
X1179668Y1005498D01*
Y997500D01*
X1171671Y1004165D02*
X1173004Y1005498D01*
X1175670D01*
X1177003Y1004165D01*
Y998833D01*
X1175670Y997500D01*
X1173004D01*
X1171671Y998833D01*
X1169005Y1005498D02*
X1163674D01*
Y1004165D01*
X1169005Y998833D01*
Y997500D01*
X1157009D02*
Y1005498D01*
X1161008Y1001499D01*
X1155676D01*
X1153010Y1005498D02*
Y997500D01*
Y1001499D01*
X1147679D01*
Y1005498D01*
Y997500D01*
X1139681Y1004165D02*
X1141014Y1005498D01*
X1143680D01*
X1145013Y1004165D01*
Y998833D01*
X1143680Y997500D01*
X1141014D01*
X1139681Y998833D01*
X1131684Y1005498D02*
X1137016D01*
Y1001499D01*
X1134350Y1002832D01*
X1133017D01*
X1131684Y1001499D01*
Y998833D01*
X1133017Y997500D01*
X1135683D01*
X1137016Y998833D01*
X1129018D02*
X1127685Y997500D01*
X1125019D01*
X1123687Y998833D01*
Y1004165D01*
X1125019Y1005498D01*
X1127685D01*
X1129018Y1004165D01*
Y1002832D01*
X1127685Y1001499D01*
X1123687D01*
X1115689Y1005498D02*
X1121021D01*
Y1001499D01*
X1118355Y1002832D01*
X1117022D01*
X1115689Y1001499D01*
Y998833D01*
X1117022Y997500D01*
X1119688D01*
X1121021Y998833D01*
X1113023Y997500D02*
Y1002832D01*
X1110358Y1005498D01*
X1107692Y1002832D01*
Y997500D01*
Y1001499D01*
X1113023D01*
X1105026Y1005498D02*
Y997500D01*
X1101027D01*
X1099694Y998833D01*
Y1004165D01*
X1101027Y1005498D01*
X1105026D01*
X1097028D02*
X1091697D01*
X1094363D01*
Y997500D01*
X1089031D02*
Y1005498D01*
X1085032D01*
X1083699Y1004165D01*
Y1001499D01*
X1085032Y1000166D01*
X1089031D01*
X1086365D02*
X1083699Y997500D01*
X1075702D02*
X1081034D01*
X1075702Y1002832D01*
Y1004165D01*
X1077035Y1005498D01*
X1079701D01*
X1081034Y1004165D01*
X1147500Y1032998D02*
Y1026333D01*
X1146167Y1025000D01*
X1143501D01*
X1142168Y1026333D01*
Y1032998D01*
X1139503Y1025000D02*
X1136837D01*
X1138170D01*
Y1032998D01*
X1139503Y1031665D01*
X1127506Y1032998D02*
X1132838D01*
Y1028999D01*
X1130172Y1030332D01*
X1128839D01*
X1127506Y1028999D01*
Y1026333D01*
X1128839Y1025000D01*
X1131505D01*
X1132838Y1026333D01*
X1050000Y815000D02*
Y822998D01*
X1047334Y820332D01*
X1044668Y822998D01*
Y815000D01*
X1036671Y821665D02*
X1038004Y822998D01*
X1040670D01*
X1042003Y821665D01*
Y816333D01*
X1040670Y815000D01*
X1038004D01*
X1036671Y816333D01*
X1034005Y822998D02*
X1028674D01*
Y821665D01*
X1034005Y816333D01*
Y815000D01*
X1022009D02*
Y822998D01*
X1026008Y818999D01*
X1020676D01*
X1018010Y822998D02*
Y815000D01*
Y818999D01*
X1012679D01*
Y822998D01*
Y815000D01*
X1004681Y821665D02*
X1006014Y822998D01*
X1008680D01*
X1010013Y821665D01*
Y816333D01*
X1008680Y815000D01*
X1006014D01*
X1004681Y816333D01*
X996684Y822998D02*
X1002016D01*
Y818999D01*
X999350Y820332D01*
X998017D01*
X996684Y818999D01*
Y816333D01*
X998017Y815000D01*
X1000683D01*
X1002016Y816333D01*
X994018D02*
X992685Y815000D01*
X990019D01*
X988687Y816333D01*
Y821665D01*
X990019Y822998D01*
X992685D01*
X994018Y821665D01*
Y820332D01*
X992685Y818999D01*
X988687D01*
X980689Y822998D02*
X986021D01*
Y818999D01*
X983355Y820332D01*
X982022D01*
X980689Y818999D01*
Y816333D01*
X982022Y815000D01*
X984688D01*
X986021Y816333D01*
X978023Y815000D02*
Y820332D01*
X975358Y822998D01*
X972692Y820332D01*
Y815000D01*
Y818999D01*
X978023D01*
X970026Y822998D02*
Y815000D01*
X966027D01*
X964694Y816333D01*
Y821665D01*
X966027Y822998D01*
X970026D01*
X962028D02*
X956697D01*
X959363D01*
Y815000D01*
X954031D02*
Y822998D01*
X950032D01*
X948699Y821665D01*
Y818999D01*
X950032Y817666D01*
X954031D01*
X951365D02*
X948699Y815000D01*
X940702D02*
X946034D01*
X940702Y820332D01*
Y821665D01*
X942035Y822998D01*
X944701D01*
X946034Y821665D01*
X1015000Y787998D02*
Y781333D01*
X1013667Y780000D01*
X1011001D01*
X1009668Y781333D01*
Y787998D01*
X1007003Y780000D02*
X1004337D01*
X1005670D01*
Y787998D01*
X1007003Y786665D01*
X1000338D02*
X999005Y787998D01*
X996339D01*
X995006Y786665D01*
Y785332D01*
X996339Y783999D01*
X997672D01*
X996339D01*
X995006Y782666D01*
Y781333D01*
X996339Y780000D01*
X999005D01*
X1000338Y781333D01*
X915000Y985000D02*
Y992998D01*
X912334Y990332D01*
X909668Y992998D01*
Y985000D01*
X901671Y991665D02*
X903004Y992998D01*
X905670D01*
X907003Y991665D01*
Y986333D01*
X905670Y985000D01*
X903004D01*
X901671Y986333D01*
X899005Y985000D02*
Y992998D01*
X895006D01*
X893674Y991665D01*
Y988999D01*
X895006Y987666D01*
X899005D01*
X885676Y992998D02*
X888342Y991665D01*
X891008Y988999D01*
Y986333D01*
X889675Y985000D01*
X887009D01*
X885676Y986333D01*
Y987666D01*
X887009Y988999D01*
X891008D01*
X883010Y992998D02*
Y985000D01*
X877679D01*
X875013Y991665D02*
X873680Y992998D01*
X871014D01*
X869681Y991665D01*
Y986333D01*
X871014Y985000D01*
X873680D01*
X875013Y986333D01*
Y991665D01*
X863017Y985000D02*
Y992998D01*
X867016Y988999D01*
X861684D01*
X859018Y992998D02*
X853687D01*
X856352D01*
Y985000D01*
X851021Y988999D02*
X845689D01*
X837692Y992998D02*
X843023D01*
Y985000D01*
X837692D01*
X843023Y988999D02*
X840358D01*
X835026Y985000D02*
X829694Y990332D01*
X821697Y991665D02*
X823030Y992998D01*
X825695D01*
X827028Y991665D01*
Y990332D01*
X825695Y988999D01*
X823030D01*
X821697Y987666D01*
Y986333D01*
X823030Y985000D01*
X825695D01*
X827028Y986333D01*
X819031Y992998D02*
X813699D01*
X816365D01*
Y985000D01*
X873760Y1043706D02*
Y1037041D01*
X872427Y1035708D01*
X869761D01*
X868428Y1037041D01*
Y1043706D01*
X861764Y1035708D02*
Y1043706D01*
X865763Y1039707D01*
X860431D01*
X1208000Y900498D02*
Y892500D01*
X1204001D01*
X1202668Y893833D01*
Y899165D01*
X1204001Y900498D01*
X1208000D01*
X1200003Y892500D02*
Y900498D01*
X1197337Y897832D01*
X1194671Y900498D01*
Y892500D01*
X1186674Y899165D02*
X1188007Y900498D01*
X1190672D01*
X1192005Y899165D01*
Y893833D01*
X1190672Y892500D01*
X1188007D01*
X1186674Y893833D01*
Y896499D01*
X1189339D01*
X1184008Y892500D02*
X1181342D01*
X1182675D01*
Y900498D01*
X1184008Y899165D01*
X1177343D02*
X1176010Y900498D01*
X1173344D01*
X1172012Y899165D01*
Y893833D01*
X1173344Y892500D01*
X1176010D01*
X1177343Y893833D01*
Y899165D01*
X1169346Y892500D02*
X1166680D01*
X1168013D01*
Y900498D01*
X1169346Y899165D01*
X1157350Y892500D02*
X1162681D01*
X1157350Y897832D01*
Y899165D01*
X1158683Y900498D01*
X1161348D01*
X1162681Y899165D01*
X1154684Y900498D02*
X1149352D01*
X1152018D01*
Y892500D01*
X1201750Y890498D02*
X1196418D01*
X1199084D01*
Y882500D01*
X1193753Y889165D02*
X1192420Y890498D01*
X1189754D01*
X1188421Y889165D01*
Y887832D01*
X1189754Y886499D01*
X1188421Y885166D01*
Y883833D01*
X1189754Y882500D01*
X1192420D01*
X1193753Y883833D01*
Y885166D01*
X1192420Y886499D01*
X1193753Y887832D01*
Y889165D01*
X1192420Y886499D02*
X1189754D01*
X1161405Y862405D02*
X1155750Y856750D01*
X1152923Y859578D01*
X1152923Y861463D01*
X1156693Y865233D01*
X1158577D01*
X1161405Y862405D01*
X1150095D02*
X1155750Y868060D01*
X1151980D01*
Y871830D01*
X1146325Y866175D01*
X1145383Y876543D02*
X1147268D01*
X1149153Y874658D01*
X1149153Y872773D01*
X1145383Y869003D01*
X1143497D01*
X1141612Y870888D01*
X1141612Y872773D01*
X1143497Y874658D01*
X1145383Y872773D01*
X1138785Y873715D02*
X1136900Y875600D01*
X1137842Y874658D01*
X1143497Y880313D01*
X1143497Y878428D01*
X1138785Y883140D02*
X1138785Y885025D01*
X1136900Y886910D01*
X1135015D01*
X1131245Y883140D01*
Y881255D01*
X1133130Y879370D01*
X1135015D01*
X1138785Y883140D01*
X1128417Y884083D02*
X1126532Y885968D01*
X1127475Y885025D01*
X1133130Y890680D01*
Y888795D01*
X1119935Y892565D02*
X1123705Y888795D01*
Y896335D01*
X1124647Y897278D01*
X1126532D01*
X1128417Y895393D01*
Y893508D01*
X1123705Y900105D02*
X1119935Y903875D01*
X1121820Y901990D01*
X1116165Y896335D01*
X1127883Y869640D02*
X1124113Y873410D01*
X1125998Y871525D01*
X1120343Y865870D01*
X1122228Y875295D02*
X1118458Y879065D01*
X1117515Y878122D01*
Y870582D01*
X1116573Y869640D01*
X902500Y872998D02*
Y865000D01*
X898501D01*
X897168Y866333D01*
Y871665D01*
X898501Y872998D01*
X902500D01*
X894503Y865000D02*
Y872998D01*
X891837Y870332D01*
X889171Y872998D01*
Y865000D01*
X881174Y871665D02*
X882506Y872998D01*
X885172D01*
X886505Y871665D01*
Y866333D01*
X885172Y865000D01*
X882506D01*
X881174Y866333D01*
Y868999D01*
X883839D01*
X878508Y865000D02*
X875842D01*
X877175D01*
Y872998D01*
X878508Y871665D01*
X871843D02*
X870510Y872998D01*
X867844D01*
X866512Y871665D01*
Y866333D01*
X867844Y865000D01*
X870510D01*
X871843Y866333D01*
Y871665D01*
X863846Y865000D02*
X861180D01*
X862513D01*
Y872998D01*
X863846Y871665D01*
X851850Y865000D02*
X857181D01*
X851850Y870332D01*
Y871665D01*
X853183Y872998D01*
X855848D01*
X857181Y871665D01*
X849184Y872998D02*
X843852D01*
X846518D01*
Y865000D01*
X855000Y885498D02*
X849668D01*
X852334D01*
Y877500D01*
X841671Y885498D02*
X844337Y884165D01*
X847003Y881499D01*
Y878833D01*
X845670Y877500D01*
X843004D01*
X841671Y878833D01*
Y880166D01*
X843004Y881499D01*
X847003D01*
X902500Y872998D02*
Y865000D01*
X898501D01*
X897168Y866333D01*
Y871665D01*
X898501Y872998D01*
X902500D01*
X894503Y865000D02*
Y872998D01*
X891837Y870332D01*
X889171Y872998D01*
Y865000D01*
X881174Y871665D02*
X882506Y872998D01*
X885172D01*
X886505Y871665D01*
Y866333D01*
X885172Y865000D01*
X882506D01*
X881174Y866333D01*
Y868999D01*
X883839D01*
X878508Y865000D02*
X875842D01*
X877175D01*
Y872998D01*
X878508Y871665D01*
X871843D02*
X870510Y872998D01*
X867844D01*
X866512Y871665D01*
Y866333D01*
X867844Y865000D01*
X870510D01*
X871843Y866333D01*
Y871665D01*
X863846Y865000D02*
X861180D01*
X862513D01*
Y872998D01*
X863846Y871665D01*
X851850Y865000D02*
X857181D01*
X851850Y870332D01*
Y871665D01*
X853183Y872998D01*
X855848D01*
X857181Y871665D01*
X849184Y872998D02*
X843852D01*
X846518D01*
Y865000D01*
X905000Y887998D02*
X899668D01*
X902334D01*
Y880000D01*
X891671Y887998D02*
X897003D01*
Y883999D01*
X894337Y885332D01*
X893004D01*
X891671Y883999D01*
Y881333D01*
X893004Y880000D01*
X895670D01*
X897003Y881333D01*
X1186000Y921443D02*
Y913446D01*
X1182001D01*
X1180668Y914779D01*
Y920111D01*
X1182001Y921443D01*
X1186000D01*
X1178003Y913446D02*
Y921443D01*
X1175337Y918778D01*
X1172671Y921443D01*
Y913446D01*
X1164674Y920111D02*
X1166006Y921443D01*
X1168672D01*
X1170005Y920111D01*
Y914779D01*
X1168672Y913446D01*
X1166006D01*
X1164674Y914779D01*
Y917445D01*
X1167339D01*
X1162008Y913446D02*
X1159342D01*
X1160675D01*
Y921443D01*
X1162008Y920111D01*
X1155343D02*
X1154010Y921443D01*
X1151345D01*
X1150012Y920111D01*
Y914779D01*
X1151345Y913446D01*
X1154010D01*
X1155343Y914779D01*
Y920111D01*
X1147346Y913446D02*
X1144680D01*
X1146013D01*
Y921443D01*
X1147346Y920111D01*
X1140681D02*
X1139348Y921443D01*
X1136683D01*
X1135350Y920111D01*
Y918778D01*
X1136683Y917445D01*
X1138016D01*
X1136683D01*
X1135350Y916112D01*
Y914779D01*
X1136683Y913446D01*
X1139348D01*
X1140681Y914779D01*
X1132684Y921443D02*
X1127352D01*
X1130018D01*
Y913446D01*
X1194750Y937943D02*
X1189418D01*
X1192084D01*
Y929946D01*
X1182754D02*
Y937943D01*
X1186753Y933945D01*
X1181421D01*
X1114250Y922748D02*
Y914750D01*
X1110251D01*
X1108918Y916083D01*
Y921415D01*
X1110251Y922748D01*
X1114250D01*
X1106253Y914750D02*
Y922748D01*
X1103587Y920082D01*
X1100921Y922748D01*
Y914750D01*
X1092924Y921415D02*
X1094257Y922748D01*
X1096922D01*
X1098255Y921415D01*
Y916083D01*
X1096922Y914750D01*
X1094257D01*
X1092924Y916083D01*
Y918749D01*
X1095589D01*
X1090258Y914750D02*
X1087592D01*
X1088925D01*
Y922748D01*
X1090258Y921415D01*
X1083593D02*
X1082260Y922748D01*
X1079594D01*
X1078262Y921415D01*
Y916083D01*
X1079594Y914750D01*
X1082260D01*
X1083593Y916083D01*
Y921415D01*
X1075596Y914750D02*
X1072930D01*
X1074263D01*
Y922748D01*
X1075596Y921415D01*
X1068931D02*
X1067598Y922748D01*
X1064933D01*
X1063600Y921415D01*
Y920082D01*
X1064933Y918749D01*
X1066265D01*
X1064933D01*
X1063600Y917416D01*
Y916083D01*
X1064933Y914750D01*
X1067598D01*
X1068931Y916083D01*
X1060934Y922748D02*
X1055602D01*
X1058268D01*
Y914750D01*
X1128500Y950748D02*
X1123168D01*
X1125834D01*
Y942750D01*
X1120503Y949415D02*
X1119170Y950748D01*
X1116504D01*
X1115171Y949415D01*
Y948082D01*
X1116504Y946749D01*
X1117837D01*
X1116504D01*
X1115171Y945416D01*
Y944083D01*
X1116504Y942750D01*
X1119170D01*
X1120503Y944083D01*
X905000Y925498D02*
Y917500D01*
X901001D01*
X899668Y918833D01*
Y924165D01*
X901001Y925498D01*
X905000D01*
X897003Y917500D02*
Y925498D01*
X894337Y922832D01*
X891671Y925498D01*
Y917500D01*
X883674Y924165D02*
X885006Y925498D01*
X887672D01*
X889005Y924165D01*
Y918833D01*
X887672Y917500D01*
X885006D01*
X883674Y918833D01*
Y921499D01*
X886339D01*
X881008Y917500D02*
X878342D01*
X879675D01*
Y925498D01*
X881008Y924165D01*
X874343D02*
X873010Y925498D01*
X870344D01*
X869012Y924165D01*
Y918833D01*
X870344Y917500D01*
X873010D01*
X874343Y918833D01*
Y924165D01*
X866346Y917500D02*
X863680D01*
X865013D01*
Y925498D01*
X866346Y924165D01*
X859681D02*
X858348Y925498D01*
X855683D01*
X854350Y924165D01*
Y922832D01*
X855683Y921499D01*
X857016D01*
X855683D01*
X854350Y920166D01*
Y918833D01*
X855683Y917500D01*
X858348D01*
X859681Y918833D01*
X851684Y925498D02*
X846352D01*
X849018D01*
Y917500D01*
X852500Y910498D02*
X847168D01*
X849834D01*
Y902500D01*
X839171D02*
X844503D01*
X839171Y907832D01*
Y909165D01*
X840504Y910498D01*
X843170D01*
X844503Y909165D01*
X905000Y925498D02*
Y917500D01*
X901001D01*
X899668Y918833D01*
Y924165D01*
X901001Y925498D01*
X905000D01*
X897003Y917500D02*
Y925498D01*
X894337Y922832D01*
X891671Y925498D01*
Y917500D01*
X883674Y924165D02*
X885006Y925498D01*
X887672D01*
X889005Y924165D01*
Y918833D01*
X887672Y917500D01*
X885006D01*
X883674Y918833D01*
Y921499D01*
X886339D01*
X881008Y917500D02*
X878342D01*
X879675D01*
Y925498D01*
X881008Y924165D01*
X874343D02*
X873010Y925498D01*
X870344D01*
X869012Y924165D01*
Y918833D01*
X870344Y917500D01*
X873010D01*
X874343Y918833D01*
Y924165D01*
X866346Y917500D02*
X863680D01*
X865013D01*
Y925498D01*
X866346Y924165D01*
X859681D02*
X858348Y925498D01*
X855683D01*
X854350Y924165D01*
Y922832D01*
X855683Y921499D01*
X857016D01*
X855683D01*
X854350Y920166D01*
Y918833D01*
X855683Y917500D01*
X858348D01*
X859681Y918833D01*
X851684Y925498D02*
X846352D01*
X849018D01*
Y917500D01*
X905000Y910498D02*
X899668D01*
X902334D01*
Y902500D01*
X897003D02*
X894337D01*
X895670D01*
Y910498D01*
X897003Y909165D01*
X862500Y259165D02*
X861167Y260498D01*
X858501D01*
X857168Y259165D01*
Y257832D01*
X858501Y256499D01*
X859834D01*
X858501D01*
X857168Y255166D01*
Y253833D01*
X858501Y252500D01*
X861167D01*
X862500Y253833D01*
X854503D02*
X853170Y252500D01*
X850504D01*
X849171Y253833D01*
Y259165D01*
X850504Y260498D01*
X853170D01*
X854503Y259165D01*
Y257832D01*
X853170Y256499D01*
X849171D01*
X862500Y265000D02*
Y272998D01*
X858501D01*
X857168Y271665D01*
Y268999D01*
X858501Y267666D01*
X862500D01*
X859834D02*
X857168Y265000D01*
X854503D02*
X851837D01*
X853170D01*
Y272998D01*
X854503Y271665D01*
X847838D02*
X846505Y272998D01*
X843839D01*
X842506Y271665D01*
Y270332D01*
X843839Y268999D01*
X845172D01*
X843839D01*
X842506Y267666D01*
Y266333D01*
X843839Y265000D01*
X846505D01*
X847838Y266333D01*
X839841Y271665D02*
X838508Y272998D01*
X835842D01*
X834509Y271665D01*
Y270332D01*
X835842Y268999D01*
X837175D01*
X835842D01*
X834509Y267666D01*
Y266333D01*
X835842Y265000D01*
X838508D01*
X839841Y266333D01*
X950000Y312500D02*
X947334D01*
X948667D01*
Y320498D01*
X950000Y319165D01*
X943335D02*
X942003Y320498D01*
X939337D01*
X938004Y319165D01*
Y313833D01*
X939337Y312500D01*
X942003D01*
X943335Y313833D01*
Y319165D01*
X935338D02*
X934005Y320498D01*
X931339D01*
X930006Y319165D01*
Y313833D01*
X931339Y312500D01*
X934005D01*
X935338Y313833D01*
Y319165D01*
X927341Y320498D02*
Y312500D01*
Y315166D01*
X922009Y320498D01*
X926008Y316499D01*
X922009Y312500D01*
X950000Y325000D02*
Y332998D01*
X946001D01*
X944668Y331665D01*
Y328999D01*
X946001Y327666D01*
X950000D01*
X947334D02*
X944668Y325000D01*
X942003D02*
X939337D01*
X940670D01*
Y332998D01*
X942003Y331665D01*
X930006Y325000D02*
X935338D01*
X930006Y330332D01*
Y331665D01*
X931339Y332998D01*
X934005D01*
X935338Y331665D01*
X923342Y325000D02*
Y332998D01*
X927341Y328999D01*
X922009D01*
X842500Y295000D02*
X839834D01*
X841167D01*
Y302998D01*
X842500Y301665D01*
X835835D02*
X834503Y302998D01*
X831837D01*
X830504Y301665D01*
Y296333D01*
X831837Y295000D01*
X834503D01*
X835835Y296333D01*
Y301665D01*
X827838D02*
X826505Y302998D01*
X823839D01*
X822506Y301665D01*
Y296333D01*
X823839Y295000D01*
X826505D01*
X827838Y296333D01*
Y301665D01*
X819841Y302998D02*
Y295000D01*
Y297666D01*
X814509Y302998D01*
X818508Y298999D01*
X814509Y295000D01*
X877500D02*
Y302998D01*
X873501D01*
X872168Y301665D01*
Y298999D01*
X873501Y297666D01*
X877500D01*
X874834D02*
X872168Y295000D01*
X869503D02*
X866837D01*
X868170D01*
Y302998D01*
X869503Y301665D01*
X857506Y295000D02*
X862838D01*
X857506Y300332D01*
Y301665D01*
X858839Y302998D01*
X861505D01*
X862838Y301665D01*
X854841D02*
X853508Y302998D01*
X850842D01*
X849509Y301665D01*
Y300332D01*
X850842Y298999D01*
X852175D01*
X850842D01*
X849509Y297666D01*
Y296333D01*
X850842Y295000D01*
X853508D01*
X854841Y296333D01*
X1233500Y913750D02*
X1230834D01*
X1232167D01*
Y921748D01*
X1233500Y920415D01*
X1226835D02*
X1225503Y921748D01*
X1222837D01*
X1221504Y920415D01*
Y915083D01*
X1222837Y913750D01*
X1225503D01*
X1226835Y915083D01*
Y920415D01*
X1218838D02*
X1217505Y921748D01*
X1214839D01*
X1213506Y920415D01*
Y915083D01*
X1214839Y913750D01*
X1217505D01*
X1218838Y915083D01*
Y920415D01*
X1210841Y921748D02*
Y913750D01*
Y916416D01*
X1205509Y921748D01*
X1209508Y917749D01*
X1205509Y913750D01*
X1233500Y927250D02*
Y935248D01*
X1229501D01*
X1228168Y933915D01*
Y931249D01*
X1229501Y929916D01*
X1233500D01*
X1230834D02*
X1228168Y927250D01*
X1225503D02*
X1222837D01*
X1224170D01*
Y935248D01*
X1225503Y933915D01*
X1213506Y927250D02*
X1218838D01*
X1213506Y932582D01*
Y933915D01*
X1214839Y935248D01*
X1217505D01*
X1218838Y933915D01*
X1205509Y927250D02*
X1210841D01*
X1205509Y932582D01*
Y933915D01*
X1206842Y935248D01*
X1209508D01*
X1210841Y933915D01*
X875000Y852500D02*
X872334D01*
X873667D01*
Y860498D01*
X875000Y859165D01*
X868335D02*
X867003Y860498D01*
X864337D01*
X863004Y859165D01*
Y853833D01*
X864337Y852500D01*
X867003D01*
X868335Y853833D01*
Y859165D01*
X860338D02*
X859005Y860498D01*
X856339D01*
X855006Y859165D01*
Y853833D01*
X856339Y852500D01*
X859005D01*
X860338Y853833D01*
Y859165D01*
X852341Y860498D02*
Y852500D01*
Y855166D01*
X847009Y860498D01*
X851008Y856499D01*
X847009Y852500D01*
X837500Y842500D02*
Y850498D01*
X833501D01*
X832168Y849165D01*
Y846499D01*
X833501Y845166D01*
X837500D01*
X834834D02*
X832168Y842500D01*
X829503D02*
X826837D01*
X828170D01*
Y850498D01*
X829503Y849165D01*
X817506Y842500D02*
X822838D01*
X817506Y847832D01*
Y849165D01*
X818839Y850498D01*
X821505D01*
X822838Y849165D01*
X814841Y842500D02*
X812175D01*
X813508D01*
Y850498D01*
X814841Y849165D01*
X1118526Y839050D02*
X1116641Y840935D01*
X1117583Y839993D01*
X1123239Y845648D01*
X1123239Y843763D01*
X1118526Y848475D02*
X1118526Y850360D01*
X1116641Y852245D01*
X1114756D01*
X1110986Y848475D01*
X1110986Y846590D01*
X1112871Y844705D01*
X1114756D01*
X1118526Y848475D01*
X1112871Y854130D02*
X1112871Y856015D01*
X1110986Y857900D01*
X1109101D01*
X1105331Y854130D01*
X1105331Y852245D01*
X1107216Y850360D01*
X1109101D01*
X1112871Y854130D01*
X1108158Y860728D02*
X1102504Y855073D01*
X1104389Y856958D01*
Y864498D01*
Y858843D01*
X1098733D01*
X1089276Y851550D02*
X1094931Y857205D01*
X1092104Y860033D01*
X1090219D01*
X1088334Y858148D01*
X1088334Y856263D01*
X1091161Y853435D01*
X1089276Y855320D02*
X1085506D01*
X1083621Y857205D02*
X1081736Y859090D01*
X1082679Y858148D01*
X1088334Y863803D01*
X1088334Y861918D01*
X1075138Y865688D02*
X1078908Y861918D01*
Y869458D01*
X1079851Y870400D01*
X1081736D01*
X1083621Y868515D01*
X1083621Y866630D01*
X1077966Y872285D02*
X1077966Y874170D01*
X1076081Y876055D01*
X1074196D01*
X1070426Y872285D01*
Y870400D01*
X1072311Y868515D01*
X1074196D01*
X1077966Y872285D01*
X875000Y852500D02*
X872334D01*
X873667D01*
Y860498D01*
X875000Y859165D01*
X868335D02*
X867003Y860498D01*
X864337D01*
X863004Y859165D01*
Y853833D01*
X864337Y852500D01*
X867003D01*
X868335Y853833D01*
Y859165D01*
X860338D02*
X859005Y860498D01*
X856339D01*
X855006Y859165D01*
Y853833D01*
X856339Y852500D01*
X859005D01*
X860338Y853833D01*
Y859165D01*
X852341Y860498D02*
Y852500D01*
Y855166D01*
X847009Y860498D01*
X851008Y856499D01*
X847009Y852500D01*
X932500Y845000D02*
Y852998D01*
X928501D01*
X927168Y851665D01*
Y848999D01*
X928501Y847666D01*
X932500D01*
X929834D02*
X927168Y845000D01*
X924503D02*
X921837D01*
X923170D01*
Y852998D01*
X924503Y851665D01*
X917838Y845000D02*
X915172D01*
X916505D01*
Y852998D01*
X917838Y851665D01*
X911174Y846333D02*
X909841Y845000D01*
X907175D01*
X905842Y846333D01*
Y851665D01*
X907175Y852998D01*
X909841D01*
X911174Y851665D01*
Y850332D01*
X909841Y848999D01*
X905842D01*
X1091751Y928000D02*
Y935998D01*
X1095750Y931999D01*
X1090418D01*
X1087753Y928000D02*
Y929333D01*
X1086420D01*
Y928000D01*
X1087753D01*
X1081088Y935998D02*
X1075757D01*
Y934665D01*
X1081088Y929333D01*
Y928000D01*
X1073091Y935998D02*
Y928000D01*
Y930666D01*
X1067759Y935998D01*
X1071758Y931999D01*
X1067759Y928000D01*
X1096500Y939250D02*
Y947248D01*
X1092501D01*
X1091168Y945915D01*
Y943249D01*
X1092501Y941916D01*
X1096500D01*
X1093834D02*
X1091168Y939250D01*
X1088503D02*
X1085837D01*
X1087170D01*
Y947248D01*
X1088503Y945915D01*
X1081838Y939250D02*
X1079172D01*
X1080505D01*
Y947248D01*
X1081838Y945915D01*
X1071175Y939250D02*
Y947248D01*
X1075174Y943249D01*
X1069842D01*
X928501Y945000D02*
Y952998D01*
X932500Y948999D01*
X927168D01*
X924503Y945000D02*
Y946333D01*
X923170D01*
Y945000D01*
X924503D01*
X917838Y952998D02*
X912506D01*
Y951665D01*
X917838Y946333D01*
Y945000D01*
X909841Y952998D02*
Y945000D01*
Y947666D01*
X904509Y952998D01*
X908508Y948999D01*
X904509Y945000D01*
X932500Y932500D02*
Y940498D01*
X928501D01*
X927168Y939165D01*
Y936499D01*
X928501Y935166D01*
X932500D01*
X929834D02*
X927168Y932500D01*
X924503D02*
X921837D01*
X923170D01*
Y940498D01*
X924503Y939165D01*
X917838Y932500D02*
X915172D01*
X916505D01*
Y940498D01*
X917838Y939165D01*
X911174D02*
X909841Y940498D01*
X907175D01*
X905842Y939165D01*
Y937832D01*
X907175Y936499D01*
X908508D01*
X907175D01*
X905842Y935166D01*
Y933833D01*
X907175Y932500D01*
X909841D01*
X911174Y933833D01*
X1170251Y952000D02*
Y959998D01*
X1174250Y955999D01*
X1168918D01*
X1166253Y952000D02*
Y953333D01*
X1164920D01*
Y952000D01*
X1166253D01*
X1159588Y959998D02*
X1154257D01*
Y958665D01*
X1159588Y953333D01*
Y952000D01*
X1151591Y959998D02*
Y952000D01*
Y954666D01*
X1146259Y959998D01*
X1150258Y955999D01*
X1146259Y952000D01*
X1174250Y962750D02*
Y970748D01*
X1170251D01*
X1168918Y969415D01*
Y966749D01*
X1170251Y965416D01*
X1174250D01*
X1171584D02*
X1168918Y962750D01*
X1166253D02*
X1163587D01*
X1164920D01*
Y970748D01*
X1166253Y969415D01*
X1159588Y962750D02*
X1156922D01*
X1158255D01*
Y970748D01*
X1159588Y969415D01*
X1147592Y962750D02*
X1152924D01*
X1147592Y968082D01*
Y969415D01*
X1148925Y970748D01*
X1151591D01*
X1152924Y969415D01*
X794501Y887500D02*
Y895498D01*
X798500Y891499D01*
X793168D01*
X790503Y887500D02*
Y888833D01*
X789170D01*
Y887500D01*
X790503D01*
X783838Y895498D02*
X778506D01*
Y894165D01*
X783838Y888833D01*
Y887500D01*
X775841Y895498D02*
Y887500D01*
Y890166D01*
X770509Y895498D01*
X774508Y891499D01*
X770509Y887500D01*
X798500Y900000D02*
Y907998D01*
X794501D01*
X793168Y906665D01*
Y903999D01*
X794501Y902666D01*
X798500D01*
X795834D02*
X793168Y900000D01*
X790503D02*
X787837D01*
X789170D01*
Y907998D01*
X790503Y906665D01*
X783838Y900000D02*
X781172D01*
X782505D01*
Y907998D01*
X783838Y906665D01*
X777173Y900000D02*
X774508D01*
X775841D01*
Y907998D01*
X777173Y906665D01*
X1462750Y985000D02*
X1460084D01*
X1461417D01*
Y992998D01*
X1462750Y991665D01*
X1456086D02*
X1454753Y992998D01*
X1452087D01*
X1450754Y991665D01*
Y986333D01*
X1452087Y985000D01*
X1454753D01*
X1456086Y986333D01*
Y991665D01*
X1448088D02*
X1446755Y992998D01*
X1444089D01*
X1442756Y991665D01*
Y986333D01*
X1444089Y985000D01*
X1446755D01*
X1448088Y986333D01*
Y991665D01*
X1462750Y997500D02*
Y1005498D01*
X1458751D01*
X1457418Y1004165D01*
Y1001499D01*
X1458751Y1000166D01*
X1462750D01*
X1460084D02*
X1457418Y997500D01*
X1454753D02*
X1452087D01*
X1453420D01*
Y1005498D01*
X1454753Y1004165D01*
X1448088D02*
X1446755Y1005498D01*
X1444089D01*
X1442756Y1004165D01*
Y998833D01*
X1444089Y997500D01*
X1446755D01*
X1448088Y998833D01*
Y1004165D01*
X1434759Y1005498D02*
X1440091D01*
Y1001499D01*
X1437425Y1002832D01*
X1436092D01*
X1434759Y1001499D01*
Y998833D01*
X1436092Y997500D01*
X1438758D01*
X1440091Y998833D01*
X982500Y684415D02*
X981167Y685748D01*
X978501D01*
X977168Y684415D01*
Y683082D01*
X978501Y681749D01*
X979834D01*
X978501D01*
X977168Y680416D01*
Y679083D01*
X978501Y677750D01*
X981167D01*
X982500Y679083D01*
X974503D02*
X973170Y677750D01*
X970504D01*
X969171Y679083D01*
Y684415D01*
X970504Y685748D01*
X973170D01*
X974503Y684415D01*
Y683082D01*
X973170Y681749D01*
X969171D01*
X976250Y641250D02*
Y649248D01*
X972251D01*
X970918Y647915D01*
Y645249D01*
X972251Y643916D01*
X976250D01*
X973584D02*
X970918Y641250D01*
X968253Y642583D02*
X966920Y641250D01*
X964254D01*
X962921Y642583D01*
Y647915D01*
X964254Y649248D01*
X966920D01*
X968253Y647915D01*
Y646582D01*
X966920Y645249D01*
X962921D01*
X960255Y649248D02*
X954924D01*
Y647915D01*
X960255Y642583D01*
Y641250D01*
X1004250Y684415D02*
X1002917Y685748D01*
X1000251D01*
X998918Y684415D01*
Y683082D01*
X1000251Y681749D01*
X1001584D01*
X1000251D01*
X998918Y680416D01*
Y679083D01*
X1000251Y677750D01*
X1002917D01*
X1004250Y679083D01*
X996253D02*
X994920Y677750D01*
X992254D01*
X990921Y679083D01*
Y684415D01*
X992254Y685748D01*
X994920D01*
X996253Y684415D01*
Y683082D01*
X994920Y681749D01*
X990921D01*
X1005750Y641000D02*
Y648998D01*
X1001751D01*
X1000418Y647665D01*
Y644999D01*
X1001751Y643666D01*
X1005750D01*
X1003084D02*
X1000418Y641000D01*
X997753Y642333D02*
X996420Y641000D01*
X993754D01*
X992421Y642333D01*
Y647665D01*
X993754Y648998D01*
X996420D01*
X997753Y647665D01*
Y646332D01*
X996420Y644999D01*
X992421D01*
X984424Y648998D02*
X987089Y647665D01*
X989755Y644999D01*
Y642333D01*
X988422Y641000D01*
X985757D01*
X984424Y642333D01*
Y643666D01*
X985757Y644999D01*
X989755D01*
X1025000Y683915D02*
X1023667Y685248D01*
X1021001D01*
X1019668Y683915D01*
Y682582D01*
X1021001Y681249D01*
X1022334D01*
X1021001D01*
X1019668Y679916D01*
Y678583D01*
X1021001Y677250D01*
X1023667D01*
X1025000Y678583D01*
X1017003D02*
X1015670Y677250D01*
X1013004D01*
X1011671Y678583D01*
Y683915D01*
X1013004Y685248D01*
X1015670D01*
X1017003Y683915D01*
Y682582D01*
X1015670Y681249D01*
X1011671D01*
X1034500Y640750D02*
Y648748D01*
X1030501D01*
X1029168Y647415D01*
Y644749D01*
X1030501Y643416D01*
X1034500D01*
X1031834D02*
X1029168Y640750D01*
X1026503Y642083D02*
X1025170Y640750D01*
X1022504D01*
X1021171Y642083D01*
Y647415D01*
X1022504Y648748D01*
X1025170D01*
X1026503Y647415D01*
Y646082D01*
X1025170Y644749D01*
X1021171D01*
X1013174Y648748D02*
X1018505D01*
Y644749D01*
X1015839Y646082D01*
X1014507D01*
X1013174Y644749D01*
Y642083D01*
X1014507Y640750D01*
X1017172D01*
X1018505Y642083D01*
X1389668Y295498D02*
X1395000D01*
Y291499D01*
X1392334Y292832D01*
X1391001D01*
X1389668Y291499D01*
Y288833D01*
X1391001Y287500D01*
X1393667D01*
X1395000Y288833D01*
X1381671Y295498D02*
X1384337Y294165D01*
X1387003Y291499D01*
Y288833D01*
X1385670Y287500D01*
X1383004D01*
X1381671Y288833D01*
Y290166D01*
X1383004Y291499D01*
X1387003D01*
X1373250Y287000D02*
Y294998D01*
X1369251D01*
X1367918Y293665D01*
Y290999D01*
X1369251Y289666D01*
X1373250D01*
X1370584D02*
X1367918Y287000D01*
X1365253Y288333D02*
X1363920Y287000D01*
X1361254D01*
X1359921Y288333D01*
Y293665D01*
X1361254Y294998D01*
X1363920D01*
X1365253Y293665D01*
Y292332D01*
X1363920Y290999D01*
X1359921D01*
X1357255Y287000D02*
X1354589D01*
X1355922D01*
Y294998D01*
X1357255Y293665D01*
X634668Y284998D02*
X640000D01*
Y280999D01*
X637334Y282332D01*
X636001D01*
X634668Y280999D01*
Y278333D01*
X636001Y277000D01*
X638667D01*
X640000Y278333D01*
X626671Y284998D02*
X629337Y283665D01*
X632003Y280999D01*
Y278333D01*
X630670Y277000D01*
X628004D01*
X626671Y278333D01*
Y279666D01*
X628004Y280999D01*
X632003D01*
X640750Y289000D02*
Y296998D01*
X636751D01*
X635418Y295665D01*
Y292999D01*
X636751Y291666D01*
X640750D01*
X638084D02*
X635418Y289000D01*
X632753Y290333D02*
X631420Y289000D01*
X628754D01*
X627421Y290333D01*
Y295665D01*
X628754Y296998D01*
X631420D01*
X632753Y295665D01*
Y294332D01*
X631420Y292999D01*
X627421D01*
X624755Y295665D02*
X623422Y296998D01*
X620756D01*
X619424Y295665D01*
Y290333D01*
X620756Y289000D01*
X623422D01*
X624755Y290333D01*
Y295665D01*
X1165000Y1241665D02*
X1163667Y1242998D01*
X1161001D01*
X1159668Y1241665D01*
Y1240332D01*
X1161001Y1238999D01*
X1162334D01*
X1161001D01*
X1159668Y1237666D01*
Y1236333D01*
X1161001Y1235000D01*
X1163667D01*
X1165000Y1236333D01*
X1157003D02*
X1155670Y1235000D01*
X1153004D01*
X1151671Y1236333D01*
Y1241665D01*
X1153004Y1242998D01*
X1155670D01*
X1157003Y1241665D01*
Y1240332D01*
X1155670Y1238999D01*
X1151671D01*
X1185000Y1245000D02*
Y1252998D01*
X1181001D01*
X1179668Y1251665D01*
Y1248999D01*
X1181001Y1247666D01*
X1185000D01*
X1182334D02*
X1179668Y1245000D01*
X1177003Y1251665D02*
X1175670Y1252998D01*
X1173004D01*
X1171671Y1251665D01*
Y1250332D01*
X1173004Y1248999D01*
X1171671Y1247666D01*
Y1246333D01*
X1173004Y1245000D01*
X1175670D01*
X1177003Y1246333D01*
Y1247666D01*
X1175670Y1248999D01*
X1177003Y1250332D01*
Y1251665D01*
X1175670Y1248999D02*
X1173004D01*
X1163674Y1252998D02*
X1169005D01*
Y1248999D01*
X1166339Y1250332D01*
X1165006D01*
X1163674Y1248999D01*
Y1246333D01*
X1165006Y1245000D01*
X1167672D01*
X1169005Y1246333D01*
X842500Y1211665D02*
X841167Y1212998D01*
X838501D01*
X837168Y1211665D01*
Y1210332D01*
X838501Y1208999D01*
X839834D01*
X838501D01*
X837168Y1207666D01*
Y1206333D01*
X838501Y1205000D01*
X841167D01*
X842500Y1206333D01*
X834503D02*
X833170Y1205000D01*
X830504D01*
X829171Y1206333D01*
Y1211665D01*
X830504Y1212998D01*
X833170D01*
X834503Y1211665D01*
Y1210332D01*
X833170Y1208999D01*
X829171D01*
X837500Y1242500D02*
Y1250498D01*
X833501D01*
X832168Y1249165D01*
Y1246499D01*
X833501Y1245166D01*
X837500D01*
X834834D02*
X832168Y1242500D01*
X829503Y1249165D02*
X828170Y1250498D01*
X825504D01*
X824171Y1249165D01*
Y1247832D01*
X825504Y1246499D01*
X824171Y1245166D01*
Y1243833D01*
X825504Y1242500D01*
X828170D01*
X829503Y1243833D01*
Y1245166D01*
X828170Y1246499D01*
X829503Y1247832D01*
Y1249165D01*
X828170Y1246499D02*
X825504D01*
X817506Y1242500D02*
Y1250498D01*
X821505Y1246499D01*
X816174D01*
X1062500Y1261665D02*
X1061167Y1262998D01*
X1058501D01*
X1057168Y1261665D01*
Y1260332D01*
X1058501Y1258999D01*
X1059834D01*
X1058501D01*
X1057168Y1257666D01*
Y1256333D01*
X1058501Y1255000D01*
X1061167D01*
X1062500Y1256333D01*
X1054503D02*
X1053170Y1255000D01*
X1050504D01*
X1049171Y1256333D01*
Y1261665D01*
X1050504Y1262998D01*
X1053170D01*
X1054503Y1261665D01*
Y1260332D01*
X1053170Y1258999D01*
X1049171D01*
X1072500Y1270000D02*
Y1277998D01*
X1068501D01*
X1067168Y1276665D01*
Y1273999D01*
X1068501Y1272666D01*
X1072500D01*
X1069834D02*
X1067168Y1270000D01*
X1064503Y1276665D02*
X1063170Y1277998D01*
X1060504D01*
X1059171Y1276665D01*
Y1275332D01*
X1060504Y1273999D01*
X1059171Y1272666D01*
Y1271333D01*
X1060504Y1270000D01*
X1063170D01*
X1064503Y1271333D01*
Y1272666D01*
X1063170Y1273999D01*
X1064503Y1275332D01*
Y1276665D01*
X1063170Y1273999D02*
X1060504D01*
X1056505Y1276665D02*
X1055172Y1277998D01*
X1052506D01*
X1051174Y1276665D01*
Y1275332D01*
X1052506Y1273999D01*
X1053839D01*
X1052506D01*
X1051174Y1272666D01*
Y1271333D01*
X1052506Y1270000D01*
X1055172D01*
X1056505Y1271333D01*
X952500Y1244165D02*
X951167Y1245498D01*
X948501D01*
X947168Y1244165D01*
Y1242832D01*
X948501Y1241499D01*
X949834D01*
X948501D01*
X947168Y1240166D01*
Y1238833D01*
X948501Y1237500D01*
X951167D01*
X952500Y1238833D01*
X944503D02*
X943170Y1237500D01*
X940504D01*
X939171Y1238833D01*
Y1244165D01*
X940504Y1245498D01*
X943170D01*
X944503Y1244165D01*
Y1242832D01*
X943170Y1241499D01*
X939171D01*
X952500Y1267500D02*
Y1275498D01*
X948501D01*
X947168Y1274165D01*
Y1271499D01*
X948501Y1270166D01*
X952500D01*
X949834D02*
X947168Y1267500D01*
X944503Y1274165D02*
X943170Y1275498D01*
X940504D01*
X939171Y1274165D01*
Y1272832D01*
X940504Y1271499D01*
X939171Y1270166D01*
Y1268833D01*
X940504Y1267500D01*
X943170D01*
X944503Y1268833D01*
Y1270166D01*
X943170Y1271499D01*
X944503Y1272832D01*
Y1274165D01*
X943170Y1271499D02*
X940504D01*
X931174Y1267500D02*
X936505D01*
X931174Y1272832D01*
Y1274165D01*
X932506Y1275498D01*
X935172D01*
X936505Y1274165D01*
X1539668Y1035498D02*
X1545000D01*
Y1031499D01*
X1542334Y1032832D01*
X1541001D01*
X1539668Y1031499D01*
Y1028833D01*
X1541001Y1027500D01*
X1543667D01*
X1545000Y1028833D01*
X1531671Y1035498D02*
X1534337Y1034165D01*
X1537003Y1031499D01*
Y1028833D01*
X1535670Y1027500D01*
X1533004D01*
X1531671Y1028833D01*
Y1030166D01*
X1533004Y1031499D01*
X1537003D01*
X1552500Y1040000D02*
Y1047998D01*
X1548501D01*
X1547168Y1046665D01*
Y1043999D01*
X1548501Y1042666D01*
X1552500D01*
X1549834D02*
X1547168Y1040000D01*
X1544503Y1047998D02*
X1539171D01*
Y1046665D01*
X1544503Y1041333D01*
Y1040000D01*
X1536505Y1047998D02*
X1531174D01*
Y1046665D01*
X1536505Y1041333D01*
Y1040000D01*
X1297168Y1187998D02*
X1302500D01*
Y1183999D01*
X1299834Y1185332D01*
X1298501D01*
X1297168Y1183999D01*
Y1181333D01*
X1298501Y1180000D01*
X1301167D01*
X1302500Y1181333D01*
X1289171Y1187998D02*
X1291837Y1186665D01*
X1294503Y1183999D01*
Y1181333D01*
X1293170Y1180000D01*
X1290504D01*
X1289171Y1181333D01*
Y1182666D01*
X1290504Y1183999D01*
X1294503D01*
X1302500Y1192500D02*
Y1200498D01*
X1298501D01*
X1297168Y1199165D01*
Y1196499D01*
X1298501Y1195166D01*
X1302500D01*
X1299834D02*
X1297168Y1192500D01*
X1294503Y1200498D02*
X1289171D01*
Y1199165D01*
X1294503Y1193833D01*
Y1192500D01*
X1281174Y1200498D02*
X1283839Y1199165D01*
X1286505Y1196499D01*
Y1193833D01*
X1285172Y1192500D01*
X1282507D01*
X1281174Y1193833D01*
Y1195166D01*
X1282507Y1196499D01*
X1286505D01*
X689668Y1190498D02*
X695000D01*
Y1186499D01*
X692334Y1187832D01*
X691001D01*
X689668Y1186499D01*
Y1183833D01*
X691001Y1182500D01*
X693667D01*
X695000Y1183833D01*
X681671Y1190498D02*
X684337Y1189165D01*
X687003Y1186499D01*
Y1183833D01*
X685670Y1182500D01*
X683004D01*
X681671Y1183833D01*
Y1185166D01*
X683004Y1186499D01*
X687003D01*
X695000Y1195000D02*
Y1202998D01*
X691001D01*
X689668Y1201665D01*
Y1198999D01*
X691001Y1197666D01*
X695000D01*
X692334D02*
X689668Y1195000D01*
X687003Y1202998D02*
X681671D01*
Y1201665D01*
X687003Y1196333D01*
Y1195000D01*
X673674Y1202998D02*
X679005D01*
Y1198999D01*
X676339Y1200332D01*
X675006D01*
X673674Y1198999D01*
Y1196333D01*
X675006Y1195000D01*
X677672D01*
X679005Y1196333D01*
X480918Y1050247D02*
X486250D01*
Y1046249D01*
X483584Y1047582D01*
X482251D01*
X480918Y1046249D01*
Y1043583D01*
X482251Y1042250D01*
X484917D01*
X486250Y1043583D01*
X472921Y1050247D02*
X475587Y1048914D01*
X478253Y1046249D01*
Y1043583D01*
X476920Y1042250D01*
X474254D01*
X472921Y1043583D01*
Y1044916D01*
X474254Y1046249D01*
X478253D01*
X486250Y1054750D02*
Y1062747D01*
X482251D01*
X480918Y1061414D01*
Y1058749D01*
X482251Y1057416D01*
X486250D01*
X483584D02*
X480918Y1054750D01*
X478253Y1062747D02*
X472921D01*
Y1061414D01*
X478253Y1056083D01*
Y1054750D01*
X466256D02*
Y1062747D01*
X470255Y1058749D01*
X464924D01*
X1291000Y924665D02*
X1289667Y925997D01*
X1287001D01*
X1285668Y924665D01*
Y923332D01*
X1287001Y921999D01*
X1288334D01*
X1287001D01*
X1285668Y920666D01*
Y919333D01*
X1287001Y918000D01*
X1289667D01*
X1291000Y919333D01*
X1283003Y924665D02*
X1281670Y925997D01*
X1279004D01*
X1277671Y924665D01*
Y923332D01*
X1279004Y921999D01*
X1280337D01*
X1279004D01*
X1277671Y920666D01*
Y919333D01*
X1279004Y918000D01*
X1281670D01*
X1283003Y919333D01*
X1290558Y837824D02*
Y845821D01*
X1286559D01*
X1285226Y844489D01*
Y841823D01*
X1286559Y840490D01*
X1290558D01*
X1287892D02*
X1285226Y837824D01*
X1282561Y845821D02*
X1277229D01*
Y844489D01*
X1282561Y839157D01*
Y837824D01*
X1274563Y844489D02*
X1273230Y845821D01*
X1270564D01*
X1269231Y844489D01*
Y843156D01*
X1270564Y841823D01*
X1271897D01*
X1270564D01*
X1269231Y840490D01*
Y839157D01*
X1270564Y837824D01*
X1273230D01*
X1274563Y839157D01*
X1290000Y924665D02*
X1288667Y925998D01*
X1286001D01*
X1284668Y924665D01*
Y923332D01*
X1286001Y921999D01*
X1287334D01*
X1286001D01*
X1284668Y920666D01*
Y919333D01*
X1286001Y918000D01*
X1288667D01*
X1290000Y919333D01*
X1282003Y924665D02*
X1280670Y925998D01*
X1278004D01*
X1276671Y924665D01*
Y923332D01*
X1278004Y921999D01*
X1279337D01*
X1278004D01*
X1276671Y920666D01*
Y919333D01*
X1278004Y918000D01*
X1280670D01*
X1282003Y919333D01*
X1288542Y904880D02*
Y912878D01*
X1284543D01*
X1283210Y911545D01*
Y908879D01*
X1284543Y907546D01*
X1288542D01*
X1285876D02*
X1283210Y904880D01*
X1280545Y912878D02*
X1275213D01*
Y911545D01*
X1280545Y906213D01*
Y904880D01*
X1267216D02*
X1272547D01*
X1267216Y910212D01*
Y911545D01*
X1268549Y912878D01*
X1271214D01*
X1272547Y911545D01*
X1291250Y925164D02*
X1289917Y926497D01*
X1287251D01*
X1285918Y925164D01*
Y923831D01*
X1287251Y922499D01*
X1288584D01*
X1287251D01*
X1285918Y921166D01*
Y919833D01*
X1287251Y918500D01*
X1289917D01*
X1291250Y919833D01*
X1283253Y925164D02*
X1281920Y926497D01*
X1279254D01*
X1277921Y925164D01*
Y923831D01*
X1279254Y922499D01*
X1280587D01*
X1279254D01*
X1277921Y921166D01*
Y919833D01*
X1279254Y918500D01*
X1281920D01*
X1283253Y919833D01*
X1288268Y873630D02*
Y881627D01*
X1284269D01*
X1282936Y880294D01*
Y877629D01*
X1284269Y876296D01*
X1288268D01*
X1285602D02*
X1282936Y873630D01*
X1280271Y881627D02*
X1274939D01*
Y880294D01*
X1280271Y874963D01*
Y873630D01*
X1272273D02*
X1269607D01*
X1270940D01*
Y881627D01*
X1272273Y880294D01*
X727000Y796665D02*
X725667Y797998D01*
X723001D01*
X721668Y796665D01*
Y795332D01*
X723001Y793999D01*
X724334D01*
X723001D01*
X721668Y792666D01*
Y791333D01*
X723001Y790000D01*
X725667D01*
X727000Y791333D01*
X719003Y796665D02*
X717670Y797998D01*
X715004D01*
X713671Y796665D01*
Y795332D01*
X715004Y793999D01*
X716337D01*
X715004D01*
X713671Y792666D01*
Y791333D01*
X715004Y790000D01*
X717670D01*
X719003Y791333D01*
X728774Y912914D02*
Y920912D01*
X724775D01*
X723442Y919579D01*
Y916913D01*
X724775Y915580D01*
X728774D01*
X726108D02*
X723442Y912914D01*
X720777Y920912D02*
X715445D01*
Y919579D01*
X720777Y914247D01*
Y912914D01*
X712779Y919579D02*
X711446Y920912D01*
X708781D01*
X707448Y919579D01*
Y914247D01*
X708781Y912914D01*
X711446D01*
X712779Y914247D01*
Y919579D01*
X727000Y796665D02*
X725667Y797998D01*
X723001D01*
X721668Y796665D01*
Y795332D01*
X723001Y793999D01*
X724334D01*
X723001D01*
X721668Y792666D01*
Y791333D01*
X723001Y790000D01*
X725667D01*
X727000Y791333D01*
X719003Y796665D02*
X717670Y797998D01*
X715004D01*
X713671Y796665D01*
Y795332D01*
X715004Y793999D01*
X716337D01*
X715004D01*
X713671Y792666D01*
Y791333D01*
X715004Y790000D01*
X717670D01*
X719003Y791333D01*
X729282Y835698D02*
Y843696D01*
X725283D01*
X723950Y842363D01*
Y839697D01*
X725283Y838364D01*
X729282D01*
X726616D02*
X723950Y835698D01*
X715953Y843696D02*
X718619Y842363D01*
X721285Y839697D01*
Y837031D01*
X719952Y835698D01*
X717286D01*
X715953Y837031D01*
Y838364D01*
X717286Y839697D01*
X721285D01*
X713287Y837031D02*
X711954Y835698D01*
X709288D01*
X707956Y837031D01*
Y842363D01*
X709288Y843696D01*
X711954D01*
X713287Y842363D01*
Y841030D01*
X711954Y839697D01*
X707956D01*
X727000Y796665D02*
X725667Y797998D01*
X723001D01*
X721668Y796665D01*
Y795332D01*
X723001Y793999D01*
X724334D01*
X723001D01*
X721668Y792666D01*
Y791333D01*
X723001Y790000D01*
X725667D01*
X727000Y791333D01*
X719003Y796665D02*
X717670Y797998D01*
X715004D01*
X713671Y796665D01*
Y795332D01*
X715004Y793999D01*
X716337D01*
X715004D01*
X713671Y792666D01*
Y791333D01*
X715004Y790000D01*
X717670D01*
X719003Y791333D01*
X728266Y872274D02*
Y880272D01*
X724267D01*
X722934Y878939D01*
Y876273D01*
X724267Y874940D01*
X728266D01*
X725600D02*
X722934Y872274D01*
X714937Y880272D02*
X717603Y878939D01*
X720269Y876273D01*
Y873607D01*
X718936Y872274D01*
X716270D01*
X714937Y873607D01*
Y874940D01*
X716270Y876273D01*
X720269D01*
X712271Y878939D02*
X710938Y880272D01*
X708272D01*
X706940Y878939D01*
Y877606D01*
X708272Y876273D01*
X706940Y874940D01*
Y873607D01*
X708272Y872274D01*
X710938D01*
X712271Y873607D01*
Y874940D01*
X710938Y876273D01*
X712271Y877606D01*
Y878939D01*
X710938Y876273D02*
X708272D01*
X1262501Y916250D02*
Y924248D01*
X1266500Y920249D01*
X1261168D01*
X1258503Y916250D02*
Y917583D01*
X1257170D01*
Y916250D01*
X1258503D01*
X1251838Y924248D02*
X1246507D01*
Y922915D01*
X1251838Y917583D01*
Y916250D01*
X1243841Y924248D02*
Y916250D01*
Y918916D01*
X1238509Y924248D01*
X1242508Y920249D01*
X1238509Y916250D01*
X1263706Y836074D02*
Y844072D01*
X1259707D01*
X1258374Y842739D01*
Y840073D01*
X1259707Y838740D01*
X1263706D01*
X1261040D02*
X1258374Y836074D01*
X1250377Y844072D02*
X1253043Y842739D01*
X1255709Y840073D01*
Y837407D01*
X1254376Y836074D01*
X1251710D01*
X1250377Y837407D01*
Y838740D01*
X1251710Y840073D01*
X1255709D01*
X1242380Y844072D02*
X1247711D01*
Y840073D01*
X1245045Y841406D01*
X1243712D01*
X1242380Y840073D01*
Y837407D01*
X1243712Y836074D01*
X1246378D01*
X1247711Y837407D01*
X1261001Y916000D02*
Y923998D01*
X1265000Y919999D01*
X1259668D01*
X1257003Y916000D02*
Y917333D01*
X1255670D01*
Y916000D01*
X1257003D01*
X1250338Y923998D02*
X1245006D01*
Y922665D01*
X1250338Y917333D01*
Y916000D01*
X1242341Y923998D02*
Y916000D01*
Y918666D01*
X1237009Y923998D01*
X1241008Y919999D01*
X1237009Y916000D01*
X1261444Y903134D02*
Y911132D01*
X1257445D01*
X1256112Y909799D01*
Y907133D01*
X1257445Y905800D01*
X1261444D01*
X1258778D02*
X1256112Y903134D01*
X1248115Y911132D02*
X1250781Y909799D01*
X1253447Y907133D01*
Y904467D01*
X1252114Y903134D01*
X1249448D01*
X1248115Y904467D01*
Y905800D01*
X1249448Y907133D01*
X1253447D01*
X1241451Y903134D02*
Y911132D01*
X1245449Y907133D01*
X1240118D01*
X1261751Y917000D02*
Y924998D01*
X1265750Y920999D01*
X1260418D01*
X1257753Y917000D02*
Y918333D01*
X1256420D01*
Y917000D01*
X1257753D01*
X1251088Y924998D02*
X1245757D01*
Y923665D01*
X1251088Y918333D01*
Y917000D01*
X1243091Y924998D02*
Y917000D01*
Y919666D01*
X1237759Y924998D01*
X1241758Y920999D01*
X1237759Y917000D01*
X1262460Y871638D02*
Y879636D01*
X1258461D01*
X1257128Y878303D01*
Y875637D01*
X1258461Y874304D01*
X1262460D01*
X1259794D02*
X1257128Y871638D01*
X1249131Y879636D02*
X1251797Y878303D01*
X1254463Y875637D01*
Y872971D01*
X1253130Y871638D01*
X1250464D01*
X1249131Y872971D01*
Y874304D01*
X1250464Y875637D01*
X1254463D01*
X1246465Y878303D02*
X1245132Y879636D01*
X1242467D01*
X1241134Y878303D01*
Y876970D01*
X1242467Y875637D01*
X1243799D01*
X1242467D01*
X1241134Y874304D01*
Y872971D01*
X1242467Y871638D01*
X1245132D01*
X1246465Y872971D01*
X757001Y796000D02*
Y803997D01*
X761000Y799999D01*
X755668D01*
X753003Y796000D02*
Y797333D01*
X751670D01*
Y796000D01*
X753003D01*
X746338Y803997D02*
X741006D01*
Y802664D01*
X746338Y797333D01*
Y796000D01*
X738341Y803997D02*
Y796000D01*
Y798666D01*
X733009Y803997D01*
X737008Y799999D01*
X733009Y796000D01*
X752332Y908048D02*
Y916045D01*
X748333D01*
X747000Y914713D01*
Y912047D01*
X748333Y910714D01*
X752332D01*
X749666D02*
X747000Y908048D01*
X739003Y916045D02*
X741669Y914713D01*
X744335Y912047D01*
Y909381D01*
X743002Y908048D01*
X740336D01*
X739003Y909381D01*
Y910714D01*
X740336Y912047D01*
X744335D01*
X736337Y908048D02*
X733671D01*
X735004D01*
Y916045D01*
X736337Y914713D01*
X756001Y797500D02*
Y805498D01*
X760000Y801499D01*
X754668D01*
X752003Y797500D02*
Y798833D01*
X750670D01*
Y797500D01*
X752003D01*
X745338Y805498D02*
X740006D01*
Y804165D01*
X745338Y798833D01*
Y797500D01*
X737341Y805498D02*
Y797500D01*
Y800166D01*
X732009Y805498D01*
X736008Y801499D01*
X732009Y797500D01*
X754380Y831570D02*
Y839568D01*
X750381D01*
X749048Y838235D01*
Y835569D01*
X750381Y834236D01*
X754380D01*
X751714D02*
X749048Y831570D01*
X741051Y839568D02*
X746383D01*
Y835569D01*
X743717Y836902D01*
X742384D01*
X741051Y835569D01*
Y832903D01*
X742384Y831570D01*
X745050D01*
X746383Y832903D01*
X738385D02*
X737052Y831570D01*
X734387D01*
X733054Y832903D01*
Y838235D01*
X734387Y839568D01*
X737052D01*
X738385Y838235D01*
Y836902D01*
X737052Y835569D01*
X733054D01*
X756001Y797500D02*
Y805498D01*
X760000Y801499D01*
X754668D01*
X752003Y797500D02*
Y798833D01*
X750670D01*
Y797500D01*
X752003D01*
X745338Y805498D02*
X740006D01*
Y804165D01*
X745338Y798833D01*
Y797500D01*
X737341Y805498D02*
Y797500D01*
Y800166D01*
X732009Y805498D01*
X736008Y801499D01*
X732009Y797500D01*
X754380Y868146D02*
Y876144D01*
X750381D01*
X749048Y874811D01*
Y872145D01*
X750381Y870812D01*
X754380D01*
X751714D02*
X749048Y868146D01*
X741051Y876144D02*
X746383D01*
Y872145D01*
X743717Y873478D01*
X742384D01*
X741051Y872145D01*
Y869479D01*
X742384Y868146D01*
X745050D01*
X746383Y869479D01*
X738385Y876144D02*
X733054D01*
Y874811D01*
X738385Y869479D01*
Y868146D01*
X1302500Y373250D02*
X1299834D01*
X1301167D01*
Y381248D01*
X1302500Y379915D01*
X1295836D02*
X1294503Y381248D01*
X1291837D01*
X1290504Y379915D01*
Y374583D01*
X1291837Y373250D01*
X1294503D01*
X1295836Y374583D01*
Y379915D01*
X1287838Y381248D02*
Y373250D01*
Y375916D01*
X1282507Y381248D01*
X1286505Y377249D01*
X1282507Y373250D01*
X1326750Y385000D02*
Y392998D01*
X1322751D01*
X1321418Y391665D01*
Y388999D01*
X1322751Y387666D01*
X1326750D01*
X1324084D02*
X1321418Y385000D01*
X1313421Y392998D02*
X1318753D01*
Y388999D01*
X1316087Y390332D01*
X1314754D01*
X1313421Y388999D01*
Y386333D01*
X1314754Y385000D01*
X1317420D01*
X1318753Y386333D01*
X1310755Y385000D02*
X1308089D01*
X1309422D01*
Y392998D01*
X1310755Y391665D01*
X717500Y385000D02*
X714834D01*
X716167D01*
Y392998D01*
X717500Y391665D01*
X710835D02*
X709503Y392998D01*
X706837D01*
X705504Y391665D01*
Y386333D01*
X706837Y385000D01*
X709503D01*
X710835Y386333D01*
Y391665D01*
X702838Y392998D02*
Y385000D01*
Y387666D01*
X697506Y392998D01*
X701505Y388999D01*
X697506Y385000D01*
X747500D02*
Y392998D01*
X743501D01*
X742168Y391665D01*
Y388999D01*
X743501Y387666D01*
X747500D01*
X744834D02*
X742168Y385000D01*
X734171Y392998D02*
X739503D01*
Y388999D01*
X736837Y390332D01*
X735504D01*
X734171Y388999D01*
Y386333D01*
X735504Y385000D01*
X738170D01*
X739503Y386333D01*
X731505Y391665D02*
X730172Y392998D01*
X727506D01*
X726174Y391665D01*
Y386333D01*
X727506Y385000D01*
X730172D01*
X731505Y386333D01*
Y391665D01*
X1294668Y340000D02*
X1300000D01*
X1294668Y345332D01*
Y346665D01*
X1296001Y347998D01*
X1298667D01*
X1300000Y346665D01*
X1292003Y340000D02*
Y341333D01*
X1290670D01*
Y340000D01*
X1292003D01*
X1280007D02*
X1285338D01*
X1280007Y345332D01*
Y346665D01*
X1281339Y347998D01*
X1284005D01*
X1285338Y346665D01*
X1277341Y347998D02*
Y340000D01*
Y342666D01*
X1272009Y347998D01*
X1276008Y343999D01*
X1272009Y340000D01*
X1300000Y352500D02*
Y360498D01*
X1296001D01*
X1294668Y359165D01*
Y356499D01*
X1296001Y355166D01*
X1300000D01*
X1297334D02*
X1294668Y352500D01*
X1288004D02*
Y360498D01*
X1292003Y356499D01*
X1286671D01*
X1278674Y360498D02*
X1284005D01*
Y356499D01*
X1281339Y357832D01*
X1280007D01*
X1278674Y356499D01*
Y353833D01*
X1280007Y352500D01*
X1282672D01*
X1284005Y353833D01*
X699668Y340000D02*
X705000D01*
X699668Y345332D01*
Y346665D01*
X701001Y347998D01*
X703667D01*
X705000Y346665D01*
X697003Y340000D02*
Y341333D01*
X695670D01*
Y340000D01*
X697003D01*
X685006D02*
X690338D01*
X685006Y345332D01*
Y346665D01*
X686339Y347998D01*
X689005D01*
X690338Y346665D01*
X682341Y347998D02*
Y340000D01*
Y342666D01*
X677009Y347998D01*
X681008Y343999D01*
X677009Y340000D01*
X705000Y352500D02*
Y360498D01*
X701001D01*
X699668Y359165D01*
Y356499D01*
X701001Y355166D01*
X705000D01*
X702334D02*
X699668Y352500D01*
X693004D02*
Y360498D01*
X697003Y356499D01*
X691671D01*
X685006Y352500D02*
Y360498D01*
X689005Y356499D01*
X683674D01*
X1047168Y1117998D02*
X1049834Y1116665D01*
X1052500Y1113999D01*
Y1111333D01*
X1051167Y1110000D01*
X1048501D01*
X1047168Y1111333D01*
Y1112666D01*
X1048501Y1113999D01*
X1052500D01*
X1044503Y1110000D02*
Y1111333D01*
X1043170D01*
Y1110000D01*
X1044503D01*
X1032506D02*
X1037838D01*
X1032506Y1115332D01*
Y1116665D01*
X1033839Y1117998D01*
X1036505D01*
X1037838Y1116665D01*
X1055000Y1122500D02*
Y1130498D01*
X1051001D01*
X1049668Y1129165D01*
Y1126499D01*
X1051001Y1125166D01*
X1055000D01*
X1052334D02*
X1049668Y1122500D01*
X1047003Y1129165D02*
X1045670Y1130498D01*
X1043004D01*
X1041671Y1129165D01*
Y1127832D01*
X1043004Y1126499D01*
X1044337D01*
X1043004D01*
X1041671Y1125166D01*
Y1123833D01*
X1043004Y1122500D01*
X1045670D01*
X1047003Y1123833D01*
X1039005Y1129165D02*
X1037672Y1130498D01*
X1035006D01*
X1033674Y1129165D01*
Y1127832D01*
X1035006Y1126499D01*
X1033674Y1125166D01*
Y1123833D01*
X1035006Y1122500D01*
X1037672D01*
X1039005Y1123833D01*
Y1125166D01*
X1037672Y1126499D01*
X1039005Y1127832D01*
Y1129165D01*
X1037672Y1126499D02*
X1035006D01*
X1064668Y1147500D02*
X1070000D01*
X1064668Y1152832D01*
Y1154165D01*
X1066001Y1155498D01*
X1068667D01*
X1070000Y1154165D01*
X1062003Y1147500D02*
Y1148833D01*
X1060670D01*
Y1147500D01*
X1062003D01*
X1050006D02*
X1055338D01*
X1050006Y1152832D01*
Y1154165D01*
X1051339Y1155498D01*
X1054005D01*
X1055338Y1154165D01*
X1047341Y1155498D02*
Y1147500D01*
Y1150166D01*
X1042009Y1155498D01*
X1046008Y1151499D01*
X1042009Y1147500D01*
X1061707Y1178988D02*
Y1186986D01*
X1057709D01*
X1056376Y1185653D01*
Y1182987D01*
X1057709Y1181654D01*
X1061707D01*
X1059042D02*
X1056376Y1178988D01*
X1053710Y1185653D02*
X1052377Y1186986D01*
X1049711D01*
X1048378Y1185653D01*
Y1184320D01*
X1049711Y1182987D01*
X1051044D01*
X1049711D01*
X1048378Y1181654D01*
Y1180321D01*
X1049711Y1178988D01*
X1052377D01*
X1053710Y1180321D01*
X1045713Y1185653D02*
X1044380Y1186986D01*
X1041714D01*
X1040381Y1185653D01*
Y1184320D01*
X1041714Y1182987D01*
X1043047D01*
X1041714D01*
X1040381Y1181654D01*
Y1180321D01*
X1041714Y1178988D01*
X1044380D01*
X1045713Y1180321D01*
X1429500Y1026750D02*
X1426834D01*
X1428167D01*
Y1034747D01*
X1429500Y1033415D01*
X1422836D02*
X1421503Y1034747D01*
X1418837D01*
X1417504Y1033415D01*
Y1028083D01*
X1418837Y1026750D01*
X1421503D01*
X1422836Y1028083D01*
Y1033415D01*
X1414838Y1034747D02*
Y1026750D01*
Y1029416D01*
X1409507Y1034747D01*
X1413505Y1030749D01*
X1409507Y1026750D01*
X1414500Y1016750D02*
Y1024747D01*
X1410502D01*
X1409169Y1023415D01*
Y1020749D01*
X1410502Y1019416D01*
X1414500D01*
X1411834D02*
X1409169Y1016750D01*
X1406503Y1023415D02*
X1405170Y1024747D01*
X1402504D01*
X1401171Y1023415D01*
Y1022082D01*
X1402504Y1020749D01*
X1403837D01*
X1402504D01*
X1401171Y1019416D01*
Y1018083D01*
X1402504Y1016750D01*
X1405170D01*
X1406503Y1018083D01*
X1398505Y1016750D02*
X1395840D01*
X1397173D01*
Y1024747D01*
X1398505Y1023415D01*
X1224500Y1142750D02*
X1221834D01*
X1223167D01*
Y1150748D01*
X1224500Y1149415D01*
X1217835D02*
X1216503Y1150748D01*
X1213837D01*
X1212504Y1149415D01*
Y1144083D01*
X1213837Y1142750D01*
X1216503D01*
X1217835Y1144083D01*
Y1149415D01*
X1209838Y1150748D02*
Y1142750D01*
Y1145416D01*
X1204507Y1150748D01*
X1208505Y1146749D01*
X1204507Y1142750D01*
X1232500Y1130000D02*
Y1137998D01*
X1228501D01*
X1227168Y1136665D01*
Y1133999D01*
X1228501Y1132666D01*
X1232500D01*
X1229834D02*
X1227168Y1130000D01*
X1224503Y1136665D02*
X1223170Y1137998D01*
X1220504D01*
X1219171Y1136665D01*
Y1135332D01*
X1220504Y1133999D01*
X1221837D01*
X1220504D01*
X1219171Y1132666D01*
Y1131333D01*
X1220504Y1130000D01*
X1223170D01*
X1224503Y1131333D01*
X1216505Y1136665D02*
X1215172Y1137998D01*
X1212506D01*
X1211174Y1136665D01*
Y1131333D01*
X1212506Y1130000D01*
X1215172D01*
X1216505Y1131333D01*
Y1136665D01*
X1006500Y1176998D02*
X1003834D01*
X1005167D01*
Y1184995D01*
X1006500Y1183662D01*
X999836D02*
X998503Y1184995D01*
X995837D01*
X994504Y1183662D01*
Y1178331D01*
X995837Y1176998D01*
X998503D01*
X999836Y1178331D01*
Y1183662D01*
X991838Y1184995D02*
Y1176998D01*
Y1179663D01*
X986506Y1184995D01*
X990505Y1180996D01*
X986506Y1176998D01*
X1005000Y1167500D02*
Y1175498D01*
X1001001D01*
X999668Y1174165D01*
Y1171499D01*
X1001001Y1170166D01*
X1005000D01*
X1002334D02*
X999668Y1167500D01*
X991671D02*
X997003D01*
X991671Y1172832D01*
Y1174165D01*
X993004Y1175498D01*
X995670D01*
X997003Y1174165D01*
X989005Y1168833D02*
X987672Y1167500D01*
X985006D01*
X983674Y1168833D01*
Y1174165D01*
X985006Y1175498D01*
X987672D01*
X989005Y1174165D01*
Y1172832D01*
X987672Y1171499D01*
X983674D01*
X783500Y1138000D02*
X780834D01*
X782167D01*
Y1145998D01*
X783500Y1144665D01*
X776835D02*
X775503Y1145998D01*
X772837D01*
X771504Y1144665D01*
Y1139333D01*
X772837Y1138000D01*
X775503D01*
X776835Y1139333D01*
Y1144665D01*
X768838Y1145998D02*
Y1138000D01*
Y1140666D01*
X763506Y1145998D01*
X767505Y1141999D01*
X763506Y1138000D01*
X785250Y1148500D02*
Y1156498D01*
X781251D01*
X779918Y1155165D01*
Y1152499D01*
X781251Y1151166D01*
X785250D01*
X782584D02*
X779918Y1148500D01*
X771921D02*
X777253D01*
X771921Y1153832D01*
Y1155165D01*
X773254Y1156498D01*
X775920D01*
X777253Y1155165D01*
X769255D02*
X767922Y1156498D01*
X765257D01*
X763924Y1155165D01*
Y1153832D01*
X765257Y1152499D01*
X763924Y1151166D01*
Y1149833D01*
X765257Y1148500D01*
X767922D01*
X769255Y1149833D01*
Y1151166D01*
X767922Y1152499D01*
X769255Y1153832D01*
Y1155165D01*
X767922Y1152499D02*
X765257D01*
X583500Y1044500D02*
X580834D01*
X582167D01*
Y1052498D01*
X583500Y1051165D01*
X576836D02*
X575503Y1052498D01*
X572837D01*
X571504Y1051165D01*
Y1045833D01*
X572837Y1044500D01*
X575503D01*
X576836Y1045833D01*
Y1051165D01*
X568838Y1052498D02*
Y1044500D01*
Y1047166D01*
X563507Y1052498D01*
X567505Y1048499D01*
X563507Y1044500D01*
X593500Y1032000D02*
Y1039998D01*
X589501D01*
X588168Y1038665D01*
Y1035999D01*
X589501Y1034666D01*
X593500D01*
X590834D02*
X588168Y1032000D01*
X580171D02*
X585503D01*
X580171Y1037332D01*
Y1038665D01*
X581504Y1039998D01*
X584170D01*
X585503Y1038665D01*
X577505Y1039998D02*
X572174D01*
Y1038665D01*
X577505Y1033333D01*
Y1032000D01*
X954500Y993750D02*
X951834D01*
X953167D01*
Y1001748D01*
X954500Y1000415D01*
X947835Y1001748D02*
Y993750D01*
Y996416D01*
X942504Y1001748D01*
X946503Y997749D01*
X942504Y993750D01*
X962500Y1005000D02*
Y1012998D01*
X958501D01*
X957168Y1011665D01*
Y1008999D01*
X958501Y1007666D01*
X962500D01*
X959834D02*
X957168Y1005000D01*
X949171D02*
X954503D01*
X949171Y1010332D01*
Y1011665D01*
X950504Y1012998D01*
X953170D01*
X954503Y1011665D01*
X942506Y1005000D02*
Y1012998D01*
X946505Y1008999D01*
X941174D01*
X956000Y1078000D02*
X953334D01*
X954667D01*
Y1085998D01*
X956000Y1084665D01*
X949335Y1085998D02*
Y1078000D01*
Y1080666D01*
X944004Y1085998D01*
X948003Y1081999D01*
X944004Y1078000D01*
X965000Y1067500D02*
Y1075498D01*
X961001D01*
X959668Y1074165D01*
Y1071499D01*
X961001Y1070166D01*
X965000D01*
X962334D02*
X959668Y1067500D01*
X951671D02*
X957003D01*
X951671Y1072832D01*
Y1074165D01*
X953004Y1075498D01*
X955670D01*
X957003Y1074165D01*
X949005D02*
X947672Y1075498D01*
X945006D01*
X943674Y1074165D01*
Y1072832D01*
X945006Y1071499D01*
X946339D01*
X945006D01*
X943674Y1070166D01*
Y1068833D01*
X945006Y1067500D01*
X947672D01*
X949005Y1068833D01*
X769250Y1067500D02*
X766584D01*
X767917D01*
Y1075497D01*
X769250Y1074165D01*
X762586Y1075497D02*
Y1067500D01*
Y1070166D01*
X757254Y1075497D01*
X761253Y1071499D01*
X757254Y1067500D01*
X795250D02*
Y1075497D01*
X791251D01*
X789918Y1074165D01*
Y1071499D01*
X791251Y1070166D01*
X795250D01*
X792584D02*
X789918Y1067500D01*
X781921D02*
X787253D01*
X781921Y1072832D01*
Y1074165D01*
X783254Y1075497D01*
X785920D01*
X787253Y1074165D01*
X773924Y1067500D02*
X779255D01*
X773924Y1072832D01*
Y1074165D01*
X775257Y1075497D01*
X777922D01*
X779255Y1074165D01*
X789500Y993250D02*
X786834D01*
X788167D01*
Y1001248D01*
X789500Y999915D01*
X782835Y1001248D02*
Y993250D01*
Y995916D01*
X777504Y1001248D01*
X781503Y997249D01*
X777504Y993250D01*
X790000Y1005000D02*
Y1012998D01*
X786001D01*
X784668Y1011665D01*
Y1008999D01*
X786001Y1007666D01*
X790000D01*
X787334D02*
X784668Y1005000D01*
X776671D02*
X782003D01*
X776671Y1010332D01*
Y1011665D01*
X778004Y1012998D01*
X780670D01*
X782003Y1011665D01*
X774005Y1005000D02*
X771339D01*
X772672D01*
Y1012998D01*
X774005Y1011665D01*
X952500Y1055000D02*
X949834D01*
X951167D01*
Y1062998D01*
X952500Y1061665D01*
X945835Y1055000D02*
Y1056333D01*
X944503D01*
Y1055000D01*
X945835D01*
X933839Y1062998D02*
X939171D01*
Y1058999D01*
X936505Y1060332D01*
X935172D01*
X933839Y1058999D01*
Y1056333D01*
X935172Y1055000D01*
X937838D01*
X939171Y1056333D01*
X931174Y1062998D02*
Y1055000D01*
Y1057666D01*
X925842Y1062998D01*
X929841Y1058999D01*
X925842Y1055000D01*
X960000Y1027500D02*
Y1035498D01*
X956001D01*
X954668Y1034165D01*
Y1031499D01*
X956001Y1030166D01*
X960000D01*
X957334D02*
X954668Y1027500D01*
X946671D02*
X952003D01*
X946671Y1032832D01*
Y1034165D01*
X948004Y1035498D01*
X950670D01*
X952003Y1034165D01*
X944005D02*
X942672Y1035498D01*
X940006D01*
X938674Y1034165D01*
Y1028833D01*
X940006Y1027500D01*
X942672D01*
X944005Y1028833D01*
Y1034165D01*
X952500Y1055000D02*
X949834D01*
X951167D01*
Y1062998D01*
X952500Y1061665D01*
X945835Y1055000D02*
Y1056333D01*
X944503D01*
Y1055000D01*
X945835D01*
X933839Y1062998D02*
X939171D01*
Y1058999D01*
X936505Y1060332D01*
X935172D01*
X933839Y1058999D01*
Y1056333D01*
X935172Y1055000D01*
X937838D01*
X939171Y1056333D01*
X931174Y1062998D02*
Y1055000D01*
Y1057666D01*
X925842Y1062998D01*
X929841Y1058999D01*
X925842Y1055000D01*
X960000Y1042500D02*
Y1050498D01*
X956001D01*
X954668Y1049165D01*
Y1046499D01*
X956001Y1045166D01*
X960000D01*
X957334D02*
X954668Y1042500D01*
X952003D02*
X949337D01*
X950670D01*
Y1050498D01*
X952003Y1049165D01*
X945338Y1043833D02*
X944005Y1042500D01*
X941339D01*
X940006Y1043833D01*
Y1049165D01*
X941339Y1050498D01*
X944005D01*
X945338Y1049165D01*
Y1047832D01*
X944005Y1046499D01*
X940006D01*
X745500Y1035500D02*
X742834D01*
X744167D01*
Y1043498D01*
X745500Y1042165D01*
X738836Y1035500D02*
Y1036833D01*
X737503D01*
Y1035500D01*
X738836D01*
X726839Y1043498D02*
X732171D01*
Y1039499D01*
X729505Y1040832D01*
X728172D01*
X726839Y1039499D01*
Y1036833D01*
X728172Y1035500D01*
X730838D01*
X732171Y1036833D01*
X724174Y1043498D02*
Y1035500D01*
Y1038166D01*
X718842Y1043498D01*
X722841Y1039499D01*
X718842Y1035500D01*
X792500Y1045000D02*
Y1052998D01*
X788501D01*
X787168Y1051665D01*
Y1048999D01*
X788501Y1047666D01*
X792500D01*
X789834D02*
X787168Y1045000D01*
X784503D02*
X781837D01*
X783170D01*
Y1052998D01*
X784503Y1051665D01*
X777838D02*
X776505Y1052998D01*
X773839D01*
X772506Y1051665D01*
Y1050332D01*
X773839Y1048999D01*
X772506Y1047666D01*
Y1046333D01*
X773839Y1045000D01*
X776505D01*
X777838Y1046333D01*
Y1047666D01*
X776505Y1048999D01*
X777838Y1050332D01*
Y1051665D01*
X776505Y1048999D02*
X773839D01*
X746500Y1035250D02*
X743834D01*
X745167D01*
Y1043247D01*
X746500Y1041915D01*
X739836Y1035250D02*
Y1036583D01*
X738503D01*
Y1035250D01*
X739836D01*
X727839Y1043247D02*
X733171D01*
Y1039249D01*
X730505Y1040582D01*
X729172D01*
X727839Y1039249D01*
Y1036583D01*
X729172Y1035250D01*
X731838D01*
X733171Y1036583D01*
X725173Y1043247D02*
Y1035250D01*
Y1037916D01*
X719842Y1043247D01*
X723841Y1039249D01*
X719842Y1035250D01*
X793000Y1027750D02*
Y1035748D01*
X789001D01*
X787668Y1034415D01*
Y1031749D01*
X789001Y1030416D01*
X793000D01*
X790334D02*
X787668Y1027750D01*
X785003D02*
X782337D01*
X783670D01*
Y1035748D01*
X785003Y1034415D01*
X778338Y1035748D02*
X773006D01*
Y1034415D01*
X778338Y1029083D01*
Y1027750D01*
X1440918Y1041500D02*
X1446250D01*
X1440918Y1046832D01*
Y1048165D01*
X1442251Y1049498D01*
X1444917D01*
X1446250Y1048165D01*
X1438253Y1041500D02*
Y1042833D01*
X1436920D01*
Y1041500D01*
X1438253D01*
X1426257D02*
X1431588D01*
X1426257Y1046832D01*
Y1048165D01*
X1427589Y1049498D01*
X1430255D01*
X1431588Y1048165D01*
X1423591Y1049498D02*
Y1041500D01*
Y1044166D01*
X1418259Y1049498D01*
X1422258Y1045499D01*
X1418259Y1041500D01*
X1442500Y1052500D02*
Y1060498D01*
X1438501D01*
X1437168Y1059165D01*
Y1056499D01*
X1438501Y1055166D01*
X1442500D01*
X1439834D02*
X1437168Y1052500D01*
X1434503D02*
X1431837D01*
X1433170D01*
Y1060498D01*
X1434503Y1059165D01*
X1422507Y1060498D02*
X1425172Y1059165D01*
X1427838Y1056499D01*
Y1053833D01*
X1426505Y1052500D01*
X1423839D01*
X1422507Y1053833D01*
Y1055166D01*
X1423839Y1056499D01*
X1427838D01*
X1235168Y1158000D02*
X1240500D01*
X1235168Y1163332D01*
Y1164665D01*
X1236501Y1165998D01*
X1239167D01*
X1240500Y1164665D01*
X1232503Y1158000D02*
Y1159333D01*
X1231170D01*
Y1158000D01*
X1232503D01*
X1220507D02*
X1225838D01*
X1220507Y1163332D01*
Y1164665D01*
X1221839Y1165998D01*
X1224505D01*
X1225838Y1164665D01*
X1217841Y1165998D02*
Y1158000D01*
Y1160666D01*
X1212509Y1165998D01*
X1216508Y1161999D01*
X1212509Y1158000D01*
X1233750Y1168500D02*
Y1176498D01*
X1229751D01*
X1228418Y1175165D01*
Y1172499D01*
X1229751Y1171166D01*
X1233750D01*
X1231084D02*
X1228418Y1168500D01*
X1225753D02*
X1223087D01*
X1224420D01*
Y1176498D01*
X1225753Y1175165D01*
X1213756Y1176498D02*
X1219088D01*
Y1172499D01*
X1216422Y1173832D01*
X1215089D01*
X1213756Y1172499D01*
Y1169833D01*
X1215089Y1168500D01*
X1217755D01*
X1219088Y1169833D01*
X1001919Y1190500D02*
X1007250D01*
X1001919Y1195832D01*
Y1197165D01*
X1003251Y1198498D01*
X1005917D01*
X1007250Y1197165D01*
X999253Y1190500D02*
Y1191833D01*
X997920D01*
Y1190500D01*
X999253D01*
X987257D02*
X992588D01*
X987257Y1195832D01*
Y1197165D01*
X988590Y1198498D01*
X991255D01*
X992588Y1197165D01*
X984591Y1198498D02*
Y1190500D01*
Y1193166D01*
X979259Y1198498D01*
X983258Y1194499D01*
X979259Y1190500D01*
X1007500Y1200000D02*
Y1207998D01*
X1003501D01*
X1002168Y1206665D01*
Y1203999D01*
X1003501Y1202666D01*
X1007500D01*
X1004834D02*
X1002168Y1200000D01*
X999503D02*
X996837D01*
X998170D01*
Y1207998D01*
X999503Y1206665D01*
X988839Y1200000D02*
Y1207998D01*
X992838Y1203999D01*
X987506D01*
X764668Y1107000D02*
X770000D01*
X764668Y1112332D01*
Y1113664D01*
X766001Y1114997D01*
X768667D01*
X770000Y1113664D01*
X762003Y1107000D02*
Y1108333D01*
X760670D01*
Y1107000D01*
X762003D01*
X750006D02*
X755338D01*
X750006Y1112332D01*
Y1113664D01*
X751339Y1114997D01*
X754005D01*
X755338Y1113664D01*
X747341Y1114997D02*
Y1107000D01*
Y1109666D01*
X742009Y1114997D01*
X746008Y1110999D01*
X742009Y1107000D01*
X780000Y1118500D02*
Y1126497D01*
X776001D01*
X774668Y1125165D01*
Y1122499D01*
X776001Y1121166D01*
X780000D01*
X777334D02*
X774668Y1118500D01*
X772003D02*
X769337D01*
X770670D01*
Y1126497D01*
X772003Y1125165D01*
X765338D02*
X764005Y1126497D01*
X761339D01*
X760006Y1125165D01*
Y1123832D01*
X761339Y1122499D01*
X762672D01*
X761339D01*
X760006Y1121166D01*
Y1119833D01*
X761339Y1118500D01*
X764005D01*
X765338Y1119833D01*
X530668Y1025500D02*
X536000D01*
X530668Y1030832D01*
Y1032165D01*
X532001Y1033497D01*
X534667D01*
X536000Y1032165D01*
X528003Y1025500D02*
Y1026833D01*
X526670D01*
Y1025500D01*
X528003D01*
X516007D02*
X521338D01*
X516007Y1030832D01*
Y1032165D01*
X517339Y1033497D01*
X520005D01*
X521338Y1032165D01*
X513341Y1033497D02*
Y1025500D01*
Y1028166D01*
X508009Y1033497D01*
X512008Y1029499D01*
X508009Y1025500D01*
X534750Y1036250D02*
Y1044247D01*
X530751D01*
X529418Y1042915D01*
Y1040249D01*
X530751Y1038916D01*
X534750D01*
X532084D02*
X529418Y1036250D01*
X526753D02*
X524087D01*
X525420D01*
Y1044247D01*
X526753Y1042915D01*
X514757Y1036250D02*
X520088D01*
X514757Y1041582D01*
Y1042915D01*
X516089Y1044247D01*
X518755D01*
X520088Y1042915D01*
X902168Y997500D02*
X907500D01*
X902168Y1002832D01*
Y1004165D01*
X903501Y1005498D01*
X906167D01*
X907500Y1004165D01*
X894171Y997500D02*
X899503D01*
X894171Y1002832D01*
Y1004165D01*
X895504Y1005498D01*
X898170D01*
X899503Y1004165D01*
X891505Y1005498D02*
Y997500D01*
Y1000166D01*
X886174Y1005498D01*
X890172Y1001499D01*
X886174Y997500D01*
X907500Y1010000D02*
Y1017998D01*
X903501D01*
X902168Y1016665D01*
Y1013999D01*
X903501Y1012666D01*
X907500D01*
X904834D02*
X902168Y1010000D01*
X899503D02*
X896837D01*
X898170D01*
Y1017998D01*
X899503Y1016665D01*
X892838D02*
X891505Y1017998D01*
X888839D01*
X887506Y1016665D01*
Y1011333D01*
X888839Y1010000D01*
X891505D01*
X892838Y1011333D01*
Y1016665D01*
X904668Y1060000D02*
X910000D01*
X904668Y1065332D01*
Y1066665D01*
X906001Y1067998D01*
X908667D01*
X910000Y1066665D01*
X896671Y1060000D02*
X902003D01*
X896671Y1065332D01*
Y1066665D01*
X898004Y1067998D01*
X900670D01*
X902003Y1066665D01*
X894005Y1067998D02*
Y1060000D01*
Y1062666D01*
X888674Y1067998D01*
X892672Y1063999D01*
X888674Y1060000D01*
X910000Y1072500D02*
Y1080498D01*
X906001D01*
X904668Y1079165D01*
Y1076499D01*
X906001Y1075166D01*
X910000D01*
X907334D02*
X904668Y1072500D01*
X902003Y1073833D02*
X900670Y1072500D01*
X898004D01*
X896671Y1073833D01*
Y1079165D01*
X898004Y1080498D01*
X900670D01*
X902003Y1079165D01*
Y1077832D01*
X900670Y1076499D01*
X896671D01*
X841918Y1063500D02*
X847250D01*
X841918Y1068832D01*
Y1070164D01*
X843251Y1071497D01*
X845917D01*
X847250Y1070164D01*
X833921Y1063500D02*
X839253D01*
X833921Y1068832D01*
Y1070164D01*
X835254Y1071497D01*
X837920D01*
X839253Y1070164D01*
X831255Y1071497D02*
Y1063500D01*
Y1066166D01*
X825923Y1071497D01*
X829922Y1067499D01*
X825923Y1063500D01*
X842250Y1076000D02*
Y1083997D01*
X838251D01*
X836918Y1082664D01*
Y1079999D01*
X838251Y1078666D01*
X842250D01*
X839584D02*
X836918Y1076000D01*
X834252Y1082664D02*
X832920Y1083997D01*
X830254D01*
X828921Y1082664D01*
Y1081332D01*
X830254Y1079999D01*
X828921Y1078666D01*
Y1077333D01*
X830254Y1076000D01*
X832920D01*
X834252Y1077333D01*
Y1078666D01*
X832920Y1079999D01*
X834252Y1081332D01*
Y1082664D01*
X832920Y1079999D02*
X830254D01*
X837168Y995000D02*
X842500D01*
X837168Y1000332D01*
Y1001665D01*
X838501Y1002998D01*
X841167D01*
X842500Y1001665D01*
X829171Y995000D02*
X834503D01*
X829171Y1000332D01*
Y1001665D01*
X830504Y1002998D01*
X833170D01*
X834503Y1001665D01*
X826505Y1002998D02*
Y995000D01*
Y997666D01*
X821174Y1002998D01*
X825172Y998999D01*
X821174Y995000D01*
X837500Y1007500D02*
Y1015498D01*
X833501D01*
X832168Y1014165D01*
Y1011499D01*
X833501Y1010166D01*
X837500D01*
X834834D02*
X832168Y1007500D01*
X829503Y1015498D02*
X824171D01*
Y1014165D01*
X829503Y1008833D01*
Y1007500D01*
X844668Y1182500D02*
X850000D01*
X844668Y1187832D01*
Y1189165D01*
X846001Y1190498D01*
X848667D01*
X850000Y1189165D01*
X842003Y1182500D02*
Y1183833D01*
X840670D01*
Y1182500D01*
X842003D01*
X835338Y1190498D02*
X830006D01*
Y1189165D01*
X835338Y1183833D01*
Y1182500D01*
X827341Y1190498D02*
Y1182500D01*
Y1185166D01*
X822009Y1190498D01*
X826008Y1186499D01*
X822009Y1182500D01*
X850000Y1195000D02*
Y1202998D01*
X846001D01*
X844668Y1201665D01*
Y1198999D01*
X846001Y1197666D01*
X850000D01*
X847334D02*
X844668Y1195000D01*
X836671Y1202998D02*
X839337Y1201665D01*
X842003Y1198999D01*
Y1196333D01*
X840670Y1195000D01*
X838004D01*
X836671Y1196333D01*
Y1197666D01*
X838004Y1198999D01*
X842003D01*
X875000Y1126665D02*
X873667Y1127998D01*
X871001D01*
X869668Y1126665D01*
Y1125332D01*
X871001Y1123999D01*
X872334D01*
X871001D01*
X869668Y1122666D01*
Y1121333D01*
X871001Y1120000D01*
X873667D01*
X875000Y1121333D01*
X867003Y1126665D02*
X865670Y1127998D01*
X863004D01*
X861671Y1126665D01*
Y1125332D01*
X863004Y1123999D01*
X864337D01*
X863004D01*
X861671Y1122666D01*
Y1121333D01*
X863004Y1120000D01*
X865670D01*
X867003Y1121333D01*
X915000Y1120000D02*
Y1127998D01*
X911001D01*
X909668Y1126665D01*
Y1123999D01*
X911001Y1122666D01*
X915000D01*
X912334D02*
X909668Y1120000D01*
X901671Y1127998D02*
X907003D01*
Y1123999D01*
X904337Y1125332D01*
X903004D01*
X901671Y1123999D01*
Y1121333D01*
X903004Y1120000D01*
X905670D01*
X907003Y1121333D01*
X1154668Y1185000D02*
X1160000D01*
X1154668Y1190332D01*
Y1191665D01*
X1156001Y1192998D01*
X1158667D01*
X1160000Y1191665D01*
X1152003Y1185000D02*
Y1186333D01*
X1150670D01*
Y1185000D01*
X1152003D01*
X1145338Y1192998D02*
X1140006D01*
Y1191665D01*
X1145338Y1186333D01*
Y1185000D01*
X1137341Y1192998D02*
Y1185000D01*
Y1187666D01*
X1132009Y1192998D01*
X1136008Y1188999D01*
X1132009Y1185000D01*
X1162500Y1197500D02*
Y1205498D01*
X1158501D01*
X1157168Y1204165D01*
Y1201499D01*
X1158501Y1200166D01*
X1162500D01*
X1159834D02*
X1157168Y1197500D01*
X1150504D02*
Y1205498D01*
X1154503Y1201499D01*
X1149171D01*
X1080000Y1121665D02*
X1078667Y1122998D01*
X1076001D01*
X1074668Y1121665D01*
Y1120332D01*
X1076001Y1118999D01*
X1077334D01*
X1076001D01*
X1074668Y1117666D01*
Y1116333D01*
X1076001Y1115000D01*
X1078667D01*
X1080000Y1116333D01*
X1072003Y1121665D02*
X1070670Y1122998D01*
X1068004D01*
X1066671Y1121665D01*
Y1120332D01*
X1068004Y1118999D01*
X1069337D01*
X1068004D01*
X1066671Y1117666D01*
Y1116333D01*
X1068004Y1115000D01*
X1070670D01*
X1072003Y1116333D01*
X1080000Y1127500D02*
Y1135498D01*
X1076001D01*
X1074668Y1134165D01*
Y1131499D01*
X1076001Y1130166D01*
X1080000D01*
X1077334D02*
X1074668Y1127500D01*
X1072003Y1134165D02*
X1070670Y1135498D01*
X1068004D01*
X1066671Y1134165D01*
Y1132832D01*
X1068004Y1131499D01*
X1069337D01*
X1068004D01*
X1066671Y1130166D01*
Y1128833D01*
X1068004Y1127500D01*
X1070670D01*
X1072003Y1128833D01*
X846001Y1145000D02*
Y1152998D01*
X850000Y1148999D01*
X844668D01*
X842003Y1145000D02*
Y1146333D01*
X840670D01*
Y1145000D01*
X842003D01*
X835338Y1152998D02*
X830006D01*
Y1151665D01*
X835338Y1146333D01*
Y1145000D01*
X827341Y1152998D02*
Y1145000D01*
Y1147666D01*
X822009Y1152998D01*
X826008Y1148999D01*
X822009Y1145000D01*
X850000Y1157500D02*
Y1165498D01*
X846001D01*
X844668Y1164165D01*
Y1161499D01*
X846001Y1160166D01*
X850000D01*
X847334D02*
X844668Y1157500D01*
X836671D02*
X842003D01*
X836671Y1162832D01*
Y1164165D01*
X838004Y1165498D01*
X840670D01*
X842003Y1164165D01*
X1138501Y1135000D02*
Y1142998D01*
X1142500Y1138999D01*
X1137168D01*
X1134503Y1135000D02*
Y1136333D01*
X1133170D01*
Y1135000D01*
X1134503D01*
X1127838Y1142998D02*
X1122506D01*
Y1141665D01*
X1127838Y1136333D01*
Y1135000D01*
X1119841Y1142998D02*
Y1135000D01*
Y1137666D01*
X1114509Y1142998D01*
X1118508Y1138999D01*
X1114509Y1135000D01*
X1135000Y1150000D02*
Y1157998D01*
X1131001D01*
X1129668Y1156665D01*
Y1153999D01*
X1131001Y1152666D01*
X1135000D01*
X1132334D02*
X1129668Y1150000D01*
X1127003D02*
X1124337D01*
X1125670D01*
Y1157998D01*
X1127003Y1156665D01*
X1360000Y927998D02*
Y920000D01*
X1356001D01*
X1354668Y921333D01*
Y922666D01*
X1356001Y923999D01*
X1360000D01*
X1356001D01*
X1354668Y925332D01*
Y926665D01*
X1356001Y927998D01*
X1360000D01*
X1346671Y926665D02*
X1348004Y927998D01*
X1350670D01*
X1352003Y926665D01*
Y921333D01*
X1350670Y920000D01*
X1348004D01*
X1346671Y921333D01*
X1344005Y926665D02*
X1342672Y927998D01*
X1340007D01*
X1338674Y926665D01*
Y925332D01*
X1340007Y923999D01*
X1338674Y922666D01*
Y921333D01*
X1340007Y920000D01*
X1342672D01*
X1344005Y921333D01*
Y922666D01*
X1342672Y923999D01*
X1344005Y925332D01*
Y926665D01*
X1342672Y923999D02*
X1340007D01*
X1336008Y920000D02*
X1333342D01*
X1334675D01*
Y927998D01*
X1336008Y926665D01*
X1329343Y927998D02*
X1324012D01*
Y926665D01*
X1329343Y921333D01*
Y920000D01*
X1321346Y923999D02*
X1316014D01*
X1309350Y920000D02*
Y927998D01*
X1313348Y923999D01*
X1308017D01*
X1305351Y926665D02*
X1304018Y927998D01*
X1301352D01*
X1300019Y926665D01*
Y921333D01*
X1301352Y920000D01*
X1304018D01*
X1305351Y921333D01*
Y926665D01*
X1314706Y823911D02*
Y829243D01*
X1316039Y830576D01*
X1318705D01*
X1320038Y829243D01*
Y823911D01*
X1318705Y822578D01*
X1316039D01*
X1317372Y825244D02*
X1314706Y822578D01*
X1316039D02*
X1314706Y823911D01*
X1312041Y829243D02*
X1310708Y830576D01*
X1308042D01*
X1306709Y829243D01*
Y827910D01*
X1308042Y826577D01*
X1309375D01*
X1308042D01*
X1306709Y825244D01*
Y823911D01*
X1308042Y822578D01*
X1310708D01*
X1312041Y823911D01*
X1304043Y829243D02*
X1302710Y830576D01*
X1300045D01*
X1298712Y829243D01*
Y823911D01*
X1300045Y822578D01*
X1302710D01*
X1304043Y823911D01*
Y829243D01*
X1360000Y930498D02*
Y922500D01*
X1356001D01*
X1354668Y923833D01*
Y925166D01*
X1356001Y926499D01*
X1360000D01*
X1356001D01*
X1354668Y927832D01*
Y929165D01*
X1356001Y930498D01*
X1360000D01*
X1346671Y929165D02*
X1348004Y930498D01*
X1350670D01*
X1352003Y929165D01*
Y923833D01*
X1350670Y922500D01*
X1348004D01*
X1346671Y923833D01*
X1344005Y929165D02*
X1342672Y930498D01*
X1340007D01*
X1338674Y929165D01*
Y927832D01*
X1340007Y926499D01*
X1338674Y925166D01*
Y923833D01*
X1340007Y922500D01*
X1342672D01*
X1344005Y923833D01*
Y925166D01*
X1342672Y926499D01*
X1344005Y927832D01*
Y929165D01*
X1342672Y926499D02*
X1340007D01*
X1336008Y922500D02*
X1333342D01*
X1334675D01*
Y930498D01*
X1336008Y929165D01*
X1329343Y930498D02*
X1324012D01*
Y929165D01*
X1329343Y923833D01*
Y922500D01*
X1321346Y926499D02*
X1316014D01*
X1309350Y922500D02*
Y930498D01*
X1313348Y926499D01*
X1308017D01*
X1305351Y929165D02*
X1304018Y930498D01*
X1301352D01*
X1300019Y929165D01*
Y923833D01*
X1301352Y922500D01*
X1304018D01*
X1305351Y923833D01*
Y929165D01*
X1314960Y893975D02*
Y899307D01*
X1316293Y900639D01*
X1318959D01*
X1320292Y899307D01*
Y893975D01*
X1318959Y892642D01*
X1316293D01*
X1317626Y895308D02*
X1314960Y892642D01*
X1316293D02*
X1314960Y893975D01*
X1306963Y892642D02*
X1312295D01*
X1306963Y897974D01*
Y899307D01*
X1308296Y900639D01*
X1310962D01*
X1312295Y899307D01*
X1304297Y893975D02*
X1302964Y892642D01*
X1300298D01*
X1298966Y893975D01*
Y899307D01*
X1300298Y900639D01*
X1302964D01*
X1304297Y899307D01*
Y897974D01*
X1302964Y896641D01*
X1298966D01*
X1358750Y925248D02*
Y917250D01*
X1354751D01*
X1353418Y918583D01*
Y919916D01*
X1354751Y921249D01*
X1358750D01*
X1354751D01*
X1353418Y922582D01*
Y923915D01*
X1354751Y925248D01*
X1358750D01*
X1345421Y923915D02*
X1346754Y925248D01*
X1349420D01*
X1350753Y923915D01*
Y918583D01*
X1349420Y917250D01*
X1346754D01*
X1345421Y918583D01*
X1342755Y923915D02*
X1341422Y925248D01*
X1338757D01*
X1337424Y923915D01*
Y922582D01*
X1338757Y921249D01*
X1337424Y919916D01*
Y918583D01*
X1338757Y917250D01*
X1341422D01*
X1342755Y918583D01*
Y919916D01*
X1341422Y921249D01*
X1342755Y922582D01*
Y923915D01*
X1341422Y921249D02*
X1338757D01*
X1334758Y917250D02*
X1332092D01*
X1333425D01*
Y925248D01*
X1334758Y923915D01*
X1328093Y925248D02*
X1322762D01*
Y923915D01*
X1328093Y918583D01*
Y917250D01*
X1320096Y921249D02*
X1314764D01*
X1308100Y917250D02*
Y925248D01*
X1312099Y921249D01*
X1306767D01*
X1304101Y923915D02*
X1302768Y925248D01*
X1300102D01*
X1298770Y923915D01*
Y918583D01*
X1300102Y917250D01*
X1302768D01*
X1304101Y918583D01*
Y923915D01*
X1356382Y822685D02*
Y828017D01*
X1357715Y829350D01*
X1360381D01*
X1361714Y828017D01*
Y822685D01*
X1360381Y821352D01*
X1357715D01*
X1359048Y824018D02*
X1356382Y821352D01*
X1357715D02*
X1356382Y822685D01*
X1348385Y821352D02*
X1353717D01*
X1348385Y826684D01*
Y828017D01*
X1349718Y829350D01*
X1352384D01*
X1353717Y828017D01*
X1345719D02*
X1344386Y829350D01*
X1341721D01*
X1340388Y828017D01*
Y826684D01*
X1341721Y825351D01*
X1340388Y824018D01*
Y822685D01*
X1341721Y821352D01*
X1344386D01*
X1345719Y822685D01*
Y824018D01*
X1344386Y825351D01*
X1345719Y826684D01*
Y828017D01*
X1344386Y825351D02*
X1341721D01*
X1360000Y927998D02*
Y920000D01*
X1356001D01*
X1354668Y921333D01*
Y922666D01*
X1356001Y923999D01*
X1360000D01*
X1356001D01*
X1354668Y925332D01*
Y926665D01*
X1356001Y927998D01*
X1360000D01*
X1346671Y926665D02*
X1348004Y927998D01*
X1350670D01*
X1352003Y926665D01*
Y921333D01*
X1350670Y920000D01*
X1348004D01*
X1346671Y921333D01*
X1344005Y926665D02*
X1342672Y927998D01*
X1340007D01*
X1338674Y926665D01*
Y925332D01*
X1340007Y923999D01*
X1338674Y922666D01*
Y921333D01*
X1340007Y920000D01*
X1342672D01*
X1344005Y921333D01*
Y922666D01*
X1342672Y923999D01*
X1344005Y925332D01*
Y926665D01*
X1342672Y923999D02*
X1340007D01*
X1336008Y920000D02*
X1333342D01*
X1334675D01*
Y927998D01*
X1336008Y926665D01*
X1329343Y927998D02*
X1324012D01*
Y926665D01*
X1329343Y921333D01*
Y920000D01*
X1321346Y923999D02*
X1316014D01*
X1309350Y920000D02*
Y927998D01*
X1313348Y923999D01*
X1308017D01*
X1305351Y926665D02*
X1304018Y927998D01*
X1301352D01*
X1300019Y926665D01*
Y921333D01*
X1301352Y920000D01*
X1304018D01*
X1305351Y921333D01*
Y926665D01*
X1314706Y858709D02*
Y864041D01*
X1316039Y865374D01*
X1318705D01*
X1320038Y864041D01*
Y858709D01*
X1318705Y857376D01*
X1316039D01*
X1317372Y860042D02*
X1314706Y857376D01*
X1316039D02*
X1314706Y858709D01*
X1306709Y857376D02*
X1312041D01*
X1306709Y862708D01*
Y864041D01*
X1308042Y865374D01*
X1310708D01*
X1312041Y864041D01*
X1304043Y865374D02*
X1298712D01*
Y864041D01*
X1304043Y858709D01*
Y857376D01*
X1360250Y929998D02*
Y922000D01*
X1356251D01*
X1354918Y923333D01*
Y924666D01*
X1356251Y925999D01*
X1360250D01*
X1356251D01*
X1354918Y927332D01*
Y928665D01*
X1356251Y929998D01*
X1360250D01*
X1346921Y928665D02*
X1348254Y929998D01*
X1350920D01*
X1352253Y928665D01*
Y923333D01*
X1350920Y922000D01*
X1348254D01*
X1346921Y923333D01*
X1344255Y928665D02*
X1342922Y929998D01*
X1340257D01*
X1338924Y928665D01*
Y927332D01*
X1340257Y925999D01*
X1338924Y924666D01*
Y923333D01*
X1340257Y922000D01*
X1342922D01*
X1344255Y923333D01*
Y924666D01*
X1342922Y925999D01*
X1344255Y927332D01*
Y928665D01*
X1342922Y925999D02*
X1340257D01*
X1336258Y922000D02*
X1333592D01*
X1334925D01*
Y929998D01*
X1336258Y928665D01*
X1329593Y929998D02*
X1324262D01*
Y928665D01*
X1329593Y923333D01*
Y922000D01*
X1321596Y925999D02*
X1316264D01*
X1309600Y922000D02*
Y929998D01*
X1313598Y925999D01*
X1308267D01*
X1305601Y928665D02*
X1304268Y929998D01*
X1301602D01*
X1300269Y928665D01*
Y923333D01*
X1301602Y922000D01*
X1304268D01*
X1305601Y923333D01*
Y928665D01*
X1358390Y893475D02*
Y898807D01*
X1359723Y900140D01*
X1362389D01*
X1363722Y898807D01*
Y893475D01*
X1362389Y892142D01*
X1359723D01*
X1361056Y894808D02*
X1358390Y892142D01*
X1359723D02*
X1358390Y893475D01*
X1350393Y892142D02*
X1355725D01*
X1350393Y897474D01*
Y898807D01*
X1351726Y900140D01*
X1354392D01*
X1355725Y898807D01*
X1342396Y900140D02*
X1345061Y898807D01*
X1347727Y896141D01*
Y893475D01*
X1346394Y892142D01*
X1343728D01*
X1342396Y893475D01*
Y894808D01*
X1343728Y896141D01*
X1347727D01*
X1360000Y927998D02*
Y920000D01*
X1356001D01*
X1354668Y921333D01*
Y922666D01*
X1356001Y923999D01*
X1360000D01*
X1356001D01*
X1354668Y925332D01*
Y926665D01*
X1356001Y927998D01*
X1360000D01*
X1346671Y926665D02*
X1348004Y927998D01*
X1350670D01*
X1352003Y926665D01*
Y921333D01*
X1350670Y920000D01*
X1348004D01*
X1346671Y921333D01*
X1344005Y926665D02*
X1342672Y927998D01*
X1340007D01*
X1338674Y926665D01*
Y925332D01*
X1340007Y923999D01*
X1338674Y922666D01*
Y921333D01*
X1340007Y920000D01*
X1342672D01*
X1344005Y921333D01*
Y922666D01*
X1342672Y923999D01*
X1344005Y925332D01*
Y926665D01*
X1342672Y923999D02*
X1340007D01*
X1336008Y920000D02*
X1333342D01*
X1334675D01*
Y927998D01*
X1336008Y926665D01*
X1329343Y927998D02*
X1324012D01*
Y926665D01*
X1329343Y921333D01*
Y920000D01*
X1321346Y923999D02*
X1316014D01*
X1309350Y920000D02*
Y927998D01*
X1313348Y923999D01*
X1308017D01*
X1305351Y926665D02*
X1304018Y927998D01*
X1301352D01*
X1300019Y926665D01*
Y921333D01*
X1301352Y920000D01*
X1304018D01*
X1305351Y921333D01*
Y926665D01*
X1358140Y858455D02*
Y863787D01*
X1359473Y865120D01*
X1362139D01*
X1363472Y863787D01*
Y858455D01*
X1362139Y857122D01*
X1359473D01*
X1360806Y859788D02*
X1358140Y857122D01*
X1359473D02*
X1358140Y858455D01*
X1350143Y857122D02*
X1355475D01*
X1350143Y862454D01*
Y863787D01*
X1351476Y865120D01*
X1354142D01*
X1355475Y863787D01*
X1342146Y865120D02*
X1347477D01*
Y861121D01*
X1344811Y862454D01*
X1343479D01*
X1342146Y861121D01*
Y858455D01*
X1343479Y857122D01*
X1346144D01*
X1347477Y858455D01*
X680000Y792998D02*
Y785000D01*
X676001D01*
X674668Y786333D01*
Y787666D01*
X676001Y788999D01*
X680000D01*
X676001D01*
X674668Y790332D01*
Y791665D01*
X676001Y792998D01*
X680000D01*
X666671Y791665D02*
X668004Y792998D01*
X670670D01*
X672003Y791665D01*
Y786333D01*
X670670Y785000D01*
X668004D01*
X666671Y786333D01*
X664005Y791665D02*
X662672Y792998D01*
X660006D01*
X658674Y791665D01*
Y790332D01*
X660006Y788999D01*
X658674Y787666D01*
Y786333D01*
X660006Y785000D01*
X662672D01*
X664005Y786333D01*
Y787666D01*
X662672Y788999D01*
X664005Y790332D01*
Y791665D01*
X662672Y788999D02*
X660006D01*
X656008Y785000D02*
X653342D01*
X654675D01*
Y792998D01*
X656008Y791665D01*
X649343Y792998D02*
X644012D01*
Y791665D01*
X649343Y786333D01*
Y785000D01*
X641346Y788999D02*
X636014D01*
X629350Y785000D02*
Y792998D01*
X633348Y788999D01*
X628017D01*
X625351Y791665D02*
X624018Y792998D01*
X621352D01*
X620019Y791665D01*
Y786333D01*
X621352Y785000D01*
X624018D01*
X625351Y786333D01*
Y791665D01*
X694946Y897865D02*
Y903197D01*
X696279Y904530D01*
X698945D01*
X700278Y903197D01*
Y897865D01*
X698945Y896532D01*
X696279D01*
X697612Y899198D02*
X694946Y896532D01*
X696279D02*
X694946Y897865D01*
X686949Y896532D02*
X692281D01*
X686949Y901864D01*
Y903197D01*
X688282Y904530D01*
X690948D01*
X692281Y903197D01*
X680285Y896532D02*
Y904530D01*
X684283Y900531D01*
X678952D01*
X680000Y792998D02*
Y785000D01*
X676001D01*
X674668Y786333D01*
Y787666D01*
X676001Y788999D01*
X680000D01*
X676001D01*
X674668Y790332D01*
Y791665D01*
X676001Y792998D01*
X680000D01*
X666671Y791665D02*
X668004Y792998D01*
X670670D01*
X672003Y791665D01*
Y786333D01*
X670670Y785000D01*
X668004D01*
X666671Y786333D01*
X664005Y791665D02*
X662672Y792998D01*
X660006D01*
X658674Y791665D01*
Y790332D01*
X660006Y788999D01*
X658674Y787666D01*
Y786333D01*
X660006Y785000D01*
X662672D01*
X664005Y786333D01*
Y787666D01*
X662672Y788999D01*
X664005Y790332D01*
Y791665D01*
X662672Y788999D02*
X660006D01*
X656008Y785000D02*
X653342D01*
X654675D01*
Y792998D01*
X656008Y791665D01*
X649343Y792998D02*
X644012D01*
Y791665D01*
X649343Y786333D01*
Y785000D01*
X641346Y788999D02*
X636014D01*
X629350Y785000D02*
Y792998D01*
X633348Y788999D01*
X628017D01*
X625351Y791665D02*
X624018Y792998D01*
X621352D01*
X620019Y791665D01*
Y786333D01*
X621352Y785000D01*
X624018D01*
X625351Y786333D01*
Y791665D01*
X693930Y820395D02*
Y825727D01*
X695263Y827060D01*
X697929D01*
X699262Y825727D01*
Y820395D01*
X697929Y819062D01*
X695263D01*
X696596Y821728D02*
X693930Y819062D01*
X695263D02*
X693930Y820395D01*
X685933Y819062D02*
X691265D01*
X685933Y824394D01*
Y825727D01*
X687266Y827060D01*
X689932D01*
X691265Y825727D01*
X683267D02*
X681934Y827060D01*
X679268D01*
X677936Y825727D01*
Y824394D01*
X679268Y823061D01*
X680601D01*
X679268D01*
X677936Y821728D01*
Y820395D01*
X679268Y819062D01*
X681934D01*
X683267Y820395D01*
X680000Y792998D02*
Y785000D01*
X676001D01*
X674668Y786333D01*
Y787666D01*
X676001Y788999D01*
X680000D01*
X676001D01*
X674668Y790332D01*
Y791665D01*
X676001Y792998D01*
X680000D01*
X666671Y791665D02*
X668004Y792998D01*
X670670D01*
X672003Y791665D01*
Y786333D01*
X670670Y785000D01*
X668004D01*
X666671Y786333D01*
X664005Y791665D02*
X662672Y792998D01*
X660006D01*
X658674Y791665D01*
Y790332D01*
X660006Y788999D01*
X658674Y787666D01*
Y786333D01*
X660006Y785000D01*
X662672D01*
X664005Y786333D01*
Y787666D01*
X662672Y788999D01*
X664005Y790332D01*
Y791665D01*
X662672Y788999D02*
X660006D01*
X656008Y785000D02*
X653342D01*
X654675D01*
Y792998D01*
X656008Y791665D01*
X649343Y792998D02*
X644012D01*
Y791665D01*
X649343Y786333D01*
Y785000D01*
X641346Y788999D02*
X636014D01*
X629350Y785000D02*
Y792998D01*
X633348Y788999D01*
X628017D01*
X625351Y791665D02*
X624018Y792998D01*
X621352D01*
X620019Y791665D01*
Y786333D01*
X621352Y785000D01*
X624018D01*
X625351Y786333D01*
Y791665D01*
X653798Y896341D02*
Y901673D01*
X655131Y903006D01*
X657797D01*
X659130Y901673D01*
Y896341D01*
X657797Y895008D01*
X655131D01*
X656464Y897674D02*
X653798Y895008D01*
X655131D02*
X653798Y896341D01*
X645801Y895008D02*
X651133D01*
X645801Y900340D01*
Y901673D01*
X647134Y903006D01*
X649800D01*
X651133Y901673D01*
X637804Y895008D02*
X643135D01*
X637804Y900340D01*
Y901673D01*
X639137Y903006D01*
X641802D01*
X643135Y901673D01*
X680000Y792998D02*
Y785000D01*
X676001D01*
X674668Y786333D01*
Y787666D01*
X676001Y788999D01*
X680000D01*
X676001D01*
X674668Y790332D01*
Y791665D01*
X676001Y792998D01*
X680000D01*
X666671Y791665D02*
X668004Y792998D01*
X670670D01*
X672003Y791665D01*
Y786333D01*
X670670Y785000D01*
X668004D01*
X666671Y786333D01*
X664005Y791665D02*
X662672Y792998D01*
X660006D01*
X658674Y791665D01*
Y790332D01*
X660006Y788999D01*
X658674Y787666D01*
Y786333D01*
X660006Y785000D01*
X662672D01*
X664005Y786333D01*
Y787666D01*
X662672Y788999D01*
X664005Y790332D01*
Y791665D01*
X662672Y788999D02*
X660006D01*
X656008Y785000D02*
X653342D01*
X654675D01*
Y792998D01*
X656008Y791665D01*
X649343Y792998D02*
X644012D01*
Y791665D01*
X649343Y786333D01*
Y785000D01*
X641346Y788999D02*
X636014D01*
X629350Y785000D02*
Y792998D01*
X633348Y788999D01*
X628017D01*
X625351Y791665D02*
X624018Y792998D01*
X621352D01*
X620019Y791665D01*
Y786333D01*
X621352Y785000D01*
X624018D01*
X625351Y786333D01*
Y791665D01*
X693676Y857479D02*
Y862811D01*
X695009Y864144D01*
X697675D01*
X699008Y862811D01*
Y857479D01*
X697675Y856146D01*
X695009D01*
X696342Y858812D02*
X693676Y856146D01*
X695009D02*
X693676Y857479D01*
X685679Y856146D02*
X691011D01*
X685679Y861478D01*
Y862811D01*
X687012Y864144D01*
X689678D01*
X691011Y862811D01*
X683013Y856146D02*
X680347D01*
X681680D01*
Y864144D01*
X683013Y862811D01*
X680000Y792998D02*
Y785000D01*
X676001D01*
X674668Y786333D01*
Y787666D01*
X676001Y788999D01*
X680000D01*
X676001D01*
X674668Y790332D01*
Y791665D01*
X676001Y792998D01*
X680000D01*
X666671Y791665D02*
X668004Y792998D01*
X670670D01*
X672003Y791665D01*
Y786333D01*
X670670Y785000D01*
X668004D01*
X666671Y786333D01*
X664005Y791665D02*
X662672Y792998D01*
X660006D01*
X658674Y791665D01*
Y790332D01*
X660006Y788999D01*
X658674Y787666D01*
Y786333D01*
X660006Y785000D01*
X662672D01*
X664005Y786333D01*
Y787666D01*
X662672Y788999D01*
X664005Y790332D01*
Y791665D01*
X662672Y788999D02*
X660006D01*
X656008Y785000D02*
X653342D01*
X654675D01*
Y792998D01*
X656008Y791665D01*
X649343Y792998D02*
X644012D01*
Y791665D01*
X649343Y786333D01*
Y785000D01*
X641346Y788999D02*
X636014D01*
X629350Y785000D02*
Y792998D01*
X633348Y788999D01*
X628017D01*
X625351Y791665D02*
X624018Y792998D01*
X621352D01*
X620019Y791665D01*
Y786333D01*
X621352Y785000D01*
X624018D01*
X625351Y786333D01*
Y791665D01*
X654306Y819379D02*
Y824711D01*
X655639Y826044D01*
X658305D01*
X659638Y824711D01*
Y819379D01*
X658305Y818046D01*
X655639D01*
X656972Y820712D02*
X654306Y818046D01*
X655639D02*
X654306Y819379D01*
X646309Y818046D02*
X651641D01*
X646309Y823378D01*
Y824711D01*
X647642Y826044D01*
X650308D01*
X651641Y824711D01*
X643643D02*
X642310Y826044D01*
X639645D01*
X638312Y824711D01*
Y819379D01*
X639645Y818046D01*
X642310D01*
X643643Y819379D01*
Y824711D01*
X680000Y792998D02*
Y785000D01*
X676001D01*
X674668Y786333D01*
Y787666D01*
X676001Y788999D01*
X680000D01*
X676001D01*
X674668Y790332D01*
Y791665D01*
X676001Y792998D01*
X680000D01*
X666671Y791665D02*
X668004Y792998D01*
X670670D01*
X672003Y791665D01*
Y786333D01*
X670670Y785000D01*
X668004D01*
X666671Y786333D01*
X664005Y791665D02*
X662672Y792998D01*
X660006D01*
X658674Y791665D01*
Y790332D01*
X660006Y788999D01*
X658674Y787666D01*
Y786333D01*
X660006Y785000D01*
X662672D01*
X664005Y786333D01*
Y787666D01*
X662672Y788999D01*
X664005Y790332D01*
Y791665D01*
X662672Y788999D02*
X660006D01*
X656008Y785000D02*
X653342D01*
X654675D01*
Y792998D01*
X656008Y791665D01*
X649343Y792998D02*
X644012D01*
Y791665D01*
X649343Y786333D01*
Y785000D01*
X641346Y788999D02*
X636014D01*
X629350Y785000D02*
Y792998D01*
X633348Y788999D01*
X628017D01*
X625351Y791665D02*
X624018Y792998D01*
X621352D01*
X620019Y791665D01*
Y786333D01*
X621352Y785000D01*
X624018D01*
X625351Y786333D01*
Y791665D01*
X653290Y857225D02*
Y862557D01*
X654623Y863890D01*
X657289D01*
X658622Y862557D01*
Y857225D01*
X657289Y855892D01*
X654623D01*
X655956Y858558D02*
X653290Y855892D01*
X654623D02*
X653290Y857225D01*
X650625Y855892D02*
X647959D01*
X649292D01*
Y863890D01*
X650625Y862557D01*
X643960Y857225D02*
X642627Y855892D01*
X639961D01*
X638629Y857225D01*
Y862557D01*
X639961Y863890D01*
X642627D01*
X643960Y862557D01*
Y861224D01*
X642627Y859891D01*
X638629D01*
X1035000Y1165498D02*
Y1157500D01*
X1031001D01*
X1029668Y1158833D01*
Y1160166D01*
X1031001Y1161499D01*
X1035000D01*
X1031001D01*
X1029668Y1162832D01*
Y1164165D01*
X1031001Y1165498D01*
X1035000D01*
X1021671Y1164165D02*
X1023004Y1165498D01*
X1025670D01*
X1027003Y1164165D01*
Y1158833D01*
X1025670Y1157500D01*
X1023004D01*
X1021671Y1158833D01*
X1019005Y1164165D02*
X1017672Y1165498D01*
X1015006D01*
X1013674Y1164165D01*
Y1162832D01*
X1015006Y1161499D01*
X1013674Y1160166D01*
Y1158833D01*
X1015006Y1157500D01*
X1017672D01*
X1019005Y1158833D01*
Y1160166D01*
X1017672Y1161499D01*
X1019005Y1162832D01*
Y1164165D01*
X1017672Y1161499D02*
X1015006D01*
X1011008Y1157500D02*
X1008342D01*
X1009675D01*
Y1165498D01*
X1011008Y1164165D01*
X1004343Y1165498D02*
X999012D01*
Y1164165D01*
X1004343Y1158833D01*
Y1157500D01*
X996346Y1161499D02*
X991014D01*
X984350Y1157500D02*
Y1165498D01*
X988348Y1161499D01*
X983017D01*
X980351Y1164165D02*
X979018Y1165498D01*
X976352D01*
X975019Y1164165D01*
Y1158833D01*
X976352Y1157500D01*
X979018D01*
X980351Y1158833D01*
Y1164165D01*
X1027432Y1143721D02*
Y1149053D01*
X1028765Y1150386D01*
X1031431D01*
X1032764Y1149053D01*
Y1143721D01*
X1031431Y1142388D01*
X1028765D01*
X1030098Y1145054D02*
X1027432Y1142388D01*
X1028765D02*
X1027432Y1143721D01*
X1024767Y1142388D02*
X1022101D01*
X1023434D01*
Y1150386D01*
X1024767Y1149053D01*
X1012770Y1142388D02*
X1018102D01*
X1012770Y1147720D01*
Y1149053D01*
X1014103Y1150386D01*
X1016769D01*
X1018102Y1149053D01*
X1035000Y1165498D02*
Y1157500D01*
X1031001D01*
X1029668Y1158833D01*
Y1160166D01*
X1031001Y1161499D01*
X1035000D01*
X1031001D01*
X1029668Y1162832D01*
Y1164165D01*
X1031001Y1165498D01*
X1035000D01*
X1021671Y1164165D02*
X1023004Y1165498D01*
X1025670D01*
X1027003Y1164165D01*
Y1158833D01*
X1025670Y1157500D01*
X1023004D01*
X1021671Y1158833D01*
X1019005Y1164165D02*
X1017672Y1165498D01*
X1015006D01*
X1013674Y1164165D01*
Y1162832D01*
X1015006Y1161499D01*
X1013674Y1160166D01*
Y1158833D01*
X1015006Y1157500D01*
X1017672D01*
X1019005Y1158833D01*
Y1160166D01*
X1017672Y1161499D01*
X1019005Y1162832D01*
Y1164165D01*
X1017672Y1161499D02*
X1015006D01*
X1011008Y1157500D02*
X1008342D01*
X1009675D01*
Y1165498D01*
X1011008Y1164165D01*
X1004343Y1165498D02*
X999012D01*
Y1164165D01*
X1004343Y1158833D01*
Y1157500D01*
X996346Y1161499D02*
X991014D01*
X984350Y1157500D02*
Y1165498D01*
X988348Y1161499D01*
X983017D01*
X980351Y1164165D02*
X979018Y1165498D01*
X976352D01*
X975019Y1164165D01*
Y1158833D01*
X976352Y1157500D01*
X979018D01*
X980351Y1158833D01*
Y1164165D01*
X1024892Y1183345D02*
Y1188677D01*
X1026225Y1190010D01*
X1028891D01*
X1030224Y1188677D01*
Y1183345D01*
X1028891Y1182012D01*
X1026225D01*
X1027558Y1184678D02*
X1024892Y1182012D01*
X1026225D02*
X1024892Y1183345D01*
X1022227Y1190010D02*
X1016895D01*
Y1188677D01*
X1022227Y1183345D01*
Y1182012D01*
X930000Y1172998D02*
Y1165000D01*
X926001D01*
X924668Y1166333D01*
Y1167666D01*
X926001Y1168999D01*
X930000D01*
X926001D01*
X924668Y1170332D01*
Y1171665D01*
X926001Y1172998D01*
X930000D01*
X916671Y1171665D02*
X918004Y1172998D01*
X920670D01*
X922003Y1171665D01*
Y1166333D01*
X920670Y1165000D01*
X918004D01*
X916671Y1166333D01*
X914005Y1171665D02*
X912672Y1172998D01*
X910006D01*
X908674Y1171665D01*
Y1170332D01*
X910006Y1168999D01*
X908674Y1167666D01*
Y1166333D01*
X910006Y1165000D01*
X912672D01*
X914005Y1166333D01*
Y1167666D01*
X912672Y1168999D01*
X914005Y1170332D01*
Y1171665D01*
X912672Y1168999D02*
X910006D01*
X906008Y1165000D02*
X903342D01*
X904675D01*
Y1172998D01*
X906008Y1171665D01*
X899343Y1172998D02*
X894012D01*
Y1171665D01*
X899343Y1166333D01*
Y1165000D01*
X891346Y1168999D02*
X886014D01*
X879350Y1165000D02*
Y1172998D01*
X883348Y1168999D01*
X878017D01*
X875351Y1171665D02*
X874018Y1172998D01*
X871352D01*
X870019Y1171665D01*
Y1166333D01*
X871352Y1165000D01*
X874018D01*
X875351Y1166333D01*
Y1171665D01*
X891034Y1149055D02*
Y1154387D01*
X892367Y1155720D01*
X895033D01*
X896366Y1154387D01*
Y1149055D01*
X895033Y1147722D01*
X892367D01*
X893700Y1150388D02*
X891034Y1147722D01*
X892367D02*
X891034Y1149055D01*
X884370Y1147722D02*
Y1155720D01*
X888369Y1151721D01*
X883037D01*
X1127500Y1180498D02*
Y1172500D01*
X1123501D01*
X1122168Y1173833D01*
Y1175166D01*
X1123501Y1176499D01*
X1127500D01*
X1123501D01*
X1122168Y1177832D01*
Y1179165D01*
X1123501Y1180498D01*
X1127500D01*
X1114171Y1179165D02*
X1115504Y1180498D01*
X1118170D01*
X1119503Y1179165D01*
Y1173833D01*
X1118170Y1172500D01*
X1115504D01*
X1114171Y1173833D01*
X1111505Y1179165D02*
X1110172Y1180498D01*
X1107506D01*
X1106174Y1179165D01*
Y1177832D01*
X1107506Y1176499D01*
X1106174Y1175166D01*
Y1173833D01*
X1107506Y1172500D01*
X1110172D01*
X1111505Y1173833D01*
Y1175166D01*
X1110172Y1176499D01*
X1111505Y1177832D01*
Y1179165D01*
X1110172Y1176499D02*
X1107506D01*
X1103508Y1172500D02*
X1100842D01*
X1102175D01*
Y1180498D01*
X1103508Y1179165D01*
X1096843Y1180498D02*
X1091512D01*
Y1179165D01*
X1096843Y1173833D01*
Y1172500D01*
X1088846Y1176499D02*
X1083514D01*
X1076850Y1172500D02*
Y1180498D01*
X1080848Y1176499D01*
X1075517D01*
X1072851Y1179165D02*
X1071518Y1180498D01*
X1068852D01*
X1067519Y1179165D01*
Y1173833D01*
X1068852Y1172500D01*
X1071518D01*
X1072851Y1173833D01*
Y1179165D01*
X1093980Y1149055D02*
Y1154387D01*
X1095313Y1155720D01*
X1097979D01*
X1099312Y1154387D01*
Y1149055D01*
X1097979Y1147722D01*
X1095313D01*
X1096646Y1150388D02*
X1093980Y1147722D01*
X1095313D02*
X1093980Y1149055D01*
X1091315Y1154387D02*
X1089982Y1155720D01*
X1087316D01*
X1085983Y1154387D01*
Y1153054D01*
X1087316Y1151721D01*
X1088649D01*
X1087316D01*
X1085983Y1150388D01*
Y1149055D01*
X1087316Y1147722D01*
X1089982D01*
X1091315Y1149055D01*
X930000Y1172998D02*
Y1165000D01*
X926001D01*
X924668Y1166333D01*
Y1167666D01*
X926001Y1168999D01*
X930000D01*
X926001D01*
X924668Y1170332D01*
Y1171665D01*
X926001Y1172998D01*
X930000D01*
X916671Y1171665D02*
X918004Y1172998D01*
X920670D01*
X922003Y1171665D01*
Y1166333D01*
X920670Y1165000D01*
X918004D01*
X916671Y1166333D01*
X914005Y1171665D02*
X912672Y1172998D01*
X910006D01*
X908674Y1171665D01*
Y1170332D01*
X910006Y1168999D01*
X908674Y1167666D01*
Y1166333D01*
X910006Y1165000D01*
X912672D01*
X914005Y1166333D01*
Y1167666D01*
X912672Y1168999D01*
X914005Y1170332D01*
Y1171665D01*
X912672Y1168999D02*
X910006D01*
X906008Y1165000D02*
X903342D01*
X904675D01*
Y1172998D01*
X906008Y1171665D01*
X899343Y1172998D02*
X894012D01*
Y1171665D01*
X899343Y1166333D01*
Y1165000D01*
X891346Y1168999D02*
X886014D01*
X879350Y1165000D02*
Y1172998D01*
X883348Y1168999D01*
X878017D01*
X875351Y1171665D02*
X874018Y1172998D01*
X871352D01*
X870019Y1171665D01*
Y1166333D01*
X871352Y1165000D01*
X874018D01*
X875351Y1166333D01*
Y1171665D01*
X890526Y1189949D02*
Y1195281D01*
X891859Y1196614D01*
X894525D01*
X895858Y1195281D01*
Y1189949D01*
X894525Y1188616D01*
X891859D01*
X893192Y1191282D02*
X890526Y1188616D01*
X891859D02*
X890526Y1189949D01*
X882529Y1188616D02*
X887861D01*
X882529Y1193948D01*
Y1195281D01*
X883862Y1196614D01*
X886528D01*
X887861Y1195281D01*
X1127500Y1180498D02*
Y1172500D01*
X1123501D01*
X1122168Y1173833D01*
Y1175166D01*
X1123501Y1176499D01*
X1127500D01*
X1123501D01*
X1122168Y1177832D01*
Y1179165D01*
X1123501Y1180498D01*
X1127500D01*
X1114171Y1179165D02*
X1115504Y1180498D01*
X1118170D01*
X1119503Y1179165D01*
Y1173833D01*
X1118170Y1172500D01*
X1115504D01*
X1114171Y1173833D01*
X1111505Y1179165D02*
X1110172Y1180498D01*
X1107506D01*
X1106174Y1179165D01*
Y1177832D01*
X1107506Y1176499D01*
X1106174Y1175166D01*
Y1173833D01*
X1107506Y1172500D01*
X1110172D01*
X1111505Y1173833D01*
Y1175166D01*
X1110172Y1176499D01*
X1111505Y1177832D01*
Y1179165D01*
X1110172Y1176499D02*
X1107506D01*
X1103508Y1172500D02*
X1100842D01*
X1102175D01*
Y1180498D01*
X1103508Y1179165D01*
X1096843Y1180498D02*
X1091512D01*
Y1179165D01*
X1096843Y1173833D01*
Y1172500D01*
X1088846Y1176499D02*
X1083514D01*
X1076850Y1172500D02*
Y1180498D01*
X1080848Y1176499D01*
X1075517D01*
X1072851Y1179165D02*
X1071518Y1180498D01*
X1068852D01*
X1067519Y1179165D01*
Y1173833D01*
X1068852Y1172500D01*
X1071518D01*
X1072851Y1173833D01*
Y1179165D01*
X1093980Y1189949D02*
Y1195281D01*
X1095313Y1196614D01*
X1097979D01*
X1099312Y1195281D01*
Y1189949D01*
X1097979Y1188616D01*
X1095313D01*
X1096646Y1191282D02*
X1093980Y1188616D01*
X1095313D02*
X1093980Y1189949D01*
X1091315Y1188616D02*
X1088649D01*
X1089982D01*
Y1196614D01*
X1091315Y1195281D01*
X847000Y326000D02*
X844334D01*
X845667D01*
Y333998D01*
X847000Y332665D01*
X840335Y331332D02*
Y327333D01*
X839003Y326000D01*
X835004D01*
Y331332D01*
X827007Y333998D02*
X832338D01*
Y329999D01*
X829672D01*
X832338D01*
Y326000D01*
X871668Y332665D02*
X873001Y333998D01*
X875667D01*
X877000Y332665D01*
Y327333D01*
X875667Y326000D01*
X873001D01*
X871668Y327333D01*
X863671Y333998D02*
X866337Y332665D01*
X869003Y329999D01*
Y327333D01*
X867670Y326000D01*
X865004D01*
X863671Y327333D01*
Y328666D01*
X865004Y329999D01*
X869003D01*
X861005Y332665D02*
X859672Y333998D01*
X857007D01*
X855674Y332665D01*
Y331332D01*
X857007Y329999D01*
X858339D01*
X857007D01*
X855674Y328666D01*
Y327333D01*
X857007Y326000D01*
X859672D01*
X861005Y327333D01*
X847000Y309500D02*
X844334D01*
X845667D01*
Y317498D01*
X847000Y316165D01*
X840335D02*
X839003Y317498D01*
X836337D01*
X835004Y316165D01*
Y310833D01*
X836337Y309500D01*
X839003D01*
X840335Y310833D01*
Y316165D01*
X832338D02*
X831005Y317498D01*
X828339D01*
X827007Y316165D01*
Y310833D01*
X828339Y309500D01*
X831005D01*
X832338Y310833D01*
Y316165D01*
X824341Y309500D02*
Y314832D01*
X820342D01*
X819009Y313499D01*
Y309500D01*
X811012Y317498D02*
X816343D01*
Y313499D01*
X813677D01*
X816343D01*
Y309500D01*
X871668Y316165D02*
X873001Y317498D01*
X875667D01*
X877000Y316165D01*
Y310833D01*
X875667Y309500D01*
X873001D01*
X871668Y310833D01*
X863671Y317498D02*
X869003D01*
Y313499D01*
X866337Y314832D01*
X865004D01*
X863671Y313499D01*
Y310833D01*
X865004Y309500D01*
X867670D01*
X869003Y310833D01*
X855674Y317498D02*
X861005D01*
Y313499D01*
X858339Y314832D01*
X857007D01*
X855674Y313499D01*
Y310833D01*
X857007Y309500D01*
X859672D01*
X861005Y310833D01*
X1191250Y968500D02*
Y971166D01*
Y969833D01*
X1199247D01*
X1197915Y968500D01*
Y975165D02*
X1199247Y976498D01*
Y979163D01*
X1197915Y980496D01*
X1192583D01*
X1191250Y979163D01*
Y976498D01*
X1192583Y975165D01*
X1197915D01*
X1196582Y983162D02*
X1192583D01*
X1191250Y984495D01*
Y988494D01*
X1196582D01*
X1199247Y996491D02*
Y991160D01*
X1195249D01*
Y993825D01*
Y991160D01*
X1191250D01*
X1197915Y943832D02*
X1199247Y942499D01*
Y939833D01*
X1197915Y938500D01*
X1192583D01*
X1191250Y939833D01*
Y942499D01*
X1192583Y943832D01*
X1199247Y951829D02*
Y946497D01*
X1195249D01*
X1196582Y949163D01*
Y950496D01*
X1195249Y951829D01*
X1192583D01*
X1191250Y950496D01*
Y947831D01*
X1192583Y946497D01*
X1191250Y959827D02*
Y954495D01*
X1196582Y959827D01*
X1197915D01*
X1199247Y958494D01*
Y955828D01*
X1197915Y954495D01*
X845000Y950000D02*
X842334D01*
X843667D01*
Y957998D01*
X845000Y956665D01*
X838335D02*
X837003Y957998D01*
X834337D01*
X833004Y956665D01*
Y951333D01*
X834337Y950000D01*
X837003D01*
X838335Y951333D01*
Y956665D01*
X830338Y955332D02*
Y951333D01*
X829005Y950000D01*
X825006D01*
Y955332D01*
X817009Y957998D02*
X822341D01*
Y953999D01*
X819675D01*
X822341D01*
Y950000D01*
X837168Y944165D02*
X838501Y945498D01*
X841167D01*
X842500Y944165D01*
Y938833D01*
X841167Y937500D01*
X838501D01*
X837168Y938833D01*
X829171Y945498D02*
X834503D01*
Y941499D01*
X831837Y942832D01*
X830504D01*
X829171Y941499D01*
Y938833D01*
X830504Y937500D01*
X833170D01*
X834503Y938833D01*
X826505Y937500D02*
X823839D01*
X825172D01*
Y945498D01*
X826505Y944165D01*
X1529751Y984750D02*
Y992747D01*
X1533750Y988749D01*
X1528418D01*
X1525753Y984750D02*
Y986083D01*
X1524420D01*
Y984750D01*
X1525753D01*
X1519088Y992747D02*
X1513757D01*
Y991414D01*
X1519088Y986083D01*
Y984750D01*
X1511091Y990082D02*
Y986083D01*
X1509758Y984750D01*
X1505759D01*
Y990082D01*
X1497762Y992747D02*
X1503093D01*
Y988749D01*
X1500427D01*
X1503093D01*
Y984750D01*
X1513418Y1003914D02*
X1514751Y1005247D01*
X1517417D01*
X1518750Y1003914D01*
Y998583D01*
X1517417Y997250D01*
X1514751D01*
X1513418Y998583D01*
X1506754Y997250D02*
Y1005247D01*
X1510753Y1001249D01*
X1505421D01*
X1502755Y1003914D02*
X1501422Y1005247D01*
X1498757D01*
X1497424Y1003914D01*
Y1002582D01*
X1498757Y1001249D01*
X1500089D01*
X1498757D01*
X1497424Y999916D01*
Y998583D01*
X1498757Y997250D01*
X1501422D01*
X1502755Y998583D01*
X1147500Y525000D02*
X1144834D01*
X1146167D01*
Y532997D01*
X1147500Y531665D01*
X1140835D02*
X1139503Y532997D01*
X1136837D01*
X1135504Y531665D01*
Y530332D01*
X1136837Y528999D01*
X1135504Y527666D01*
Y526333D01*
X1136837Y525000D01*
X1139503D01*
X1140835Y526333D01*
Y527666D01*
X1139503Y528999D01*
X1140835Y530332D01*
Y531665D01*
X1139503Y528999D02*
X1136837D01*
X1132838Y522334D02*
Y530332D01*
X1128839D01*
X1127506Y528999D01*
Y526333D01*
X1128839Y525000D01*
X1132838D01*
X1119509Y532997D02*
X1124841D01*
Y528999D01*
X1122175D01*
X1124841D01*
Y525000D01*
X1139668Y554165D02*
X1141001Y555497D01*
X1143667D01*
X1145000Y554165D01*
Y548833D01*
X1143667Y547500D01*
X1141001D01*
X1139668Y548833D01*
X1133004Y547500D02*
Y555497D01*
X1137003Y551499D01*
X1131671D01*
X1123674Y547500D02*
X1129005D01*
X1123674Y552832D01*
Y554165D01*
X1125006Y555497D01*
X1127672D01*
X1129005Y554165D01*
X1147500Y696500D02*
X1144834D01*
X1146167D01*
Y704497D01*
X1147500Y703165D01*
X1140835D02*
X1139503Y704497D01*
X1136837D01*
X1135504Y703165D01*
Y701832D01*
X1136837Y700499D01*
X1135504Y699166D01*
Y697833D01*
X1136837Y696500D01*
X1139503D01*
X1140835Y697833D01*
Y699166D01*
X1139503Y700499D01*
X1140835Y701832D01*
Y703165D01*
X1139503Y700499D02*
X1136837D01*
X1132838Y693834D02*
Y701832D01*
X1128839D01*
X1127506Y700499D01*
Y697833D01*
X1128839Y696500D01*
X1132838D01*
X1119509Y704497D02*
X1124841D01*
Y700499D01*
X1122175D01*
X1124841D01*
Y696500D01*
X1139668Y725665D02*
X1141001Y726997D01*
X1143667D01*
X1145000Y725665D01*
Y720333D01*
X1143667Y719000D01*
X1141001D01*
X1139668Y720333D01*
X1133004Y719000D02*
Y726997D01*
X1137003Y722999D01*
X1131671D01*
X1129005Y719000D02*
X1126339D01*
X1127672D01*
Y726997D01*
X1129005Y725665D01*
X900424Y486748D02*
X897758D01*
X899091D01*
Y494745D01*
X900424Y493412D01*
X893759D02*
X892426Y494745D01*
X889760D01*
X888428Y493412D01*
Y488080D01*
X889760Y486748D01*
X892426D01*
X893759Y488080D01*
Y493412D01*
X885762D02*
X884429Y494745D01*
X881763D01*
X880430Y493412D01*
Y488080D01*
X881763Y486748D01*
X884429D01*
X885762Y488080D01*
Y493412D01*
X877764Y486748D02*
Y492079D01*
X873765D01*
X872433Y490746D01*
Y486748D01*
X864435Y494745D02*
X869767D01*
Y490746D01*
X867101D01*
X869767D01*
Y486748D01*
X898169Y506565D02*
X899501Y507897D01*
X902167D01*
X903500Y506565D01*
Y501233D01*
X902167Y499900D01*
X899501D01*
X898169Y501233D01*
X895503Y506565D02*
X894170Y507897D01*
X891504D01*
X890171Y506565D01*
Y505232D01*
X891504Y503899D01*
X892837D01*
X891504D01*
X890171Y502566D01*
Y501233D01*
X891504Y499900D01*
X894170D01*
X895503Y501233D01*
X887505Y506565D02*
X886172Y507897D01*
X883507D01*
X882174Y506565D01*
Y501233D01*
X883507Y499900D01*
X886172D01*
X887505Y501233D01*
Y506565D01*
X1082500Y1022500D02*
X1079834D01*
X1081167D01*
Y1030498D01*
X1082500Y1029165D01*
X1075835D02*
X1074503Y1030498D01*
X1071837D01*
X1070504Y1029165D01*
Y1023833D01*
X1071837Y1022500D01*
X1074503D01*
X1075835Y1023833D01*
Y1029165D01*
X1067838D02*
X1066505Y1030498D01*
X1063839D01*
X1062506Y1029165D01*
Y1023833D01*
X1063839Y1022500D01*
X1066505D01*
X1067838Y1023833D01*
Y1029165D01*
X1059841Y1022500D02*
Y1027832D01*
X1055842D01*
X1054509Y1026499D01*
Y1022500D01*
X1046512Y1030498D02*
X1051843D01*
Y1026499D01*
X1049177D01*
X1051843D01*
Y1022500D01*
X1077168Y1041665D02*
X1078501Y1042998D01*
X1081167D01*
X1082500Y1041665D01*
Y1036333D01*
X1081167Y1035000D01*
X1078501D01*
X1077168Y1036333D01*
X1069171Y1035000D02*
X1074503D01*
X1069171Y1040332D01*
Y1041665D01*
X1070504Y1042998D01*
X1073170D01*
X1074503Y1041665D01*
X1066505D02*
X1065172Y1042998D01*
X1062506D01*
X1061174Y1041665D01*
Y1040332D01*
X1062506Y1038999D01*
X1061174Y1037666D01*
Y1036333D01*
X1062506Y1035000D01*
X1065172D01*
X1066505Y1036333D01*
Y1037666D01*
X1065172Y1038999D01*
X1066505Y1040332D01*
Y1041665D01*
X1065172Y1038999D02*
X1062506D01*
X955000Y752500D02*
X952334D01*
X953667D01*
Y760498D01*
X955000Y759165D01*
X948335D02*
X947003Y760498D01*
X944337D01*
X943004Y759165D01*
Y753833D01*
X944337Y752500D01*
X947003D01*
X948335Y753833D01*
Y759165D01*
X940338D02*
X939005Y760498D01*
X936339D01*
X935006Y759165D01*
Y753833D01*
X936339Y752500D01*
X939005D01*
X940338Y753833D01*
Y759165D01*
X932341Y752500D02*
Y757832D01*
X928342D01*
X927009Y756499D01*
Y752500D01*
X919012Y760498D02*
X924343D01*
Y756499D01*
X921677D01*
X924343D01*
Y752500D01*
X949668Y771665D02*
X951001Y772998D01*
X953667D01*
X955000Y771665D01*
Y766333D01*
X953667Y765000D01*
X951001D01*
X949668Y766333D01*
X941671Y765000D02*
X947003D01*
X941671Y770332D01*
Y771665D01*
X943004Y772998D01*
X945670D01*
X947003Y771665D01*
X933674Y772998D02*
X936339Y771665D01*
X939005Y768999D01*
Y766333D01*
X937672Y765000D01*
X935006D01*
X933674Y766333D01*
Y767666D01*
X935006Y768999D01*
X939005D01*
X687500Y377500D02*
X684834D01*
X686167D01*
Y385498D01*
X687500Y384165D01*
X680835D02*
X679503Y385498D01*
X676837D01*
X675504Y384165D01*
Y378833D01*
X676837Y377500D01*
X679503D01*
X680835Y378833D01*
Y384165D01*
X672838D02*
X671505Y385498D01*
X668839D01*
X667506Y384165D01*
Y378833D01*
X668839Y377500D01*
X671505D01*
X672838Y378833D01*
Y384165D01*
X664841Y377500D02*
Y382832D01*
X660842D01*
X659509Y381499D01*
Y377500D01*
X651512Y385498D02*
X656843D01*
Y381499D01*
X654177D01*
X656843D01*
Y377500D01*
X674668Y371665D02*
X676001Y372998D01*
X678667D01*
X680000Y371665D01*
Y366333D01*
X678667Y365000D01*
X676001D01*
X674668Y366333D01*
X666671Y365000D02*
X672003D01*
X666671Y370332D01*
Y371665D01*
X668004Y372998D01*
X670670D01*
X672003Y371665D01*
X658674Y372998D02*
X664005D01*
Y368999D01*
X661339Y370332D01*
X660006D01*
X658674Y368999D01*
Y366333D01*
X660006Y365000D01*
X662672D01*
X664005Y366333D01*
X1262500Y330000D02*
X1259834D01*
X1261167D01*
Y337998D01*
X1262500Y336665D01*
X1255835D02*
X1254503Y337998D01*
X1251837D01*
X1250504Y336665D01*
Y331333D01*
X1251837Y330000D01*
X1254503D01*
X1255835Y331333D01*
Y336665D01*
X1247838D02*
X1246505Y337998D01*
X1243839D01*
X1242506Y336665D01*
Y331333D01*
X1243839Y330000D01*
X1246505D01*
X1247838Y331333D01*
Y336665D01*
X1239841Y330000D02*
Y335332D01*
X1235842D01*
X1234509Y333999D01*
Y330000D01*
X1226512Y337998D02*
X1231843D01*
Y333999D01*
X1229177D01*
X1231843D01*
Y330000D01*
X1257168Y349165D02*
X1258501Y350498D01*
X1261167D01*
X1262500Y349165D01*
Y343833D01*
X1261167Y342500D01*
X1258501D01*
X1257168Y343833D01*
X1249171Y342500D02*
X1254503D01*
X1249171Y347832D01*
Y349165D01*
X1250504Y350498D01*
X1253170D01*
X1254503Y349165D01*
X1241174Y342500D02*
X1246505D01*
X1241174Y347832D01*
Y349165D01*
X1242506Y350498D01*
X1245172D01*
X1246505Y349165D01*
X1368501Y340000D02*
Y347998D01*
X1372500Y343999D01*
X1367168D01*
X1364503Y340000D02*
Y341333D01*
X1363170D01*
Y340000D01*
X1364503D01*
X1357838Y347998D02*
X1352507D01*
Y346665D01*
X1357838Y341333D01*
Y340000D01*
X1349841D02*
Y345332D01*
X1345842D01*
X1344509Y343999D01*
Y340000D01*
X1336512Y347998D02*
X1341843D01*
Y343999D01*
X1339177D01*
X1341843D01*
Y340000D01*
X1349668Y359165D02*
X1351001Y360498D01*
X1353667D01*
X1355000Y359165D01*
Y353833D01*
X1353667Y352500D01*
X1351001D01*
X1349668Y353833D01*
X1341671Y352500D02*
X1347003D01*
X1341671Y357832D01*
Y359165D01*
X1343004Y360498D01*
X1345670D01*
X1347003Y359165D01*
X1339005Y352500D02*
X1336339D01*
X1337672D01*
Y360498D01*
X1339005Y359165D01*
X773501Y340000D02*
Y347998D01*
X777500Y343999D01*
X772168D01*
X769503Y340000D02*
Y341333D01*
X768170D01*
Y340000D01*
X769503D01*
X762838Y347998D02*
X757506D01*
Y346665D01*
X762838Y341333D01*
Y340000D01*
X754841D02*
Y345332D01*
X750842D01*
X749509Y343999D01*
Y340000D01*
X741512Y347998D02*
X746843D01*
Y343999D01*
X744177D01*
X746843D01*
Y340000D01*
X757168Y359165D02*
X758501Y360498D01*
X761167D01*
X762500Y359165D01*
Y353833D01*
X761167Y352500D01*
X758501D01*
X757168Y353833D01*
X749171Y352500D02*
X754503D01*
X749171Y357832D01*
Y359165D01*
X750504Y360498D01*
X753170D01*
X754503Y359165D01*
X746505D02*
X745172Y360498D01*
X742506D01*
X741174Y359165D01*
Y353833D01*
X742506Y352500D01*
X745172D01*
X746505Y353833D01*
Y359165D01*
X1381001Y1042500D02*
Y1050498D01*
X1385000Y1046499D01*
X1379668D01*
X1377003Y1042500D02*
Y1043833D01*
X1375670D01*
Y1042500D01*
X1377003D01*
X1370338Y1050498D02*
X1365007D01*
Y1049165D01*
X1370338Y1043833D01*
Y1042500D01*
X1362341D02*
Y1047832D01*
X1358342D01*
X1357009Y1046499D01*
Y1042500D01*
X1349012Y1050498D02*
X1354343D01*
Y1046499D01*
X1351677D01*
X1354343D01*
Y1042500D01*
X1379668Y1061665D02*
X1381001Y1062998D01*
X1383667D01*
X1385000Y1061665D01*
Y1056333D01*
X1383667Y1055000D01*
X1381001D01*
X1379668Y1056333D01*
X1377003Y1055000D02*
X1374337D01*
X1375670D01*
Y1062998D01*
X1377003Y1061665D01*
X1370338Y1056333D02*
X1369005Y1055000D01*
X1366339D01*
X1365007Y1056333D01*
Y1061665D01*
X1366339Y1062998D01*
X1369005D01*
X1370338Y1061665D01*
Y1060332D01*
X1369005Y1058999D01*
X1365007D01*
X1176001Y1150000D02*
Y1157998D01*
X1180000Y1153999D01*
X1174668D01*
X1172003Y1150000D02*
Y1151333D01*
X1170670D01*
Y1150000D01*
X1172003D01*
X1165338Y1157998D02*
X1160006D01*
Y1156665D01*
X1165338Y1151333D01*
Y1150000D01*
X1157341D02*
Y1155332D01*
X1153342D01*
X1152009Y1153999D01*
Y1150000D01*
X1144012Y1157998D02*
X1149343D01*
Y1153999D01*
X1146677D01*
X1149343D01*
Y1150000D01*
X1174668Y1169165D02*
X1176001Y1170498D01*
X1178667D01*
X1180000Y1169165D01*
Y1163833D01*
X1178667Y1162500D01*
X1176001D01*
X1174668Y1163833D01*
X1172003Y1162500D02*
X1169337D01*
X1170670D01*
Y1170498D01*
X1172003Y1169165D01*
X1165338D02*
X1164005Y1170498D01*
X1161339D01*
X1160006Y1169165D01*
Y1167832D01*
X1161339Y1166499D01*
X1160006Y1165166D01*
Y1163833D01*
X1161339Y1162500D01*
X1164005D01*
X1165338Y1163833D01*
Y1165166D01*
X1164005Y1166499D01*
X1165338Y1167832D01*
Y1169165D01*
X1164005Y1166499D02*
X1161339D01*
X948501Y1215000D02*
Y1222998D01*
X952500Y1218999D01*
X947168D01*
X944503Y1215000D02*
Y1216333D01*
X943170D01*
Y1215000D01*
X944503D01*
X937838Y1222998D02*
X932506D01*
Y1221665D01*
X937838Y1216333D01*
Y1215000D01*
X929841D02*
Y1220332D01*
X925842D01*
X924509Y1218999D01*
Y1215000D01*
X916512Y1222998D02*
X921843D01*
Y1218999D01*
X919177D01*
X921843D01*
Y1215000D01*
X947168Y1209165D02*
X948501Y1210498D01*
X951167D01*
X952500Y1209165D01*
Y1203833D01*
X951167Y1202500D01*
X948501D01*
X947168Y1203833D01*
X944503Y1202500D02*
X941837D01*
X943170D01*
Y1210498D01*
X944503Y1209165D01*
X937838Y1210498D02*
X932506D01*
Y1209165D01*
X937838Y1203833D01*
Y1202500D01*
X726751Y1136750D02*
Y1144748D01*
X730750Y1140749D01*
X725418D01*
X722753Y1136750D02*
Y1138083D01*
X721420D01*
Y1136750D01*
X722753D01*
X716088Y1144748D02*
X710757D01*
Y1143415D01*
X716088Y1138083D01*
Y1136750D01*
X708091D02*
Y1142082D01*
X704092D01*
X702759Y1140749D01*
Y1136750D01*
X694762Y1144748D02*
X700093D01*
Y1140749D01*
X697428D01*
X700093D01*
Y1136750D01*
X725418Y1155915D02*
X726751Y1157248D01*
X729417D01*
X730750Y1155915D01*
Y1150583D01*
X729417Y1149250D01*
X726751D01*
X725418Y1150583D01*
X722753Y1149250D02*
X720087D01*
X721420D01*
Y1157248D01*
X722753Y1155915D01*
X710757Y1157248D02*
X713422Y1155915D01*
X716088Y1153249D01*
Y1150583D01*
X714755Y1149250D01*
X712089D01*
X710757Y1150583D01*
Y1151916D01*
X712089Y1153249D01*
X716088D01*
X527999Y1076250D02*
Y1068253D01*
X524000Y1072251D01*
X529332D01*
X531997Y1076250D02*
Y1074917D01*
X533330D01*
Y1076250D01*
X531997D01*
X538662Y1068253D02*
X543994D01*
Y1069585D01*
X538662Y1074917D01*
Y1076250D01*
X546659D02*
Y1070918D01*
X550658D01*
X551991Y1072251D01*
Y1076250D01*
X559988Y1068253D02*
X554657D01*
Y1072251D01*
X557323D01*
X554657D01*
Y1076250D01*
X529332Y1057085D02*
X527999Y1055753D01*
X525333D01*
X524000Y1057085D01*
Y1062417D01*
X525333Y1063750D01*
X527999D01*
X529332Y1062417D01*
X531997Y1063750D02*
X534663D01*
X533330D01*
Y1055753D01*
X531997Y1057085D01*
X543994Y1055753D02*
X538662D01*
Y1059751D01*
X541328Y1058418D01*
X542661D01*
X543994Y1059751D01*
Y1062417D01*
X542661Y1063750D01*
X539995D01*
X538662Y1062417D01*
X882500Y1097500D02*
X879834D01*
X881167D01*
Y1105498D01*
X882500Y1104165D01*
X875835D02*
X874503Y1105498D01*
X871837D01*
X870504Y1104165D01*
Y1098833D01*
X871837Y1097500D01*
X874503D01*
X875835Y1098833D01*
Y1104165D01*
X867838D02*
X866505Y1105498D01*
X863839D01*
X862506Y1104165D01*
Y1098833D01*
X863839Y1097500D01*
X866505D01*
X867838Y1098833D01*
Y1104165D01*
X859841Y1097500D02*
Y1102832D01*
X855842D01*
X854509Y1101499D01*
Y1097500D01*
X846512Y1105498D02*
X851843D01*
Y1101499D01*
X849177D01*
X851843D01*
Y1097500D01*
X869668Y1094165D02*
X871001Y1095498D01*
X873667D01*
X875000Y1094165D01*
Y1088833D01*
X873667Y1087500D01*
X871001D01*
X869668Y1088833D01*
X867003Y1087500D02*
X864337D01*
X865670D01*
Y1095498D01*
X867003Y1094165D01*
X856339Y1087500D02*
Y1095498D01*
X860338Y1091499D01*
X855006D01*
X650000Y1082500D02*
X647334D01*
X648667D01*
Y1090498D01*
X650000Y1089165D01*
X643335D02*
X642003Y1090498D01*
X639337D01*
X638004Y1089165D01*
Y1083833D01*
X639337Y1082500D01*
X642003D01*
X643335Y1083833D01*
Y1089165D01*
X635338D02*
X634005Y1090498D01*
X631339D01*
X630006Y1089165D01*
Y1083833D01*
X631339Y1082500D01*
X634005D01*
X635338Y1083833D01*
Y1089165D01*
X627341Y1082500D02*
Y1087832D01*
X623342D01*
X622009Y1086499D01*
Y1082500D01*
X614012Y1090498D02*
X619343D01*
Y1086499D01*
X616677D01*
X619343D01*
Y1082500D01*
X622168Y1114165D02*
X623501Y1115498D01*
X626167D01*
X627500Y1114165D01*
Y1108833D01*
X626167Y1107500D01*
X623501D01*
X622168Y1108833D01*
X619503D02*
X618170Y1107500D01*
X615504D01*
X614171Y1108833D01*
Y1114165D01*
X615504Y1115498D01*
X618170D01*
X619503Y1114165D01*
Y1112832D01*
X618170Y1111499D01*
X614171D01*
X1495000Y1022500D02*
X1492334D01*
X1493667D01*
Y1030498D01*
X1495000Y1029165D01*
X1488336D02*
X1487003Y1030498D01*
X1484337D01*
X1483004Y1029165D01*
Y1023833D01*
X1484337Y1022500D01*
X1487003D01*
X1488336Y1023833D01*
Y1029165D01*
X1480338D02*
X1479005Y1030498D01*
X1476339D01*
X1475007Y1029165D01*
Y1023833D01*
X1476339Y1022500D01*
X1479005D01*
X1480338Y1023833D01*
Y1029165D01*
X1472341Y1022500D02*
Y1027832D01*
X1468342D01*
X1467009Y1026499D01*
Y1022500D01*
X1459012Y1030498D02*
X1464343D01*
Y1026499D01*
X1461677D01*
X1464343D01*
Y1022500D01*
X1462168Y1044165D02*
X1463501Y1045498D01*
X1466167D01*
X1467500Y1044165D01*
Y1038833D01*
X1466167Y1037500D01*
X1463501D01*
X1462168Y1038833D01*
X1459503Y1044165D02*
X1458170Y1045498D01*
X1455504D01*
X1454171Y1044165D01*
Y1042832D01*
X1455504Y1041499D01*
X1454171Y1040166D01*
Y1038833D01*
X1455504Y1037500D01*
X1458170D01*
X1459503Y1038833D01*
Y1040166D01*
X1458170Y1041499D01*
X1459503Y1042832D01*
Y1044165D01*
X1458170Y1041499D02*
X1455504D01*
X1082500Y1212500D02*
X1079834D01*
X1081167D01*
Y1220498D01*
X1082500Y1219165D01*
X1075835D02*
X1074503Y1220498D01*
X1071837D01*
X1070504Y1219165D01*
Y1213833D01*
X1071837Y1212500D01*
X1074503D01*
X1075835Y1213833D01*
Y1219165D01*
X1067838D02*
X1066505Y1220498D01*
X1063839D01*
X1062506Y1219165D01*
Y1213833D01*
X1063839Y1212500D01*
X1066505D01*
X1067838Y1213833D01*
Y1219165D01*
X1059841Y1212500D02*
Y1217832D01*
X1055842D01*
X1054509Y1216499D01*
Y1212500D01*
X1046512Y1220498D02*
X1051843D01*
Y1216499D01*
X1049177D01*
X1051843D01*
Y1212500D01*
X1054668Y1244165D02*
X1056001Y1245498D01*
X1058667D01*
X1060000Y1244165D01*
Y1238833D01*
X1058667Y1237500D01*
X1056001D01*
X1054668Y1238833D01*
X1052003Y1245498D02*
X1046671D01*
Y1244165D01*
X1052003Y1238833D01*
Y1237500D01*
X945000Y1180000D02*
X942334D01*
X943667D01*
Y1187998D01*
X945000Y1186665D01*
X938335D02*
X937003Y1187998D01*
X934337D01*
X933004Y1186665D01*
Y1181333D01*
X934337Y1180000D01*
X937003D01*
X938335Y1181333D01*
Y1186665D01*
X930338D02*
X929005Y1187998D01*
X926339D01*
X925006Y1186665D01*
Y1181333D01*
X926339Y1180000D01*
X929005D01*
X930338Y1181333D01*
Y1186665D01*
X922341Y1180000D02*
Y1185332D01*
X918342D01*
X917009Y1183999D01*
Y1180000D01*
X909012Y1187998D02*
X914343D01*
Y1183999D01*
X911677D01*
X914343D01*
Y1180000D01*
X937168Y1199165D02*
X938501Y1200498D01*
X941167D01*
X942500Y1199165D01*
Y1193833D01*
X941167Y1192500D01*
X938501D01*
X937168Y1193833D01*
X929171Y1200498D02*
X934503D01*
Y1196499D01*
X931837Y1197832D01*
X930504D01*
X929171Y1196499D01*
Y1193833D01*
X930504Y1192500D01*
X933170D01*
X934503Y1193833D01*
X1505000Y827998D02*
Y820000D01*
X1501001D01*
X1499668Y821333D01*
Y822666D01*
X1501001Y823999D01*
X1505000D01*
X1501001D01*
X1499668Y825332D01*
Y826665D01*
X1501001Y827998D01*
X1505000D01*
X1497003D02*
X1491671D01*
X1494337D01*
Y820000D01*
X1483674Y827998D02*
X1489005D01*
Y823999D01*
X1486339Y825332D01*
X1485007D01*
X1483674Y823999D01*
Y821333D01*
X1485007Y820000D01*
X1487672D01*
X1489005Y821333D01*
X1481008Y826665D02*
X1479675Y827998D01*
X1477009D01*
X1475676Y826665D01*
Y821333D01*
X1477009Y820000D01*
X1479675D01*
X1481008Y821333D01*
Y826665D01*
X1467679Y827998D02*
X1473010D01*
Y823999D01*
X1470345Y825332D01*
X1469012D01*
X1467679Y823999D01*
Y821333D01*
X1469012Y820000D01*
X1471677D01*
X1473010Y821333D01*
X1465013Y826665D02*
X1463680Y827998D01*
X1461014D01*
X1459681Y826665D01*
Y821333D01*
X1461014Y820000D01*
X1463680D01*
X1465013Y821333D01*
Y826665D01*
X1457016Y820000D02*
Y827998D01*
X1453017D01*
X1451684Y826665D01*
Y823999D01*
X1453017Y822666D01*
X1457016D01*
X1454350D02*
X1451684Y820000D01*
X1443687Y826665D02*
X1445019Y827998D01*
X1447685D01*
X1449018Y826665D01*
Y821333D01*
X1447685Y820000D01*
X1445019D01*
X1443687Y821333D01*
Y823999D01*
X1446352D01*
X1441021Y827998D02*
Y820000D01*
X1437022D01*
X1435689Y821333D01*
Y822666D01*
X1437022Y823999D01*
X1441021D01*
X1437022D01*
X1435689Y825332D01*
Y826665D01*
X1437022Y827998D01*
X1441021D01*
X1427692Y826665D02*
X1429025Y827998D01*
X1431690D01*
X1433023Y826665D01*
Y821333D01*
X1431690Y820000D01*
X1429025D01*
X1427692Y821333D01*
X1425026Y823999D02*
X1419694D01*
X1417028Y827998D02*
X1411697D01*
X1414363D01*
Y820000D01*
X1409031D02*
X1406365D01*
X1407698D01*
Y827998D01*
X1409031Y826665D01*
X1402366D02*
X1401034Y827998D01*
X1398368D01*
X1397035Y826665D01*
Y825332D01*
X1398368Y823999D01*
X1397035Y822666D01*
Y821333D01*
X1398368Y820000D01*
X1401034D01*
X1402366Y821333D01*
Y822666D01*
X1401034Y823999D01*
X1402366Y825332D01*
Y826665D01*
X1401034Y823999D02*
X1398368D01*
X1394369Y826665D02*
X1393036Y827998D01*
X1390370D01*
X1389037Y826665D01*
Y821333D01*
X1390370Y820000D01*
X1393036D01*
X1394369Y821333D01*
Y826665D01*
X1416812Y863874D02*
Y855876D01*
X1412813D01*
X1411480Y857209D01*
Y862541D01*
X1412813Y863874D01*
X1416812D01*
X1403483D02*
X1406149Y862541D01*
X1408815Y859875D01*
Y857209D01*
X1407482Y855876D01*
X1404816D01*
X1403483Y857209D01*
Y858542D01*
X1404816Y859875D01*
X1408815D01*
X607500Y827998D02*
Y820000D01*
X603501D01*
X602168Y821333D01*
Y822666D01*
X603501Y823999D01*
X607500D01*
X603501D01*
X602168Y825332D01*
Y826665D01*
X603501Y827998D01*
X607500D01*
X599503D02*
X594171D01*
X596837D01*
Y820000D01*
X586174Y827998D02*
X591505D01*
Y823999D01*
X588839Y825332D01*
X587506D01*
X586174Y823999D01*
Y821333D01*
X587506Y820000D01*
X590172D01*
X591505Y821333D01*
X583508Y826665D02*
X582175Y827998D01*
X579509D01*
X578176Y826665D01*
Y821333D01*
X579509Y820000D01*
X582175D01*
X583508Y821333D01*
Y826665D01*
X570179Y827998D02*
X575510D01*
Y823999D01*
X572845Y825332D01*
X571512D01*
X570179Y823999D01*
Y821333D01*
X571512Y820000D01*
X574177D01*
X575510Y821333D01*
X567513Y826665D02*
X566180Y827998D01*
X563514D01*
X562181Y826665D01*
Y821333D01*
X563514Y820000D01*
X566180D01*
X567513Y821333D01*
Y826665D01*
X559515Y820000D02*
Y827998D01*
X555517D01*
X554184Y826665D01*
Y823999D01*
X555517Y822666D01*
X559515D01*
X556850D02*
X554184Y820000D01*
X546186Y826665D02*
X547519Y827998D01*
X550185D01*
X551518Y826665D01*
Y821333D01*
X550185Y820000D01*
X547519D01*
X546186Y821333D01*
Y823999D01*
X548852D01*
X543521Y827998D02*
Y820000D01*
X539522D01*
X538189Y821333D01*
Y822666D01*
X539522Y823999D01*
X543521D01*
X539522D01*
X538189Y825332D01*
Y826665D01*
X539522Y827998D01*
X543521D01*
X530192Y826665D02*
X531525Y827998D01*
X534190D01*
X535523Y826665D01*
Y821333D01*
X534190Y820000D01*
X531525D01*
X530192Y821333D01*
X527526Y823999D02*
X522194D01*
X519528Y827998D02*
X514197D01*
X516863D01*
Y820000D01*
X511531D02*
X508865D01*
X510198D01*
Y827998D01*
X511531Y826665D01*
X504866D02*
X503534Y827998D01*
X500868D01*
X499535Y826665D01*
Y825332D01*
X500868Y823999D01*
X499535Y822666D01*
Y821333D01*
X500868Y820000D01*
X503534D01*
X504866Y821333D01*
Y822666D01*
X503534Y823999D01*
X504866Y825332D01*
Y826665D01*
X503534Y823999D02*
X500868D01*
X496869Y826665D02*
X495536Y827998D01*
X492870D01*
X491537Y826665D01*
Y821333D01*
X492870Y820000D01*
X495536D01*
X496869Y821333D01*
Y826665D01*
X596646Y863874D02*
Y855876D01*
X592647D01*
X591314Y857209D01*
Y862541D01*
X592647Y863874D01*
X596646D01*
X583317Y855876D02*
X588649D01*
X583317Y861208D01*
Y862541D01*
X584650Y863874D01*
X587316D01*
X588649Y862541D01*
X1448418Y1222250D02*
X1453750D01*
X1448418Y1227582D01*
Y1228914D01*
X1449751Y1230247D01*
X1452417D01*
X1453750Y1228914D01*
X1445753Y1230247D02*
X1440421D01*
Y1228914D01*
X1445753Y1223583D01*
Y1222250D01*
X1437755Y1226249D02*
X1432424D01*
X1424426Y1222250D02*
X1429758D01*
X1424426Y1227582D01*
Y1228914D01*
X1425759Y1230247D01*
X1428425D01*
X1429758Y1228914D01*
X1421760Y1222250D02*
X1419095D01*
X1420427D01*
Y1230247D01*
X1421760Y1228914D01*
X1409764D02*
X1411097Y1230247D01*
X1413763D01*
X1415096Y1228914D01*
Y1227582D01*
X1413763Y1226249D01*
X1411097D01*
X1409764Y1224916D01*
Y1223583D01*
X1411097Y1222250D01*
X1413763D01*
X1415096Y1223583D01*
X1407098Y1230247D02*
Y1223583D01*
X1405766Y1222250D01*
X1403100D01*
X1401767Y1223583D01*
Y1230247D01*
X1399101Y1222250D02*
Y1230247D01*
X1395102D01*
X1393769Y1228914D01*
Y1226249D01*
X1395102Y1224916D01*
X1399101D01*
X1396435D02*
X1393769Y1222250D01*
X1385772Y1228914D02*
X1387105Y1230247D01*
X1389771D01*
X1391104Y1228914D01*
Y1223583D01*
X1389771Y1222250D01*
X1387105D01*
X1385772Y1223583D01*
X1383106Y1222250D02*
X1377775Y1227582D01*
X1369777Y1228914D02*
X1371110Y1230247D01*
X1373776D01*
X1375109Y1228914D01*
Y1227582D01*
X1373776Y1226249D01*
X1371110D01*
X1369777Y1224916D01*
Y1223583D01*
X1371110Y1222250D01*
X1373776D01*
X1375109Y1223583D01*
X1361780Y1230247D02*
X1367111D01*
Y1226249D01*
X1364445Y1227582D01*
X1363113D01*
X1361780Y1226249D01*
Y1223583D01*
X1363113Y1222250D01*
X1365778D01*
X1367111Y1223583D01*
X1359114Y1228914D02*
X1357781Y1230247D01*
X1355115D01*
X1353782Y1228914D01*
Y1227582D01*
X1355115Y1226249D01*
X1356448D01*
X1355115D01*
X1353782Y1224916D01*
Y1223583D01*
X1355115Y1222250D01*
X1357781D01*
X1359114Y1223583D01*
X1351116Y1228914D02*
X1349784Y1230247D01*
X1347118D01*
X1345785Y1228914D01*
Y1223583D01*
X1347118Y1222250D01*
X1349784D01*
X1351116Y1223583D01*
Y1228914D01*
X1343119Y1226249D02*
X1337787D01*
X1335122Y1222250D02*
Y1227582D01*
X1332456Y1230247D01*
X1329790Y1227582D01*
Y1222250D01*
Y1226249D01*
X1335122D01*
X1327124Y1228914D02*
X1325791Y1230247D01*
X1323125D01*
X1321793Y1228914D01*
Y1227582D01*
X1323125Y1226249D01*
X1324458D01*
X1323125D01*
X1321793Y1224916D01*
Y1223583D01*
X1323125Y1222250D01*
X1325791D01*
X1327124Y1223583D01*
X1326250Y1242747D02*
Y1234750D01*
X1322251D01*
X1320918Y1236083D01*
Y1241414D01*
X1322251Y1242747D01*
X1326250D01*
X1318253Y1234750D02*
X1315587D01*
X1316920D01*
Y1242747D01*
X1318253Y1241414D01*
X1311588Y1234750D02*
X1308922D01*
X1310255D01*
Y1242747D01*
X1311588Y1241414D01*
X1647168Y1087500D02*
X1652500D01*
X1647168Y1092832D01*
Y1094165D01*
X1648501Y1095498D01*
X1651167D01*
X1652500Y1094165D01*
X1644503Y1095498D02*
X1639171D01*
Y1094165D01*
X1644503Y1088833D01*
Y1087500D01*
X1636505Y1091499D02*
X1631174D01*
X1623176Y1087500D02*
X1628508D01*
X1623176Y1092832D01*
Y1094165D01*
X1624509Y1095498D01*
X1627175D01*
X1628508Y1094165D01*
X1620510Y1087500D02*
X1617845D01*
X1619178D01*
Y1095498D01*
X1620510Y1094165D01*
X1608514D02*
X1609847Y1095498D01*
X1612513D01*
X1613846Y1094165D01*
Y1092832D01*
X1612513Y1091499D01*
X1609847D01*
X1608514Y1090166D01*
Y1088833D01*
X1609847Y1087500D01*
X1612513D01*
X1613846Y1088833D01*
X1605848Y1095498D02*
Y1088833D01*
X1604516Y1087500D01*
X1601850D01*
X1600517Y1088833D01*
Y1095498D01*
X1597851Y1087500D02*
Y1095498D01*
X1593852D01*
X1592519Y1094165D01*
Y1091499D01*
X1593852Y1090166D01*
X1597851D01*
X1595185D02*
X1592519Y1087500D01*
X1584522Y1094165D02*
X1585855Y1095498D01*
X1588521D01*
X1589854Y1094165D01*
Y1088833D01*
X1588521Y1087500D01*
X1585855D01*
X1584522Y1088833D01*
X1581856Y1087500D02*
X1576525Y1092832D01*
X1568527Y1094165D02*
X1569860Y1095498D01*
X1572526D01*
X1573859Y1094165D01*
Y1092832D01*
X1572526Y1091499D01*
X1569860D01*
X1568527Y1090166D01*
Y1088833D01*
X1569860Y1087500D01*
X1572526D01*
X1573859Y1088833D01*
X1560530Y1095498D02*
X1565861D01*
Y1091499D01*
X1563195Y1092832D01*
X1561863D01*
X1560530Y1091499D01*
Y1088833D01*
X1561863Y1087500D01*
X1564528D01*
X1565861Y1088833D01*
X1557864Y1094165D02*
X1556531Y1095498D01*
X1553865D01*
X1552532Y1094165D01*
Y1092832D01*
X1553865Y1091499D01*
X1555198D01*
X1553865D01*
X1552532Y1090166D01*
Y1088833D01*
X1553865Y1087500D01*
X1556531D01*
X1557864Y1088833D01*
X1549866Y1094165D02*
X1548534Y1095498D01*
X1545868D01*
X1544535Y1094165D01*
Y1088833D01*
X1545868Y1087500D01*
X1548534D01*
X1549866Y1088833D01*
Y1094165D01*
X1541869Y1091499D02*
X1536537D01*
X1533872Y1087500D02*
Y1092832D01*
X1531206Y1095498D01*
X1528540Y1092832D01*
Y1087500D01*
Y1091499D01*
X1533872D01*
X1525874Y1094165D02*
X1524541Y1095498D01*
X1521875D01*
X1520543Y1094165D01*
Y1092832D01*
X1521875Y1091499D01*
X1523208D01*
X1521875D01*
X1520543Y1090166D01*
Y1088833D01*
X1521875Y1087500D01*
X1524541D01*
X1525874Y1088833D01*
X1550000Y1082998D02*
Y1075000D01*
X1546001D01*
X1544668Y1076333D01*
Y1081665D01*
X1546001Y1082998D01*
X1550000D01*
X1542003Y1075000D02*
X1539337D01*
X1540670D01*
Y1082998D01*
X1542003Y1081665D01*
X1530007Y1075000D02*
X1535338D01*
X1530007Y1080332D01*
Y1081665D01*
X1531339Y1082998D01*
X1534005D01*
X1535338Y1081665D01*
X919668Y1292500D02*
X925000D01*
X919668Y1297832D01*
Y1299165D01*
X921001Y1300498D01*
X923667D01*
X925000Y1299165D01*
X917003Y1300498D02*
X911671D01*
Y1299165D01*
X917003Y1293833D01*
Y1292500D01*
X909005Y1296499D02*
X903674D01*
X895676Y1292500D02*
X901008D01*
X895676Y1297832D01*
Y1299165D01*
X897009Y1300498D01*
X899675D01*
X901008Y1299165D01*
X893010Y1292500D02*
X890344D01*
X891677D01*
Y1300498D01*
X893010Y1299165D01*
X881014D02*
X882347Y1300498D01*
X885013D01*
X886346Y1299165D01*
Y1297832D01*
X885013Y1296499D01*
X882347D01*
X881014Y1295166D01*
Y1293833D01*
X882347Y1292500D01*
X885013D01*
X886346Y1293833D01*
X878348Y1300498D02*
Y1293833D01*
X877016Y1292500D01*
X874350D01*
X873017Y1293833D01*
Y1300498D01*
X870351Y1292500D02*
Y1300498D01*
X866352D01*
X865019Y1299165D01*
Y1296499D01*
X866352Y1295166D01*
X870351D01*
X867685D02*
X865019Y1292500D01*
X857022Y1299165D02*
X858355Y1300498D01*
X861021D01*
X862354Y1299165D01*
Y1293833D01*
X861021Y1292500D01*
X858355D01*
X857022Y1293833D01*
X854356Y1292500D02*
X849025Y1297832D01*
X841027Y1299165D02*
X842360Y1300498D01*
X845026D01*
X846359Y1299165D01*
Y1297832D01*
X845026Y1296499D01*
X842360D01*
X841027Y1295166D01*
Y1293833D01*
X842360Y1292500D01*
X845026D01*
X846359Y1293833D01*
X833030Y1300498D02*
X838361D01*
Y1296499D01*
X835695Y1297832D01*
X834363D01*
X833030Y1296499D01*
Y1293833D01*
X834363Y1292500D01*
X837028D01*
X838361Y1293833D01*
X830364Y1299165D02*
X829031Y1300498D01*
X826365D01*
X825032Y1299165D01*
Y1297832D01*
X826365Y1296499D01*
X827698D01*
X826365D01*
X825032Y1295166D01*
Y1293833D01*
X826365Y1292500D01*
X829031D01*
X830364Y1293833D01*
X822366Y1299165D02*
X821034Y1300498D01*
X818368D01*
X817035Y1299165D01*
Y1293833D01*
X818368Y1292500D01*
X821034D01*
X822366Y1293833D01*
Y1299165D01*
X814369Y1296499D02*
X809037D01*
X806372Y1292500D02*
Y1297832D01*
X803706Y1300498D01*
X801040Y1297832D01*
Y1292500D01*
Y1296499D01*
X806372D01*
X798374Y1299165D02*
X797041Y1300498D01*
X794376D01*
X793043Y1299165D01*
Y1297832D01*
X794376Y1296499D01*
X795708D01*
X794376D01*
X793043Y1295166D01*
Y1293833D01*
X794376Y1292500D01*
X797041D01*
X798374Y1293833D01*
X947500Y1307998D02*
Y1300000D01*
X943501D01*
X942168Y1301333D01*
Y1306665D01*
X943501Y1307998D01*
X947500D01*
X939503Y1300000D02*
X936837D01*
X938170D01*
Y1307998D01*
X939503Y1306665D01*
X932838Y1307998D02*
X927506D01*
Y1306665D01*
X932838Y1301333D01*
Y1300000D01*
X1180918Y1312500D02*
X1186250D01*
X1180918Y1317832D01*
Y1319164D01*
X1182251Y1320497D01*
X1184917D01*
X1186250Y1319164D01*
X1178253Y1320497D02*
X1172921D01*
Y1319164D01*
X1178253Y1313833D01*
Y1312500D01*
X1170255Y1316499D02*
X1164924D01*
X1156926Y1312500D02*
X1162258D01*
X1156926Y1317832D01*
Y1319164D01*
X1158259Y1320497D01*
X1160925D01*
X1162258Y1319164D01*
X1154260Y1312500D02*
X1151594D01*
X1152927D01*
Y1320497D01*
X1154260Y1319164D01*
X1142264D02*
X1143597Y1320497D01*
X1146263D01*
X1147596Y1319164D01*
Y1317832D01*
X1146263Y1316499D01*
X1143597D01*
X1142264Y1315166D01*
Y1313833D01*
X1143597Y1312500D01*
X1146263D01*
X1147596Y1313833D01*
X1139598Y1320497D02*
Y1313833D01*
X1138266Y1312500D01*
X1135600D01*
X1134267Y1313833D01*
Y1320497D01*
X1131601Y1312500D02*
Y1320497D01*
X1127602D01*
X1126269Y1319164D01*
Y1316499D01*
X1127602Y1315166D01*
X1131601D01*
X1128935D02*
X1126269Y1312500D01*
X1118272Y1319164D02*
X1119605Y1320497D01*
X1122271D01*
X1123604Y1319164D01*
Y1313833D01*
X1122271Y1312500D01*
X1119605D01*
X1118272Y1313833D01*
X1115606Y1312500D02*
X1110275Y1317832D01*
X1102277Y1319164D02*
X1103610Y1320497D01*
X1106276D01*
X1107609Y1319164D01*
Y1317832D01*
X1106276Y1316499D01*
X1103610D01*
X1102277Y1315166D01*
Y1313833D01*
X1103610Y1312500D01*
X1106276D01*
X1107609Y1313833D01*
X1094280Y1320497D02*
X1099611D01*
Y1316499D01*
X1096945Y1317832D01*
X1095613D01*
X1094280Y1316499D01*
Y1313833D01*
X1095613Y1312500D01*
X1098278D01*
X1099611Y1313833D01*
X1091614Y1319164D02*
X1090281Y1320497D01*
X1087615D01*
X1086282Y1319164D01*
Y1317832D01*
X1087615Y1316499D01*
X1088948D01*
X1087615D01*
X1086282Y1315166D01*
Y1313833D01*
X1087615Y1312500D01*
X1090281D01*
X1091614Y1313833D01*
X1083616Y1319164D02*
X1082284Y1320497D01*
X1079618D01*
X1078285Y1319164D01*
Y1313833D01*
X1079618Y1312500D01*
X1082284D01*
X1083616Y1313833D01*
Y1319164D01*
X1075619Y1316499D02*
X1070287D01*
X1067622Y1312500D02*
Y1317832D01*
X1064956Y1320497D01*
X1062290Y1317832D01*
Y1312500D01*
Y1316499D01*
X1067622D01*
X1059624Y1319164D02*
X1058291Y1320497D01*
X1055626D01*
X1054293Y1319164D01*
Y1317832D01*
X1055626Y1316499D01*
X1056958D01*
X1055626D01*
X1054293Y1315166D01*
Y1313833D01*
X1055626Y1312500D01*
X1058291D01*
X1059624Y1313833D01*
X1071250Y1305497D02*
Y1297500D01*
X1067251D01*
X1065918Y1298833D01*
Y1304164D01*
X1067251Y1305497D01*
X1071250D01*
X1063253Y1297500D02*
X1060587D01*
X1061920D01*
Y1305497D01*
X1063253Y1304164D01*
X1056588D02*
X1055255Y1305497D01*
X1052589D01*
X1051256Y1304164D01*
Y1302832D01*
X1052589Y1301499D01*
X1051256Y1300166D01*
Y1298833D01*
X1052589Y1297500D01*
X1055255D01*
X1056588Y1298833D01*
Y1300166D01*
X1055255Y1301499D01*
X1056588Y1302832D01*
Y1304164D01*
X1055255Y1301499D02*
X1052589D01*
X885000Y1277998D02*
Y1270000D01*
X882334Y1272666D01*
X879668Y1270000D01*
Y1277998D01*
X877003Y1270000D02*
Y1277998D01*
X873004D01*
X871671Y1276665D01*
Y1273999D01*
X873004Y1272666D01*
X877003D01*
X869005Y1277998D02*
X863674D01*
Y1276665D01*
X869005Y1271333D01*
Y1270000D01*
X861008D02*
X858342D01*
X859675D01*
Y1277998D01*
X861008Y1276665D01*
X854343D02*
X853010Y1277998D01*
X850344D01*
X849012Y1276665D01*
Y1271333D01*
X850344Y1270000D01*
X853010D01*
X854343Y1271333D01*
Y1276665D01*
X842347Y1270000D02*
Y1277998D01*
X846346Y1273999D01*
X841014D01*
X833017Y1276665D02*
X834350Y1277998D01*
X837016D01*
X838348Y1276665D01*
Y1275332D01*
X837016Y1273999D01*
X834350D01*
X833017Y1272666D01*
Y1271333D01*
X834350Y1270000D01*
X837016D01*
X838348Y1271333D01*
X830351Y1270000D02*
Y1277998D01*
X826352D01*
X825019Y1276665D01*
Y1273999D01*
X826352Y1272666D01*
X830351D01*
X827685D02*
X825019Y1270000D01*
X817022Y1276665D02*
X818355Y1277998D01*
X821021D01*
X822354Y1276665D01*
Y1271333D01*
X821021Y1270000D01*
X818355D01*
X817022Y1271333D01*
X814356Y1270000D02*
X809025Y1275332D01*
X806359Y1277998D02*
Y1270000D01*
X802360D01*
X801027Y1271333D01*
Y1276665D01*
X802360Y1277998D01*
X806359D01*
X817500Y1262998D02*
Y1255000D01*
X813501D01*
X812168Y1256333D01*
Y1261665D01*
X813501Y1262998D01*
X817500D01*
X809503Y1255000D02*
X806837D01*
X808170D01*
Y1262998D01*
X809503Y1261665D01*
X802838Y1256333D02*
X801505Y1255000D01*
X798839D01*
X797506Y1256333D01*
Y1261665D01*
X798839Y1262998D01*
X801505D01*
X802838Y1261665D01*
Y1260332D01*
X801505Y1258999D01*
X797506D01*
X1207500Y1277998D02*
Y1270000D01*
X1204834Y1272666D01*
X1202168Y1270000D01*
Y1277998D01*
X1199503Y1270000D02*
Y1277998D01*
X1195504D01*
X1194171Y1276665D01*
Y1273999D01*
X1195504Y1272666D01*
X1199503D01*
X1191505Y1277998D02*
X1186174D01*
Y1276665D01*
X1191505Y1271333D01*
Y1270000D01*
X1183508D02*
X1180842D01*
X1182175D01*
Y1277998D01*
X1183508Y1276665D01*
X1176843D02*
X1175510Y1277998D01*
X1172844D01*
X1171512Y1276665D01*
Y1271333D01*
X1172844Y1270000D01*
X1175510D01*
X1176843Y1271333D01*
Y1276665D01*
X1164847Y1270000D02*
Y1277998D01*
X1168846Y1273999D01*
X1163514D01*
X1155517Y1276665D02*
X1156850Y1277998D01*
X1159516D01*
X1160848Y1276665D01*
Y1275332D01*
X1159516Y1273999D01*
X1156850D01*
X1155517Y1272666D01*
Y1271333D01*
X1156850Y1270000D01*
X1159516D01*
X1160848Y1271333D01*
X1152851Y1270000D02*
Y1277998D01*
X1148852D01*
X1147519Y1276665D01*
Y1273999D01*
X1148852Y1272666D01*
X1152851D01*
X1150185D02*
X1147519Y1270000D01*
X1139522Y1276665D02*
X1140855Y1277998D01*
X1143521D01*
X1144854Y1276665D01*
Y1271333D01*
X1143521Y1270000D01*
X1140855D01*
X1139522Y1271333D01*
X1136856Y1270000D02*
X1131525Y1275332D01*
X1128859Y1277998D02*
Y1270000D01*
X1124860D01*
X1123527Y1271333D01*
Y1276665D01*
X1124860Y1277998D01*
X1128859D01*
X1202500Y1265498D02*
Y1257500D01*
X1198501D01*
X1197168Y1258833D01*
Y1264165D01*
X1198501Y1265498D01*
X1202500D01*
X1189171Y1257500D02*
X1194503D01*
X1189171Y1262832D01*
Y1264165D01*
X1190504Y1265498D01*
X1193170D01*
X1194503Y1264165D01*
X1186505D02*
X1185172Y1265498D01*
X1182506D01*
X1181174Y1264165D01*
Y1258833D01*
X1182506Y1257500D01*
X1185172D01*
X1186505Y1258833D01*
Y1264165D01*
X636918Y230250D02*
X642250D01*
X636918Y235582D01*
Y236915D01*
X638251Y238248D01*
X640917D01*
X642250Y236915D01*
X634253Y238248D02*
X628921D01*
Y236915D01*
X634253Y231583D01*
Y230250D01*
X626255Y234249D02*
X620924D01*
X612926Y230250D02*
X618258D01*
X612926Y235582D01*
Y236915D01*
X614259Y238248D01*
X616925D01*
X618258Y236915D01*
X610260Y230250D02*
X607594D01*
X608927D01*
Y238248D01*
X610260Y236915D01*
X598264D02*
X599597Y238248D01*
X602263D01*
X603596Y236915D01*
Y235582D01*
X602263Y234249D01*
X599597D01*
X598264Y232916D01*
Y231583D01*
X599597Y230250D01*
X602263D01*
X603596Y231583D01*
X595598Y238248D02*
Y231583D01*
X594266Y230250D01*
X591600D01*
X590267Y231583D01*
Y238248D01*
X587601Y230250D02*
Y238248D01*
X583602D01*
X582269Y236915D01*
Y234249D01*
X583602Y232916D01*
X587601D01*
X584935D02*
X582269Y230250D01*
X574272Y236915D02*
X575605Y238248D01*
X578271D01*
X579604Y236915D01*
Y231583D01*
X578271Y230250D01*
X575605D01*
X574272Y231583D01*
X571606Y230250D02*
X566274Y235582D01*
X558277Y236915D02*
X559610Y238248D01*
X562276D01*
X563609Y236915D01*
Y235582D01*
X562276Y234249D01*
X559610D01*
X558277Y232916D01*
Y231583D01*
X559610Y230250D01*
X562276D01*
X563609Y231583D01*
X550280Y238248D02*
X555611D01*
Y234249D01*
X552946Y235582D01*
X551613D01*
X550280Y234249D01*
Y231583D01*
X551613Y230250D01*
X554278D01*
X555611Y231583D01*
X547614Y236915D02*
X546281Y238248D01*
X543615D01*
X542282Y236915D01*
Y235582D01*
X543615Y234249D01*
X544948D01*
X543615D01*
X542282Y232916D01*
Y231583D01*
X543615Y230250D01*
X546281D01*
X547614Y231583D01*
X539617Y236915D02*
X538284Y238248D01*
X535618D01*
X534285Y236915D01*
Y231583D01*
X535618Y230250D01*
X538284D01*
X539617Y231583D01*
Y236915D01*
X531619Y234249D02*
X526287D01*
X523622Y230250D02*
Y235582D01*
X520956Y238248D01*
X518290Y235582D01*
Y230250D01*
Y234249D01*
X523622D01*
X515624Y236915D02*
X514291Y238248D01*
X511626D01*
X510293Y236915D01*
Y235582D01*
X511626Y234249D01*
X512958D01*
X511626D01*
X510293Y232916D01*
Y231583D01*
X511626Y230250D01*
X514291D01*
X515624Y231583D01*
X643000Y263998D02*
Y256000D01*
X639001D01*
X637668Y257333D01*
Y262665D01*
X639001Y263998D01*
X643000D01*
X629671Y256000D02*
X635003D01*
X629671Y261332D01*
Y262665D01*
X631004Y263998D01*
X633670D01*
X635003Y262665D01*
X621674Y263998D02*
X627005D01*
Y259999D01*
X624339Y261332D01*
X623007D01*
X621674Y259999D01*
Y257333D01*
X623007Y256000D01*
X625672D01*
X627005Y257333D01*
X1427168Y227250D02*
X1432500D01*
X1427168Y232582D01*
Y233915D01*
X1428501Y235248D01*
X1431167D01*
X1432500Y233915D01*
X1424503Y235248D02*
X1419171D01*
Y233915D01*
X1424503Y228583D01*
Y227250D01*
X1416505Y231249D02*
X1411174D01*
X1403176Y227250D02*
X1408508D01*
X1403176Y232582D01*
Y233915D01*
X1404509Y235248D01*
X1407175D01*
X1408508Y233915D01*
X1400510Y227250D02*
X1397845D01*
X1399177D01*
Y235248D01*
X1400510Y233915D01*
X1388514D02*
X1389847Y235248D01*
X1392513D01*
X1393846Y233915D01*
Y232582D01*
X1392513Y231249D01*
X1389847D01*
X1388514Y229916D01*
Y228583D01*
X1389847Y227250D01*
X1392513D01*
X1393846Y228583D01*
X1385848Y235248D02*
Y228583D01*
X1384516Y227250D01*
X1381850D01*
X1380517Y228583D01*
Y235248D01*
X1377851Y227250D02*
Y235248D01*
X1373852D01*
X1372519Y233915D01*
Y231249D01*
X1373852Y229916D01*
X1377851D01*
X1375185D02*
X1372519Y227250D01*
X1364522Y233915D02*
X1365855Y235248D01*
X1368521D01*
X1369854Y233915D01*
Y228583D01*
X1368521Y227250D01*
X1365855D01*
X1364522Y228583D01*
X1361856Y227250D02*
X1356525Y232582D01*
X1348527Y233915D02*
X1349860Y235248D01*
X1352526D01*
X1353859Y233915D01*
Y232582D01*
X1352526Y231249D01*
X1349860D01*
X1348527Y229916D01*
Y228583D01*
X1349860Y227250D01*
X1352526D01*
X1353859Y228583D01*
X1340530Y235248D02*
X1345861D01*
Y231249D01*
X1343195Y232582D01*
X1341863D01*
X1340530Y231249D01*
Y228583D01*
X1341863Y227250D01*
X1344528D01*
X1345861Y228583D01*
X1337864Y233915D02*
X1336531Y235248D01*
X1333865D01*
X1332532Y233915D01*
Y232582D01*
X1333865Y231249D01*
X1335198D01*
X1333865D01*
X1332532Y229916D01*
Y228583D01*
X1333865Y227250D01*
X1336531D01*
X1337864Y228583D01*
X1329866Y233915D02*
X1328534Y235248D01*
X1325868D01*
X1324535Y233915D01*
Y228583D01*
X1325868Y227250D01*
X1328534D01*
X1329866Y228583D01*
Y233915D01*
X1321869Y231249D02*
X1316537D01*
X1313872Y227250D02*
Y232582D01*
X1311206Y235248D01*
X1308540Y232582D01*
Y227250D01*
Y231249D01*
X1313872D01*
X1305874Y233915D02*
X1304541Y235248D01*
X1301875D01*
X1300543Y233915D01*
Y232582D01*
X1301875Y231249D01*
X1303208D01*
X1301875D01*
X1300543Y229916D01*
Y228583D01*
X1301875Y227250D01*
X1304541D01*
X1305874Y228583D01*
X1385000Y262748D02*
Y254750D01*
X1381001D01*
X1379668Y256083D01*
Y261415D01*
X1381001Y262748D01*
X1385000D01*
X1371671Y254750D02*
X1377003D01*
X1371671Y260082D01*
Y261415D01*
X1373004Y262748D01*
X1375670D01*
X1377003Y261415D01*
X1363674Y262748D02*
X1366339Y261415D01*
X1369005Y258749D01*
Y256083D01*
X1367672Y254750D01*
X1365007D01*
X1363674Y256083D01*
Y257416D01*
X1365007Y258749D01*
X1369005D01*
X1140206Y1236238D02*
X1137540D01*
X1138873D01*
Y1228240D01*
X1140206D01*
X1137540D01*
X1133541Y1236238D02*
X1128210D01*
X1130876D01*
Y1228240D01*
X1125544D02*
Y1236238D01*
X1121545D01*
X1120212Y1234905D01*
Y1232239D01*
X1121545Y1230906D01*
X1125544D01*
X1122878D02*
X1120212Y1228240D01*
X1117547Y1229573D02*
X1116214Y1228240D01*
X1113548D01*
X1112215Y1229573D01*
Y1234905D01*
X1113548Y1236238D01*
X1116214D01*
X1117547Y1234905D01*
Y1233572D01*
X1116214Y1232239D01*
X1112215D01*
X1109549Y1229573D02*
X1108216Y1228240D01*
X1105551D01*
X1104218Y1229573D01*
Y1234905D01*
X1105551Y1236238D01*
X1108216D01*
X1109549Y1234905D01*
Y1233572D01*
X1108216Y1232239D01*
X1104218D01*
X1101552Y1234905D02*
X1100219Y1236238D01*
X1097553D01*
X1096220Y1234905D01*
Y1229573D01*
X1097553Y1228240D01*
X1100219D01*
X1101552Y1229573D01*
Y1234905D01*
X1093554Y1229573D02*
X1092222Y1228240D01*
X1089556D01*
X1088223Y1229573D01*
Y1234905D01*
X1089556Y1236238D01*
X1092222D01*
X1093554Y1234905D01*
Y1233572D01*
X1092222Y1232239D01*
X1088223D01*
X1120902Y1252494D02*
Y1245829D01*
X1119569Y1244496D01*
X1116903D01*
X1115570Y1245829D01*
Y1252494D01*
X1107573Y1244496D02*
X1112905D01*
X1107573Y1249828D01*
Y1251161D01*
X1108906Y1252494D01*
X1111572D01*
X1112905Y1251161D01*
X911352Y1236746D02*
X908686D01*
X910019D01*
Y1228748D01*
X911352D01*
X908686D01*
X904688Y1236746D02*
X899356D01*
X902022D01*
Y1228748D01*
X896690D02*
Y1236746D01*
X892691D01*
X891358Y1235413D01*
Y1232747D01*
X892691Y1231414D01*
X896690D01*
X894024D02*
X891358Y1228748D01*
X888693Y1230081D02*
X887360Y1228748D01*
X884694D01*
X883361Y1230081D01*
Y1235413D01*
X884694Y1236746D01*
X887360D01*
X888693Y1235413D01*
Y1234080D01*
X887360Y1232747D01*
X883361D01*
X880695Y1230081D02*
X879362Y1228748D01*
X876696D01*
X875364Y1230081D01*
Y1235413D01*
X876696Y1236746D01*
X879362D01*
X880695Y1235413D01*
Y1234080D01*
X879362Y1232747D01*
X875364D01*
X872698Y1235413D02*
X871365Y1236746D01*
X868699D01*
X867366Y1235413D01*
Y1230081D01*
X868699Y1228748D01*
X871365D01*
X872698Y1230081D01*
Y1235413D01*
X864700Y1230081D02*
X863367Y1228748D01*
X860702D01*
X859369Y1230081D01*
Y1235413D01*
X860702Y1236746D01*
X863367D01*
X864700Y1235413D01*
Y1234080D01*
X863367Y1232747D01*
X859369D01*
X892048Y1253002D02*
Y1246337D01*
X890715Y1245004D01*
X888049D01*
X886716Y1246337D01*
Y1253002D01*
X884051Y1251669D02*
X882718Y1253002D01*
X880052D01*
X878719Y1251669D01*
Y1250336D01*
X880052Y1249003D01*
X881385D01*
X880052D01*
X878719Y1247670D01*
Y1246337D01*
X880052Y1245004D01*
X882718D01*
X884051Y1246337D01*
X1129165Y577500D02*
X1130498Y578833D01*
Y581499D01*
X1129165Y582832D01*
X1127832D01*
X1126499Y581499D01*
X1125166Y582832D01*
X1123833D01*
X1122500Y581499D01*
Y578833D01*
X1123833Y577500D01*
X1125166D01*
X1126499Y578833D01*
X1127832Y577500D01*
X1129165D01*
X1126499Y578833D02*
Y581499D01*
X1122500Y585498D02*
Y588163D01*
Y586830D01*
X1130498D01*
X1129165Y585498D01*
X1130498Y597494D02*
Y592162D01*
X1126499D01*
X1127832Y594828D01*
Y596161D01*
X1126499Y597494D01*
X1123833D01*
X1122500Y596161D01*
Y593495D01*
X1123833Y592162D01*
X1126499Y600159D02*
Y605491D01*
X1122500Y608157D02*
X1127832D01*
X1130498Y610823D01*
X1127832Y613489D01*
X1122500D01*
X1126499D01*
Y608157D01*
X1130498Y616154D02*
X1122500D01*
Y620153D01*
X1123833Y621486D01*
X1125166D01*
X1126499Y620153D01*
Y616154D01*
Y620153D01*
X1127832Y621486D01*
X1129165D01*
X1130498Y620153D01*
Y616154D01*
Y624152D02*
X1122500D01*
Y629483D01*
X1129165Y637481D02*
X1130498Y636148D01*
Y633482D01*
X1129165Y632149D01*
X1127832D01*
X1126499Y633482D01*
Y636148D01*
X1125166Y637481D01*
X1123833D01*
X1122500Y636148D01*
Y633482D01*
X1123833Y632149D01*
X1126499Y640147D02*
Y645478D01*
X1129165Y648144D02*
X1130498Y649477D01*
Y652143D01*
X1129165Y653476D01*
X1127832D01*
X1126499Y652143D01*
X1125166Y653476D01*
X1123833D01*
X1122500Y652143D01*
Y649477D01*
X1123833Y648144D01*
X1125166D01*
X1126499Y649477D01*
X1127832Y648144D01*
X1129165D01*
X1126499Y649477D02*
Y652143D01*
Y656142D02*
Y661473D01*
X1130498Y664139D02*
X1122500D01*
Y668138D01*
X1123833Y669471D01*
X1125166D01*
X1126499Y668138D01*
Y664139D01*
Y668138D01*
X1127832Y669471D01*
X1129165D01*
X1130498Y668138D01*
Y664139D01*
X1122500Y677468D02*
Y672136D01*
X1127832Y677468D01*
X1129165D01*
X1130498Y676135D01*
Y673469D01*
X1129165Y672136D01*
X1147500Y630498D02*
Y629165D01*
X1144834Y626499D01*
X1142168Y629165D01*
Y630498D01*
X1144834Y626499D02*
Y622500D01*
X1139503D02*
X1136837D01*
X1138170D01*
Y630498D01*
X1139503Y629165D01*
X464668Y1072500D02*
X470000D01*
X464668Y1077832D01*
Y1079165D01*
X466001Y1080498D01*
X468667D01*
X470000Y1079165D01*
X462003Y1080498D02*
X456671D01*
Y1079165D01*
X462003Y1073833D01*
Y1072500D01*
X454005Y1076499D02*
X448674D01*
X440676Y1072500D02*
X446008D01*
X440676Y1077832D01*
Y1079165D01*
X442009Y1080498D01*
X444675D01*
X446008Y1079165D01*
X438010Y1072500D02*
X435345D01*
X436677D01*
Y1080498D01*
X438010Y1079165D01*
X426014D02*
X427347Y1080498D01*
X430013D01*
X431346Y1079165D01*
Y1077832D01*
X430013Y1076499D01*
X427347D01*
X426014Y1075166D01*
Y1073833D01*
X427347Y1072500D01*
X430013D01*
X431346Y1073833D01*
X423348Y1080498D02*
Y1073833D01*
X422015Y1072500D01*
X419350D01*
X418017Y1073833D01*
Y1080498D01*
X415351Y1072500D02*
Y1080498D01*
X411352D01*
X410019Y1079165D01*
Y1076499D01*
X411352Y1075166D01*
X415351D01*
X412685D02*
X410019Y1072500D01*
X402022Y1079165D02*
X403355Y1080498D01*
X406021D01*
X407354Y1079165D01*
Y1073833D01*
X406021Y1072500D01*
X403355D01*
X402022Y1073833D01*
X399356Y1072500D02*
X394025Y1077832D01*
X386027Y1079165D02*
X387360Y1080498D01*
X390026D01*
X391359Y1079165D01*
Y1077832D01*
X390026Y1076499D01*
X387360D01*
X386027Y1075166D01*
Y1073833D01*
X387360Y1072500D01*
X390026D01*
X391359Y1073833D01*
X378030Y1080498D02*
X383361D01*
Y1076499D01*
X380695Y1077832D01*
X379363D01*
X378030Y1076499D01*
Y1073833D01*
X379363Y1072500D01*
X382028D01*
X383361Y1073833D01*
X375364Y1079165D02*
X374031Y1080498D01*
X371365D01*
X370032Y1079165D01*
Y1077832D01*
X371365Y1076499D01*
X372698D01*
X371365D01*
X370032Y1075166D01*
Y1073833D01*
X371365Y1072500D01*
X374031D01*
X375364Y1073833D01*
X367366Y1079165D02*
X366034Y1080498D01*
X363368D01*
X362035Y1079165D01*
Y1073833D01*
X363368Y1072500D01*
X366034D01*
X367366Y1073833D01*
Y1079165D01*
X359369Y1076499D02*
X354037D01*
X351372Y1072500D02*
Y1077832D01*
X348706Y1080498D01*
X346040Y1077832D01*
Y1072500D01*
Y1076499D01*
X351372D01*
X343374Y1079165D02*
X342041Y1080498D01*
X339375D01*
X338043Y1079165D01*
Y1077832D01*
X339375Y1076499D01*
X340708D01*
X339375D01*
X338043Y1075166D01*
Y1073833D01*
X339375Y1072500D01*
X342041D01*
X343374Y1073833D01*
X477500Y1095498D02*
Y1087500D01*
X473501D01*
X472168Y1088833D01*
Y1094165D01*
X473501Y1095498D01*
X477500D01*
X469503Y1088833D02*
X468170Y1087500D01*
X465504D01*
X464171Y1088833D01*
Y1094165D01*
X465504Y1095498D01*
X468170D01*
X469503Y1094165D01*
Y1092832D01*
X468170Y1091499D01*
X464171D01*
X669668Y1220000D02*
X675000D01*
X669668Y1225332D01*
Y1226665D01*
X671001Y1227998D01*
X673667D01*
X675000Y1226665D01*
X667003Y1227998D02*
X661671D01*
Y1226665D01*
X667003Y1221333D01*
Y1220000D01*
X659005Y1223999D02*
X653674D01*
X645676Y1220000D02*
X651008D01*
X645676Y1225332D01*
Y1226665D01*
X647009Y1227998D01*
X649675D01*
X651008Y1226665D01*
X643010Y1220000D02*
X640344D01*
X641677D01*
Y1227998D01*
X643010Y1226665D01*
X631014D02*
X632347Y1227998D01*
X635013D01*
X636346Y1226665D01*
Y1225332D01*
X635013Y1223999D01*
X632347D01*
X631014Y1222666D01*
Y1221333D01*
X632347Y1220000D01*
X635013D01*
X636346Y1221333D01*
X628348Y1227998D02*
Y1221333D01*
X627015Y1220000D01*
X624350D01*
X623017Y1221333D01*
Y1227998D01*
X620351Y1220000D02*
Y1227998D01*
X616352D01*
X615019Y1226665D01*
Y1223999D01*
X616352Y1222666D01*
X620351D01*
X617685D02*
X615019Y1220000D01*
X607022Y1226665D02*
X608355Y1227998D01*
X611021D01*
X612354Y1226665D01*
Y1221333D01*
X611021Y1220000D01*
X608355D01*
X607022Y1221333D01*
X604356Y1220000D02*
X599025Y1225332D01*
X591027Y1226665D02*
X592360Y1227998D01*
X595026D01*
X596359Y1226665D01*
Y1225332D01*
X595026Y1223999D01*
X592360D01*
X591027Y1222666D01*
Y1221333D01*
X592360Y1220000D01*
X595026D01*
X596359Y1221333D01*
X583030Y1227998D02*
X588361D01*
Y1223999D01*
X585695Y1225332D01*
X584363D01*
X583030Y1223999D01*
Y1221333D01*
X584363Y1220000D01*
X587028D01*
X588361Y1221333D01*
X580364Y1226665D02*
X579031Y1227998D01*
X576365D01*
X575032Y1226665D01*
Y1225332D01*
X576365Y1223999D01*
X577698D01*
X576365D01*
X575032Y1222666D01*
Y1221333D01*
X576365Y1220000D01*
X579031D01*
X580364Y1221333D01*
X572366Y1226665D02*
X571034Y1227998D01*
X568368D01*
X567035Y1226665D01*
Y1221333D01*
X568368Y1220000D01*
X571034D01*
X572366Y1221333D01*
Y1226665D01*
X564369Y1223999D02*
X559037D01*
X556372Y1220000D02*
Y1225332D01*
X553706Y1227998D01*
X551040Y1225332D01*
Y1220000D01*
Y1223999D01*
X556372D01*
X548374Y1226665D02*
X547041Y1227998D01*
X544375D01*
X543043Y1226665D01*
Y1225332D01*
X544375Y1223999D01*
X545708D01*
X544375D01*
X543043Y1222666D01*
Y1221333D01*
X544375Y1220000D01*
X547041D01*
X548374Y1221333D01*
X692500Y1240498D02*
Y1232500D01*
X688501D01*
X687168Y1233833D01*
Y1239165D01*
X688501Y1240498D01*
X692500D01*
X684503Y1232500D02*
X681837D01*
X683170D01*
Y1240498D01*
X684503Y1239165D01*
X677838D02*
X676505Y1240498D01*
X673839D01*
X672506Y1239165D01*
Y1233833D01*
X673839Y1232500D01*
X676505D01*
X677838Y1233833D01*
Y1239165D01*
X930418Y230250D02*
X935750D01*
X930418Y235582D01*
Y236915D01*
X931751Y238248D01*
X934417D01*
X935750Y236915D01*
X927753Y238248D02*
X922421D01*
Y236915D01*
X927753Y231583D01*
Y230250D01*
X919755Y234249D02*
X914424D01*
X906426Y230250D02*
X911758D01*
X906426Y235582D01*
Y236915D01*
X907759Y238248D01*
X910425D01*
X911758Y236915D01*
X903760Y230250D02*
X901095D01*
X902427D01*
Y238248D01*
X903760Y236915D01*
X891764D02*
X893097Y238248D01*
X895763D01*
X897096Y236915D01*
Y235582D01*
X895763Y234249D01*
X893097D01*
X891764Y232916D01*
Y231583D01*
X893097Y230250D01*
X895763D01*
X897096Y231583D01*
X889098Y238248D02*
Y231583D01*
X887766Y230250D01*
X885100D01*
X883767Y231583D01*
Y238248D01*
X881101Y230250D02*
Y238248D01*
X877102D01*
X875769Y236915D01*
Y234249D01*
X877102Y232916D01*
X881101D01*
X878435D02*
X875769Y230250D01*
X867772Y236915D02*
X869105Y238248D01*
X871771D01*
X873104Y236915D01*
Y231583D01*
X871771Y230250D01*
X869105D01*
X867772Y231583D01*
X865106Y230250D02*
X859774Y235582D01*
X851777Y236915D02*
X853110Y238248D01*
X855776D01*
X857109Y236915D01*
Y235582D01*
X855776Y234249D01*
X853110D01*
X851777Y232916D01*
Y231583D01*
X853110Y230250D01*
X855776D01*
X857109Y231583D01*
X843780Y238248D02*
X849111D01*
Y234249D01*
X846445Y235582D01*
X845113D01*
X843780Y234249D01*
Y231583D01*
X845113Y230250D01*
X847778D01*
X849111Y231583D01*
X841114Y236915D02*
X839781Y238248D01*
X837115D01*
X835782Y236915D01*
Y235582D01*
X837115Y234249D01*
X838448D01*
X837115D01*
X835782Y232916D01*
Y231583D01*
X837115Y230250D01*
X839781D01*
X841114Y231583D01*
X833117Y236915D02*
X831784Y238248D01*
X829118D01*
X827785Y236915D01*
Y231583D01*
X829118Y230250D01*
X831784D01*
X833117Y231583D01*
Y236915D01*
X825119Y234249D02*
X819787D01*
X817122Y230250D02*
Y235582D01*
X814456Y238248D01*
X811790Y235582D01*
Y230250D01*
Y234249D01*
X817122D01*
X809124Y236915D02*
X807791Y238248D01*
X805126D01*
X803793Y236915D01*
Y235582D01*
X805126Y234249D01*
X806458D01*
X805126D01*
X803793Y232916D01*
Y231583D01*
X805126Y230250D01*
X807791D01*
X809124Y231583D01*
X907500Y265498D02*
Y257500D01*
X903501D01*
X902168Y258833D01*
Y264165D01*
X903501Y265498D01*
X907500D01*
X899503Y264165D02*
X898170Y265498D01*
X895504D01*
X894171Y264165D01*
Y262832D01*
X895504Y261499D01*
X896837D01*
X895504D01*
X894171Y260166D01*
Y258833D01*
X895504Y257500D01*
X898170D01*
X899503Y258833D01*
X886174Y265498D02*
X891505D01*
Y261499D01*
X888839Y262832D01*
X887506D01*
X886174Y261499D01*
Y258833D01*
X887506Y257500D01*
X890172D01*
X891505Y258833D01*
X946001Y362500D02*
Y370498D01*
X950000Y366499D01*
X944668D01*
X942003Y362500D02*
Y363833D01*
X940670D01*
Y362500D01*
X942003D01*
X935338Y370498D02*
X930006D01*
Y369165D01*
X935338Y363833D01*
Y362500D01*
X927341Y367832D02*
Y363833D01*
X926008Y362500D01*
X922009D01*
Y367832D01*
X914012Y370498D02*
X919343D01*
Y366499D01*
X916677D01*
X919343D01*
Y362500D01*
X936168Y382915D02*
X937501Y384248D01*
X940167D01*
X941500Y382915D01*
Y377583D01*
X940167Y376250D01*
X937501D01*
X936168Y377583D01*
X929504Y376250D02*
Y384248D01*
X933503Y380249D01*
X928171D01*
X925505Y382915D02*
X924172Y384248D01*
X921507D01*
X920174Y382915D01*
Y377583D01*
X921507Y376250D01*
X924172D01*
X925505Y377583D01*
Y382915D01*
X839500Y358250D02*
X836834D01*
X838167D01*
Y366248D01*
X839500Y364915D01*
X832835D02*
X831503Y366248D01*
X828837D01*
X827504Y364915D01*
Y359583D01*
X828837Y358250D01*
X831503D01*
X832835Y359583D01*
Y364915D01*
X824838Y363582D02*
Y359583D01*
X823505Y358250D01*
X819507D01*
Y363582D01*
X811509Y366248D02*
X816841D01*
Y362249D01*
X814175D01*
X816841D01*
Y358250D01*
X833668Y378915D02*
X835001Y380248D01*
X837667D01*
X839000Y378915D01*
Y373583D01*
X837667Y372250D01*
X835001D01*
X833668Y373583D01*
X831003Y380248D02*
X825671D01*
Y378915D01*
X831003Y373583D01*
Y372250D01*
X817674D02*
X823005D01*
X817674Y377582D01*
Y378915D01*
X819007Y380248D01*
X821672D01*
X823005Y378915D01*
X936565Y407750D02*
Y413082D01*
X933899Y415748D01*
X931234Y413082D01*
Y407750D01*
Y411749D01*
X936565D01*
X928568Y407750D02*
Y415748D01*
X924569D01*
X923236Y414415D01*
Y411749D01*
X924569Y410416D01*
X928568D01*
X920570Y415748D02*
X915239D01*
Y414415D01*
X920570Y409083D01*
Y407750D01*
X912573Y414415D02*
X911240Y415748D01*
X908574D01*
X907241Y414415D01*
Y413082D01*
X908574Y411749D01*
X909907D01*
X908574D01*
X907241Y410416D01*
Y409083D01*
X908574Y407750D01*
X911240D01*
X912573Y409083D01*
X904576Y414415D02*
X903243Y415748D01*
X900577D01*
X899244Y414415D01*
Y413082D01*
X900577Y411749D01*
X901910D01*
X900577D01*
X899244Y410416D01*
Y409083D01*
X900577Y407750D01*
X903243D01*
X904576Y409083D01*
X896578Y407750D02*
X893912D01*
X895245D01*
Y415748D01*
X896578Y414415D01*
X889914Y411749D02*
X884582D01*
X881916Y414415D02*
X880583Y415748D01*
X877917D01*
X876585Y414415D01*
Y413082D01*
X877917Y411749D01*
X879250D01*
X877917D01*
X876585Y410416D01*
Y409083D01*
X877917Y407750D01*
X880583D01*
X881916Y409083D01*
X873919Y414415D02*
X872586Y415748D01*
X869920D01*
X868587Y414415D01*
Y413082D01*
X869920Y411749D01*
X871253D01*
X869920D01*
X868587Y410416D01*
Y409083D01*
X869920Y407750D01*
X872586D01*
X873919Y409083D01*
X865921Y415748D02*
Y407750D01*
X863255Y410416D01*
X860590Y407750D01*
Y415748D01*
X852592Y414415D02*
X853925Y415748D01*
X856591D01*
X857924Y414415D01*
Y409083D01*
X856591Y407750D01*
X853925D01*
X852592Y409083D01*
Y411749D01*
X855258D01*
X849927D02*
X844595D01*
X841929Y415748D02*
X836598D01*
Y414415D01*
X841929Y409083D01*
Y407750D01*
X896874Y402610D02*
Y395945D01*
X895541Y394612D01*
X892875D01*
X891542Y395945D01*
Y402610D01*
X883545Y394612D02*
X888877D01*
X883545Y399944D01*
Y401277D01*
X884878Y402610D01*
X887544D01*
X888877Y401277D01*
X875548Y402610D02*
X878213Y401277D01*
X880879Y398611D01*
Y395945D01*
X879546Y394612D01*
X876880D01*
X875548Y395945D01*
Y397278D01*
X876880Y398611D01*
X880879D01*
X869500Y339556D02*
X866834D01*
X868167D01*
Y347553D01*
X869500Y346221D01*
X862836D02*
X861503Y347553D01*
X858837D01*
X857504Y346221D01*
Y340889D01*
X858837Y339556D01*
X861503D01*
X862836Y340889D01*
Y346221D01*
X854838Y347553D02*
Y339556D01*
Y342222D01*
X849507Y347553D01*
X853505Y343555D01*
X849507Y339556D01*
X928000Y339500D02*
Y347497D01*
X924001D01*
X922668Y346165D01*
Y343499D01*
X924001Y342166D01*
X928000D01*
X925334D02*
X922668Y339500D01*
X920003D02*
X917337D01*
X918670D01*
Y347497D01*
X920003Y346165D01*
X913338D02*
X912005Y347497D01*
X909339D01*
X908007Y346165D01*
Y344832D01*
X909339Y343499D01*
X910672D01*
X909339D01*
X908007Y342166D01*
Y340833D01*
X909339Y339500D01*
X912005D01*
X913338Y340833D01*
X900009Y347497D02*
X902675Y346165D01*
X905341Y343499D01*
Y340833D01*
X904008Y339500D01*
X901342D01*
X900009Y340833D01*
Y342166D01*
X901342Y343499D01*
X905341D01*
X1260000Y937665D02*
X1258667Y938998D01*
X1256001D01*
X1254668Y937665D01*
Y936332D01*
X1256001Y934999D01*
X1257334D01*
X1256001D01*
X1254668Y933666D01*
Y932333D01*
X1256001Y931000D01*
X1258667D01*
X1260000Y932333D01*
X1252003Y936332D02*
X1246671Y931000D01*
X1249337Y933666D01*
X1246671Y936332D01*
X1252003Y931000D01*
X1290000Y939665D02*
X1288667Y940998D01*
X1286001D01*
X1284668Y939665D01*
Y938332D01*
X1286001Y936999D01*
X1287334D01*
X1286001D01*
X1284668Y935666D01*
Y934333D01*
X1286001Y933000D01*
X1288667D01*
X1290000Y934333D01*
X1282003Y938332D02*
X1276671Y933000D01*
X1279337Y935666D01*
X1276671Y938332D01*
X1282003Y933000D01*
X1334668Y942998D02*
X1337334Y941665D01*
X1340000Y938999D01*
Y936333D01*
X1338667Y935000D01*
X1336001D01*
X1334668Y936333D01*
Y937666D01*
X1336001Y938999D01*
X1340000D01*
X1332003Y940332D02*
X1326671Y935000D01*
X1329337Y937666D01*
X1326671Y940332D01*
X1332003Y935000D01*
X1487168Y1037500D02*
X1492500D01*
X1487168Y1042832D01*
Y1044165D01*
X1488501Y1045498D01*
X1491167D01*
X1492500Y1044165D01*
X1484503Y1042832D02*
X1479171Y1037500D01*
X1481837Y1040166D01*
X1479171Y1042832D01*
X1484503Y1037500D01*
X877168Y877500D02*
X882500D01*
X877168Y882832D01*
Y884165D01*
X878501Y885498D01*
X881167D01*
X882500Y884165D01*
X874503Y882832D02*
X869171Y877500D01*
X871837Y880166D01*
X869171Y882832D01*
X874503Y877500D01*
X874668Y902500D02*
X880000D01*
X874668Y907832D01*
Y909165D01*
X876001Y910498D01*
X878667D01*
X880000Y909165D01*
X872003Y907832D02*
X866671Y902500D01*
X869337Y905166D01*
X866671Y907832D01*
X872003Y902500D01*
X889668Y852500D02*
X895000D01*
X889668Y857832D01*
Y859165D01*
X891001Y860498D01*
X893667D01*
X895000Y859165D01*
X887003Y857832D02*
X881671Y852500D01*
X884337Y855166D01*
X881671Y857832D01*
X887003Y852500D01*
X694668Y792998D02*
X697334Y791665D01*
X700000Y788999D01*
Y786333D01*
X698667Y785000D01*
X696001D01*
X694668Y786333D01*
Y787666D01*
X696001Y788999D01*
X700000D01*
X692003Y790332D02*
X686671Y785000D01*
X689337Y787666D01*
X686671Y790332D01*
X692003Y785000D01*
X752500Y816665D02*
X751167Y817998D01*
X748501D01*
X747168Y816665D01*
Y815332D01*
X748501Y813999D01*
X749834D01*
X748501D01*
X747168Y812666D01*
Y811333D01*
X748501Y810000D01*
X751167D01*
X752500Y811333D01*
X744503Y815332D02*
X739171Y810000D01*
X741837Y812666D01*
X739171Y815332D01*
X744503Y810000D01*
X727500Y809165D02*
X726167Y810498D01*
X723501D01*
X722168Y809165D01*
Y807832D01*
X723501Y806499D01*
X724834D01*
X723501D01*
X722168Y805166D01*
Y803833D01*
X723501Y802500D01*
X726167D01*
X727500Y803833D01*
X719503Y807832D02*
X714171Y802500D01*
X716837Y805166D01*
X714171Y807832D01*
X719503Y802500D01*
X967168Y1055000D02*
X972500D01*
X967168Y1060332D01*
Y1061665D01*
X968501Y1062998D01*
X971167D01*
X972500Y1061665D01*
X964503Y1060332D02*
X959171Y1055000D01*
X961837Y1057666D01*
X959171Y1060332D01*
X964503Y1055000D01*
X760668Y1035250D02*
X766000D01*
X760668Y1040582D01*
Y1041915D01*
X762001Y1043248D01*
X764667D01*
X766000Y1041915D01*
X758003Y1040582D02*
X752671Y1035250D01*
X755337Y1037916D01*
X752671Y1040582D01*
X758003Y1035250D01*
X887168Y1175000D02*
X892500D01*
X887168Y1180332D01*
Y1181665D01*
X888501Y1182998D01*
X891167D01*
X892500Y1181665D01*
X884503Y1180332D02*
X879171Y1175000D01*
X881837Y1177666D01*
X879171Y1180332D01*
X884503Y1175000D01*
X1022168Y1167500D02*
X1027500D01*
X1022168Y1172832D01*
Y1174165D01*
X1023501Y1175498D01*
X1026167D01*
X1027500Y1174165D01*
X1019503Y1172832D02*
X1014171Y1167500D01*
X1016837Y1170166D01*
X1014171Y1172832D01*
X1019503Y1167500D01*
D50*
X1390000Y840000D02*
G03*
X1390000Y840000I-1250J0D01*
G01*
X1343500Y842750D02*
G03*
X1343500Y842750I-1250J0D01*
G01*
X1343750Y878000D02*
G03*
X1343750Y878000I-1250J0D01*
G01*
X1300000Y843250D02*
G03*
X1300000Y843250I-1250J0D01*
G01*
X1341750Y807000D02*
G03*
X1341750Y807000I-1250J0D01*
G01*
X1300500Y878500D02*
G03*
X1300500Y878500I-1250J0D01*
G01*
X1300250Y808250D02*
G03*
X1300250Y808250I-1250J0D01*
G01*
X1202750Y923500D02*
G03*
X1202750Y923500I-1250J0D01*
G01*
X1110573Y874768D02*
G03*
X1110573Y874768I-1250J0D01*
G01*
X1111250Y936000D02*
G03*
X1111250Y936000I-1250J0D01*
G01*
X1159310Y936000D02*
G03*
X1159310Y936000I-1250J0D01*
G01*
X1116750Y578500D02*
G03*
X1116750Y578500I-1250J0D01*
G01*
X842750Y507500D02*
G03*
X842750Y507500I-1250J0D01*
G01*
X972500Y811250D02*
G03*
X972500Y811250I-1250J0D01*
G01*
X1103000Y1060750D02*
G03*
X1103000Y1060750I-1250J0D01*
G01*
X934250Y876000D02*
G03*
X934250Y876000I-1250J0D01*
G01*
X840500Y873250D02*
G03*
X840500Y873250I-1250J0D01*
G01*
X909000Y913750D02*
G03*
X909000Y913750I-1250J0D01*
G01*
X815750Y912750D02*
G03*
X815750Y912750I-1250J0D01*
G01*
X612500Y880000D02*
G03*
X612500Y880000I-1250J0D01*
G01*
X701250Y918250D02*
G03*
X701250Y918250I-1250J0D01*
G01*
X701500Y878000D02*
G03*
X701500Y878000I-1250J0D01*
G01*
X700250Y840750D02*
G03*
X700250Y840750I-1250J0D01*
G01*
X660250Y916750D02*
G03*
X660250Y916750I-1250J0D01*
G01*
X660500Y877750D02*
G03*
X660500Y877750I-1250J0D01*
G01*
X660750Y839750D02*
G03*
X660750Y839750I-1250J0D01*
G01*
X845000Y1012500D02*
G03*
X845000Y1012500I-1250J0D01*
G01*
X907750Y1141250D02*
G03*
X907750Y1141250I-1250J0D01*
G01*
X907250Y1182000D02*
G03*
X907250Y1182000I-1250J0D01*
G01*
X1041500Y1175500D02*
G03*
X1041500Y1175500I-1250J0D01*
G01*
X1040750Y1136000D02*
G03*
X1040750Y1136000I-1250J0D01*
G01*
X1110750Y1141250D02*
G03*
X1110750Y1141250I-1250J0D01*
G01*
X1112500Y1185000D02*
G03*
X1112500Y1185000I-1250J0D01*
G01*
D54*
X867000Y522000D02*
G03*
X867000Y522000I-3000J0D01*
G01*
X988750Y788750D02*
G03*
X988750Y788750I-3000J0D01*
G01*
X1119250Y1038250D02*
G03*
X1119250Y1038250I-3000J0D01*
G01*
X863989Y1025251D02*
G03*
X863989Y1025251I-3000J0D01*
G01*
D89*
X923129Y1264521D02*
G03*
X923129Y1264521I-2540J0D01*
G01*
X1076378Y1229149D02*
G03*
X1076378Y1229149I-2540J0D01*
G01*
D90*
X830000Y1225000D02*
G03*
X830000Y1225000I-15000J0D01*
G01*
X1200000D02*
G03*
X1200000Y1225000I-15000J0D01*
G01*
X839515Y1256823D02*
X846667Y1211666D01*
X926946Y1224381D01*
X931169Y1230193D01*
X924811Y1270333D02*
X931169Y1230193D01*
X839515Y1256823D02*
X924811Y1270333D01*
X1068025Y1224927D02*
X1153322Y1211417D01*
X1068025Y1224927D02*
X1074383Y1265066D01*
X1080195Y1269289D01*
X1160475Y1256574D01*
X1153322Y1211417D02*
X1160475Y1256574D01*
X1263018Y327003D02*
X1350017D01*
Y225003D02*
Y327003D01*
X1263018Y225003D02*
X1350017D01*
X1263018D02*
Y327003D01*
X1267018Y225003D02*
Y327003D01*
X1452132Y1036689D02*
X1517697Y1114826D01*
X1455196Y1034118D02*
X1520760Y1112254D01*
X1454115Y1168177D02*
X1520760Y1112254D01*
X1388550Y1090040D02*
X1454115Y1168177D01*
X1388550Y1090040D02*
X1455196Y1034118D01*
X1182886Y1190800D02*
X1264640Y1161045D01*
X1182886Y1190800D02*
X1217773Y1286649D01*
X1299526Y1256893D01*
X1264640Y1161045D02*
X1299526Y1256893D01*
X1260881Y1162413D02*
X1295767Y1258261D01*
X736300Y1161387D02*
X818054Y1191142D01*
X701414Y1257235D02*
X736300Y1161387D01*
X701414Y1257235D02*
X783167Y1286991D01*
X818054Y1191142D01*
X779408Y1285623D02*
X814294Y1189774D01*
X543587Y1166248D02*
X609151Y1088112D01*
X546652Y1168820D02*
X612216Y1090683D01*
X480006Y1112897D02*
X546652Y1168820D01*
X480006Y1112897D02*
X545570Y1034760D01*
X612216Y1090683D01*
X649786Y327003D02*
X736786D01*
Y225003D02*
Y327003D01*
X649786Y225003D02*
X736786D01*
X649786D02*
Y327003D01*
X653786Y225003D02*
Y327003D01*
X1369500Y242750D02*
Y247750D01*
X1365500D02*
X1369500D01*
X1365500Y253750D02*
X1385500D01*
Y247750D02*
Y253750D01*
X1381500Y247750D02*
X1385500D01*
X1381500Y242750D02*
Y247750D01*
X1369500Y242750D02*
X1381500D01*
X1365500Y247750D02*
Y253750D01*
X1358500Y244750D02*
Y256750D01*
X891000Y244000D02*
Y249000D01*
X887000D02*
X891000D01*
X887000Y255000D02*
X907000D01*
Y249000D02*
Y255000D01*
X903000Y249000D02*
X907000D01*
X903000Y244000D02*
Y249000D01*
X891000Y244000D02*
X903000D01*
X887000Y249000D02*
Y255000D01*
X880000Y246000D02*
Y258000D01*
X608000Y246000D02*
Y258000D01*
X615000Y249000D02*
Y255000D01*
X619000Y244000D02*
X631000D01*
Y249000D01*
X635000D01*
Y255000D01*
X615000D02*
X635000D01*
X615000Y249000D02*
X619000D01*
Y244000D02*
Y249000D01*
X1521364Y1073879D02*
X1524900Y1077414D01*
X1521364Y1073879D02*
X1524193Y1071050D01*
X1505807Y1080950D02*
X1519950Y1066808D01*
X1505807Y1080950D02*
X1510050Y1085192D01*
X1512879Y1082364D01*
X1516414Y1085900D01*
X1524900Y1077414D01*
X1519950Y1066808D02*
X1524193Y1071050D01*
X1522778Y1059737D02*
X1531263Y1068222D01*
X1320122Y1208128D02*
X1325193Y1219004D01*
X1315045Y1213805D02*
X1317581Y1219243D01*
X1305193Y1230536D02*
X1316069Y1225465D01*
X1303080Y1226005D02*
X1305193Y1230536D01*
X1299455Y1227695D02*
X1303080Y1226005D01*
X1296919Y1222257D02*
X1299455Y1227695D01*
X1296919Y1222257D02*
X1315045Y1213805D01*
X1313956Y1220933D02*
X1317581Y1219243D01*
X1313956Y1220933D02*
X1316069Y1225465D01*
X483586Y1084900D02*
X487121Y1081364D01*
X489950Y1084193D01*
X480050Y1065808D02*
X494193Y1079950D01*
X475808Y1070051D02*
X480050Y1065808D01*
X475808Y1070051D02*
X478636Y1072879D01*
X475100Y1076414D02*
X478636Y1072879D01*
X475100Y1076414D02*
X483586Y1084900D01*
X489950Y1084193D02*
X494193Y1079950D01*
X492778Y1091264D02*
X501263Y1082778D01*
X703872Y1231622D02*
X708943Y1220747D01*
X698795Y1225946D02*
X701331Y1220507D01*
X682181Y1223715D02*
X693057Y1228786D01*
X682181Y1223715D02*
X684294Y1219184D01*
X680669Y1217493D02*
X684294Y1219184D01*
X680669Y1217493D02*
X683205Y1212055D01*
X701331Y1220507D01*
X695170Y1224255D02*
X698795Y1225946D01*
X693057Y1228786D02*
X695170Y1224255D01*
X804000Y1235000D02*
X826000D01*
X954500Y1278750D02*
Y1290750D01*
X947500Y1281750D02*
Y1287750D01*
X931500Y1292750D02*
X943500D01*
X931500Y1287750D02*
Y1292750D01*
X927500Y1287750D02*
X931500D01*
X927500Y1281750D02*
Y1287750D01*
Y1281750D02*
X947500D01*
X943500Y1287750D02*
X947500D01*
X943500D02*
Y1292750D01*
X1067500Y1288500D02*
Y1293500D01*
Y1288500D02*
X1071500D01*
X1051500Y1282500D02*
X1071500D01*
X1051500D02*
Y1288500D01*
X1055500D01*
Y1293500D01*
X1067500D01*
X1071500Y1282500D02*
Y1288500D01*
X1078500Y1279500D02*
Y1291500D01*
X1174000Y1235000D02*
X1196000D01*
X1040000Y1215500D02*
Y1317500D01*
X1044000Y1215500D02*
Y1317500D01*
X957000D02*
X1044000D01*
X957000Y1215500D02*
Y1317500D01*
Y1215500D02*
X1044000D01*
M02*
