G04 Layer_Color=32768*
%FSLAX44Y44*%
%MOMM*%
G71*
G01*
G75*
%ADD45C,0.1500*%
D45*
X1350250Y467000D02*
Y500750D01*
X1350000Y410750D02*
Y437500D01*
X650000Y410750D02*
Y437500D01*
X650250Y467000D02*
Y500750D01*
X1387750Y456997D02*
X1393082D01*
Y455664D01*
X1387750Y450333D01*
Y449000D01*
X1393082D01*
X1397080D02*
X1399746D01*
X1401079Y450333D01*
Y452999D01*
X1399746Y454332D01*
X1397080D01*
X1395747Y452999D01*
Y450333D01*
X1397080Y449000D01*
X1403745D02*
Y454332D01*
X1407744D01*
X1409077Y452999D01*
Y449000D01*
X1415741D02*
X1413075D01*
X1411742Y450333D01*
Y452999D01*
X1413075Y454332D01*
X1415741D01*
X1417074Y452999D01*
Y451666D01*
X1411742D01*
X1429070Y449000D02*
Y455664D01*
Y452999D01*
X1427737D01*
X1430403D01*
X1429070D01*
Y455664D01*
X1430403Y456997D01*
X1435735Y449000D02*
X1438400D01*
X1439733Y450333D01*
Y452999D01*
X1438400Y454332D01*
X1435735D01*
X1434402Y452999D01*
Y450333D01*
X1435735Y449000D01*
X1442399Y454332D02*
Y449000D01*
Y451666D01*
X1443732Y452999D01*
X1445065Y454332D01*
X1446398D01*
X1458394D02*
X1461060Y449000D01*
X1463725Y454332D01*
X1466391Y449000D02*
X1469057D01*
X1467724D01*
Y454332D01*
X1466391D01*
X1474389D02*
X1477055D01*
X1478387Y452999D01*
Y449000D01*
X1474389D01*
X1473056Y450333D01*
X1474389Y451666D01*
X1478387D01*
X1494382Y454332D02*
X1490384D01*
X1489051Y452999D01*
Y450333D01*
X1490384Y449000D01*
X1494382D01*
X1497048Y454332D02*
Y450333D01*
X1498381Y449000D01*
X1502380D01*
Y454332D01*
X1506378Y455664D02*
Y454332D01*
X1505045D01*
X1507711D01*
X1506378D01*
Y450333D01*
X1507711Y449000D01*
X407750Y462997D02*
X413082D01*
Y461665D01*
X407750Y456333D01*
Y455000D01*
X413082D01*
X417080D02*
X419746D01*
X421079Y456333D01*
Y458999D01*
X419746Y460332D01*
X417080D01*
X415747Y458999D01*
Y456333D01*
X417080Y455000D01*
X423745D02*
Y460332D01*
X427744D01*
X429076Y458999D01*
Y455000D01*
X435741D02*
X433075D01*
X431742Y456333D01*
Y458999D01*
X433075Y460332D01*
X435741D01*
X437074Y458999D01*
Y457666D01*
X431742D01*
X449070Y455000D02*
Y461665D01*
Y458999D01*
X447737D01*
X450403D01*
X449070D01*
Y461665D01*
X450403Y462997D01*
X455734Y455000D02*
X458400D01*
X459733Y456333D01*
Y458999D01*
X458400Y460332D01*
X455734D01*
X454402Y458999D01*
Y456333D01*
X455734Y455000D01*
X462399Y460332D02*
Y455000D01*
Y457666D01*
X463732Y458999D01*
X465065Y460332D01*
X466398D01*
X478394D02*
X481060Y455000D01*
X483726Y460332D01*
X486391Y455000D02*
X489057D01*
X487724D01*
Y460332D01*
X486391D01*
X494389D02*
X497055D01*
X498387Y458999D01*
Y455000D01*
X494389D01*
X493056Y456333D01*
X494389Y457666D01*
X498387D01*
X514382Y460332D02*
X510384D01*
X509051Y458999D01*
Y456333D01*
X510384Y455000D01*
X514382D01*
X517048Y460332D02*
Y456333D01*
X518381Y455000D01*
X522380D01*
Y460332D01*
X526378Y461665D02*
Y460332D01*
X525046D01*
X527711D01*
X526378D01*
Y456333D01*
X527711Y455000D01*
M02*
