M48
;Layer_Color=9474304
;FILE_FORMAT=4:4
METRIC,TZ
;TYPE=PLATED
T1F00S00C0.3000
T2F00S00C0.3300
T3F00S00C0.6000
T4F00S00C0.7000
T5F00S00C0.8000
T6F00S00C0.8001
T7F00S00C0.9000
T8F00S00C1.0000
T9F00S00C1.3000
T10F00S00C1.4000
T11F00S00C2.0000
T12F00S00C6.0000
;TYPE=NON_PLATED
T13F00S00C1.5000
%
T01
X705000Y272500
X697500Y280000
X722250Y297500
X732501Y262502
X710000Y347000
X764000Y375000
X781000Y322000
X805000Y347000
X848000Y322000
X878000Y326001
X885000Y320980
X893000Y310001
X923000Y297001
X931000Y278000
X953500Y276500
X943000Y250000
X925000Y227500
X911000Y235000
X890571Y237000
X867000Y234000
X875000Y250002
X890000Y198500
X911484Y195000
X956000Y196000
X977000Y223000
X1016598Y261154
X1019000Y270002
X1001000Y277001
X998000Y292001
X983000Y309001
X960000Y331000
X929000Y342001
X948000Y368000
X946542Y376542
X897000Y365000
X872000Y380000
X833000Y293001
X820000Y289000
X830000Y189000
X1041000Y203000
X1040793Y245500
X1029000Y253000
X1058000Y288000
X1082000Y269000
X1089422Y258800
X1098000Y229002
X1107000
X1123000Y227000
X1116036Y238350
X1132000Y265002
X1148321Y261250
X1169000Y280001
X1179000Y284000
X1158192Y307000
X1146000Y304000
X1139000Y298000
X1153000Y330001
X1137750Y351250
X1132000Y367001
X1114000Y369001
X1091000Y359001
X1103000Y339001
X1113000Y331001
X1088000Y323000
X1058000Y345001
X1047000Y336001
X1033000Y325001
X1035000Y353001
X1178607Y364000
X1182000Y343000
X1190000Y389000
X1159000
X1165000Y228002
X1145000Y208000
X1243999Y191002
X1258500Y234500
X1244000Y281000
X1254000Y301000
X1217000Y321000
X1221000Y335000
X1194000Y341000
X1195000Y351000
X1202607Y365393
X1221000Y370000
X1273001Y354001
X1317500Y299250
X1307499Y265002
X1307000Y251000
X1342500Y250000
X1337500Y272500
X1195000Y302001
X1196015Y437500
X1193000Y454000
X1213000Y449000
X1268000Y461000
X1259000Y484000
X1308500Y485500
X1313000Y517000
X1306000Y550250
X1267000Y564000
X1268000Y586000
X1276000Y596001
X1280999Y617001
X1298000Y625151
X1306000Y633151
X1304999Y646001
X1312000Y653001
X1318999Y681001
X1320250Y694000
X1300999Y703658
X1296000Y731000
X1319750Y765750
X1261000Y771001
X1228000Y765001
X1216000Y770001
X1212636Y757385
X1217000Y748000
X1201000Y737001
X1209000Y722001
X1201760Y707986
X1199510Y692735
X1218511Y696485
X1221000Y681001
X1215000Y674979
X1229999Y672001
X1254999Y670001
X1254914Y686191
X1271750Y681750
X1272013Y669734
X1266499Y699249
X1256142Y643141
X1258000Y630000
X1252000Y622001
X1228000Y635001
X1225000Y648001
X1243749Y655501
X1193509Y675234
X1192000Y617000
X1224000Y598000
X1224011Y585980
X1230261Y591980
X1253512Y577479
X1248000Y544000
X1199000Y523000
X1268000Y411000
X1351000Y706000
X1412999Y705001
X1448999
X1453000Y719000
X1461000Y727000
X1469000Y735000
X1509000Y743000
X1422000Y747000
X1379999Y756001
X1478000Y681000
X1204000Y786000
X1194000Y793000
X1165500Y793500
X1145000Y779000
X1136000Y781000
X1135000Y772000
X1142000Y763000
X1143500Y739500
X1125000Y746000
X1112000Y727000
X1159000Y728001
X1168000
X1169943Y702264
X1161000Y700001
X1170750Y687429
X1170000Y642501
X1154007Y640732
X1152757Y653233
X1160000Y625001
X1161142Y616142
X1175000Y614000
X1183500Y613479
X1178000Y592001
X1182521Y583500
X1181000Y575000
X1165000Y577500
X1156000Y571001
X1161000Y538001
X1166000Y512237
X1146000Y520001
X1152000Y497001
X1154485Y488015
X1180465
X1181000Y461000
X1181009Y446223
X1162000Y453000
X1164000Y435001
X1139257Y446223
X1138848Y465277
X1120000Y434000
X1086000Y442000
Y453000
X1102000Y486000
X1108021Y492000
X1102000Y501001
X1101486Y510000
X1103950Y524950
X1109000Y532001
X1110000Y572500
X1091000Y559000
X1068000Y547000
X1062000Y526000
X1054000Y533000
X1061003Y572729
X1058253Y584730
X1046502Y599981
X1057190Y611640
X1047750Y651392
X1035250Y648750
X1029750Y640250
X999500Y643983
X998515Y655985
X987000Y654000
X991500Y634982
X950000Y619000
X943247Y654250
X940997Y669984
X941505Y693484
X935000Y699000
X936000Y741000
X950000Y731000
X973000Y742001
X975000Y755001
X960000Y764000
X937500Y765000
X908250Y772250
X889250Y776000
X882000Y767001
X885000Y733000
X863000Y712000
Y701000
X859000Y687001
X849274Y651274
X840078Y655078
X819000Y650000
X818521Y641500
X814000Y634000
X808000Y600000
X825750Y671500
X808000Y720000
X855000Y752500
X842000Y786000
X969000Y788000
X987000Y773000
X1022000Y789000
X1041000Y774000
X1050000Y782000
X1055000Y768000
X1048000Y748000
X1041000Y741000
X1037000Y722001
X1035000Y708000
X1024703Y726634
X999000Y714736
X997490Y706000
X980000Y701000
X1056000Y716001
X1095500Y686500
X1094500Y765500
X1120000Y773000
X1123500Y781500
X1188000Y765001
X1189000Y645001
X1190000Y635001
X1146000Y603001
X1111250Y607750
X1116000Y626500
X994000Y565000
X982750Y551250
X991250Y542728
X1008000Y545000
X960000Y575750
X908000Y581000
X923000Y525000
X906000Y511001
X899000Y500000
X852000Y512000
X833000Y427000
X929000Y400001
X1106813Y400814
X1141000Y403001
X1148000Y413000
X742000Y468000
X744000Y590000
X736000Y665000
X741192Y700000
X728000
X754000Y718000
X762500Y710000
X776001Y682001
X792500Y722500
X758000Y764000
X742000Y778250
X731000Y781000
X712000Y768000
Y730000
X698000Y718000
X694000Y660000
X662000Y684000
X546000Y691000
X547000Y718000
X541000Y754000
X509000Y755000
X537000Y792000
X667000Y560000
X663000Y421000
X731000Y812000
X752000Y817000
X767000Y825000
X777239Y830742
X782000Y816000
X782607Y795393
X762250Y838000
X755488Y848493
X742001Y841000
X775001Y857000
X767001Y869000
X681000Y862000
X661250Y889000
X671001Y901000
X665501Y908000
X650001Y911000
X653000Y924000
X678750Y934000
X703000Y947000
X702500Y960000
X695250Y983000
X664000Y1008000
X683657Y1028000
X694000Y1055000
X662500Y1057500
X650000Y1060000
X645000Y1029000
X627500Y1087500
X660000Y1132500
X705000Y1101000
X730001Y1102500
X764500Y1105500
X771940Y1111940
X774000Y1128000
X772000Y1085000
X765001Y1065001
X781000Y1060000
X772388Y1003612
X743000Y995000
X722000Y1041000
X572001Y1010000
X588000Y992001
X605000Y955000
X612001Y937000
X543000Y939250
X545000Y974750
X530001Y992500
X493000Y934000
X512500Y910000
X480000Y877500
X492000Y822000
X557000Y834000
X562500Y855000
X574000Y844000
X592000Y816000
X623000Y844000
X624000Y855000
X649000Y878000
X645001Y895000
X807750Y911250
X817000Y903000
X859000Y896000
X870000Y874000
X886000Y872000
X900000Y899000
X916000Y898000
X912067Y889067
X926000Y923000
X943485Y932000
X891000Y942000
X876000Y947000
X868000Y931000
X879000Y981000
X880000Y990000
X896000Y1004000
X865000Y1019000
X845000Y1010000
X847621Y996000
X805000Y1024000
X825000Y1061000
X864000Y1064000
X872500Y1052500
X907500Y1062500
X913000Y1076000
X912000Y1090000
X937000
X936000Y1100000
X952000Y1091000
X972000Y1074000
X996000Y1083000
X1002000Y1058000
X982000Y1045000
X977000Y1020000
X949000Y1023000
X927000Y1021000
X910000Y1037000
X949000Y1048000
X939000Y1062000
X940000Y1132500
X929000Y1151000
X959000Y1156000
X968985Y1147500
X992000Y1154929
X1003250Y1152750
X1033000Y1155000
X1054000Y1168000
X1053000Y1186000
X1049348Y1116348
X992250Y1120250
X987500Y1135000
X904000Y1129000
X850000Y1130000
Y1115000
X797701Y1111109
X797000Y1082000
X817050Y1140000
X826000Y1157000
X885000Y1176000
X1012607Y1030000
X1011000Y996000
X1025000Y1000000
X1019000Y979000
X1011000Y973000
X986000Y954000
X1045000Y962000
X1067000Y948000
X1061000Y936000
X1074000Y933000
X1100000Y938500
X1108000Y956000
X1124000Y948000
X1135000Y947000
X1137000Y972000
X1121000Y977000
X1137000Y1011000
X1147000Y1013000
X1166000Y1025000
X1161750Y990250
Y938250
X1158758Y914996
X1175008Y915496
X1171000Y903000
X1165000Y871000
X1145000Y879000
X1129256Y895745
X1120756Y894745
X1109250Y889250
X1101000Y908000
X1123256Y921746
X1138257Y918996
X1139000Y851000
X1096005Y852743
X1099000Y822000
X1094000Y796000
X1116000Y806000
X1144000Y800000
X1054000Y805000
X1019000
X1008000Y806000
X994000
X1028000Y819000
X984000Y850000
X930000Y823000
X944000Y809000
X897500Y795000
X867500Y825000
X868000Y839000
X847000Y850000
X841000Y868000
X796000Y860000
X818000Y821000
X848000Y807000
X1067000Y891000
X1079000Y989000
X1080000Y1022500
X1107000Y1033000
X1108000Y1057000
X1131000Y1065000
X1147500
X1141286Y1079000
X1147000Y1104550
X1164000Y1094000
X1130000Y1129000
X1166000Y1190000
X1089000Y1071000
X1050000Y1036000
X1049000Y1011000
X1223000Y1022000
X1247000Y1026000
X1239000Y1072000
X1260000Y1071000
X1263999Y1113000
X1278000Y1113000
X1332500Y1132500
X1348000Y1026000
X1384999Y1017500
X1397499Y1027500
X1422499Y997500
X1422999Y979000
X1424999Y970000
X1430999Y950000
X1451999Y941000
X1463999Y961000
X1481001Y961001
X1512999Y962000
X1508282Y1001000
X1440999Y1006000
X1405000Y1080000
X1376000Y955000
X1354000Y914000
X1346250Y898250
X1336000Y905130
X1337000Y921000
X1326000Y925250
X1307999Y925000
X1279999Y947000
X1260000Y961000
X1233999Y946000
X1223011Y938247
X1212250Y935750
X1221000Y926000
X1215000Y919000
X1222000Y912000
X1219000Y903000
X1231000Y882485
X1233000Y872000
X1244000Y860000
X1262500Y833500
X1262000Y808000
X1321000Y801000
X1322500Y833500
X1333000Y863000
X1326000Y878000
X1354000Y881132
X1289000Y867000
X1273750Y879250
X1260000Y903000
X1197260Y919246
X1217000Y968000
X1211000Y975000
X1292000Y984000
X1217500Y1077500
X1206500Y1108437
X1195000Y1127500
X1192000Y838000
X1441000Y836000
X1449000Y819000
X1459000Y800000
X1409000Y799000
X1506000Y806000
X1518000Y819000
X1509500Y836000
X1523999Y875000
X1478500Y909500
X1087500Y1212500
X902500
X832500Y1197500
T02
X1102250Y297250
Y309250
X1114250
X1114250Y297250
T03
X1495000Y705000
Y724000
X1031750Y930000
X1019050
X1006350
X993650
X980950
X968250
T04
X814750Y1142300
X815000Y1167700
X1185000Y1167700
X1184750Y1142300
X1505000Y939400
Y914000
Y888600
T05
X867478Y1155249
X863505Y1180336
X904000Y1186750
X907973Y1161663
X1092016Y1161413
X1095989Y1186500
X1136484Y1180087
X1132511Y1154999
T06
X981950Y875300
X1007350Y875300
X1032750
X1020050Y900700
X994650
X969250
T07
X1039750Y274800
Y300200
X1007000Y331000
Y356400
X1118000Y822750
X1168000
X899250Y827000
X849250
T08
X505700Y808250
Y853250
T09
X1071750Y192000
X1128250
T10
X530600Y795700
Y865800
T11
X910100Y712888
X782888Y1019900
X1217090Y1019952
T12
X790000Y240000
X1210000
X580000Y900000
X1420000
T13
X954260Y882670
M30
