G04 Layer_Color=8421504*
%FSLAX44Y44*%
%MOMM*%
G71*
G01*
G75*
%ADD10R,0.9000X0.7000*%
%ADD16R,1.0000X1.0000*%
%ADD17R,1.3000X0.6000*%
%ADD18R,0.6000X1.3000*%
%ADD19R,1.0000X1.0000*%
%ADD20R,1.0500X0.6000*%
%ADD21P,1.4142X4X270.0*%
%ADD22P,1.4142X4X360.0*%
%ADD23O,1.7000X0.3500*%
%ADD25O,2.2000X0.6000*%
%ADD32R,0.6000X0.6000*%
%ADD33R,1.0000X0.9000*%
%ADD36R,1.3000X1.4000*%
%ADD37R,1.4000X1.9000*%
%ADD38R,0.8000X1.5000*%
%ADD39R,0.7000X0.9000*%
G04:AMPARAMS|DCode=40|XSize=0.9mm|YSize=0.7mm|CornerRadius=0mm|HoleSize=0mm|Usage=FLASHONLY|Rotation=135.000|XOffset=0mm|YOffset=0mm|HoleType=Round|Shape=Rectangle|*
%AMROTATEDRECTD40*
4,1,4,0.5657,-0.0707,0.0707,-0.5657,-0.5657,0.0707,-0.0707,0.5657,0.5657,-0.0707,0.0*
%
%ADD40ROTATEDRECTD40*%

%ADD41R,0.4500X1.3000*%
%ADD42R,1.4000X2.0000*%
%ADD43R,1.0000X2.0000*%
%ADD96O,0.9000X2.3000*%
G04:AMPARAMS|DCode=97|XSize=0.9mm|YSize=2.3mm|CornerRadius=0mm|HoleSize=0mm|Usage=FLASHONLY|Rotation=220.000|XOffset=0mm|YOffset=0mm|HoleType=Round|Shape=Round|*
%AMOVALD97*
21,1,1.4000,0.9000,0.0000,0.0000,310.0*
1,1,0.9000,-0.4500,0.5362*
1,1,0.9000,0.4500,-0.5362*
%
%ADD97OVALD97*%

G04:AMPARAMS|DCode=98|XSize=0.9mm|YSize=2.3mm|CornerRadius=0mm|HoleSize=0mm|Usage=FLASHONLY|Rotation=200.000|XOffset=0mm|YOffset=0mm|HoleType=Round|Shape=Round|*
%AMOVALD98*
21,1,1.4000,0.9000,0.0000,0.0000,290.0*
1,1,0.9000,-0.2394,0.6578*
1,1,0.9000,0.2394,-0.6578*
%
%ADD98OVALD98*%

G04:AMPARAMS|DCode=99|XSize=0.9mm|YSize=2.3mm|CornerRadius=0mm|HoleSize=0mm|Usage=FLASHONLY|Rotation=160.000|XOffset=0mm|YOffset=0mm|HoleType=Round|Shape=Round|*
%AMOVALD99*
21,1,1.4000,0.9000,0.0000,0.0000,250.0*
1,1,0.9000,0.2394,0.6578*
1,1,0.9000,-0.2394,-0.6578*
%
%ADD99OVALD99*%

G04:AMPARAMS|DCode=100|XSize=0.9mm|YSize=2.3mm|CornerRadius=0mm|HoleSize=0mm|Usage=FLASHONLY|Rotation=140.000|XOffset=0mm|YOffset=0mm|HoleType=Round|Shape=Round|*
%AMOVALD100*
21,1,1.4000,0.9000,0.0000,0.0000,230.0*
1,1,0.9000,0.4500,0.5362*
1,1,0.9000,-0.4500,-0.5362*
%
%ADD100OVALD100*%

%ADD101R,0.2600X0.4800*%
%ADD102R,0.2600X0.4500*%
%ADD103R,1.8000X1.8000*%
%ADD104O,0.2300X0.7800*%
%ADD105O,0.7800X0.2300*%
%ADD106O,0.2100X0.8500*%
%ADD107O,0.2000X1.7000*%
%ADD108O,1.7000X0.2000*%
D10*
X1157159Y570500D02*
D03*
Y585500D02*
D03*
X1321750Y595500D02*
D03*
Y580500D02*
D03*
X1370000Y846500D02*
D03*
Y861500D02*
D03*
X1147000Y413750D02*
D03*
Y398750D02*
D03*
X588000Y862750D02*
D03*
Y847750D02*
D03*
X526000Y789000D02*
D03*
Y774000D02*
D03*
X630750Y817500D02*
D03*
Y832500D02*
D03*
X772000Y460500D02*
D03*
Y445500D02*
D03*
X1387000Y798500D02*
D03*
Y783500D02*
D03*
X1357000Y799250D02*
D03*
Y784250D02*
D03*
X1357000Y827500D02*
D03*
Y812500D02*
D03*
X879750Y868000D02*
D03*
Y853000D02*
D03*
X1132000Y416500D02*
D03*
Y401500D02*
D03*
X1058000Y378500D02*
D03*
Y393500D02*
D03*
X1073000Y388250D02*
D03*
Y373250D02*
D03*
X1165000Y280500D02*
D03*
Y265500D02*
D03*
X1184000Y775750D02*
D03*
Y790750D02*
D03*
X1199000D02*
D03*
Y775750D02*
D03*
X525000Y761000D02*
D03*
Y746000D02*
D03*
X844250Y636750D02*
D03*
Y621750D02*
D03*
X718000Y595500D02*
D03*
Y610500D02*
D03*
X745250Y674250D02*
D03*
Y689250D02*
D03*
X845250Y1153500D02*
D03*
Y1138500D02*
D03*
X724750Y1007000D02*
D03*
Y992000D02*
D03*
X1008500Y793250D02*
D03*
Y778250D02*
D03*
X1500000Y912500D02*
D03*
Y927500D02*
D03*
X1263500Y392000D02*
D03*
Y407000D02*
D03*
X703750Y387250D02*
D03*
Y372250D02*
D03*
X1236000Y765500D02*
D03*
Y780500D02*
D03*
X1312000Y765500D02*
D03*
Y750500D02*
D03*
X1251000Y765500D02*
D03*
Y780500D02*
D03*
X1328000Y1039500D02*
D03*
Y1054500D02*
D03*
X1342750Y1118500D02*
D03*
Y1133500D02*
D03*
X677750Y1132000D02*
D03*
Y1117000D02*
D03*
X682500Y1065750D02*
D03*
Y1050750D02*
D03*
X1236250Y825500D02*
D03*
Y840500D02*
D03*
X1252000Y825250D02*
D03*
Y840250D02*
D03*
X1172500Y560000D02*
D03*
Y545000D02*
D03*
X1172500Y577500D02*
D03*
Y592500D02*
D03*
X979000Y1177000D02*
D03*
Y1192000D02*
D03*
X559000Y1022500D02*
D03*
Y1037500D02*
D03*
X1221750Y1156500D02*
D03*
Y1171500D02*
D03*
X715500Y1156000D02*
D03*
Y1171000D02*
D03*
X1326500Y359250D02*
D03*
Y344250D02*
D03*
X715500Y357250D02*
D03*
Y342250D02*
D03*
X767250Y748750D02*
D03*
Y763750D02*
D03*
X830000Y751750D02*
D03*
Y766750D02*
D03*
X1071000Y700750D02*
D03*
Y715750D02*
D03*
X1073000Y683000D02*
D03*
Y668000D02*
D03*
X1015750Y367500D02*
D03*
Y352500D02*
D03*
X1111750Y502750D02*
D03*
Y517750D02*
D03*
X1173000Y498500D02*
D03*
Y513500D02*
D03*
X1249000Y459500D02*
D03*
Y474500D02*
D03*
X1309750Y459250D02*
D03*
Y474250D02*
D03*
X865000Y853250D02*
D03*
Y868250D02*
D03*
X788000Y444500D02*
D03*
Y459500D02*
D03*
X803000Y460500D02*
D03*
Y475500D02*
D03*
X820000Y475000D02*
D03*
Y460000D02*
D03*
X917000Y472250D02*
D03*
Y457250D02*
D03*
X510750Y788750D02*
D03*
Y773750D02*
D03*
X1372000Y827500D02*
D03*
Y812500D02*
D03*
X1372000Y784500D02*
D03*
Y799500D02*
D03*
X1017500Y814750D02*
D03*
Y829750D02*
D03*
X715747Y657000D02*
D03*
Y642000D02*
D03*
D16*
X1031500Y250000D02*
D03*
X1012500D02*
D03*
X972000Y678000D02*
D03*
Y662000D02*
D03*
X1000000Y678000D02*
D03*
Y662000D02*
D03*
X1028000Y678000D02*
D03*
Y662000D02*
D03*
X1161500Y251000D02*
D03*
X1180500D02*
D03*
X1242000Y992000D02*
D03*
Y1008000D02*
D03*
X1000000Y1250000D02*
D03*
Y1234000D02*
D03*
X1090000Y992000D02*
D03*
Y1008000D02*
D03*
X910000Y992000D02*
D03*
Y1008000D02*
D03*
X758000Y992000D02*
D03*
Y1008000D02*
D03*
D17*
X1218000Y594500D02*
D03*
Y575500D02*
D03*
X1239000Y585000D02*
D03*
X1189500Y597500D02*
D03*
Y578500D02*
D03*
X1210500Y588000D02*
D03*
X1449750Y853250D02*
D03*
X1428750Y843750D02*
D03*
Y862750D02*
D03*
X1406000Y1047000D02*
D03*
X1385000Y1037500D02*
D03*
Y1056500D02*
D03*
X1367500Y1048000D02*
D03*
X1346500Y1038500D02*
D03*
Y1057500D02*
D03*
X1302500Y1128250D02*
D03*
X1323500Y1137750D02*
D03*
Y1118750D02*
D03*
X1260000Y1128750D02*
D03*
X1281000Y1138250D02*
D03*
Y1119250D02*
D03*
X717750Y1123500D02*
D03*
X696750Y1114000D02*
D03*
Y1133000D02*
D03*
X758750Y1123500D02*
D03*
X737750Y1114000D02*
D03*
Y1133000D02*
D03*
X643000Y1059000D02*
D03*
X664000Y1068500D02*
D03*
Y1049500D02*
D03*
X602250Y1058750D02*
D03*
X623250Y1068250D02*
D03*
Y1049250D02*
D03*
X591250Y825250D02*
D03*
X612250Y834750D02*
D03*
Y815750D02*
D03*
X549000Y825750D02*
D03*
X570000Y835250D02*
D03*
Y816250D02*
D03*
X1409500Y853000D02*
D03*
X1388500Y843500D02*
D03*
Y862500D02*
D03*
D18*
X1316000Y526000D02*
D03*
X1297000D02*
D03*
X1306500Y505000D02*
D03*
X1274500Y575500D02*
D03*
X1255500D02*
D03*
X1265000Y554500D02*
D03*
X1280500Y535500D02*
D03*
X1261500D02*
D03*
X1271000Y514500D02*
D03*
X1318000Y564000D02*
D03*
X1299000D02*
D03*
X1308500Y543000D02*
D03*
X1288500Y348500D02*
D03*
X1279000Y369500D02*
D03*
X1298000D02*
D03*
X1288500Y391500D02*
D03*
X1279000Y412500D02*
D03*
X1298000D02*
D03*
X676500Y346250D02*
D03*
X667000Y367250D02*
D03*
X686000D02*
D03*
X676500Y388250D02*
D03*
X667000Y409250D02*
D03*
X686000D02*
D03*
X781750Y620500D02*
D03*
X772250Y641500D02*
D03*
X791250D02*
D03*
X819000Y620750D02*
D03*
X809500Y641750D02*
D03*
X828500D02*
D03*
X819000Y579250D02*
D03*
X809500Y600250D02*
D03*
X828500D02*
D03*
X782000Y580000D02*
D03*
X772500Y601000D02*
D03*
X791500D02*
D03*
X744500Y578750D02*
D03*
X735000Y599750D02*
D03*
X754000D02*
D03*
X744500Y620000D02*
D03*
X735000Y641000D02*
D03*
X754000D02*
D03*
X1091000Y906500D02*
D03*
X1081500Y927500D02*
D03*
X1100500D02*
D03*
X900000Y850000D02*
D03*
X909500Y829000D02*
D03*
X890500D02*
D03*
D19*
X1008000Y758000D02*
D03*
X992000D02*
D03*
X1008000Y910000D02*
D03*
X992000D02*
D03*
X476500Y825750D02*
D03*
Y844750D02*
D03*
X1008000Y1090000D02*
D03*
X992000D02*
D03*
X1520000Y927500D02*
D03*
Y908500D02*
D03*
X1525000Y772500D02*
D03*
Y791500D02*
D03*
X493000Y849500D02*
D03*
Y868500D02*
D03*
D20*
X1156000Y513500D02*
D03*
Y494500D02*
D03*
X1129000D02*
D03*
Y504000D02*
D03*
Y513500D02*
D03*
X813250Y761500D02*
D03*
Y742500D02*
D03*
X786250D02*
D03*
Y752000D02*
D03*
Y761500D02*
D03*
X1293247Y472499D02*
D03*
Y453499D02*
D03*
X1266246D02*
D03*
Y462999D02*
D03*
Y472499D02*
D03*
D21*
X1176777Y1165463D02*
D03*
X1165463Y1176777D02*
D03*
X834657Y823093D02*
D03*
X823343Y834407D02*
D03*
D22*
X834537Y1176777D02*
D03*
X823223Y1165463D02*
D03*
X1176657Y834407D02*
D03*
X1165343Y823093D02*
D03*
D23*
X691500Y948336D02*
D03*
Y954836D02*
D03*
Y961336D02*
D03*
Y967836D02*
D03*
Y974336D02*
D03*
Y980836D02*
D03*
Y987336D02*
D03*
Y993836D02*
D03*
X634500Y948336D02*
D03*
Y954836D02*
D03*
Y961336D02*
D03*
Y967836D02*
D03*
Y974336D02*
D03*
Y980836D02*
D03*
Y987336D02*
D03*
Y993836D02*
D03*
X1308250Y987066D02*
D03*
Y980565D02*
D03*
Y974065D02*
D03*
Y967566D02*
D03*
Y961065D02*
D03*
Y954565D02*
D03*
Y948065D02*
D03*
Y941566D02*
D03*
X1365250Y987066D02*
D03*
Y980565D02*
D03*
Y974065D02*
D03*
Y967566D02*
D03*
Y961065D02*
D03*
Y954565D02*
D03*
Y948065D02*
D03*
Y941566D02*
D03*
X1273750Y820500D02*
D03*
Y814000D02*
D03*
Y807500D02*
D03*
Y801000D02*
D03*
Y794500D02*
D03*
Y788000D02*
D03*
Y781500D02*
D03*
X1330750Y820500D02*
D03*
Y814000D02*
D03*
Y807500D02*
D03*
Y801000D02*
D03*
Y794500D02*
D03*
Y788000D02*
D03*
Y781500D02*
D03*
D25*
X844000Y484300D02*
D03*
Y471600D02*
D03*
Y458900D02*
D03*
Y446200D02*
D03*
X892000Y484300D02*
D03*
Y471600D02*
D03*
Y458900D02*
D03*
Y446200D02*
D03*
D32*
X471500Y756500D02*
D03*
Y746500D02*
D03*
D33*
X1028750Y279000D02*
D03*
Y262000D02*
D03*
D36*
X917650Y384500D02*
D03*
X860650Y384000D02*
D03*
D37*
X844850Y252500D02*
D03*
X976150Y242500D02*
D03*
D38*
X932750Y281000D02*
D03*
X921750Y285000D02*
D03*
X910750Y281000D02*
D03*
X899750Y279000D02*
D03*
X888750Y281000D02*
D03*
X877750Y279000D02*
D03*
X866750Y281000D02*
D03*
X855750D02*
D03*
D39*
X1501500Y944000D02*
D03*
X1516500D02*
D03*
X1092500Y338000D02*
D03*
X1077500D02*
D03*
X1160000Y326000D02*
D03*
X1145000D02*
D03*
X1118500Y326250D02*
D03*
X1133500D02*
D03*
X519750Y849500D02*
D03*
X504750D02*
D03*
X805000Y445750D02*
D03*
X820000D02*
D03*
X860500Y430000D02*
D03*
X875500D02*
D03*
X1416500Y785000D02*
D03*
X1401500D02*
D03*
X1441000Y769500D02*
D03*
X1426000D02*
D03*
X1132750Y883750D02*
D03*
X1147750D02*
D03*
X848250Y887250D02*
D03*
X863250D02*
D03*
X1139500Y774000D02*
D03*
X1154500D02*
D03*
X812250Y660000D02*
D03*
X827250D02*
D03*
X753250Y659000D02*
D03*
X738250D02*
D03*
X775250Y659250D02*
D03*
X790250D02*
D03*
X782250Y815500D02*
D03*
X767250D02*
D03*
X1269500Y957000D02*
D03*
X1284500D02*
D03*
X1288500Y972000D02*
D03*
X1273500D02*
D03*
Y987000D02*
D03*
X1288500D02*
D03*
X1288750Y1002250D02*
D03*
X1273750D02*
D03*
X1432500Y880000D02*
D03*
X1417500D02*
D03*
X715500Y971000D02*
D03*
X730500D02*
D03*
X715500Y955000D02*
D03*
X730500D02*
D03*
X715500Y940000D02*
D03*
X730500D02*
D03*
X705000Y925000D02*
D03*
X720000D02*
D03*
X1295250Y432750D02*
D03*
X1280250D02*
D03*
X669000Y430250D02*
D03*
X684000D02*
D03*
X1358750Y765500D02*
D03*
X1373750D02*
D03*
X1234500Y795000D02*
D03*
X1249500D02*
D03*
X1342500Y765500D02*
D03*
X1327500D02*
D03*
X637750Y1033500D02*
D03*
X622750D02*
D03*
X1356500Y1073000D02*
D03*
X1341500D02*
D03*
X1283500Y1101250D02*
D03*
X1298500D02*
D03*
X736000Y1150500D02*
D03*
X751000D02*
D03*
X1236000Y810250D02*
D03*
X1251000D02*
D03*
X1279782Y608000D02*
D03*
X1264782D02*
D03*
X1272263Y592500D02*
D03*
X1257263D02*
D03*
X1306500Y583000D02*
D03*
X1291500D02*
D03*
X1136500Y355000D02*
D03*
X1151500D02*
D03*
X1281750Y637750D02*
D03*
X1296750D02*
D03*
X1281500Y623000D02*
D03*
X1296500D02*
D03*
X1276750Y704750D02*
D03*
X1291750D02*
D03*
X1276500Y720000D02*
D03*
X1291500D02*
D03*
X1378000Y1085500D02*
D03*
X1393000D02*
D03*
X635500Y933000D02*
D03*
X650500D02*
D03*
X1353750Y1005500D02*
D03*
X1368750D02*
D03*
X1155000Y789000D02*
D03*
X1170000D02*
D03*
X1242464Y677000D02*
D03*
X1227464D02*
D03*
X1155000Y605000D02*
D03*
X1140000D02*
D03*
X1242464Y692000D02*
D03*
X1227464D02*
D03*
X1154000Y759000D02*
D03*
X1139000D02*
D03*
X1062351Y314000D02*
D03*
X1077351D02*
D03*
X1428500Y785000D02*
D03*
X1443500D02*
D03*
X875500Y415000D02*
D03*
X860500D02*
D03*
X1493500Y833500D02*
D03*
X1478500D02*
D03*
X1282500Y758000D02*
D03*
X1297500D02*
D03*
X646503Y848003D02*
D03*
X631502D02*
D03*
X816250Y676503D02*
D03*
X801250D02*
D03*
X774500Y675000D02*
D03*
X759500D02*
D03*
X1292750Y598000D02*
D03*
X1307750D02*
D03*
X1251500Y610001D02*
D03*
X1236500D02*
D03*
X1393000Y828000D02*
D03*
X1408000D02*
D03*
D40*
X1105947Y875947D02*
D03*
X1116553Y886553D02*
D03*
X1096197Y887447D02*
D03*
X1106803Y898053D02*
D03*
D41*
X1087000Y296500D02*
D03*
X1093500D02*
D03*
X1100000D02*
D03*
X1106500D02*
D03*
X1113000D02*
D03*
D42*
X798000Y554000D02*
D03*
X762000D02*
D03*
Y506000D02*
D03*
X798000D02*
D03*
X1236465Y554000D02*
D03*
X1200465D02*
D03*
Y506000D02*
D03*
X1236465D02*
D03*
D43*
X780000Y554000D02*
D03*
Y506000D02*
D03*
X1218465Y554000D02*
D03*
Y506000D02*
D03*
D96*
X714287Y306003D02*
D03*
X673287D02*
D03*
X1020500Y1236500D02*
D03*
X979500D02*
D03*
X1327518Y306003D02*
D03*
X1286517D02*
D03*
D97*
X580715Y1091664D02*
D03*
X549307Y1065310D02*
D03*
D98*
X750260Y1188815D02*
D03*
X788788Y1202838D02*
D03*
D99*
X1211212Y1202838D02*
D03*
X1249739Y1188816D02*
D03*
D100*
X1450692Y1065310D02*
D03*
X1419285Y1091665D02*
D03*
D101*
X1088383Y311713D02*
D03*
D102*
X1093383D02*
D03*
X1098383D02*
D03*
Y319213D02*
D03*
X1093383D02*
D03*
X1088383D02*
D03*
D103*
X1108250Y373250D02*
D03*
D104*
X1118250Y353250D02*
D03*
X1113250D02*
D03*
X1108250D02*
D03*
X1103250D02*
D03*
X1098250D02*
D03*
Y393250D02*
D03*
X1103250D02*
D03*
X1108250D02*
D03*
X1113250D02*
D03*
X1118250D02*
D03*
D105*
X1088250Y363250D02*
D03*
Y368250D02*
D03*
Y373250D02*
D03*
Y378250D02*
D03*
Y383250D02*
D03*
X1128250D02*
D03*
Y378250D02*
D03*
Y373250D02*
D03*
Y368250D02*
D03*
Y363250D02*
D03*
D106*
X1286500Y684750D02*
D03*
X1291500D02*
D03*
X1296500D02*
D03*
X1301500D02*
D03*
X1306500D02*
D03*
Y658750D02*
D03*
X1301500D02*
D03*
X1296500D02*
D03*
X1291500D02*
D03*
X1286500D02*
D03*
D107*
X1188500Y735750D02*
D03*
X1183500Y735750D02*
D03*
X1178500D02*
D03*
X1173500D02*
D03*
X1168500D02*
D03*
X1163500D02*
D03*
X1158500D02*
D03*
X1153500D02*
D03*
X1148500D02*
D03*
X1143500D02*
D03*
X1138500D02*
D03*
X1133500Y735750D02*
D03*
X1128500D02*
D03*
X1123500Y735750D02*
D03*
X1118500D02*
D03*
X1113500D02*
D03*
Y624750D02*
D03*
X1118500D02*
D03*
X1123500D02*
D03*
X1128500D02*
D03*
X1133500D02*
D03*
X1138500D02*
D03*
X1143500D02*
D03*
X1148500D02*
D03*
X1153500D02*
D03*
X1158500D02*
D03*
X1163500D02*
D03*
X1168500D02*
D03*
X1173500D02*
D03*
X1178500D02*
D03*
X1183500D02*
D03*
X1188500D02*
D03*
D108*
X1095500Y717750D02*
D03*
Y712750D02*
D03*
Y707750D02*
D03*
Y702750D02*
D03*
Y697750D02*
D03*
Y692750D02*
D03*
Y687750D02*
D03*
Y682750D02*
D03*
Y677750D02*
D03*
Y672750D02*
D03*
Y667750D02*
D03*
Y662750D02*
D03*
Y657750D02*
D03*
Y652750D02*
D03*
Y647750D02*
D03*
Y642750D02*
D03*
X1206500D02*
D03*
Y647750D02*
D03*
Y652750D02*
D03*
Y657750D02*
D03*
Y662750D02*
D03*
Y667750D02*
D03*
Y672750D02*
D03*
Y677750D02*
D03*
Y682750D02*
D03*
Y687750D02*
D03*
Y692750D02*
D03*
Y697750D02*
D03*
Y702750D02*
D03*
Y707750D02*
D03*
Y712750D02*
D03*
Y717750D02*
D03*
M02*
