%FSLAX44Y44*%
%MOMM*%
G71*
G01*
G75*
G04 Layer_Color=16711935*
%ADD10R,0.3000X0.5200*%
%ADD11R,0.3000X0.4900*%
%ADD12R,1.0000X0.9000*%
%ADD13R,1.0000X1.0000*%
%ADD14R,1.0000X1.8500*%
%ADD15R,1.0000X1.8000*%
%ADD16R,1.3000X0.6000*%
%ADD17R,0.9000X0.7000*%
%ADD18R,0.7000X0.9000*%
%ADD19R,0.6000X1.3000*%
%ADD20R,0.3000X0.8250*%
%ADD21R,1.3000X1.4000*%
%ADD22R,1.4000X1.9000*%
%ADD23R,0.8000X1.5000*%
%ADD24R,2.8000X2.8000*%
%ADD25O,0.2500X0.8000*%
%ADD26O,0.8000X0.2500*%
%ADD27R,0.4000X1.3500*%
%ADD28R,1.5000X2.0000*%
%ADD29O,2.2000X0.6000*%
%ADD30R,1.0000X1.0000*%
%ADD31R,1.0500X0.6000*%
%ADD32R,0.5000X0.5000*%
%ADD33O,1.7000X0.3500*%
%ADD34P,1.4142X4X270.0*%
%ADD35O,1.5000X4.0000*%
%ADD36P,1.4142X4X360.0*%
G04:AMPARAMS|DCode=37|XSize=0.9mm|YSize=0.7mm|CornerRadius=0mm|HoleSize=0mm|Usage=FLASHONLY|Rotation=135.000|XOffset=0mm|YOffset=0mm|HoleType=Round|Shape=Rectangle|*
%AMROTATEDRECTD37*
4,1,4,0.5657,-0.0707,0.0707,-0.5657,-0.5657,0.0707,-0.0707,0.5657,0.5657,-0.0707,0.0*
%
%ADD37ROTATEDRECTD37*%

%ADD38R,0.6000X0.6000*%
G04:AMPARAMS|DCode=39|XSize=1.5mm|YSize=4mm|CornerRadius=0mm|HoleSize=0mm|Usage=FLASHONLY|Rotation=220.000|XOffset=0mm|YOffset=0mm|HoleType=Round|Shape=Round|*
%AMOVALD39*
21,1,2.5000,1.5000,0.0000,0.0000,310.0*
1,1,1.5000,-0.8035,0.9576*
1,1,1.5000,0.8035,-0.9576*
%
%ADD39OVALD39*%

G04:AMPARAMS|DCode=40|XSize=1.5mm|YSize=4mm|CornerRadius=0mm|HoleSize=0mm|Usage=FLASHONLY|Rotation=200.000|XOffset=0mm|YOffset=0mm|HoleType=Round|Shape=Round|*
%AMOVALD40*
21,1,2.5000,1.5000,0.0000,0.0000,290.0*
1,1,1.5000,-0.4275,1.1746*
1,1,1.5000,0.4275,-1.1746*
%
%ADD40OVALD40*%

G04:AMPARAMS|DCode=41|XSize=1.5mm|YSize=4mm|CornerRadius=0mm|HoleSize=0mm|Usage=FLASHONLY|Rotation=160.000|XOffset=0mm|YOffset=0mm|HoleType=Round|Shape=Round|*
%AMOVALD41*
21,1,2.5000,1.5000,0.0000,0.0000,250.0*
1,1,1.5000,0.4275,1.1746*
1,1,1.5000,-0.4275,-1.1746*
%
%ADD41OVALD41*%

G04:AMPARAMS|DCode=42|XSize=1.5mm|YSize=4mm|CornerRadius=0mm|HoleSize=0mm|Usage=FLASHONLY|Rotation=140.000|XOffset=0mm|YOffset=0mm|HoleType=Round|Shape=Round|*
%AMOVALD42*
21,1,2.5000,1.5000,0.0000,0.0000,230.0*
1,1,1.5000,0.8035,0.9576*
1,1,1.5000,-0.8035,-0.9576*
%
%ADD42OVALD42*%

%ADD43O,0.3000X1.8000*%
%ADD44O,1.8000X0.3000*%
%ADD45C,0.9000*%
%ADD46C,1.0000*%
%ADD47C,0.5000*%
%ADD48C,0.8000*%
%ADD49C,0.2000*%
%ADD50C,0.4000*%
%ADD51C,0.3000*%
%ADD52C,0.6000*%
%ADD53C,0.1500*%
%ADD54C,0.2500*%
%ADD55C,0.7500*%
%ADD56C,0.8500*%
%ADD57C,0.2900*%
%ADD58R,0.5000X0.2500*%
%ADD59R,1.5000X1.5000*%
%ADD60C,1.5000*%
%ADD61P,1.4849X4X90.0*%
%ADD62C,1.0500*%
%ADD63C,2.0000*%
%ADD64C,2.2000*%
%ADD65C,1.7000*%
%ADD66C,1.0000*%
%ADD67C,1.2000*%
%ADD68C,2.4000*%
%ADD69C,8.0000*%
%ADD70C,1.2700*%
%ADD71R,1.2700X1.2700*%
%ADD72C,1.1000*%
%ADD73C,1.6000*%
%ADD74C,0.7000*%
%ADD75C,0.6600*%
%ADD76P,1.4142X4X250.0*%
%ADD77R,1.8500X1.0000*%
%ADD78R,1.8000X1.0000*%
%ADD79R,0.4000X0.5100*%
%ADD80O,0.3500X1.7000*%
%ADD81P,1.4142X4X200.0*%
%ADD82R,2.0000X5.5000*%
G04:AMPARAMS|DCode=83|XSize=0.9mm|YSize=0.7mm|CornerRadius=0mm|HoleSize=0mm|Usage=FLASHONLY|Rotation=45.000|XOffset=0mm|YOffset=0mm|HoleType=Round|Shape=Rectangle|*
%AMROTATEDRECTD83*
4,1,4,-0.0707,-0.5657,-0.5657,-0.0707,0.0707,0.5657,0.5657,0.0707,-0.0707,-0.5657,0.0*
%
%ADD83ROTATEDRECTD83*%

G04:AMPARAMS|DCode=84|XSize=0.4mm|YSize=0.51mm|CornerRadius=0mm|HoleSize=0mm|Usage=FLASHONLY|Rotation=315.000|XOffset=0mm|YOffset=0mm|HoleType=Round|Shape=Rectangle|*
%AMROTATEDRECTD84*
4,1,4,-0.3217,-0.0389,0.0389,0.3217,0.3217,0.0389,-0.0389,-0.3217,-0.3217,-0.0389,0.0*
%
%ADD84ROTATEDRECTD84*%

%ADD85R,0.5100X0.4000*%
%ADD86C,0.2800*%
%ADD87O,1.2700X2.2098*%
%ADD88O,1.2700X1.2710*%
%ADD89C,0.2540*%
%ADD90C,0.1000*%
%ADD91R,0.2600X0.4800*%
%ADD92R,0.2600X0.4500*%
%ADD93R,0.2700X0.7950*%
%ADD94R,1.8000X1.8000*%
%ADD95O,0.2300X0.7800*%
%ADD96O,0.7800X0.2300*%
%ADD97O,0.2000X1.7000*%
%ADD98O,1.7000X0.2000*%
%ADD99R,0.4000X0.6200*%
%ADD100R,0.4000X0.5900*%
%ADD101R,1.1000X1.0000*%
%ADD102R,1.1000X1.1000*%
%ADD103R,1.1000X1.9500*%
%ADD104R,1.1000X1.9000*%
%ADD105R,1.4000X0.7000*%
%ADD106R,1.0000X0.8000*%
%ADD107R,0.8000X1.0000*%
%ADD108R,0.7000X1.4000*%
%ADD109R,0.6000X1.1250*%
%ADD110R,1.4000X1.5000*%
%ADD111R,1.5000X2.0000*%
%ADD112R,0.9000X1.6000*%
%ADD113R,2.9000X2.9000*%
%ADD114O,0.3500X0.9000*%
%ADD115O,0.9000X0.3500*%
%ADD116R,0.5000X1.4500*%
%ADD117R,1.6000X2.1000*%
%ADD118O,2.3000X0.7000*%
%ADD119R,1.1000X1.1000*%
%ADD120R,1.1500X0.7000*%
%ADD121O,1.8000X0.4500*%
%ADD122P,1.5556X4X270.0*%
%ADD123O,1.6000X4.1000*%
%ADD124P,1.5556X4X360.0*%
G04:AMPARAMS|DCode=125|XSize=1mm|YSize=0.8mm|CornerRadius=0mm|HoleSize=0mm|Usage=FLASHONLY|Rotation=135.000|XOffset=0mm|YOffset=0mm|HoleType=Round|Shape=Rectangle|*
%AMROTATEDRECTD125*
4,1,4,0.6364,-0.0707,0.0707,-0.6364,-0.6364,0.0707,-0.0707,0.6364,0.6364,-0.0707,0.0*
%
%ADD125ROTATEDRECTD125*%

%ADD126R,0.7000X0.7000*%
G04:AMPARAMS|DCode=127|XSize=1.6mm|YSize=4.1mm|CornerRadius=0mm|HoleSize=0mm|Usage=FLASHONLY|Rotation=220.000|XOffset=0mm|YOffset=0mm|HoleType=Round|Shape=Round|*
%AMOVALD127*
21,1,2.5000,1.6000,0.0000,0.0000,310.0*
1,1,1.6000,-0.8035,0.9576*
1,1,1.6000,0.8035,-0.9576*
%
%ADD127OVALD127*%

G04:AMPARAMS|DCode=128|XSize=1.6mm|YSize=4.1mm|CornerRadius=0mm|HoleSize=0mm|Usage=FLASHONLY|Rotation=200.000|XOffset=0mm|YOffset=0mm|HoleType=Round|Shape=Round|*
%AMOVALD128*
21,1,2.5000,1.6000,0.0000,0.0000,290.0*
1,1,1.6000,-0.4275,1.1746*
1,1,1.6000,0.4275,-1.1746*
%
%ADD128OVALD128*%

G04:AMPARAMS|DCode=129|XSize=1.6mm|YSize=4.1mm|CornerRadius=0mm|HoleSize=0mm|Usage=FLASHONLY|Rotation=160.000|XOffset=0mm|YOffset=0mm|HoleType=Round|Shape=Round|*
%AMOVALD129*
21,1,2.5000,1.6000,0.0000,0.0000,250.0*
1,1,1.6000,0.4275,1.1746*
1,1,1.6000,-0.4275,-1.1746*
%
%ADD129OVALD129*%

G04:AMPARAMS|DCode=130|XSize=1.6mm|YSize=4.1mm|CornerRadius=0mm|HoleSize=0mm|Usage=FLASHONLY|Rotation=140.000|XOffset=0mm|YOffset=0mm|HoleType=Round|Shape=Round|*
%AMOVALD130*
21,1,2.5000,1.6000,0.0000,0.0000,230.0*
1,1,1.6000,0.8035,0.9576*
1,1,1.6000,-0.8035,-0.9576*
%
%ADD130OVALD130*%

%ADD131O,0.4000X1.9000*%
%ADD132O,1.9000X0.4000*%
%ADD133R,1.6000X1.6000*%
%ADD134P,1.6263X4X90.0*%
%ADD135C,1.1500*%
%ADD136C,2.1000*%
%ADD137C,2.3000*%
%ADD138C,1.8000*%
%ADD139C,1.3000*%
%ADD140C,2.5000*%
%ADD141C,8.1000*%
%ADD142C,1.6000*%
%ADD143C,1.3700*%
%ADD144R,1.3700X1.3700*%
%ADD145P,1.5556X4X250.0*%
%ADD146R,1.9500X1.1000*%
%ADD147R,1.9000X1.1000*%
%ADD148R,0.5000X0.6100*%
%ADD149O,0.4500X1.8000*%
%ADD150P,1.5556X4X200.0*%
%ADD151R,2.1000X5.6000*%
G04:AMPARAMS|DCode=152|XSize=1mm|YSize=0.8mm|CornerRadius=0mm|HoleSize=0mm|Usage=FLASHONLY|Rotation=45.000|XOffset=0mm|YOffset=0mm|HoleType=Round|Shape=Rectangle|*
%AMROTATEDRECTD152*
4,1,4,-0.0707,-0.6364,-0.6364,-0.0707,0.0707,0.6364,0.6364,0.0707,-0.0707,-0.6364,0.0*
%
%ADD152ROTATEDRECTD152*%

G04:AMPARAMS|DCode=153|XSize=0.5mm|YSize=0.61mm|CornerRadius=0mm|HoleSize=0mm|Usage=FLASHONLY|Rotation=315.000|XOffset=0mm|YOffset=0mm|HoleType=Round|Shape=Rectangle|*
%AMROTATEDRECTD153*
4,1,4,-0.3925,-0.0389,0.0389,0.3925,0.3925,0.0389,-0.0389,-0.3925,-0.3925,-0.0389,0.0*
%
%ADD153ROTATEDRECTD153*%

%ADD154R,0.6100X0.5000*%
%ADD155O,1.3700X2.3098*%
%ADD156O,1.3700X1.3710*%
D90*
X1415911Y1123604D02*
G03*
X1427402Y1113962I5745J-4821D01*
G01*
X1472598Y1076038D02*
G03*
X1484089Y1066396I5745J-4821D01*
G01*
X1197446Y1231159D02*
G03*
X1211542Y1226029I7048J-2565D01*
G01*
X1266983Y1205850D02*
G03*
X1281079Y1200720I7048J-2565D01*
G01*
X516045Y1066280D02*
G03*
X527536Y1075922I5745J4821D01*
G01*
X572733Y1113846D02*
G03*
X584223Y1123488I5745J4821D01*
G01*
X719107Y1200346D02*
G03*
X733202Y1205476I7048J2565D01*
G01*
X788644Y1225655D02*
G03*
X802739Y1230786I7048J2565D01*
G01*
X1029500Y1259183D02*
G03*
X1044500Y1259183I7500J0D01*
G01*
X955500D02*
G03*
X970500Y1259183I7500J0D01*
G01*
X1075000Y520000D02*
G03*
X1075000Y520000I-75000J0D01*
G01*
X955500Y1259183D02*
X955506Y1297397D01*
X928046Y1295248D02*
X955506Y1297397D01*
X491097Y1095950D02*
X516045Y1066280D01*
X465000Y1070003D02*
X491097Y1095950D01*
X559330Y1153214D02*
X584223Y1123488D01*
X559330Y1153214D02*
X581711Y1169193D01*
X1415911Y1123604D02*
X1440525Y1152937D01*
X1418289Y1169193D02*
X1440704Y1153189D01*
X1484089Y1066396D02*
X1508703Y1095729D01*
X1508913Y1095941D02*
X1535000Y1070003D01*
X1427402Y1113962D02*
X1472598Y1076038D01*
X1281079Y1200720D02*
X1294533Y1237684D01*
X1197446Y1231159D02*
X1210900Y1268123D01*
X1211542Y1226029D02*
X1266983Y1205850D01*
X527536Y1075922D02*
X572733Y1113846D01*
X789163Y1268085D02*
X802739Y1230786D01*
X705511Y1237699D02*
X719107Y1200346D01*
X733202Y1205476D02*
X788644Y1225655D01*
X970500Y1259183D02*
X1029500D01*
X600000Y240000D02*
Y300000D01*
X649000Y240000D02*
Y284003D01*
X600000Y240000D02*
X649000D01*
X1351000D02*
X1400000D01*
X1351000D02*
Y284003D01*
X1400000Y240000D02*
Y300000D01*
X1262000Y284003D02*
X1351000D01*
X1217500Y240000D02*
X1262000Y240003D01*
X738000D02*
X782500Y240000D01*
X1202500Y262500D02*
X1217500D01*
X1202500Y240000D02*
Y262500D01*
X1217500Y240000D02*
Y262500D01*
X782500D02*
X797500D01*
X782500Y240000D02*
Y262500D01*
X1044494Y1297397D02*
X1044500Y1259183D01*
X899698Y1291926D02*
X928046Y1295248D01*
X815720Y1275442D02*
X843493Y1282015D01*
X789168Y1268066D02*
X815720Y1275442D01*
X680489Y1226222D02*
X705544Y1237627D01*
X654988Y1213405D02*
X680489Y1226222D01*
X581711Y1169193D02*
X605562Y1184869D01*
X649000Y284003D02*
X738000D01*
Y240003D02*
Y284003D01*
X1262000Y240003D02*
Y284003D01*
X1350000Y739320D02*
X1535000D01*
Y1070003D01*
X1394438Y1184869D02*
X1418289Y1169193D01*
X1319511Y1226222D02*
X1345012Y1213405D01*
X1294498Y1237608D02*
X1319511Y1226222D01*
X1184281Y1275442D02*
X1210880Y1268053D01*
X1156507Y1282015D02*
X1184281Y1275442D01*
X1071954Y1295248D02*
X1100302Y1291926D01*
X1044494Y1297397D02*
X1071954Y1295248D01*
X465000Y770000D02*
X495000Y769999D01*
Y780000D01*
X465000D02*
X495000D01*
X465000D02*
Y1070003D01*
X500000Y739320D02*
Y760000D01*
X490000Y739320D02*
Y760000D01*
X500000D01*
X465000Y739320D02*
Y770000D01*
Y739320D02*
X490000D01*
X500000D02*
X650000D01*
X940000Y240000D02*
X950000Y230000D01*
X985000D01*
X995000Y240000D01*
X797500D02*
Y262500D01*
Y240000D02*
X940000D01*
X995000D02*
X1202500D01*
X623094Y1195627D02*
X634344Y1176141D01*
X636084Y1203126D02*
X647334Y1183641D01*
X634344Y1176141D02*
X647334Y1183641D01*
X636084Y1203126D02*
X654988Y1213405D01*
X605562Y1184869D02*
X623094Y1195627D01*
X867990Y1264046D02*
X882762Y1266651D01*
X878855Y1288809D02*
X882762Y1266651D01*
X864083Y1286205D02*
X867990Y1264046D01*
X1117174Y1266662D02*
X1131946Y1264058D01*
X1135853Y1286216D01*
X1117174Y1266662D02*
X1121081Y1288821D01*
X1352262Y1183874D02*
X1365252Y1176374D01*
X1376502Y1195859D01*
X1352262Y1183874D02*
X1363512Y1203360D01*
X1345012Y1213405D02*
X1363512Y1203360D01*
X1376502Y1195859D02*
X1394438Y1184869D01*
X1100302Y1291926D02*
X1121081Y1288821D01*
X1135853Y1286216D02*
X1156507Y1282015D01*
X843493D02*
X864083Y1286205D01*
X878855Y1288809D02*
X899698Y1291926D01*
X1350000Y310000D02*
Y739320D01*
Y310000D02*
X1360000Y300000D01*
X1400000D01*
X650000Y310000D02*
Y739320D01*
X640000Y300000D02*
X650000Y310000D01*
X600000Y300000D02*
X640000D01*
M02*
